<?xml version="1.0" encoding="utf-8"?>
<svg xmlns="http://www.w3.org/2000/svg" xmlns:xlink="http://www.w3.org/1999/xlink" width="1000" height="100" viewBox="0 0 4000 400">
<defs>
  <clipPath id="clip310">
    <rect x="0" y="0" width="4000" height="400"/>
  </clipPath>
</defs>
<path clip-path="url(#clip310)" d="
M0 400 L4000 400 L4000 0 L0 0  Z
  " fill="#ffffff" fill-rule="evenodd" fill-opacity="1"/>
<defs>
  <clipPath id="clip311">
    <rect x="800" y="0" width="2801" height="400"/>
  </clipPath>
</defs>
<path clip-path="url(#clip310)" d="
M163.756 327.824 L3952.76 327.824 L3952.76 47.2441 L163.756 47.2441  Z
  " fill="#ffffff" fill-rule="evenodd" fill-opacity="1"/>
<defs>
  <clipPath id="clip312">
    <rect x="163" y="47" width="3790" height="282"/>
  </clipPath>
</defs>
<circle clip-path="url(#clip312)" cx="270.992" cy="187.534" r="21" fill="#add8e6" fill-rule="evenodd" fill-opacity="1" stroke="#000000" stroke-opacity="1" stroke-width="0.8"/>
<path clip-path="url(#clip312)" d="M322.796 163.534 L317.156 179.758 L299.972 180.118 L313.676 190.51 L308.684 206.95 L322.796 197.134 L336.908 206.95 L331.916 190.51 L345.62 180.118 L328.436 179.758 L322.796 163.534 Z" fill="#ffa500" fill-rule="evenodd" fill-opacity="1" stroke="#000000" stroke-opacity="1" stroke-width="0.8"/>
<circle clip-path="url(#clip312)" cx="374.601" cy="187.534" r="21" fill="#ffa500" fill-rule="evenodd" fill-opacity="1" stroke="#000000" stroke-opacity="1" stroke-width="0.8"/>
<path clip-path="url(#clip312)" d="M426.406 163.534 L420.766 179.758 L403.582 180.118 L417.286 190.51 L412.294 206.95 L426.406 197.134 L440.518 206.95 L435.526 190.51 L449.23 180.118 L432.046 179.758 L426.406 163.534 Z" fill="#ffa500" fill-rule="evenodd" fill-opacity="1" stroke="#000000" stroke-opacity="1" stroke-width="0.8"/>
<circle clip-path="url(#clip312)" cx="478.211" cy="187.534" r="21" fill="#add8e6" fill-rule="evenodd" fill-opacity="1" stroke="#000000" stroke-opacity="1" stroke-width="0.8"/>
<path clip-path="url(#clip312)" d="M530.015 163.534 L524.375 179.758 L507.191 180.118 L520.895 190.51 L515.903 206.95 L530.015 197.134 L544.127 206.95 L539.135 190.51 L552.839 180.118 L535.655 179.758 L530.015 163.534 Z" fill="#ffa500" fill-rule="evenodd" fill-opacity="1" stroke="#000000" stroke-opacity="1" stroke-width="0.8"/>
<path clip-path="url(#clip312)" d="M581.82 163.534 L576.18 179.758 L558.996 180.118 L572.7 190.51 L567.708 206.95 L581.82 197.134 L595.932 206.95 L590.94 190.51 L604.644 180.118 L587.46 179.758 L581.82 163.534 Z" fill="#ffa500" fill-rule="evenodd" fill-opacity="1" stroke="#000000" stroke-opacity="1" stroke-width="0.8"/>
<circle clip-path="url(#clip312)" cx="633.625" cy="187.534" r="21" fill="#add8e6" fill-rule="evenodd" fill-opacity="1" stroke="#000000" stroke-opacity="1" stroke-width="0.8"/>
<circle clip-path="url(#clip312)" cx="685.43" cy="187.534" r="21" fill="#add8e6" fill-rule="evenodd" fill-opacity="1" stroke="#000000" stroke-opacity="1" stroke-width="0.8"/>
<circle clip-path="url(#clip312)" cx="737.234" cy="187.534" r="21" fill="#add8e6" fill-rule="evenodd" fill-opacity="1" stroke="#000000" stroke-opacity="1" stroke-width="0.8"/>
<circle clip-path="url(#clip312)" cx="789.039" cy="187.534" r="21" fill="#add8e6" fill-rule="evenodd" fill-opacity="1" stroke="#000000" stroke-opacity="1" stroke-width="0.8"/>
<path clip-path="url(#clip312)" d="M840.844 163.534 L835.204 179.758 L818.02 180.118 L831.724 190.51 L826.732 206.95 L840.844 197.134 L854.956 206.95 L849.964 190.51 L863.668 180.118 L846.484 179.758 L840.844 163.534 Z" fill="#ffa500" fill-rule="evenodd" fill-opacity="1" stroke="#000000" stroke-opacity="1" stroke-width="0.8"/>
<circle clip-path="url(#clip312)" cx="892.649" cy="187.534" r="21" fill="#add8e6" fill-rule="evenodd" fill-opacity="1" stroke="#000000" stroke-opacity="1" stroke-width="0.8"/>
<path clip-path="url(#clip312)" d="M944.453 163.534 L938.813 179.758 L921.629 180.118 L935.333 190.51 L930.341 206.95 L944.453 197.134 L958.565 206.95 L953.573 190.51 L967.277 180.118 L950.093 179.758 L944.453 163.534 Z" fill="#ffa500" fill-rule="evenodd" fill-opacity="1" stroke="#000000" stroke-opacity="1" stroke-width="0.8"/>
<circle clip-path="url(#clip312)" cx="996.258" cy="187.534" r="21" fill="#add8e6" fill-rule="evenodd" fill-opacity="1" stroke="#000000" stroke-opacity="1" stroke-width="0.8"/>
<circle clip-path="url(#clip312)" cx="1048.06" cy="187.534" r="21" fill="#add8e6" fill-rule="evenodd" fill-opacity="1" stroke="#000000" stroke-opacity="1" stroke-width="0.8"/>
<circle clip-path="url(#clip312)" cx="1099.87" cy="187.534" r="21" fill="#add8e6" fill-rule="evenodd" fill-opacity="1" stroke="#000000" stroke-opacity="1" stroke-width="0.8"/>
<path clip-path="url(#clip312)" d="M1151.67 163.534 L1146.03 179.758 L1128.85 180.118 L1142.55 190.51 L1137.56 206.95 L1151.67 197.134 L1165.78 206.95 L1160.79 190.51 L1174.5 180.118 L1157.31 179.758 L1151.67 163.534 Z" fill="#ffa500" fill-rule="evenodd" fill-opacity="1" stroke="#000000" stroke-opacity="1" stroke-width="0.8"/>
<circle clip-path="url(#clip312)" cx="1203.48" cy="187.534" r="21" fill="#add8e6" fill-rule="evenodd" fill-opacity="1" stroke="#000000" stroke-opacity="1" stroke-width="0.8"/>
<path clip-path="url(#clip312)" d="M1255.28 163.534 L1249.64 179.758 L1232.46 180.118 L1246.16 190.51 L1241.17 206.95 L1255.28 197.134 L1269.39 206.95 L1264.4 190.51 L1278.11 180.118 L1260.92 179.758 L1255.28 163.534 Z" fill="#ffa500" fill-rule="evenodd" fill-opacity="1" stroke="#000000" stroke-opacity="1" stroke-width="0.8"/>
<circle clip-path="url(#clip312)" cx="1307.09" cy="187.534" r="21" fill="#add8e6" fill-rule="evenodd" fill-opacity="1" stroke="#000000" stroke-opacity="1" stroke-width="0.8"/>
<path clip-path="url(#clip312)" d="M1358.89 163.534 L1353.25 179.758 L1336.07 180.118 L1349.77 190.51 L1344.78 206.95 L1358.89 197.134 L1373 206.95 L1368.01 190.51 L1381.72 180.118 L1364.53 179.758 L1358.89 163.534 Z" fill="#add8e6" fill-rule="evenodd" fill-opacity="1" stroke="#000000" stroke-opacity="1" stroke-width="0.8"/>
<path clip-path="url(#clip312)" d="M1410.7 163.534 L1405.06 179.758 L1387.87 180.118 L1401.58 190.51 L1396.58 206.95 L1410.7 197.134 L1424.81 206.95 L1419.82 190.51 L1433.52 180.118 L1416.34 179.758 L1410.7 163.534 Z" fill="#add8e6" fill-rule="evenodd" fill-opacity="1" stroke="#000000" stroke-opacity="1" stroke-width="0.8"/>
<circle clip-path="url(#clip312)" cx="1462.5" cy="187.534" r="21" fill="#ffa500" fill-rule="evenodd" fill-opacity="1" stroke="#000000" stroke-opacity="1" stroke-width="0.8"/>
<circle clip-path="url(#clip312)" cx="1514.31" cy="187.534" r="21" fill="#ffa500" fill-rule="evenodd" fill-opacity="1" stroke="#000000" stroke-opacity="1" stroke-width="0.8"/>
<path clip-path="url(#clip312)" d="M1566.11 163.534 L1560.47 179.758 L1543.29 180.118 L1556.99 190.51 L1552 206.95 L1566.11 197.134 L1580.22 206.95 L1575.23 190.51 L1588.93 180.118 L1571.75 179.758 L1566.11 163.534 Z" fill="#add8e6" fill-rule="evenodd" fill-opacity="1" stroke="#000000" stroke-opacity="1" stroke-width="0.8"/>
<path clip-path="url(#clip312)" d="M1617.92 163.534 L1612.28 179.758 L1595.09 180.118 L1608.8 190.51 L1603.8 206.95 L1617.92 197.134 L1632.03 206.95 L1627.04 190.51 L1640.74 180.118 L1623.56 179.758 L1617.92 163.534 Z" fill="#add8e6" fill-rule="evenodd" fill-opacity="1" stroke="#000000" stroke-opacity="1" stroke-width="0.8"/>
<circle clip-path="url(#clip312)" cx="1669.72" cy="187.534" r="21" fill="#ffa500" fill-rule="evenodd" fill-opacity="1" stroke="#000000" stroke-opacity="1" stroke-width="0.8"/>
<path clip-path="url(#clip312)" d="M1721.52 163.534 L1715.88 179.758 L1698.7 180.118 L1712.4 190.51 L1707.41 206.95 L1721.52 197.134 L1735.64 206.95 L1730.64 190.51 L1744.35 180.118 L1727.16 179.758 L1721.52 163.534 Z" fill="#add8e6" fill-rule="evenodd" fill-opacity="1" stroke="#000000" stroke-opacity="1" stroke-width="0.8"/>
<path clip-path="url(#clip312)" d="M1773.33 163.534 L1767.69 179.758 L1750.51 180.118 L1764.21 190.51 L1759.22 206.95 L1773.33 197.134 L1787.44 206.95 L1782.45 190.51 L1796.15 180.118 L1778.97 179.758 L1773.33 163.534 Z" fill="#add8e6" fill-rule="evenodd" fill-opacity="1" stroke="#000000" stroke-opacity="1" stroke-width="0.8"/>
<circle clip-path="url(#clip312)" cx="1825.13" cy="187.534" r="21" fill="#ffa500" fill-rule="evenodd" fill-opacity="1" stroke="#000000" stroke-opacity="1" stroke-width="0.8"/>
<path clip-path="url(#clip312)" d="M1876.94 163.534 L1871.3 179.758 L1854.12 180.118 L1867.82 190.51 L1862.83 206.95 L1876.94 197.134 L1891.05 206.95 L1886.06 190.51 L1899.76 180.118 L1882.58 179.758 L1876.94 163.534 Z" fill="#add8e6" fill-rule="evenodd" fill-opacity="1" stroke="#000000" stroke-opacity="1" stroke-width="0.8"/>
<path clip-path="url(#clip312)" d="M1928.74 163.534 L1923.1 179.758 L1905.92 180.118 L1919.62 190.51 L1914.63 206.95 L1928.74 197.134 L1942.86 206.95 L1937.86 190.51 L1951.57 180.118 L1934.38 179.758 L1928.74 163.534 Z" fill="#add8e6" fill-rule="evenodd" fill-opacity="1" stroke="#000000" stroke-opacity="1" stroke-width="0.8"/>
<path clip-path="url(#clip312)" d="M1980.55 163.534 L1974.91 179.758 L1957.72 180.118 L1971.43 190.51 L1966.44 206.95 L1980.55 197.134 L1994.66 206.95 L1989.67 190.51 L2003.37 180.118 L1986.19 179.758 L1980.55 163.534 Z" fill="#add8e6" fill-rule="evenodd" fill-opacity="1" stroke="#000000" stroke-opacity="1" stroke-width="0.8"/>
<circle clip-path="url(#clip312)" cx="2032.35" cy="187.534" r="21" fill="#ffa500" fill-rule="evenodd" fill-opacity="1" stroke="#000000" stroke-opacity="1" stroke-width="0.8"/>
<path clip-path="url(#clip312)" d="M2084.16 163.534 L2078.52 179.758 L2061.33 180.118 L2075.04 190.51 L2070.05 206.95 L2084.16 197.134 L2098.27 206.95 L2093.28 190.51 L2106.98 180.118 L2089.8 179.758 L2084.16 163.534 Z" fill="#add8e6" fill-rule="evenodd" fill-opacity="1" stroke="#000000" stroke-opacity="1" stroke-width="0.8"/>
<path clip-path="url(#clip312)" d="M2135.96 163.534 L2130.32 179.758 L2113.14 180.118 L2126.84 190.51 L2121.85 206.95 L2135.96 197.134 L2150.07 206.95 L2145.08 190.51 L2158.79 180.118 L2141.6 179.758 L2135.96 163.534 Z" fill="#add8e6" fill-rule="evenodd" fill-opacity="1" stroke="#000000" stroke-opacity="1" stroke-width="0.8"/>
<path clip-path="url(#clip312)" d="M2187.77 163.534 L2182.13 179.758 L2164.94 180.118 L2178.65 190.51 L2173.66 206.95 L2187.77 197.134 L2201.88 206.95 L2196.89 190.51 L2210.59 180.118 L2193.41 179.758 L2187.77 163.534 Z" fill="#add8e6" fill-rule="evenodd" fill-opacity="1" stroke="#000000" stroke-opacity="1" stroke-width="0.8"/>
<path clip-path="url(#clip312)" d="M2239.57 163.534 L2233.93 179.758 L2216.75 180.118 L2230.45 190.51 L2225.46 206.95 L2239.57 197.134 L2253.68 206.95 L2248.69 190.51 L2262.4 180.118 L2245.21 179.758 L2239.57 163.534 Z" fill="#add8e6" fill-rule="evenodd" fill-opacity="1" stroke="#000000" stroke-opacity="1" stroke-width="0.8"/>
<path clip-path="url(#clip312)" d="M2291.38 163.534 L2285.74 179.758 L2268.55 180.118 L2282.26 190.51 L2277.27 206.95 L2291.38 197.134 L2305.49 206.95 L2300.5 190.51 L2314.2 180.118 L2297.02 179.758 L2291.38 163.534 Z" fill="#add8e6" fill-rule="evenodd" fill-opacity="1" stroke="#000000" stroke-opacity="1" stroke-width="0.8"/>
<path clip-path="url(#clip312)" d="M2343.18 163.534 L2337.54 179.758 L2320.36 180.118 L2334.06 190.51 L2329.07 206.95 L2343.18 197.134 L2357.29 206.95 L2352.3 190.51 L2366.01 180.118 L2348.82 179.758 L2343.18 163.534 Z" fill="#add8e6" fill-rule="evenodd" fill-opacity="1" stroke="#000000" stroke-opacity="1" stroke-width="0.8"/>
<circle clip-path="url(#clip312)" cx="2394.99" cy="187.534" r="21" fill="#add8e6" fill-rule="evenodd" fill-opacity="1" stroke="#000000" stroke-opacity="1" stroke-width="0.8"/>
<circle clip-path="url(#clip312)" cx="2446.79" cy="187.534" r="21" fill="#add8e6" fill-rule="evenodd" fill-opacity="1" stroke="#000000" stroke-opacity="1" stroke-width="0.8"/>
<circle clip-path="url(#clip312)" cx="2498.6" cy="187.534" r="21" fill="#add8e6" fill-rule="evenodd" fill-opacity="1" stroke="#000000" stroke-opacity="1" stroke-width="0.8"/>
<circle clip-path="url(#clip312)" cx="2550.4" cy="187.534" r="21" fill="#add8e6" fill-rule="evenodd" fill-opacity="1" stroke="#000000" stroke-opacity="1" stroke-width="0.8"/>
<circle clip-path="url(#clip312)" cx="2602.21" cy="187.534" r="21" fill="#add8e6" fill-rule="evenodd" fill-opacity="1" stroke="#000000" stroke-opacity="1" stroke-width="0.8"/>
<path clip-path="url(#clip312)" d="M2654.01 163.534 L2648.37 179.758 L2631.19 180.118 L2644.89 190.51 L2639.9 206.95 L2654.01 197.134 L2668.12 206.95 L2663.13 190.51 L2676.83 180.118 L2659.65 179.758 L2654.01 163.534 Z" fill="#ffa500" fill-rule="evenodd" fill-opacity="1" stroke="#000000" stroke-opacity="1" stroke-width="0.8"/>
<circle clip-path="url(#clip312)" cx="2705.82" cy="187.534" r="21" fill="#add8e6" fill-rule="evenodd" fill-opacity="1" stroke="#000000" stroke-opacity="1" stroke-width="0.8"/>
<circle clip-path="url(#clip312)" cx="2757.62" cy="187.534" r="21" fill="#add8e6" fill-rule="evenodd" fill-opacity="1" stroke="#000000" stroke-opacity="1" stroke-width="0.8"/>
<path clip-path="url(#clip312)" d="M2809.42 163.534 L2803.78 179.758 L2786.6 180.118 L2800.3 190.51 L2795.31 206.95 L2809.42 197.134 L2823.54 206.95 L2818.54 190.51 L2832.25 180.118 L2815.06 179.758 L2809.42 163.534 Z" fill="#add8e6" fill-rule="evenodd" fill-opacity="1" stroke="#000000" stroke-opacity="1" stroke-width="0.8"/>
<path clip-path="url(#clip312)" d="M2861.23 163.534 L2855.59 179.758 L2838.41 180.118 L2852.11 190.51 L2847.12 206.95 L2861.23 197.134 L2875.34 206.95 L2870.35 190.51 L2884.05 180.118 L2866.87 179.758 L2861.23 163.534 Z" fill="#add8e6" fill-rule="evenodd" fill-opacity="1" stroke="#000000" stroke-opacity="1" stroke-width="0.8"/>
<path clip-path="url(#clip312)" d="M2913.03 163.534 L2907.39 179.758 L2890.21 180.118 L2903.91 190.51 L2898.92 206.95 L2913.03 197.134 L2927.15 206.95 L2922.15 190.51 L2935.86 180.118 L2918.67 179.758 L2913.03 163.534 Z" fill="#add8e6" fill-rule="evenodd" fill-opacity="1" stroke="#000000" stroke-opacity="1" stroke-width="0.8"/>
<circle clip-path="url(#clip312)" cx="2964.84" cy="187.534" r="21" fill="#ffa500" fill-rule="evenodd" fill-opacity="1" stroke="#000000" stroke-opacity="1" stroke-width="0.8"/>
<path clip-path="url(#clip312)" d="M3016.64 163.534 L3011 179.758 L2993.82 180.118 L3007.52 190.51 L3002.53 206.95 L3016.64 197.134 L3030.76 206.95 L3025.76 190.51 L3039.47 180.118 L3022.28 179.758 L3016.64 163.534 Z" fill="#add8e6" fill-rule="evenodd" fill-opacity="1" stroke="#000000" stroke-opacity="1" stroke-width="0.8"/>
<path clip-path="url(#clip312)" d="M3068.45 163.534 L3062.81 179.758 L3045.62 180.118 L3059.33 190.51 L3054.34 206.95 L3068.45 197.134 L3082.56 206.95 L3077.57 190.51 L3091.27 180.118 L3074.09 179.758 L3068.45 163.534 Z" fill="#add8e6" fill-rule="evenodd" fill-opacity="1" stroke="#000000" stroke-opacity="1" stroke-width="0.8"/>
<path clip-path="url(#clip312)" d="M3120.25 163.534 L3114.61 179.758 L3097.43 180.118 L3111.13 190.51 L3106.14 206.95 L3120.25 197.134 L3134.37 206.95 L3129.37 190.51 L3143.08 180.118 L3125.89 179.758 L3120.25 163.534 Z" fill="#add8e6" fill-rule="evenodd" fill-opacity="1" stroke="#000000" stroke-opacity="1" stroke-width="0.8"/>
<circle clip-path="url(#clip312)" cx="3172.06" cy="187.534" r="21" fill="#add8e6" fill-rule="evenodd" fill-opacity="1" stroke="#000000" stroke-opacity="1" stroke-width="0.8"/>
<circle clip-path="url(#clip312)" cx="3223.86" cy="187.534" r="21" fill="#ffa500" fill-rule="evenodd" fill-opacity="1" stroke="#000000" stroke-opacity="1" stroke-width="0.8"/>
<circle clip-path="url(#clip312)" cx="3275.67" cy="187.534" r="21" fill="#ffa500" fill-rule="evenodd" fill-opacity="1" stroke="#000000" stroke-opacity="1" stroke-width="0.8"/>
<path clip-path="url(#clip312)" d="M3327.47 163.534 L3321.83 179.758 L3304.65 180.118 L3318.35 190.51 L3313.36 206.95 L3327.47 197.134 L3341.58 206.95 L3336.59 190.51 L3350.3 180.118 L3333.11 179.758 L3327.47 163.534 Z" fill="#ffa500" fill-rule="evenodd" fill-opacity="1" stroke="#000000" stroke-opacity="1" stroke-width="0.8"/>
<circle clip-path="url(#clip312)" cx="3379.28" cy="187.534" r="21" fill="#add8e6" fill-rule="evenodd" fill-opacity="1" stroke="#000000" stroke-opacity="1" stroke-width="0.8"/>
<path clip-path="url(#clip312)" d="M3431.08 163.534 L3425.44 179.758 L3408.26 180.118 L3421.96 190.51 L3416.97 206.95 L3431.08 197.134 L3445.19 206.95 L3440.2 190.51 L3453.91 180.118 L3436.72 179.758 L3431.08 163.534 Z" fill="#ffa500" fill-rule="evenodd" fill-opacity="1" stroke="#000000" stroke-opacity="1" stroke-width="0.8"/>
<path clip-path="url(#clip312)" d="M3482.89 163.534 L3477.25 179.758 L3460.06 180.118 L3473.77 190.51 L3468.77 206.95 L3482.89 197.134 L3497 206.95 L3492.01 190.51 L3505.71 180.118 L3488.53 179.758 L3482.89 163.534 Z" fill="#ffa500" fill-rule="evenodd" fill-opacity="1" stroke="#000000" stroke-opacity="1" stroke-width="0.8"/>
<circle clip-path="url(#clip312)" cx="3534.69" cy="187.534" r="21" fill="#add8e6" fill-rule="evenodd" fill-opacity="1" stroke="#000000" stroke-opacity="1" stroke-width="0.8"/>
<circle clip-path="url(#clip312)" cx="3586.5" cy="187.534" r="21" fill="#add8e6" fill-rule="evenodd" fill-opacity="1" stroke="#000000" stroke-opacity="1" stroke-width="0.8"/>
<circle clip-path="url(#clip312)" cx="3638.3" cy="187.534" r="21" fill="#add8e6" fill-rule="evenodd" fill-opacity="1" stroke="#000000" stroke-opacity="1" stroke-width="0.8"/>
<circle clip-path="url(#clip312)" cx="3690.11" cy="187.534" r="21" fill="#add8e6" fill-rule="evenodd" fill-opacity="1" stroke="#000000" stroke-opacity="1" stroke-width="0.8"/>
<path clip-path="url(#clip312)" d="M3741.91 163.534 L3736.27 179.758 L3719.09 180.118 L3732.79 190.51 L3727.8 206.95 L3741.91 197.134 L3756.02 206.95 L3751.03 190.51 L3764.73 180.118 L3747.55 179.758 L3741.91 163.534 Z" fill="#ffa500" fill-rule="evenodd" fill-opacity="1" stroke="#000000" stroke-opacity="1" stroke-width="0.8"/>
<path clip-path="url(#clip312)" d="M3793.72 163.534 L3788.08 179.758 L3770.89 180.118 L3784.6 190.51 L3779.6 206.95 L3793.72 197.134 L3807.83 206.95 L3802.84 190.51 L3816.54 180.118 L3799.36 179.758 L3793.72 163.534 Z" fill="#ffa500" fill-rule="evenodd" fill-opacity="1" stroke="#000000" stroke-opacity="1" stroke-width="0.8"/>
<circle clip-path="url(#clip312)" cx="3845.52" cy="187.534" r="21" fill="#add8e6" fill-rule="evenodd" fill-opacity="1" stroke="#000000" stroke-opacity="1" stroke-width="0.8"/>
</svg>
