<?xml version="1.0" encoding="utf-8"?>
<svg xmlns="http://www.w3.org/2000/svg" xmlns:xlink="http://www.w3.org/1999/xlink" width="1000" height="200" viewBox="0 0 4000 800">
<defs>
  <clipPath id="clip180">
    <rect x="0" y="0" width="4000" height="800"/>
  </clipPath>
</defs>
<path clip-path="url(#clip180)" d="
M0 800 L4000 800 L4000 0 L0 0  Z
  " fill="#ffffff" fill-rule="evenodd" fill-opacity="1"/>
<defs>
  <clipPath id="clip181">
    <rect x="800" y="0" width="2801" height="800"/>
  </clipPath>
</defs>
<path clip-path="url(#clip180)" d="
M163.756 318.64 L3952.76 318.64 L3952.76 81.1361 L163.756 81.1361  Z
  " fill="#ffffff" fill-rule="evenodd" fill-opacity="1"/>
<defs>
  <clipPath id="clip182">
    <rect x="163" y="81" width="3790" height="239"/>
  </clipPath>
</defs>
<path clip-path="url(#clip180)" d="M 0 0 M1972.4 16.7545 L1972.4 25.383 Q1968.26 21.5346 1963.57 19.6307 Q1958.91 17.7268 1953.64 17.7268 Q1943.27 17.7268 1937.76 24.0867 Q1932.25 30.4061 1932.25 42.3968 Q1932.25 54.3469 1937.76 60.7069 Q1943.27 67.0263 1953.64 67.0263 Q1958.91 67.0263 1963.57 65.1223 Q1968.26 63.2184 1972.4 59.3701 L1972.4 67.9175 Q1968.1 70.8341 1963.28 72.2924 Q1958.5 73.7508 1953.16 73.7508 Q1939.42 73.7508 1931.52 65.3654 Q1923.62 56.9395 1923.62 42.3968 Q1923.62 27.8135 1931.52 19.4281 Q1939.42 11.0023 1953.16 11.0023 Q1958.58 11.0023 1963.36 12.4606 Q1968.18 13.8784 1972.4 16.7545 Z" fill="#000000" fill-rule="evenodd" fill-opacity="1" /><path clip-path="url(#clip180)" d="M 0 0 M1999.09 76.7889 Q1995.93 84.8907 1992.93 87.3618 Q1989.94 89.8329 1984.91 89.8329 L1978.96 89.8329 L1978.96 83.5945 L1983.33 83.5945 Q1986.41 83.5945 1988.11 82.1361 Q1989.82 80.6778 1991.88 75.2496 L1993.22 71.8468 L1974.87 27.2059 L1982.77 27.2059 L1996.95 62.6918 L2011.12 27.2059 L2019.02 27.2059 L1999.09 76.7889 Z" fill="#000000" fill-rule="evenodd" fill-opacity="1" /><path clip-path="url(#clip180)" d="M 0 0 M2059.49 28.9478 L2059.49 35.9153 Q2056.33 34.1734 2053.13 33.3227 Q2049.97 32.4315 2046.73 32.4315 Q2039.48 32.4315 2035.47 37.0496 Q2031.46 41.6271 2031.46 49.9314 Q2031.46 58.2358 2035.47 62.8538 Q2039.48 67.4314 2046.73 67.4314 Q2049.97 67.4314 2053.13 66.5807 Q2056.33 65.6895 2059.49 63.9476 L2059.49 70.8341 Q2056.37 72.2924 2053.01 73.0216 Q2049.69 73.7508 2045.92 73.7508 Q2035.67 73.7508 2029.64 67.3098 Q2023.6 60.8689 2023.6 49.9314 Q2023.6 38.832 2029.68 32.472 Q2035.79 26.1121 2046.41 26.1121 Q2049.85 26.1121 2053.13 26.8413 Q2056.41 27.5299 2059.49 28.9478 Z" fill="#000000" fill-rule="evenodd" fill-opacity="1" /><path clip-path="url(#clip180)" d="M 0 0 M2067.31 9.54393 L2074.76 9.54393 L2074.76 72.576 L2067.31 72.576 L2067.31 9.54393 Z" fill="#000000" fill-rule="evenodd" fill-opacity="1" /><path clip-path="url(#clip180)" d="M 0 0 M2121.39 48.0275 L2121.39 51.6733 L2087.12 51.6733 Q2087.6 59.3701 2091.74 63.421 Q2095.91 67.4314 2103.32 67.4314 Q2107.62 67.4314 2111.63 66.3781 Q2115.68 65.3249 2119.65 63.2184 L2119.65 70.267 Q2115.64 71.9684 2111.42 72.8596 Q2107.21 73.7508 2102.88 73.7508 Q2092.02 73.7508 2085.66 67.4314 Q2079.34 61.1119 2079.34 50.3365 Q2079.34 39.1965 2085.34 32.6746 Q2091.37 26.1121 2101.58 26.1121 Q2110.74 26.1121 2116.04 32.0264 Q2121.39 37.9003 2121.39 48.0275 M2113.94 45.84 Q2113.85 39.7232 2110.49 36.0774 Q2107.17 32.4315 2101.66 32.4315 Q2095.42 32.4315 2091.66 35.9558 Q2087.93 39.4801 2087.36 45.8805 L2113.94 45.84 Z" fill="#000000" fill-rule="evenodd" fill-opacity="1" /><path clip-path="url(#clip180)" d="M 0 0 M2158.05 65.6895 L2171.42 65.6895 L2171.42 19.5497 L2156.88 22.4663 L2156.88 15.0127 L2171.34 12.096 L2179.52 12.096 L2179.52 65.6895 L2192.89 65.6895 L2192.89 72.576 L2158.05 72.576 L2158.05 65.6895 Z" fill="#000000" fill-rule="evenodd" fill-opacity="1" /><path clip-path="url(#clip182)" d="M270.992 175.888 L265.352 192.112 L248.168 192.472 L261.872 202.864 L256.88 219.304 L270.992 209.488 L285.104 219.304 L280.112 202.864 L293.816 192.472 L276.632 192.112 L270.992 175.888 Z" fill="#add8e6" fill-rule="evenodd" fill-opacity="1" stroke="#000000" stroke-opacity="1" stroke-width="1.6"/>
<path clip-path="url(#clip182)" d="M322.796 175.888 L317.156 192.112 L299.972 192.472 L313.676 202.864 L308.684 219.304 L322.796 209.488 L336.908 219.304 L331.916 202.864 L345.62 192.472 L328.436 192.112 L322.796 175.888 Z" fill="#add8e6" fill-rule="evenodd" fill-opacity="1" stroke="#000000" stroke-opacity="1" stroke-width="1.6"/>
<path clip-path="url(#clip182)" d="M374.601 175.888 L368.961 192.112 L351.777 192.472 L365.481 202.864 L360.489 219.304 L374.601 209.488 L388.713 219.304 L383.721 202.864 L397.425 192.472 L380.241 192.112 L374.601 175.888 Z" fill="#add8e6" fill-rule="evenodd" fill-opacity="1" stroke="#000000" stroke-opacity="1" stroke-width="1.6"/>
<circle clip-path="url(#clip182)" cx="426.406" cy="199.888" r="21" fill="#ffa500" fill-rule="evenodd" fill-opacity="1" stroke="#000000" stroke-opacity="1" stroke-width="1.6"/>
<path clip-path="url(#clip182)" d="M478.211 175.888 L472.571 192.112 L455.387 192.472 L469.091 202.864 L464.099 219.304 L478.211 209.488 L492.323 219.304 L487.331 202.864 L501.035 192.472 L483.851 192.112 L478.211 175.888 Z" fill="#add8e6" fill-rule="evenodd" fill-opacity="1" stroke="#000000" stroke-opacity="1" stroke-width="1.6"/>
<circle clip-path="url(#clip182)" cx="530.015" cy="199.888" r="21" fill="#ffa500" fill-rule="evenodd" fill-opacity="1" stroke="#000000" stroke-opacity="1" stroke-width="1.6"/>
<path clip-path="url(#clip182)" d="M581.82 175.888 L576.18 192.112 L558.996 192.472 L572.7 202.864 L567.708 219.304 L581.82 209.488 L595.932 219.304 L590.94 202.864 L604.644 192.472 L587.46 192.112 L581.82 175.888 Z" fill="#add8e6" fill-rule="evenodd" fill-opacity="1" stroke="#000000" stroke-opacity="1" stroke-width="1.6"/>
<circle clip-path="url(#clip182)" cx="633.625" cy="199.888" r="21" fill="#ffa500" fill-rule="evenodd" fill-opacity="1" stroke="#000000" stroke-opacity="1" stroke-width="1.6"/>
<path clip-path="url(#clip182)" d="M685.43 175.888 L679.79 192.112 L662.606 192.472 L676.31 202.864 L671.318 219.304 L685.43 209.488 L699.542 219.304 L694.55 202.864 L708.254 192.472 L691.07 192.112 L685.43 175.888 Z" fill="#add8e6" fill-rule="evenodd" fill-opacity="1" stroke="#000000" stroke-opacity="1" stroke-width="1.6"/>
<path clip-path="url(#clip182)" d="M737.234 175.888 L731.594 192.112 L714.41 192.472 L728.114 202.864 L723.122 219.304 L737.234 209.488 L751.346 219.304 L746.354 202.864 L760.058 192.472 L742.874 192.112 L737.234 175.888 Z" fill="#add8e6" fill-rule="evenodd" fill-opacity="1" stroke="#000000" stroke-opacity="1" stroke-width="1.6"/>
<path clip-path="url(#clip182)" d="M789.039 175.888 L783.399 192.112 L766.215 192.472 L779.919 202.864 L774.927 219.304 L789.039 209.488 L803.151 219.304 L798.159 202.864 L811.863 192.472 L794.679 192.112 L789.039 175.888 Z" fill="#add8e6" fill-rule="evenodd" fill-opacity="1" stroke="#000000" stroke-opacity="1" stroke-width="1.6"/>
<circle clip-path="url(#clip182)" cx="840.844" cy="199.888" r="21" fill="#ffa500" fill-rule="evenodd" fill-opacity="1" stroke="#000000" stroke-opacity="1" stroke-width="1.6"/>
<path clip-path="url(#clip182)" d="M892.649 175.888 L887.009 192.112 L869.825 192.472 L883.529 202.864 L878.537 219.304 L892.649 209.488 L906.761 219.304 L901.769 202.864 L915.473 192.472 L898.289 192.112 L892.649 175.888 Z" fill="#add8e6" fill-rule="evenodd" fill-opacity="1" stroke="#000000" stroke-opacity="1" stroke-width="1.6"/>
<path clip-path="url(#clip182)" d="M944.453 175.888 L938.813 192.112 L921.629 192.472 L935.333 202.864 L930.341 219.304 L944.453 209.488 L958.565 219.304 L953.573 202.864 L967.277 192.472 L950.093 192.112 L944.453 175.888 Z" fill="#add8e6" fill-rule="evenodd" fill-opacity="1" stroke="#000000" stroke-opacity="1" stroke-width="1.6"/>
<path clip-path="url(#clip182)" d="M996.258 175.888 L990.618 192.112 L973.434 192.472 L987.138 202.864 L982.146 219.304 L996.258 209.488 L1010.37 219.304 L1005.38 202.864 L1019.08 192.472 L1001.9 192.112 L996.258 175.888 Z" fill="#add8e6" fill-rule="evenodd" fill-opacity="1" stroke="#000000" stroke-opacity="1" stroke-width="1.6"/>
<circle clip-path="url(#clip182)" cx="1048.06" cy="199.888" r="21" fill="#ffa500" fill-rule="evenodd" fill-opacity="1" stroke="#000000" stroke-opacity="1" stroke-width="1.6"/>
<path clip-path="url(#clip182)" d="M1099.87 175.888 L1094.23 192.112 L1077.04 192.472 L1090.75 202.864 L1085.76 219.304 L1099.87 209.488 L1113.98 219.304 L1108.99 202.864 L1122.69 192.472 L1105.51 192.112 L1099.87 175.888 Z" fill="#add8e6" fill-rule="evenodd" fill-opacity="1" stroke="#000000" stroke-opacity="1" stroke-width="1.6"/>
<path clip-path="url(#clip182)" d="M1151.67 175.888 L1146.03 192.112 L1128.85 192.472 L1142.55 202.864 L1137.56 219.304 L1151.67 209.488 L1165.78 219.304 L1160.79 202.864 L1174.5 192.472 L1157.31 192.112 L1151.67 175.888 Z" fill="#add8e6" fill-rule="evenodd" fill-opacity="1" stroke="#000000" stroke-opacity="1" stroke-width="1.6"/>
<circle clip-path="url(#clip182)" cx="1203.48" cy="199.888" r="21" fill="#ffa500" fill-rule="evenodd" fill-opacity="1" stroke="#000000" stroke-opacity="1" stroke-width="1.6"/>
<path clip-path="url(#clip182)" d="M1255.28 175.888 L1249.64 192.112 L1232.46 192.472 L1246.16 202.864 L1241.17 219.304 L1255.28 209.488 L1269.39 219.304 L1264.4 202.864 L1278.11 192.472 L1260.92 192.112 L1255.28 175.888 Z" fill="#add8e6" fill-rule="evenodd" fill-opacity="1" stroke="#000000" stroke-opacity="1" stroke-width="1.6"/>
<circle clip-path="url(#clip182)" cx="1307.09" cy="199.888" r="21" fill="#ffa500" fill-rule="evenodd" fill-opacity="1" stroke="#000000" stroke-opacity="1" stroke-width="1.6"/>
<circle clip-path="url(#clip182)" cx="1358.89" cy="199.888" r="21" fill="#ffa500" fill-rule="evenodd" fill-opacity="1" stroke="#000000" stroke-opacity="1" stroke-width="1.6"/>
<path clip-path="url(#clip182)" d="M1410.7 175.888 L1405.06 192.112 L1387.87 192.472 L1401.58 202.864 L1396.58 219.304 L1410.7 209.488 L1424.81 219.304 L1419.82 202.864 L1433.52 192.472 L1416.34 192.112 L1410.7 175.888 Z" fill="#add8e6" fill-rule="evenodd" fill-opacity="1" stroke="#000000" stroke-opacity="1" stroke-width="1.6"/>
<path clip-path="url(#clip182)" d="M1462.5 175.888 L1456.86 192.112 L1439.68 192.472 L1453.38 202.864 L1448.39 219.304 L1462.5 209.488 L1476.61 219.304 L1471.62 202.864 L1485.33 192.472 L1468.14 192.112 L1462.5 175.888 Z" fill="#add8e6" fill-rule="evenodd" fill-opacity="1" stroke="#000000" stroke-opacity="1" stroke-width="1.6"/>
<circle clip-path="url(#clip182)" cx="1514.31" cy="199.888" r="21" fill="#ffa500" fill-rule="evenodd" fill-opacity="1" stroke="#000000" stroke-opacity="1" stroke-width="1.6"/>
<path clip-path="url(#clip182)" d="M1566.11 175.888 L1560.47 192.112 L1543.29 192.472 L1556.99 202.864 L1552 219.304 L1566.11 209.488 L1580.22 219.304 L1575.23 202.864 L1588.93 192.472 L1571.75 192.112 L1566.11 175.888 Z" fill="#add8e6" fill-rule="evenodd" fill-opacity="1" stroke="#000000" stroke-opacity="1" stroke-width="1.6"/>
<path clip-path="url(#clip182)" d="M1617.92 175.888 L1612.28 192.112 L1595.09 192.472 L1608.8 202.864 L1603.8 219.304 L1617.92 209.488 L1632.03 219.304 L1627.04 202.864 L1640.74 192.472 L1623.56 192.112 L1617.92 175.888 Z" fill="#add8e6" fill-rule="evenodd" fill-opacity="1" stroke="#000000" stroke-opacity="1" stroke-width="1.6"/>
<path clip-path="url(#clip182)" d="M1669.72 175.888 L1664.08 192.112 L1646.9 192.472 L1660.6 202.864 L1655.61 219.304 L1669.72 209.488 L1683.83 219.304 L1678.84 202.864 L1692.54 192.472 L1675.36 192.112 L1669.72 175.888 Z" fill="#add8e6" fill-rule="evenodd" fill-opacity="1" stroke="#000000" stroke-opacity="1" stroke-width="1.6"/>
<circle clip-path="url(#clip182)" cx="1721.52" cy="199.888" r="21" fill="#ffa500" fill-rule="evenodd" fill-opacity="1" stroke="#000000" stroke-opacity="1" stroke-width="1.6"/>
<path clip-path="url(#clip182)" d="M1773.33 175.888 L1767.69 192.112 L1750.51 192.472 L1764.21 202.864 L1759.22 219.304 L1773.33 209.488 L1787.44 219.304 L1782.45 202.864 L1796.15 192.472 L1778.97 192.112 L1773.33 175.888 Z" fill="#add8e6" fill-rule="evenodd" fill-opacity="1" stroke="#000000" stroke-opacity="1" stroke-width="1.6"/>
<circle clip-path="url(#clip182)" cx="1825.13" cy="199.888" r="21" fill="#ffa500" fill-rule="evenodd" fill-opacity="1" stroke="#000000" stroke-opacity="1" stroke-width="1.6"/>
<path clip-path="url(#clip182)" d="M1876.94 175.888 L1871.3 192.112 L1854.12 192.472 L1867.82 202.864 L1862.83 219.304 L1876.94 209.488 L1891.05 219.304 L1886.06 202.864 L1899.76 192.472 L1882.58 192.112 L1876.94 175.888 Z" fill="#add8e6" fill-rule="evenodd" fill-opacity="1" stroke="#000000" stroke-opacity="1" stroke-width="1.6"/>
<path clip-path="url(#clip182)" d="M1928.74 175.888 L1923.1 192.112 L1905.92 192.472 L1919.62 202.864 L1914.63 219.304 L1928.74 209.488 L1942.86 219.304 L1937.86 202.864 L1951.57 192.472 L1934.38 192.112 L1928.74 175.888 Z" fill="#add8e6" fill-rule="evenodd" fill-opacity="1" stroke="#000000" stroke-opacity="1" stroke-width="1.6"/>
<path clip-path="url(#clip182)" d="M1980.55 175.888 L1974.91 192.112 L1957.72 192.472 L1971.43 202.864 L1966.44 219.304 L1980.55 209.488 L1994.66 219.304 L1989.67 202.864 L2003.37 192.472 L1986.19 192.112 L1980.55 175.888 Z" fill="#add8e6" fill-rule="evenodd" fill-opacity="1" stroke="#000000" stroke-opacity="1" stroke-width="1.6"/>
<path clip-path="url(#clip182)" d="M2032.35 175.888 L2026.71 192.112 L2009.53 192.472 L2023.23 202.864 L2018.24 219.304 L2032.35 209.488 L2046.47 219.304 L2041.47 202.864 L2055.18 192.472 L2037.99 192.112 L2032.35 175.888 Z" fill="#ffa500" fill-rule="evenodd" fill-opacity="1" stroke="#000000" stroke-opacity="1" stroke-width="1.6"/>
<circle clip-path="url(#clip182)" cx="2084.16" cy="199.888" r="21" fill="#add8e6" fill-rule="evenodd" fill-opacity="1" stroke="#000000" stroke-opacity="1" stroke-width="1.6"/>
<circle clip-path="url(#clip182)" cx="2135.96" cy="199.888" r="21" fill="#add8e6" fill-rule="evenodd" fill-opacity="1" stroke="#000000" stroke-opacity="1" stroke-width="1.6"/>
<circle clip-path="url(#clip182)" cx="2187.77" cy="199.888" r="21" fill="#add8e6" fill-rule="evenodd" fill-opacity="1" stroke="#000000" stroke-opacity="1" stroke-width="1.6"/>
<circle clip-path="url(#clip182)" cx="2239.57" cy="199.888" r="21" fill="#add8e6" fill-rule="evenodd" fill-opacity="1" stroke="#000000" stroke-opacity="1" stroke-width="1.6"/>
<circle clip-path="url(#clip182)" cx="2291.38" cy="199.888" r="21" fill="#add8e6" fill-rule="evenodd" fill-opacity="1" stroke="#000000" stroke-opacity="1" stroke-width="1.6"/>
<circle clip-path="url(#clip182)" cx="2343.18" cy="199.888" r="21" fill="#add8e6" fill-rule="evenodd" fill-opacity="1" stroke="#000000" stroke-opacity="1" stroke-width="1.6"/>
<path clip-path="url(#clip182)" d="M2394.99 175.888 L2389.35 192.112 L2372.16 192.472 L2385.87 202.864 L2380.87 219.304 L2394.99 209.488 L2409.1 219.304 L2404.11 202.864 L2417.81 192.472 L2400.63 192.112 L2394.99 175.888 Z" fill="#ffa500" fill-rule="evenodd" fill-opacity="1" stroke="#000000" stroke-opacity="1" stroke-width="1.6"/>
<path clip-path="url(#clip182)" d="M2446.79 175.888 L2441.15 192.112 L2423.97 192.472 L2437.67 202.864 L2432.68 219.304 L2446.79 209.488 L2460.9 219.304 L2455.91 202.864 L2469.62 192.472 L2452.43 192.112 L2446.79 175.888 Z" fill="#ffa500" fill-rule="evenodd" fill-opacity="1" stroke="#000000" stroke-opacity="1" stroke-width="1.6"/>
<circle clip-path="url(#clip182)" cx="2498.6" cy="199.888" r="21" fill="#add8e6" fill-rule="evenodd" fill-opacity="1" stroke="#000000" stroke-opacity="1" stroke-width="1.6"/>
<circle clip-path="url(#clip182)" cx="2550.4" cy="199.888" r="21" fill="#add8e6" fill-rule="evenodd" fill-opacity="1" stroke="#000000" stroke-opacity="1" stroke-width="1.6"/>
<circle clip-path="url(#clip182)" cx="2602.21" cy="199.888" r="21" fill="#add8e6" fill-rule="evenodd" fill-opacity="1" stroke="#000000" stroke-opacity="1" stroke-width="1.6"/>
<circle clip-path="url(#clip182)" cx="2654.01" cy="199.888" r="21" fill="#add8e6" fill-rule="evenodd" fill-opacity="1" stroke="#000000" stroke-opacity="1" stroke-width="1.6"/>
<path clip-path="url(#clip182)" d="M2705.82 175.888 L2700.18 192.112 L2682.99 192.472 L2696.7 202.864 L2691.7 219.304 L2705.82 209.488 L2719.93 219.304 L2714.94 202.864 L2728.64 192.472 L2711.46 192.112 L2705.82 175.888 Z" fill="#ffa500" fill-rule="evenodd" fill-opacity="1" stroke="#000000" stroke-opacity="1" stroke-width="1.6"/>
<circle clip-path="url(#clip182)" cx="2757.62" cy="199.888" r="21" fill="#add8e6" fill-rule="evenodd" fill-opacity="1" stroke="#000000" stroke-opacity="1" stroke-width="1.6"/>
<circle clip-path="url(#clip182)" cx="2809.42" cy="199.888" r="21" fill="#add8e6" fill-rule="evenodd" fill-opacity="1" stroke="#000000" stroke-opacity="1" stroke-width="1.6"/>
<circle clip-path="url(#clip182)" cx="2861.23" cy="199.888" r="21" fill="#add8e6" fill-rule="evenodd" fill-opacity="1" stroke="#000000" stroke-opacity="1" stroke-width="1.6"/>
<circle clip-path="url(#clip182)" cx="2913.03" cy="199.888" r="21" fill="#add8e6" fill-rule="evenodd" fill-opacity="1" stroke="#000000" stroke-opacity="1" stroke-width="1.6"/>
<path clip-path="url(#clip182)" d="M2964.84 175.888 L2959.2 192.112 L2942.02 192.472 L2955.72 202.864 L2950.73 219.304 L2964.84 209.488 L2978.95 219.304 L2973.96 202.864 L2987.66 192.472 L2970.48 192.112 L2964.84 175.888 Z" fill="#ffa500" fill-rule="evenodd" fill-opacity="1" stroke="#000000" stroke-opacity="1" stroke-width="1.6"/>
<circle clip-path="url(#clip182)" cx="3016.64" cy="199.888" r="21" fill="#add8e6" fill-rule="evenodd" fill-opacity="1" stroke="#000000" stroke-opacity="1" stroke-width="1.6"/>
<circle clip-path="url(#clip182)" cx="3068.45" cy="199.888" r="21" fill="#add8e6" fill-rule="evenodd" fill-opacity="1" stroke="#000000" stroke-opacity="1" stroke-width="1.6"/>
<path clip-path="url(#clip182)" d="M3120.25 175.888 L3114.61 192.112 L3097.43 192.472 L3111.13 202.864 L3106.14 219.304 L3120.25 209.488 L3134.37 219.304 L3129.37 202.864 L3143.08 192.472 L3125.89 192.112 L3120.25 175.888 Z" fill="#ffa500" fill-rule="evenodd" fill-opacity="1" stroke="#000000" stroke-opacity="1" stroke-width="1.6"/>
<circle clip-path="url(#clip182)" cx="3172.06" cy="199.888" r="21" fill="#add8e6" fill-rule="evenodd" fill-opacity="1" stroke="#000000" stroke-opacity="1" stroke-width="1.6"/>
<path clip-path="url(#clip182)" d="M3223.86 175.888 L3218.22 192.112 L3201.04 192.472 L3214.74 202.864 L3209.75 219.304 L3223.86 209.488 L3237.97 219.304 L3232.98 202.864 L3246.69 192.472 L3229.5 192.112 L3223.86 175.888 Z" fill="#ffa500" fill-rule="evenodd" fill-opacity="1" stroke="#000000" stroke-opacity="1" stroke-width="1.6"/>
<circle clip-path="url(#clip182)" cx="3275.67" cy="199.888" r="21" fill="#add8e6" fill-rule="evenodd" fill-opacity="1" stroke="#000000" stroke-opacity="1" stroke-width="1.6"/>
<circle clip-path="url(#clip182)" cx="3327.47" cy="199.888" r="21" fill="#add8e6" fill-rule="evenodd" fill-opacity="1" stroke="#000000" stroke-opacity="1" stroke-width="1.6"/>
<circle clip-path="url(#clip182)" cx="3379.28" cy="199.888" r="21" fill="#add8e6" fill-rule="evenodd" fill-opacity="1" stroke="#000000" stroke-opacity="1" stroke-width="1.6"/>
<circle clip-path="url(#clip182)" cx="3431.08" cy="199.888" r="21" fill="#add8e6" fill-rule="evenodd" fill-opacity="1" stroke="#000000" stroke-opacity="1" stroke-width="1.6"/>
<path clip-path="url(#clip182)" d="M3482.89 175.888 L3477.25 192.112 L3460.06 192.472 L3473.77 202.864 L3468.77 219.304 L3482.89 209.488 L3497 219.304 L3492.01 202.864 L3505.71 192.472 L3488.53 192.112 L3482.89 175.888 Z" fill="#ffa500" fill-rule="evenodd" fill-opacity="1" stroke="#000000" stroke-opacity="1" stroke-width="1.6"/>
<circle clip-path="url(#clip182)" cx="3534.69" cy="199.888" r="21" fill="#add8e6" fill-rule="evenodd" fill-opacity="1" stroke="#000000" stroke-opacity="1" stroke-width="1.6"/>
<path clip-path="url(#clip182)" d="M3586.5 175.888 L3580.86 192.112 L3563.67 192.472 L3577.38 202.864 L3572.38 219.304 L3586.5 209.488 L3600.61 219.304 L3595.62 202.864 L3609.32 192.472 L3592.14 192.112 L3586.5 175.888 Z" fill="#ffa500" fill-rule="evenodd" fill-opacity="1" stroke="#000000" stroke-opacity="1" stroke-width="1.6"/>
<circle clip-path="url(#clip182)" cx="3638.3" cy="199.888" r="21" fill="#ffa500" fill-rule="evenodd" fill-opacity="1" stroke="#000000" stroke-opacity="1" stroke-width="1.6"/>
<circle clip-path="url(#clip182)" cx="3690.11" cy="199.888" r="21" fill="#ffa500" fill-rule="evenodd" fill-opacity="1" stroke="#000000" stroke-opacity="1" stroke-width="1.6"/>
<path clip-path="url(#clip182)" d="M3741.91 175.888 L3736.27 192.112 L3719.09 192.472 L3732.79 202.864 L3727.8 219.304 L3741.91 209.488 L3756.02 219.304 L3751.03 202.864 L3764.73 192.472 L3747.55 192.112 L3741.91 175.888 Z" fill="#add8e6" fill-rule="evenodd" fill-opacity="1" stroke="#000000" stroke-opacity="1" stroke-width="1.6"/>
<path clip-path="url(#clip182)" d="M3793.72 175.888 L3788.08 192.112 L3770.89 192.472 L3784.6 202.864 L3779.6 219.304 L3793.72 209.488 L3807.83 219.304 L3802.84 202.864 L3816.54 192.472 L3799.36 192.112 L3793.72 175.888 Z" fill="#add8e6" fill-rule="evenodd" fill-opacity="1" stroke="#000000" stroke-opacity="1" stroke-width="1.6"/>
<path clip-path="url(#clip182)" d="M3845.52 175.888 L3839.88 192.112 L3822.7 192.472 L3836.4 202.864 L3831.41 219.304 L3845.52 209.488 L3859.63 219.304 L3854.64 202.864 L3868.34 192.472 L3851.16 192.112 L3845.52 175.888 Z" fill="#add8e6" fill-rule="evenodd" fill-opacity="1" stroke="#000000" stroke-opacity="1" stroke-width="1.6"/>
<path clip-path="url(#clip180)" d="
M163.756 718.64 L3952.76 718.64 L3952.76 481.136 L163.756 481.136  Z
  " fill="#ffffff" fill-rule="evenodd" fill-opacity="1"/>
<defs>
  <clipPath id="clip183">
    <rect x="163" y="481" width="3790" height="239"/>
  </clipPath>
</defs>
<path clip-path="url(#clip180)" d="M 0 0 M1972.72 416.755 L1972.72 425.383 Q1968.59 421.535 1963.89 419.631 Q1959.23 417.727 1953.97 417.727 Q1943.59 417.727 1938.09 424.087 Q1932.58 430.406 1932.58 442.397 Q1932.58 454.347 1938.09 460.707 Q1943.59 467.026 1953.97 467.026 Q1959.23 467.026 1963.89 465.122 Q1968.59 463.218 1972.72 459.37 L1972.72 467.917 Q1968.43 470.834 1963.61 472.292 Q1958.83 473.751 1953.48 473.751 Q1939.75 473.751 1931.85 465.365 Q1923.95 456.94 1923.95 442.397 Q1923.95 427.814 1931.85 419.428 Q1939.75 411.002 1953.48 411.002 Q1958.91 411.002 1963.69 412.461 Q1968.51 413.878 1972.72 416.755 Z" fill="#000000" fill-rule="evenodd" fill-opacity="1" /><path clip-path="url(#clip180)" d="M 0 0 M1999.42 476.789 Q1996.26 484.891 1993.26 487.362 Q1990.26 489.833 1985.24 489.833 L1979.28 489.833 L1979.28 483.594 L1983.66 483.594 Q1986.74 483.594 1988.44 482.136 Q1990.14 480.678 1992.21 475.25 L1993.54 471.847 L1975.19 427.206 L1983.09 427.206 L1997.27 462.692 L2011.45 427.206 L2019.35 427.206 L1999.42 476.789 Z" fill="#000000" fill-rule="evenodd" fill-opacity="1" /><path clip-path="url(#clip180)" d="M 0 0 M2059.82 428.948 L2059.82 435.915 Q2056.66 434.173 2053.46 433.323 Q2050.3 432.432 2047.06 432.432 Q2039.8 432.432 2035.79 437.05 Q2031.78 441.627 2031.78 449.931 Q2031.78 458.236 2035.79 462.854 Q2039.8 467.431 2047.06 467.431 Q2050.3 467.431 2053.46 466.581 Q2056.66 465.689 2059.82 463.948 L2059.82 470.834 Q2056.7 472.292 2053.33 473.022 Q2050.01 473.751 2046.24 473.751 Q2036 473.751 2029.96 467.31 Q2023.92 460.869 2023.92 449.931 Q2023.92 438.832 2030 432.472 Q2036.12 426.112 2046.73 426.112 Q2050.17 426.112 2053.46 426.841 Q2056.74 427.53 2059.82 428.948 Z" fill="#000000" fill-rule="evenodd" fill-opacity="1" /><path clip-path="url(#clip180)" d="M 0 0 M2067.63 409.544 L2075.09 409.544 L2075.09 472.576 L2067.63 472.576 L2067.63 409.544 Z" fill="#000000" fill-rule="evenodd" fill-opacity="1" /><path clip-path="url(#clip180)" d="M 0 0 M2121.71 448.028 L2121.71 451.673 L2087.44 451.673 Q2087.93 459.37 2092.06 463.421 Q2096.23 467.431 2103.65 467.431 Q2107.94 467.431 2111.95 466.378 Q2116 465.325 2119.97 463.218 L2119.97 470.267 Q2115.96 471.968 2111.75 472.86 Q2107.54 473.751 2103.2 473.751 Q2092.34 473.751 2085.98 467.431 Q2079.66 461.112 2079.66 450.337 Q2079.66 439.197 2085.66 432.675 Q2091.7 426.112 2101.9 426.112 Q2111.06 426.112 2116.37 432.026 Q2121.71 437.9 2121.71 448.028 M2114.26 445.84 Q2114.18 439.723 2110.82 436.077 Q2107.49 432.432 2101.99 432.432 Q2095.75 432.432 2091.98 435.956 Q2088.25 439.48 2087.69 445.881 L2114.26 445.84 Z" fill="#000000" fill-rule="evenodd" fill-opacity="1" /><path clip-path="url(#clip180)" d="M 0 0 M2164 465.689 L2192.56 465.689 L2192.56 472.576 L2154.16 472.576 L2154.16 465.689 Q2158.82 460.869 2166.84 452.767 Q2174.9 444.625 2176.97 442.275 Q2180.9 437.86 2182.44 434.822 Q2184.02 431.743 2184.02 428.786 Q2184.02 423.965 2180.61 420.927 Q2177.25 417.889 2171.82 417.889 Q2167.97 417.889 2163.68 419.226 Q2159.43 420.562 2154.57 423.276 L2154.57 415.013 Q2159.51 413.028 2163.8 412.015 Q2168.1 411.002 2171.66 411.002 Q2181.06 411.002 2186.65 415.701 Q2192.24 420.4 2192.24 428.259 Q2192.24 431.986 2190.82 435.348 Q2189.44 438.67 2185.76 443.207 Q2184.75 444.382 2179.32 450.012 Q2173.89 455.603 2164 465.689 Z" fill="#000000" fill-rule="evenodd" fill-opacity="1" /><path clip-path="url(#clip183)" d="M270.992 575.888 L265.352 592.112 L248.168 592.472 L261.872 602.864 L256.88 619.304 L270.992 609.488 L285.104 619.304 L280.112 602.864 L293.816 592.472 L276.632 592.112 L270.992 575.888 Z" fill="#add8e6" fill-rule="evenodd" fill-opacity="1" stroke="#000000" stroke-opacity="1" stroke-width="1.6"/>
<path clip-path="url(#clip183)" d="M322.796 575.888 L317.156 592.112 L299.972 592.472 L313.676 602.864 L308.684 619.304 L322.796 609.488 L336.908 619.304 L331.916 602.864 L345.62 592.472 L328.436 592.112 L322.796 575.888 Z" fill="#add8e6" fill-rule="evenodd" fill-opacity="1" stroke="#000000" stroke-opacity="1" stroke-width="1.6"/>
<path clip-path="url(#clip183)" d="M374.601 575.888 L368.961 592.112 L351.777 592.472 L365.481 602.864 L360.489 619.304 L374.601 609.488 L388.713 619.304 L383.721 602.864 L397.425 592.472 L380.241 592.112 L374.601 575.888 Z" fill="#add8e6" fill-rule="evenodd" fill-opacity="1" stroke="#000000" stroke-opacity="1" stroke-width="1.6"/>
<path clip-path="url(#clip183)" d="M426.406 575.888 L420.766 592.112 L403.582 592.472 L417.286 602.864 L412.294 619.304 L426.406 609.488 L440.518 619.304 L435.526 602.864 L449.23 592.472 L432.046 592.112 L426.406 575.888 Z" fill="#add8e6" fill-rule="evenodd" fill-opacity="1" stroke="#000000" stroke-opacity="1" stroke-width="1.6"/>
<path clip-path="url(#clip183)" d="M478.211 575.888 L472.571 592.112 L455.387 592.472 L469.091 602.864 L464.099 619.304 L478.211 609.488 L492.323 619.304 L487.331 602.864 L501.035 592.472 L483.851 592.112 L478.211 575.888 Z" fill="#add8e6" fill-rule="evenodd" fill-opacity="1" stroke="#000000" stroke-opacity="1" stroke-width="1.6"/>
<path clip-path="url(#clip183)" d="M530.015 575.888 L524.375 592.112 L507.191 592.472 L520.895 602.864 L515.903 619.304 L530.015 609.488 L544.127 619.304 L539.135 602.864 L552.839 592.472 L535.655 592.112 L530.015 575.888 Z" fill="#add8e6" fill-rule="evenodd" fill-opacity="1" stroke="#000000" stroke-opacity="1" stroke-width="1.6"/>
<path clip-path="url(#clip183)" d="M581.82 575.888 L576.18 592.112 L558.996 592.472 L572.7 602.864 L567.708 619.304 L581.82 609.488 L595.932 619.304 L590.94 602.864 L604.644 592.472 L587.46 592.112 L581.82 575.888 Z" fill="#add8e6" fill-rule="evenodd" fill-opacity="1" stroke="#000000" stroke-opacity="1" stroke-width="1.6"/>
<path clip-path="url(#clip183)" d="M633.625 575.888 L627.985 592.112 L610.801 592.472 L624.505 602.864 L619.513 619.304 L633.625 609.488 L647.737 619.304 L642.745 602.864 L656.449 592.472 L639.265 592.112 L633.625 575.888 Z" fill="#add8e6" fill-rule="evenodd" fill-opacity="1" stroke="#000000" stroke-opacity="1" stroke-width="1.6"/>
<path clip-path="url(#clip183)" d="M685.43 575.888 L679.79 592.112 L662.606 592.472 L676.31 602.864 L671.318 619.304 L685.43 609.488 L699.542 619.304 L694.55 602.864 L708.254 592.472 L691.07 592.112 L685.43 575.888 Z" fill="#add8e6" fill-rule="evenodd" fill-opacity="1" stroke="#000000" stroke-opacity="1" stroke-width="1.6"/>
<path clip-path="url(#clip183)" d="M737.234 575.888 L731.594 592.112 L714.41 592.472 L728.114 602.864 L723.122 619.304 L737.234 609.488 L751.346 619.304 L746.354 602.864 L760.058 592.472 L742.874 592.112 L737.234 575.888 Z" fill="#add8e6" fill-rule="evenodd" fill-opacity="1" stroke="#000000" stroke-opacity="1" stroke-width="1.6"/>
<path clip-path="url(#clip183)" d="M789.039 575.888 L783.399 592.112 L766.215 592.472 L779.919 602.864 L774.927 619.304 L789.039 609.488 L803.151 619.304 L798.159 602.864 L811.863 592.472 L794.679 592.112 L789.039 575.888 Z" fill="#add8e6" fill-rule="evenodd" fill-opacity="1" stroke="#000000" stroke-opacity="1" stroke-width="1.6"/>
<path clip-path="url(#clip183)" d="M840.844 575.888 L835.204 592.112 L818.02 592.472 L831.724 602.864 L826.732 619.304 L840.844 609.488 L854.956 619.304 L849.964 602.864 L863.668 592.472 L846.484 592.112 L840.844 575.888 Z" fill="#add8e6" fill-rule="evenodd" fill-opacity="1" stroke="#000000" stroke-opacity="1" stroke-width="1.6"/>
<path clip-path="url(#clip183)" d="M892.649 575.888 L887.009 592.112 L869.825 592.472 L883.529 602.864 L878.537 619.304 L892.649 609.488 L906.761 619.304 L901.769 602.864 L915.473 592.472 L898.289 592.112 L892.649 575.888 Z" fill="#add8e6" fill-rule="evenodd" fill-opacity="1" stroke="#000000" stroke-opacity="1" stroke-width="1.6"/>
<path clip-path="url(#clip183)" d="M944.453 575.888 L938.813 592.112 L921.629 592.472 L935.333 602.864 L930.341 619.304 L944.453 609.488 L958.565 619.304 L953.573 602.864 L967.277 592.472 L950.093 592.112 L944.453 575.888 Z" fill="#add8e6" fill-rule="evenodd" fill-opacity="1" stroke="#000000" stroke-opacity="1" stroke-width="1.6"/>
<path clip-path="url(#clip183)" d="M996.258 575.888 L990.618 592.112 L973.434 592.472 L987.138 602.864 L982.146 619.304 L996.258 609.488 L1010.37 619.304 L1005.38 602.864 L1019.08 592.472 L1001.9 592.112 L996.258 575.888 Z" fill="#add8e6" fill-rule="evenodd" fill-opacity="1" stroke="#000000" stroke-opacity="1" stroke-width="1.6"/>
<path clip-path="url(#clip183)" d="M1048.06 575.888 L1042.42 592.112 L1025.24 592.472 L1038.94 602.864 L1033.95 619.304 L1048.06 609.488 L1062.17 619.304 L1057.18 602.864 L1070.89 592.472 L1053.7 592.112 L1048.06 575.888 Z" fill="#add8e6" fill-rule="evenodd" fill-opacity="1" stroke="#000000" stroke-opacity="1" stroke-width="1.6"/>
<path clip-path="url(#clip183)" d="M1099.87 575.888 L1094.23 592.112 L1077.04 592.472 L1090.75 602.864 L1085.76 619.304 L1099.87 609.488 L1113.98 619.304 L1108.99 602.864 L1122.69 592.472 L1105.51 592.112 L1099.87 575.888 Z" fill="#add8e6" fill-rule="evenodd" fill-opacity="1" stroke="#000000" stroke-opacity="1" stroke-width="1.6"/>
<path clip-path="url(#clip183)" d="M1151.67 575.888 L1146.03 592.112 L1128.85 592.472 L1142.55 602.864 L1137.56 619.304 L1151.67 609.488 L1165.78 619.304 L1160.79 602.864 L1174.5 592.472 L1157.31 592.112 L1151.67 575.888 Z" fill="#add8e6" fill-rule="evenodd" fill-opacity="1" stroke="#000000" stroke-opacity="1" stroke-width="1.6"/>
<path clip-path="url(#clip183)" d="M1203.48 575.888 L1197.84 592.112 L1180.65 592.472 L1194.36 602.864 L1189.37 619.304 L1203.48 609.488 L1217.59 619.304 L1212.6 602.864 L1226.3 592.472 L1209.12 592.112 L1203.48 575.888 Z" fill="#add8e6" fill-rule="evenodd" fill-opacity="1" stroke="#000000" stroke-opacity="1" stroke-width="1.6"/>
<path clip-path="url(#clip183)" d="M1255.28 575.888 L1249.64 592.112 L1232.46 592.472 L1246.16 602.864 L1241.17 619.304 L1255.28 609.488 L1269.39 619.304 L1264.4 602.864 L1278.11 592.472 L1260.92 592.112 L1255.28 575.888 Z" fill="#add8e6" fill-rule="evenodd" fill-opacity="1" stroke="#000000" stroke-opacity="1" stroke-width="1.6"/>
<path clip-path="url(#clip183)" d="M1307.09 575.888 L1301.45 592.112 L1284.26 592.472 L1297.97 602.864 L1292.97 619.304 L1307.09 609.488 L1321.2 619.304 L1316.21 602.864 L1329.91 592.472 L1312.73 592.112 L1307.09 575.888 Z" fill="#add8e6" fill-rule="evenodd" fill-opacity="1" stroke="#000000" stroke-opacity="1" stroke-width="1.6"/>
<path clip-path="url(#clip183)" d="M1358.89 575.888 L1353.25 592.112 L1336.07 592.472 L1349.77 602.864 L1344.78 619.304 L1358.89 609.488 L1373 619.304 L1368.01 602.864 L1381.72 592.472 L1364.53 592.112 L1358.89 575.888 Z" fill="#add8e6" fill-rule="evenodd" fill-opacity="1" stroke="#000000" stroke-opacity="1" stroke-width="1.6"/>
<path clip-path="url(#clip183)" d="M1410.7 575.888 L1405.06 592.112 L1387.87 592.472 L1401.58 602.864 L1396.58 619.304 L1410.7 609.488 L1424.81 619.304 L1419.82 602.864 L1433.52 592.472 L1416.34 592.112 L1410.7 575.888 Z" fill="#add8e6" fill-rule="evenodd" fill-opacity="1" stroke="#000000" stroke-opacity="1" stroke-width="1.6"/>
<path clip-path="url(#clip183)" d="M1462.5 575.888 L1456.86 592.112 L1439.68 592.472 L1453.38 602.864 L1448.39 619.304 L1462.5 609.488 L1476.61 619.304 L1471.62 602.864 L1485.33 592.472 L1468.14 592.112 L1462.5 575.888 Z" fill="#add8e6" fill-rule="evenodd" fill-opacity="1" stroke="#000000" stroke-opacity="1" stroke-width="1.6"/>
<path clip-path="url(#clip183)" d="M1514.31 575.888 L1508.67 592.112 L1491.48 592.472 L1505.19 602.864 L1500.19 619.304 L1514.31 609.488 L1528.42 619.304 L1523.43 602.864 L1537.13 592.472 L1519.95 592.112 L1514.31 575.888 Z" fill="#add8e6" fill-rule="evenodd" fill-opacity="1" stroke="#000000" stroke-opacity="1" stroke-width="1.6"/>
<path clip-path="url(#clip183)" d="M1566.11 575.888 L1560.47 592.112 L1543.29 592.472 L1556.99 602.864 L1552 619.304 L1566.11 609.488 L1580.22 619.304 L1575.23 602.864 L1588.93 592.472 L1571.75 592.112 L1566.11 575.888 Z" fill="#add8e6" fill-rule="evenodd" fill-opacity="1" stroke="#000000" stroke-opacity="1" stroke-width="1.6"/>
<path clip-path="url(#clip183)" d="M1617.92 575.888 L1612.28 592.112 L1595.09 592.472 L1608.8 602.864 L1603.8 619.304 L1617.92 609.488 L1632.03 619.304 L1627.04 602.864 L1640.74 592.472 L1623.56 592.112 L1617.92 575.888 Z" fill="#add8e6" fill-rule="evenodd" fill-opacity="1" stroke="#000000" stroke-opacity="1" stroke-width="1.6"/>
<circle clip-path="url(#clip183)" cx="1669.72" cy="599.888" r="21" fill="#add8e6" fill-rule="evenodd" fill-opacity="1" stroke="#000000" stroke-opacity="1" stroke-width="1.6"/>
<circle clip-path="url(#clip183)" cx="1721.52" cy="599.888" r="21" fill="#add8e6" fill-rule="evenodd" fill-opacity="1" stroke="#000000" stroke-opacity="1" stroke-width="1.6"/>
<circle clip-path="url(#clip183)" cx="1773.33" cy="599.888" r="21" fill="#add8e6" fill-rule="evenodd" fill-opacity="1" stroke="#000000" stroke-opacity="1" stroke-width="1.6"/>
<circle clip-path="url(#clip183)" cx="1825.13" cy="599.888" r="21" fill="#add8e6" fill-rule="evenodd" fill-opacity="1" stroke="#000000" stroke-opacity="1" stroke-width="1.6"/>
<circle clip-path="url(#clip183)" cx="1876.94" cy="599.888" r="21" fill="#add8e6" fill-rule="evenodd" fill-opacity="1" stroke="#000000" stroke-opacity="1" stroke-width="1.6"/>
<circle clip-path="url(#clip183)" cx="1928.74" cy="599.888" r="21" fill="#add8e6" fill-rule="evenodd" fill-opacity="1" stroke="#000000" stroke-opacity="1" stroke-width="1.6"/>
<circle clip-path="url(#clip183)" cx="1980.55" cy="599.888" r="21" fill="#add8e6" fill-rule="evenodd" fill-opacity="1" stroke="#000000" stroke-opacity="1" stroke-width="1.6"/>
<circle clip-path="url(#clip183)" cx="2032.35" cy="599.888" r="21" fill="#add8e6" fill-rule="evenodd" fill-opacity="1" stroke="#000000" stroke-opacity="1" stroke-width="1.6"/>
<circle clip-path="url(#clip183)" cx="2084.16" cy="599.888" r="21" fill="#add8e6" fill-rule="evenodd" fill-opacity="1" stroke="#000000" stroke-opacity="1" stroke-width="1.6"/>
<circle clip-path="url(#clip183)" cx="2135.96" cy="599.888" r="21" fill="#add8e6" fill-rule="evenodd" fill-opacity="1" stroke="#000000" stroke-opacity="1" stroke-width="1.6"/>
<circle clip-path="url(#clip183)" cx="2187.77" cy="599.888" r="21" fill="#add8e6" fill-rule="evenodd" fill-opacity="1" stroke="#000000" stroke-opacity="1" stroke-width="1.6"/>
<circle clip-path="url(#clip183)" cx="2239.57" cy="599.888" r="21" fill="#add8e6" fill-rule="evenodd" fill-opacity="1" stroke="#000000" stroke-opacity="1" stroke-width="1.6"/>
<circle clip-path="url(#clip183)" cx="2291.38" cy="599.888" r="21" fill="#add8e6" fill-rule="evenodd" fill-opacity="1" stroke="#000000" stroke-opacity="1" stroke-width="1.6"/>
<circle clip-path="url(#clip183)" cx="2343.18" cy="599.888" r="21" fill="#add8e6" fill-rule="evenodd" fill-opacity="1" stroke="#000000" stroke-opacity="1" stroke-width="1.6"/>
<circle clip-path="url(#clip183)" cx="2394.99" cy="599.888" r="21" fill="#add8e6" fill-rule="evenodd" fill-opacity="1" stroke="#000000" stroke-opacity="1" stroke-width="1.6"/>
<circle clip-path="url(#clip183)" cx="2446.79" cy="599.888" r="21" fill="#add8e6" fill-rule="evenodd" fill-opacity="1" stroke="#000000" stroke-opacity="1" stroke-width="1.6"/>
<circle clip-path="url(#clip183)" cx="2498.6" cy="599.888" r="21" fill="#add8e6" fill-rule="evenodd" fill-opacity="1" stroke="#000000" stroke-opacity="1" stroke-width="1.6"/>
<circle clip-path="url(#clip183)" cx="2550.4" cy="599.888" r="21" fill="#add8e6" fill-rule="evenodd" fill-opacity="1" stroke="#000000" stroke-opacity="1" stroke-width="1.6"/>
<circle clip-path="url(#clip183)" cx="2602.21" cy="599.888" r="21" fill="#add8e6" fill-rule="evenodd" fill-opacity="1" stroke="#000000" stroke-opacity="1" stroke-width="1.6"/>
<circle clip-path="url(#clip183)" cx="2654.01" cy="599.888" r="21" fill="#add8e6" fill-rule="evenodd" fill-opacity="1" stroke="#000000" stroke-opacity="1" stroke-width="1.6"/>
<circle clip-path="url(#clip183)" cx="2705.82" cy="599.888" r="21" fill="#add8e6" fill-rule="evenodd" fill-opacity="1" stroke="#000000" stroke-opacity="1" stroke-width="1.6"/>
<circle clip-path="url(#clip183)" cx="2757.62" cy="599.888" r="21" fill="#add8e6" fill-rule="evenodd" fill-opacity="1" stroke="#000000" stroke-opacity="1" stroke-width="1.6"/>
<circle clip-path="url(#clip183)" cx="2809.42" cy="599.888" r="21" fill="#add8e6" fill-rule="evenodd" fill-opacity="1" stroke="#000000" stroke-opacity="1" stroke-width="1.6"/>
<circle clip-path="url(#clip183)" cx="2861.23" cy="599.888" r="21" fill="#add8e6" fill-rule="evenodd" fill-opacity="1" stroke="#000000" stroke-opacity="1" stroke-width="1.6"/>
<circle clip-path="url(#clip183)" cx="2913.03" cy="599.888" r="21" fill="#add8e6" fill-rule="evenodd" fill-opacity="1" stroke="#000000" stroke-opacity="1" stroke-width="1.6"/>
<circle clip-path="url(#clip183)" cx="2964.84" cy="599.888" r="21" fill="#add8e6" fill-rule="evenodd" fill-opacity="1" stroke="#000000" stroke-opacity="1" stroke-width="1.6"/>
<circle clip-path="url(#clip183)" cx="3016.64" cy="599.888" r="21" fill="#add8e6" fill-rule="evenodd" fill-opacity="1" stroke="#000000" stroke-opacity="1" stroke-width="1.6"/>
<circle clip-path="url(#clip183)" cx="3068.45" cy="599.888" r="21" fill="#add8e6" fill-rule="evenodd" fill-opacity="1" stroke="#000000" stroke-opacity="1" stroke-width="1.6"/>
<circle clip-path="url(#clip183)" cx="3120.25" cy="599.888" r="21" fill="#add8e6" fill-rule="evenodd" fill-opacity="1" stroke="#000000" stroke-opacity="1" stroke-width="1.6"/>
<circle clip-path="url(#clip183)" cx="3172.06" cy="599.888" r="21" fill="#add8e6" fill-rule="evenodd" fill-opacity="1" stroke="#000000" stroke-opacity="1" stroke-width="1.6"/>
<circle clip-path="url(#clip183)" cx="3223.86" cy="599.888" r="21" fill="#add8e6" fill-rule="evenodd" fill-opacity="1" stroke="#000000" stroke-opacity="1" stroke-width="1.6"/>
<circle clip-path="url(#clip183)" cx="3275.67" cy="599.888" r="21" fill="#add8e6" fill-rule="evenodd" fill-opacity="1" stroke="#000000" stroke-opacity="1" stroke-width="1.6"/>
<circle clip-path="url(#clip183)" cx="3327.47" cy="599.888" r="21" fill="#add8e6" fill-rule="evenodd" fill-opacity="1" stroke="#000000" stroke-opacity="1" stroke-width="1.6"/>
<circle clip-path="url(#clip183)" cx="3379.28" cy="599.888" r="21" fill="#add8e6" fill-rule="evenodd" fill-opacity="1" stroke="#000000" stroke-opacity="1" stroke-width="1.6"/>
<circle clip-path="url(#clip183)" cx="3431.08" cy="599.888" r="21" fill="#add8e6" fill-rule="evenodd" fill-opacity="1" stroke="#000000" stroke-opacity="1" stroke-width="1.6"/>
<path clip-path="url(#clip183)" d="M3482.89 575.888 L3477.25 592.112 L3460.06 592.472 L3473.77 602.864 L3468.77 619.304 L3482.89 609.488 L3497 619.304 L3492.01 602.864 L3505.71 592.472 L3488.53 592.112 L3482.89 575.888 Z" fill="#add8e6" fill-rule="evenodd" fill-opacity="1" stroke="#000000" stroke-opacity="1" stroke-width="1.6"/>
<path clip-path="url(#clip183)" d="M3534.69 575.888 L3529.05 592.112 L3511.87 592.472 L3525.57 602.864 L3520.58 619.304 L3534.69 609.488 L3548.8 619.304 L3543.81 602.864 L3557.52 592.472 L3540.33 592.112 L3534.69 575.888 Z" fill="#add8e6" fill-rule="evenodd" fill-opacity="1" stroke="#000000" stroke-opacity="1" stroke-width="1.6"/>
<path clip-path="url(#clip183)" d="M3586.5 575.888 L3580.86 592.112 L3563.67 592.472 L3577.38 602.864 L3572.38 619.304 L3586.5 609.488 L3600.61 619.304 L3595.62 602.864 L3609.32 592.472 L3592.14 592.112 L3586.5 575.888 Z" fill="#add8e6" fill-rule="evenodd" fill-opacity="1" stroke="#000000" stroke-opacity="1" stroke-width="1.6"/>
<path clip-path="url(#clip183)" d="M3638.3 575.888 L3632.66 592.112 L3615.48 592.472 L3629.18 602.864 L3624.19 619.304 L3638.3 609.488 L3652.41 619.304 L3647.42 602.864 L3661.13 592.472 L3643.94 592.112 L3638.3 575.888 Z" fill="#add8e6" fill-rule="evenodd" fill-opacity="1" stroke="#000000" stroke-opacity="1" stroke-width="1.6"/>
<path clip-path="url(#clip183)" d="M3690.11 575.888 L3684.47 592.112 L3667.28 592.472 L3680.99 602.864 L3675.99 619.304 L3690.11 609.488 L3704.22 619.304 L3699.23 602.864 L3712.93 592.472 L3695.75 592.112 L3690.11 575.888 Z" fill="#add8e6" fill-rule="evenodd" fill-opacity="1" stroke="#000000" stroke-opacity="1" stroke-width="1.6"/>
<path clip-path="url(#clip183)" d="M3741.91 575.888 L3736.27 592.112 L3719.09 592.472 L3732.79 602.864 L3727.8 619.304 L3741.91 609.488 L3756.02 619.304 L3751.03 602.864 L3764.73 592.472 L3747.55 592.112 L3741.91 575.888 Z" fill="#add8e6" fill-rule="evenodd" fill-opacity="1" stroke="#000000" stroke-opacity="1" stroke-width="1.6"/>
<path clip-path="url(#clip183)" d="M3793.72 575.888 L3788.08 592.112 L3770.89 592.472 L3784.6 602.864 L3779.6 619.304 L3793.72 609.488 L3807.83 619.304 L3802.84 602.864 L3816.54 592.472 L3799.36 592.112 L3793.72 575.888 Z" fill="#add8e6" fill-rule="evenodd" fill-opacity="1" stroke="#000000" stroke-opacity="1" stroke-width="1.6"/>
<path clip-path="url(#clip183)" d="M3845.52 575.888 L3839.88 592.112 L3822.7 592.472 L3836.4 602.864 L3831.41 619.304 L3845.52 609.488 L3859.63 619.304 L3854.64 602.864 L3868.34 592.472 L3851.16 592.112 L3845.52 575.888 Z" fill="#add8e6" fill-rule="evenodd" fill-opacity="1" stroke="#000000" stroke-opacity="1" stroke-width="1.6"/>
</svg>
