<?xml version="1.0" encoding="utf-8"?>
<svg xmlns="http://www.w3.org/2000/svg" xmlns:xlink="http://www.w3.org/1999/xlink" width="600" height="400" viewBox="0 0 2400 1600">
<defs>
  <clipPath id="clip300">
    <rect x="0" y="0" width="2400" height="1600"/>
  </clipPath>
</defs>
<path clip-path="url(#clip300)" d="
M0 1600 L2400 1600 L2400 0 L0 0  Z
  " fill="#ffffff" fill-rule="evenodd" fill-opacity="1"/>
<defs>
  <clipPath id="clip301">
    <rect x="480" y="0" width="1681" height="1600"/>
  </clipPath>
</defs>
<path clip-path="url(#clip300)" d="
M201.876 1423.18 L2352.76 1423.18 L2352.76 123.472 L201.876 123.472  Z
  " fill="#ffffff" fill-rule="evenodd" fill-opacity="1"/>
<defs>
  <clipPath id="clip302">
    <rect x="201" y="123" width="2152" height="1301"/>
  </clipPath>
</defs>
<polyline clip-path="url(#clip302)" style="stroke:#000000; stroke-width:2; stroke-opacity:0.1; fill:none" points="
  330.489,1423.18 330.489,123.472 
  "/>
<polyline clip-path="url(#clip302)" style="stroke:#000000; stroke-width:2; stroke-opacity:0.1; fill:none" points="
  822.813,1423.18 822.813,123.472 
  "/>
<polyline clip-path="url(#clip302)" style="stroke:#000000; stroke-width:2; stroke-opacity:0.1; fill:none" points="
  1315.14,1423.18 1315.14,123.472 
  "/>
<polyline clip-path="url(#clip302)" style="stroke:#000000; stroke-width:2; stroke-opacity:0.1; fill:none" points="
  1807.46,1423.18 1807.46,123.472 
  "/>
<polyline clip-path="url(#clip302)" style="stroke:#000000; stroke-width:2; stroke-opacity:0.1; fill:none" points="
  2299.78,1423.18 2299.78,123.472 
  "/>
<polyline clip-path="url(#clip302)" style="stroke:#000000; stroke-width:2; stroke-opacity:0.1; fill:none" points="
  201.876,1386.4 2352.76,1386.4 
  "/>
<polyline clip-path="url(#clip302)" style="stroke:#000000; stroke-width:2; stroke-opacity:0.1; fill:none" points="
  201.876,1076.26 2352.76,1076.26 
  "/>
<polyline clip-path="url(#clip302)" style="stroke:#000000; stroke-width:2; stroke-opacity:0.1; fill:none" points="
  201.876,766.124 2352.76,766.124 
  "/>
<polyline clip-path="url(#clip302)" style="stroke:#000000; stroke-width:2; stroke-opacity:0.1; fill:none" points="
  201.876,455.988 2352.76,455.988 
  "/>
<polyline clip-path="url(#clip302)" style="stroke:#000000; stroke-width:2; stroke-opacity:0.1; fill:none" points="
  201.876,145.851 2352.76,145.851 
  "/>
<polyline clip-path="url(#clip300)" style="stroke:#000000; stroke-width:4; stroke-opacity:1; fill:none" points="
  201.876,1423.18 2352.76,1423.18 
  "/>
<polyline clip-path="url(#clip300)" style="stroke:#000000; stroke-width:4; stroke-opacity:1; fill:none" points="
  201.876,1423.18 201.876,123.472 
  "/>
<polyline clip-path="url(#clip300)" style="stroke:#000000; stroke-width:4; stroke-opacity:1; fill:none" points="
  330.489,1423.18 330.489,1407.58 
  "/>
<polyline clip-path="url(#clip300)" style="stroke:#000000; stroke-width:4; stroke-opacity:1; fill:none" points="
  822.813,1423.18 822.813,1407.58 
  "/>
<polyline clip-path="url(#clip300)" style="stroke:#000000; stroke-width:4; stroke-opacity:1; fill:none" points="
  1315.14,1423.18 1315.14,1407.58 
  "/>
<polyline clip-path="url(#clip300)" style="stroke:#000000; stroke-width:4; stroke-opacity:1; fill:none" points="
  1807.46,1423.18 1807.46,1407.58 
  "/>
<polyline clip-path="url(#clip300)" style="stroke:#000000; stroke-width:4; stroke-opacity:1; fill:none" points="
  2299.78,1423.18 2299.78,1407.58 
  "/>
<polyline clip-path="url(#clip300)" style="stroke:#000000; stroke-width:4; stroke-opacity:1; fill:none" points="
  201.876,1386.4 227.686,1386.4 
  "/>
<polyline clip-path="url(#clip300)" style="stroke:#000000; stroke-width:4; stroke-opacity:1; fill:none" points="
  201.876,1076.26 227.686,1076.26 
  "/>
<polyline clip-path="url(#clip300)" style="stroke:#000000; stroke-width:4; stroke-opacity:1; fill:none" points="
  201.876,766.124 227.686,766.124 
  "/>
<polyline clip-path="url(#clip300)" style="stroke:#000000; stroke-width:4; stroke-opacity:1; fill:none" points="
  201.876,455.988 227.686,455.988 
  "/>
<polyline clip-path="url(#clip300)" style="stroke:#000000; stroke-width:4; stroke-opacity:1; fill:none" points="
  201.876,145.851 227.686,145.851 
  "/>
<path clip-path="url(#clip300)" d="M 0 0 M330.489 1445.17 Q326.878 1445.17 325.049 1448.74 Q323.244 1452.28 323.244 1459.41 Q323.244 1466.51 325.049 1470.08 Q326.878 1473.62 330.489 1473.62 Q334.123 1473.62 335.929 1470.08 Q337.758 1466.51 337.758 1459.41 Q337.758 1452.28 335.929 1448.74 Q334.123 1445.17 330.489 1445.17 M330.489 1441.47 Q336.299 1441.47 339.355 1446.07 Q342.433 1450.66 342.433 1459.41 Q342.433 1468.13 339.355 1472.74 Q336.299 1477.32 330.489 1477.32 Q324.679 1477.32 321.6 1472.74 Q318.545 1468.13 318.545 1459.41 Q318.545 1450.66 321.6 1446.07 Q324.679 1441.47 330.489 1441.47 Z" fill="#000000" fill-rule="evenodd" fill-opacity="1" /><path clip-path="url(#clip300)" d="M 0 0 M803.959 1472.72 L820.278 1472.72 L820.278 1476.65 L798.334 1476.65 L798.334 1472.72 Q800.996 1469.96 805.579 1465.33 Q810.186 1460.68 811.366 1459.34 Q813.611 1456.81 814.491 1455.08 Q815.394 1453.32 815.394 1451.63 Q815.394 1448.87 813.449 1447.14 Q811.528 1445.4 808.426 1445.4 Q806.227 1445.4 803.774 1446.17 Q801.343 1446.93 798.565 1448.48 L798.565 1443.76 Q801.389 1442.62 803.843 1442.05 Q806.297 1441.47 808.334 1441.47 Q813.704 1441.47 816.898 1444.15 Q820.093 1446.84 820.093 1451.33 Q820.093 1453.46 819.283 1455.38 Q818.496 1457.28 816.389 1459.87 Q815.811 1460.54 812.709 1463.76 Q809.607 1466.95 803.959 1472.72 Z" fill="#000000" fill-rule="evenodd" fill-opacity="1" /><path clip-path="url(#clip300)" d="M 0 0 M835.347 1445.17 Q831.736 1445.17 829.908 1448.74 Q828.102 1452.28 828.102 1459.41 Q828.102 1466.51 829.908 1470.08 Q831.736 1473.62 835.347 1473.62 Q838.982 1473.62 840.787 1470.08 Q842.616 1466.51 842.616 1459.41 Q842.616 1452.28 840.787 1448.74 Q838.982 1445.17 835.347 1445.17 M835.347 1441.47 Q841.158 1441.47 844.213 1446.07 Q847.292 1450.66 847.292 1459.41 Q847.292 1468.13 844.213 1472.74 Q841.158 1477.32 835.347 1477.32 Q829.537 1477.32 826.459 1472.74 Q823.403 1468.13 823.403 1459.41 Q823.403 1450.66 826.459 1446.07 Q829.537 1441.47 835.347 1441.47 Z" fill="#000000" fill-rule="evenodd" fill-opacity="1" /><path clip-path="url(#clip300)" d="M 0 0 M1304.64 1446.17 L1292.83 1464.61 L1304.64 1464.61 L1304.64 1446.17 M1303.41 1442.09 L1309.29 1442.09 L1309.29 1464.61 L1314.22 1464.61 L1314.22 1468.5 L1309.29 1468.5 L1309.29 1476.65 L1304.64 1476.65 L1304.64 1468.5 L1289.04 1468.5 L1289.04 1463.99 L1303.41 1442.09 Z" fill="#000000" fill-rule="evenodd" fill-opacity="1" /><path clip-path="url(#clip300)" d="M 0 0 M1329.29 1445.17 Q1325.68 1445.17 1323.85 1448.74 Q1322.05 1452.28 1322.05 1459.41 Q1322.05 1466.51 1323.85 1470.08 Q1325.68 1473.62 1329.29 1473.62 Q1332.93 1473.62 1334.73 1470.08 Q1336.56 1466.51 1336.56 1459.41 Q1336.56 1452.28 1334.73 1448.74 Q1332.93 1445.17 1329.29 1445.17 M1329.29 1441.47 Q1335.1 1441.47 1338.16 1446.07 Q1341.24 1450.66 1341.24 1459.41 Q1341.24 1468.13 1338.16 1472.74 Q1335.1 1477.32 1329.29 1477.32 Q1323.48 1477.32 1320.4 1472.74 Q1317.35 1468.13 1317.35 1459.41 Q1317.35 1450.66 1320.4 1446.07 Q1323.48 1441.47 1329.29 1441.47 Z" fill="#000000" fill-rule="evenodd" fill-opacity="1" /><path clip-path="url(#clip300)" d="M 0 0 M1794.36 1457.51 Q1791.21 1457.51 1789.36 1459.66 Q1787.53 1461.81 1787.53 1465.56 Q1787.53 1469.29 1789.36 1471.47 Q1791.21 1473.62 1794.36 1473.62 Q1797.51 1473.62 1799.34 1471.47 Q1801.19 1469.29 1801.19 1465.56 Q1801.19 1461.81 1799.34 1459.66 Q1797.51 1457.51 1794.36 1457.51 M1803.64 1442.86 L1803.64 1447.11 Q1801.88 1446.28 1800.08 1445.84 Q1798.29 1445.4 1796.53 1445.4 Q1791.9 1445.4 1789.45 1448.53 Q1787.02 1451.65 1786.67 1457.97 Q1788.04 1455.96 1790.1 1454.89 Q1792.16 1453.8 1794.64 1453.8 Q1799.84 1453.8 1802.85 1456.98 Q1805.89 1460.12 1805.89 1465.56 Q1805.89 1470.89 1802.74 1474.11 Q1799.59 1477.32 1794.36 1477.32 Q1788.36 1477.32 1785.19 1472.74 Q1782.02 1468.13 1782.02 1459.41 Q1782.02 1451.21 1785.91 1446.35 Q1789.8 1441.47 1796.35 1441.47 Q1798.11 1441.47 1799.89 1441.81 Q1801.7 1442.16 1803.64 1442.86 Z" fill="#000000" fill-rule="evenodd" fill-opacity="1" /><path clip-path="url(#clip300)" d="M 0 0 M1820.96 1445.17 Q1817.34 1445.17 1815.52 1448.74 Q1813.71 1452.28 1813.71 1459.41 Q1813.71 1466.51 1815.52 1470.08 Q1817.34 1473.62 1820.96 1473.62 Q1824.59 1473.62 1826.4 1470.08 Q1828.22 1466.51 1828.22 1459.41 Q1828.22 1452.28 1826.4 1448.74 Q1824.59 1445.17 1820.96 1445.17 M1820.96 1441.47 Q1826.77 1441.47 1829.82 1446.07 Q1832.9 1450.66 1832.9 1459.41 Q1832.9 1468.13 1829.82 1472.74 Q1826.77 1477.32 1820.96 1477.32 Q1815.15 1477.32 1812.07 1472.74 Q1809.01 1468.13 1809.01 1459.41 Q1809.01 1450.66 1812.07 1446.07 Q1815.15 1441.47 1820.96 1441.47 Z" fill="#000000" fill-rule="evenodd" fill-opacity="1" /><path clip-path="url(#clip300)" d="M 0 0 M2286.28 1460.24 Q2282.94 1460.24 2281.02 1462.02 Q2279.12 1463.8 2279.12 1466.93 Q2279.12 1470.05 2281.02 1471.84 Q2282.94 1473.62 2286.28 1473.62 Q2289.61 1473.62 2291.53 1471.84 Q2293.45 1470.03 2293.45 1466.93 Q2293.45 1463.8 2291.53 1462.02 Q2289.63 1460.24 2286.28 1460.24 M2281.6 1458.25 Q2278.59 1457.51 2276.9 1455.45 Q2275.24 1453.39 2275.24 1450.43 Q2275.24 1446.28 2278.18 1443.87 Q2281.14 1441.47 2286.28 1441.47 Q2291.44 1441.47 2294.38 1443.87 Q2297.32 1446.28 2297.32 1450.43 Q2297.32 1453.39 2295.63 1455.45 Q2293.96 1457.51 2290.98 1458.25 Q2294.36 1459.04 2296.23 1461.33 Q2298.13 1463.62 2298.13 1466.93 Q2298.13 1471.95 2295.05 1474.64 Q2291.99 1477.32 2286.28 1477.32 Q2280.56 1477.32 2277.48 1474.64 Q2274.43 1471.95 2274.43 1466.93 Q2274.43 1463.62 2276.32 1461.33 Q2278.22 1459.04 2281.6 1458.25 M2279.89 1450.86 Q2279.89 1453.55 2281.55 1455.05 Q2283.24 1456.56 2286.28 1456.56 Q2289.29 1456.56 2290.98 1455.05 Q2292.69 1453.55 2292.69 1450.86 Q2292.69 1448.18 2290.98 1446.68 Q2289.29 1445.17 2286.28 1445.17 Q2283.24 1445.17 2281.55 1446.68 Q2279.89 1448.18 2279.89 1450.86 Z" fill="#000000" fill-rule="evenodd" fill-opacity="1" /><path clip-path="url(#clip300)" d="M 0 0 M2313.2 1445.17 Q2309.59 1445.17 2307.76 1448.74 Q2305.95 1452.28 2305.95 1459.41 Q2305.95 1466.51 2307.76 1470.08 Q2309.59 1473.62 2313.2 1473.62 Q2316.83 1473.62 2318.64 1470.08 Q2320.47 1466.51 2320.47 1459.41 Q2320.47 1452.28 2318.64 1448.74 Q2316.83 1445.17 2313.2 1445.17 M2313.2 1441.47 Q2319.01 1441.47 2322.06 1446.07 Q2325.14 1450.66 2325.14 1459.41 Q2325.14 1468.13 2322.06 1472.74 Q2319.01 1477.32 2313.2 1477.32 Q2307.39 1477.32 2304.31 1472.74 Q2301.25 1468.13 2301.25 1459.41 Q2301.25 1450.66 2304.31 1446.07 Q2307.39 1441.47 2313.2 1441.47 Z" fill="#000000" fill-rule="evenodd" fill-opacity="1" /><path clip-path="url(#clip300)" d="M 0 0 M74.9365 1372.19 Q71.3254 1372.19 69.4967 1375.76 Q67.6912 1379.3 67.6912 1386.43 Q67.6912 1393.54 69.4967 1397.1 Q71.3254 1400.64 74.9365 1400.64 Q78.5707 1400.64 80.3763 1397.1 Q82.205 1393.54 82.205 1386.43 Q82.205 1379.3 80.3763 1375.76 Q78.5707 1372.19 74.9365 1372.19 M74.9365 1368.49 Q80.7467 1368.49 83.8022 1373.1 Q86.8809 1377.68 86.8809 1386.43 Q86.8809 1395.16 83.8022 1399.76 Q80.7467 1404.35 74.9365 1404.35 Q69.1264 1404.35 66.0477 1399.76 Q62.9921 1395.16 62.9921 1386.43 Q62.9921 1377.68 66.0477 1373.1 Q69.1264 1368.49 74.9365 1368.49 Z" fill="#000000" fill-rule="evenodd" fill-opacity="1" /><path clip-path="url(#clip300)" d="M 0 0 M91.9503 1397.8 L96.8345 1397.8 L96.8345 1403.68 L91.9503 1403.68 L91.9503 1397.8 Z" fill="#000000" fill-rule="evenodd" fill-opacity="1" /><path clip-path="url(#clip300)" d="M 0 0 M111.904 1372.19 Q108.293 1372.19 106.464 1375.76 Q104.659 1379.3 104.659 1386.43 Q104.659 1393.54 106.464 1397.1 Q108.293 1400.64 111.904 1400.64 Q115.538 1400.64 117.344 1397.1 Q119.172 1393.54 119.172 1386.43 Q119.172 1379.3 117.344 1375.76 Q115.538 1372.19 111.904 1372.19 M111.904 1368.49 Q117.714 1368.49 120.77 1373.1 Q123.848 1377.68 123.848 1386.43 Q123.848 1395.16 120.77 1399.76 Q117.714 1404.35 111.904 1404.35 Q106.094 1404.35 103.015 1399.76 Q99.9595 1395.16 99.9595 1386.43 Q99.9595 1377.68 103.015 1373.1 Q106.094 1368.49 111.904 1368.49 Z" fill="#000000" fill-rule="evenodd" fill-opacity="1" /><path clip-path="url(#clip300)" d="M 0 0 M138.918 1372.19 Q135.307 1372.19 133.478 1375.76 Q131.672 1379.3 131.672 1386.43 Q131.672 1393.54 133.478 1397.1 Q135.307 1400.64 138.918 1400.64 Q142.552 1400.64 144.357 1397.1 Q146.186 1393.54 146.186 1386.43 Q146.186 1379.3 144.357 1375.76 Q142.552 1372.19 138.918 1372.19 M138.918 1368.49 Q144.728 1368.49 147.783 1373.1 Q150.862 1377.68 150.862 1386.43 Q150.862 1395.16 147.783 1399.76 Q144.728 1404.35 138.918 1404.35 Q133.107 1404.35 130.029 1399.76 Q126.973 1395.16 126.973 1386.43 Q126.973 1377.68 130.029 1373.1 Q133.107 1368.49 138.918 1368.49 Z" fill="#000000" fill-rule="evenodd" fill-opacity="1" /><path clip-path="url(#clip300)" d="M 0 0 M165.931 1372.19 Q162.32 1372.19 160.492 1375.76 Q158.686 1379.3 158.686 1386.43 Q158.686 1393.54 160.492 1397.1 Q162.32 1400.64 165.931 1400.64 Q169.566 1400.64 171.371 1397.1 Q173.2 1393.54 173.2 1386.43 Q173.2 1379.3 171.371 1375.76 Q169.566 1372.19 165.931 1372.19 M165.931 1368.49 Q171.742 1368.49 174.797 1373.1 Q177.876 1377.68 177.876 1386.43 Q177.876 1395.16 174.797 1399.76 Q171.742 1404.35 165.931 1404.35 Q160.121 1404.35 157.043 1399.76 Q153.987 1395.16 153.987 1386.43 Q153.987 1377.68 157.043 1373.1 Q160.121 1368.49 165.931 1368.49 Z" fill="#000000" fill-rule="evenodd" fill-opacity="1" /><path clip-path="url(#clip300)" d="M 0 0 M77.5291 1062.06 Q73.918 1062.06 72.0893 1065.62 Q70.2838 1069.16 70.2838 1076.29 Q70.2838 1083.4 72.0893 1086.97 Q73.918 1090.51 77.5291 1090.51 Q81.1633 1090.51 82.9689 1086.97 Q84.7976 1083.4 84.7976 1076.29 Q84.7976 1069.16 82.9689 1065.62 Q81.1633 1062.06 77.5291 1062.06 M77.5291 1058.35 Q83.3392 1058.35 86.3948 1062.96 Q89.4735 1067.54 89.4735 1076.29 Q89.4735 1085.02 86.3948 1089.63 Q83.3392 1094.21 77.5291 1094.21 Q71.7189 1094.21 68.6402 1089.63 Q65.5847 1085.02 65.5847 1076.29 Q65.5847 1067.54 68.6402 1062.96 Q71.7189 1058.35 77.5291 1058.35 Z" fill="#000000" fill-rule="evenodd" fill-opacity="1" /><path clip-path="url(#clip300)" d="M 0 0 M94.5429 1087.66 L99.4271 1087.66 L99.4271 1093.54 L94.5429 1093.54 L94.5429 1087.66 Z" fill="#000000" fill-rule="evenodd" fill-opacity="1" /><path clip-path="url(#clip300)" d="M 0 0 M114.496 1062.06 Q110.885 1062.06 109.057 1065.62 Q107.251 1069.16 107.251 1076.29 Q107.251 1083.4 109.057 1086.97 Q110.885 1090.51 114.496 1090.51 Q118.131 1090.51 119.936 1086.97 Q121.765 1083.4 121.765 1076.29 Q121.765 1069.16 119.936 1065.62 Q118.131 1062.06 114.496 1062.06 M114.496 1058.35 Q120.307 1058.35 123.362 1062.96 Q126.441 1067.54 126.441 1076.29 Q126.441 1085.02 123.362 1089.63 Q120.307 1094.21 114.496 1094.21 Q108.686 1094.21 105.608 1089.63 Q102.552 1085.02 102.552 1076.29 Q102.552 1067.54 105.608 1062.96 Q108.686 1058.35 114.496 1058.35 Z" fill="#000000" fill-rule="evenodd" fill-opacity="1" /><path clip-path="url(#clip300)" d="M 0 0 M135.538 1089.6 L151.857 1089.6 L151.857 1093.54 L129.913 1093.54 L129.913 1089.6 Q132.575 1086.85 137.158 1082.22 Q141.765 1077.57 142.945 1076.22 Q145.191 1073.7 146.07 1071.97 Q146.973 1070.21 146.973 1068.52 Q146.973 1065.76 145.029 1064.03 Q143.107 1062.29 140.006 1062.29 Q137.807 1062.29 135.353 1063.05 Q132.922 1063.82 130.145 1065.37 L130.145 1060.65 Q132.969 1059.51 135.422 1058.93 Q137.876 1058.35 139.913 1058.35 Q145.283 1058.35 148.478 1061.04 Q151.672 1063.72 151.672 1068.22 Q151.672 1070.35 150.862 1072.27 Q150.075 1074.16 147.969 1076.76 Q147.39 1077.43 144.288 1080.65 Q141.186 1083.84 135.538 1089.6 Z" fill="#000000" fill-rule="evenodd" fill-opacity="1" /><path clip-path="url(#clip300)" d="M 0 0 M156.973 1058.98 L175.329 1058.98 L175.329 1062.91 L161.255 1062.91 L161.255 1071.39 Q162.274 1071.04 163.293 1070.88 Q164.311 1070.69 165.33 1070.69 Q171.117 1070.69 174.496 1073.86 Q177.876 1077.04 177.876 1082.45 Q177.876 1088.03 174.404 1091.13 Q170.931 1094.21 164.612 1094.21 Q162.436 1094.21 160.168 1093.84 Q157.922 1093.47 155.515 1092.73 L155.515 1088.03 Q157.598 1089.16 159.82 1089.72 Q162.043 1090.28 164.519 1090.28 Q168.524 1090.28 170.862 1088.17 Q173.2 1086.06 173.2 1082.45 Q173.2 1078.84 170.862 1076.73 Q168.524 1074.63 164.519 1074.63 Q162.644 1074.63 160.769 1075.04 Q158.918 1075.46 156.973 1076.34 L156.973 1058.98 Z" fill="#000000" fill-rule="evenodd" fill-opacity="1" /><path clip-path="url(#clip300)" d="M 0 0 M75.9319 751.922 Q72.3208 751.922 70.4921 755.487 Q68.6865 759.029 68.6865 766.158 Q68.6865 773.265 70.4921 776.83 Q72.3208 780.371 75.9319 780.371 Q79.5661 780.371 81.3717 776.83 Q83.2004 773.265 83.2004 766.158 Q83.2004 759.029 81.3717 755.487 Q79.5661 751.922 75.9319 751.922 M75.9319 748.219 Q81.742 748.219 84.7976 752.825 Q87.8763 757.408 87.8763 766.158 Q87.8763 774.885 84.7976 779.492 Q81.742 784.075 75.9319 784.075 Q70.1217 784.075 67.043 779.492 Q63.9875 774.885 63.9875 766.158 Q63.9875 757.408 67.043 752.825 Q70.1217 748.219 75.9319 748.219 Z" fill="#000000" fill-rule="evenodd" fill-opacity="1" /><path clip-path="url(#clip300)" d="M 0 0 M92.9457 777.524 L97.8299 777.524 L97.8299 783.404 L92.9457 783.404 L92.9457 777.524 Z" fill="#000000" fill-rule="evenodd" fill-opacity="1" /><path clip-path="url(#clip300)" d="M 0 0 M112.899 751.922 Q109.288 751.922 107.459 755.487 Q105.654 759.029 105.654 766.158 Q105.654 773.265 107.459 776.83 Q109.288 780.371 112.899 780.371 Q116.534 780.371 118.339 776.83 Q120.168 773.265 120.168 766.158 Q120.168 759.029 118.339 755.487 Q116.534 751.922 112.899 751.922 M112.899 748.219 Q118.709 748.219 121.765 752.825 Q124.844 757.408 124.844 766.158 Q124.844 774.885 121.765 779.492 Q118.709 784.075 112.899 784.075 Q107.089 784.075 104.01 779.492 Q100.955 774.885 100.955 766.158 Q100.955 757.408 104.01 752.825 Q107.089 748.219 112.899 748.219 Z" fill="#000000" fill-rule="evenodd" fill-opacity="1" /><path clip-path="url(#clip300)" d="M 0 0 M129.959 748.844 L148.316 748.844 L148.316 752.779 L134.242 752.779 L134.242 761.251 Q135.26 760.904 136.279 760.742 Q137.297 760.556 138.316 760.556 Q144.103 760.556 147.482 763.728 Q150.862 766.899 150.862 772.316 Q150.862 777.894 147.39 780.996 Q143.918 784.075 137.598 784.075 Q135.422 784.075 133.154 783.704 Q130.908 783.334 128.501 782.593 L128.501 777.894 Q130.584 779.029 132.807 779.584 Q135.029 780.14 137.506 780.14 Q141.51 780.14 143.848 778.033 Q146.186 775.927 146.186 772.316 Q146.186 768.705 143.848 766.598 Q141.51 764.492 137.506 764.492 Q135.631 764.492 133.756 764.908 Q131.904 765.325 129.959 766.205 L129.959 748.844 Z" fill="#000000" fill-rule="evenodd" fill-opacity="1" /><path clip-path="url(#clip300)" d="M 0 0 M165.931 751.922 Q162.32 751.922 160.492 755.487 Q158.686 759.029 158.686 766.158 Q158.686 773.265 160.492 776.83 Q162.32 780.371 165.931 780.371 Q169.566 780.371 171.371 776.83 Q173.2 773.265 173.2 766.158 Q173.2 759.029 171.371 755.487 Q169.566 751.922 165.931 751.922 M165.931 748.219 Q171.742 748.219 174.797 752.825 Q177.876 757.408 177.876 766.158 Q177.876 774.885 174.797 779.492 Q171.742 784.075 165.931 784.075 Q160.121 784.075 157.043 779.492 Q153.987 774.885 153.987 766.158 Q153.987 757.408 157.043 752.825 Q160.121 748.219 165.931 748.219 Z" fill="#000000" fill-rule="evenodd" fill-opacity="1" /><path clip-path="url(#clip300)" d="M 0 0 M76.8346 441.786 Q73.2236 441.786 71.3949 445.351 Q69.5893 448.893 69.5893 456.022 Q69.5893 463.129 71.3949 466.693 Q73.2236 470.235 76.8346 470.235 Q80.4689 470.235 82.2744 466.693 Q84.1031 463.129 84.1031 456.022 Q84.1031 448.893 82.2744 445.351 Q80.4689 441.786 76.8346 441.786 M76.8346 438.083 Q82.6448 438.083 85.7003 442.689 Q88.779 447.272 88.779 456.022 Q88.779 464.749 85.7003 469.356 Q82.6448 473.939 76.8346 473.939 Q71.0245 473.939 67.9458 469.356 Q64.8903 464.749 64.8903 456.022 Q64.8903 447.272 67.9458 442.689 Q71.0245 438.083 76.8346 438.083 Z" fill="#000000" fill-rule="evenodd" fill-opacity="1" /><path clip-path="url(#clip300)" d="M 0 0 M93.8484 467.388 L98.7327 467.388 L98.7327 473.268 L93.8484 473.268 L93.8484 467.388 Z" fill="#000000" fill-rule="evenodd" fill-opacity="1" /><path clip-path="url(#clip300)" d="M 0 0 M113.802 441.786 Q110.191 441.786 108.362 445.351 Q106.557 448.893 106.557 456.022 Q106.557 463.129 108.362 466.693 Q110.191 470.235 113.802 470.235 Q117.436 470.235 119.242 466.693 Q121.071 463.129 121.071 456.022 Q121.071 448.893 119.242 445.351 Q117.436 441.786 113.802 441.786 M113.802 438.083 Q119.612 438.083 122.668 442.689 Q125.746 447.272 125.746 456.022 Q125.746 464.749 122.668 469.356 Q119.612 473.939 113.802 473.939 Q107.992 473.939 104.913 469.356 Q101.858 464.749 101.858 456.022 Q101.858 447.272 104.913 442.689 Q107.992 438.083 113.802 438.083 Z" fill="#000000" fill-rule="evenodd" fill-opacity="1" /><path clip-path="url(#clip300)" d="M 0 0 M129.635 438.708 L151.857 438.708 L151.857 440.698 L139.311 473.268 L134.427 473.268 L146.232 442.643 L129.635 442.643 L129.635 438.708 Z" fill="#000000" fill-rule="evenodd" fill-opacity="1" /><path clip-path="url(#clip300)" d="M 0 0 M156.973 438.708 L175.329 438.708 L175.329 442.643 L161.255 442.643 L161.255 451.115 Q162.274 450.768 163.293 450.606 Q164.311 450.42 165.33 450.42 Q171.117 450.42 174.496 453.592 Q177.876 456.763 177.876 462.18 Q177.876 467.758 174.404 470.86 Q170.931 473.939 164.612 473.939 Q162.436 473.939 160.168 473.568 Q157.922 473.198 155.515 472.457 L155.515 467.758 Q157.598 468.893 159.82 469.448 Q162.043 470.004 164.519 470.004 Q168.524 470.004 170.862 467.897 Q173.2 465.791 173.2 462.18 Q173.2 458.569 170.862 456.462 Q168.524 454.356 164.519 454.356 Q162.644 454.356 160.769 454.772 Q158.918 455.189 156.973 456.069 L156.973 438.708 Z" fill="#000000" fill-rule="evenodd" fill-opacity="1" /><path clip-path="url(#clip300)" d="M 0 0 M76.1634 131.65 Q72.5523 131.65 70.7236 135.215 Q68.918 138.757 68.918 145.886 Q68.918 152.993 70.7236 156.557 Q72.5523 160.099 76.1634 160.099 Q79.7976 160.099 81.6031 156.557 Q83.4318 152.993 83.4318 145.886 Q83.4318 138.757 81.6031 135.215 Q79.7976 131.65 76.1634 131.65 M76.1634 127.946 Q81.9735 127.946 85.029 132.553 Q88.1077 137.136 88.1077 145.886 Q88.1077 154.613 85.029 159.219 Q81.9735 163.803 76.1634 163.803 Q70.3532 163.803 67.2745 159.219 Q64.219 154.613 64.219 145.886 Q64.219 137.136 67.2745 132.553 Q70.3532 127.946 76.1634 127.946 Z" fill="#000000" fill-rule="evenodd" fill-opacity="1" /><path clip-path="url(#clip300)" d="M 0 0 M93.1771 157.252 L98.0614 157.252 L98.0614 163.131 L93.1771 163.131 L93.1771 157.252 Z" fill="#000000" fill-rule="evenodd" fill-opacity="1" /><path clip-path="url(#clip300)" d="M 0 0 M103.941 159.196 L111.58 159.196 L111.58 132.831 L103.27 134.497 L103.27 130.238 L111.534 128.571 L116.209 128.571 L116.209 159.196 L123.848 159.196 L123.848 163.131 L103.941 163.131 L103.941 159.196 Z" fill="#000000" fill-rule="evenodd" fill-opacity="1" /><path clip-path="url(#clip300)" d="M 0 0 M138.918 131.65 Q135.307 131.65 133.478 135.215 Q131.672 138.757 131.672 145.886 Q131.672 152.993 133.478 156.557 Q135.307 160.099 138.918 160.099 Q142.552 160.099 144.357 156.557 Q146.186 152.993 146.186 145.886 Q146.186 138.757 144.357 135.215 Q142.552 131.65 138.918 131.65 M138.918 127.946 Q144.728 127.946 147.783 132.553 Q150.862 137.136 150.862 145.886 Q150.862 154.613 147.783 159.219 Q144.728 163.803 138.918 163.803 Q133.107 163.803 130.029 159.219 Q126.973 154.613 126.973 145.886 Q126.973 137.136 130.029 132.553 Q133.107 127.946 138.918 127.946 Z" fill="#000000" fill-rule="evenodd" fill-opacity="1" /><path clip-path="url(#clip300)" d="M 0 0 M165.931 131.65 Q162.32 131.65 160.492 135.215 Q158.686 138.757 158.686 145.886 Q158.686 152.993 160.492 156.557 Q162.32 160.099 165.931 160.099 Q169.566 160.099 171.371 156.557 Q173.2 152.993 173.2 145.886 Q173.2 138.757 171.371 135.215 Q169.566 131.65 165.931 131.65 M165.931 127.946 Q171.742 127.946 174.797 132.553 Q177.876 137.136 177.876 145.886 Q177.876 154.613 174.797 159.219 Q171.742 163.803 165.931 163.803 Q160.121 163.803 157.043 159.219 Q153.987 154.613 153.987 145.886 Q153.987 137.136 157.043 132.553 Q160.121 127.946 165.931 127.946 Z" fill="#000000" fill-rule="evenodd" fill-opacity="1" /><path clip-path="url(#clip300)" d="M 0 0 M415.182 18.8205 L415.182 65.8515 L425.066 65.8515 Q437.584 65.8515 443.376 60.1802 Q449.21 54.509 449.21 42.2752 Q449.21 30.1225 443.376 24.4918 Q437.584 18.8205 425.066 18.8205 L415.182 18.8205 M406.999 12.096 L423.811 12.096 Q441.391 12.096 449.615 19.4281 Q457.838 26.7198 457.838 42.2752 Q457.838 57.9117 449.574 65.2439 Q441.31 72.576 423.811 72.576 L406.999 72.576 L406.999 12.096 Z" fill="#000000" fill-rule="evenodd" fill-opacity="1" /><path clip-path="url(#clip300)" d="M 0 0 M465.656 27.2059 L473.11 27.2059 L473.11 72.576 L465.656 72.576 L465.656 27.2059 M465.656 9.54393 L473.11 9.54393 L473.11 18.9825 L465.656 18.9825 L465.656 9.54393 Z" fill="#000000" fill-rule="evenodd" fill-opacity="1" /><path clip-path="url(#clip300)" d="M 0 0 M475.581 27.2059 L483.48 27.2059 L497.659 65.2844 L511.837 27.2059 L519.736 27.2059 L502.722 72.576 L492.595 72.576 L475.581 27.2059 Z" fill="#000000" fill-rule="evenodd" fill-opacity="1" /><path clip-path="url(#clip300)" d="M 0 0 M566.362 48.0275 L566.362 51.6733 L532.091 51.6733 Q532.577 59.3701 536.709 63.421 Q540.882 67.4314 548.295 67.4314 Q552.589 67.4314 556.599 66.3781 Q560.65 65.3249 564.62 63.2184 L564.62 70.267 Q560.61 71.9684 556.397 72.8596 Q552.184 73.7508 547.849 73.7508 Q536.993 73.7508 530.633 67.4314 Q524.314 61.1119 524.314 50.3365 Q524.314 39.1965 530.309 32.6746 Q536.345 26.1121 546.553 26.1121 Q555.708 26.1121 561.015 32.0264 Q566.362 37.9003 566.362 48.0275 M558.908 45.84 Q558.827 39.7232 555.465 36.0774 Q552.143 32.4315 546.634 32.4315 Q540.396 32.4315 536.628 35.9558 Q532.901 39.4801 532.334 45.8805 L558.908 45.84 Z" fill="#000000" fill-rule="evenodd" fill-opacity="1" /><path clip-path="url(#clip300)" d="M 0 0 M600.471 34.1734 Q599.215 33.4443 597.716 33.1202 Q596.258 32.7556 594.475 32.7556 Q588.156 32.7556 584.753 36.8875 Q581.391 40.9789 581.391 48.6757 L581.391 72.576 L573.897 72.576 L573.897 27.2059 L581.391 27.2059 L581.391 34.2544 Q583.74 30.1225 587.508 28.1376 Q591.275 26.1121 596.663 26.1121 Q597.432 26.1121 598.364 26.2337 Q599.296 26.3147 600.43 26.5172 L600.471 34.1734 Z" fill="#000000" fill-rule="evenodd" fill-opacity="1" /><path clip-path="url(#clip300)" d="M 0 0 M637.212 28.5427 L637.212 35.5912 Q634.053 33.9709 630.65 33.1607 Q627.247 32.3505 623.601 32.3505 Q618.051 32.3505 615.256 34.0519 Q612.502 35.7533 612.502 39.156 Q612.502 41.7486 614.487 43.2475 Q616.472 44.7058 622.467 46.0426 L625.019 46.6097 Q632.959 48.3111 636.28 51.4303 Q639.643 54.509 639.643 60.0587 Q639.643 66.3781 634.62 70.0644 Q629.637 73.7508 620.887 73.7508 Q617.241 73.7508 613.271 73.0216 Q609.342 72.3329 604.967 70.9151 L604.967 63.2184 Q609.099 65.3654 613.109 66.4591 Q617.12 67.5124 621.049 67.5124 Q626.315 67.5124 629.151 65.73 Q631.987 63.9071 631.987 60.6258 Q631.987 57.5877 629.921 55.9673 Q627.895 54.3469 620.968 52.8481 L618.376 52.2405 Q611.448 50.7821 608.37 47.7845 Q605.291 44.7463 605.291 39.4801 Q605.291 33.0797 609.828 29.5959 Q614.365 26.1121 622.71 26.1121 Q626.842 26.1121 630.488 26.7198 Q634.134 27.3274 637.212 28.5427 Z" fill="#000000" fill-rule="evenodd" fill-opacity="1" /><path clip-path="url(#clip300)" d="M 0 0 M647.461 27.2059 L654.915 27.2059 L654.915 72.576 L647.461 72.576 L647.461 27.2059 M647.461 9.54393 L654.915 9.54393 L654.915 18.9825 L647.461 18.9825 L647.461 9.54393 Z" fill="#000000" fill-rule="evenodd" fill-opacity="1" /><path clip-path="url(#clip300)" d="M 0 0 M670.106 14.324 L670.106 27.2059 L685.458 27.2059 L685.458 32.9987 L670.106 32.9987 L670.106 57.6282 Q670.106 63.1779 671.604 64.7578 Q673.144 66.3376 677.802 66.3376 L685.458 66.3376 L685.458 72.576 L677.802 72.576 Q669.174 72.576 665.893 69.3758 Q662.611 66.1351 662.611 57.6282 L662.611 32.9987 L657.143 32.9987 L657.143 27.2059 L662.611 27.2059 L662.611 14.324 L670.106 14.324 Z" fill="#000000" fill-rule="evenodd" fill-opacity="1" /><path clip-path="url(#clip300)" d="M 0 0 M712.154 76.7889 Q708.994 84.8907 705.997 87.3618 Q702.999 89.8329 697.976 89.8329 L692.021 89.8329 L692.021 83.5945 L696.396 83.5945 Q699.475 83.5945 701.176 82.1361 Q702.877 80.6778 704.943 75.2496 L706.28 71.8468 L687.93 27.2059 L695.829 27.2059 L710.007 62.6918 L724.185 27.2059 L732.084 27.2059 L712.154 76.7889 Z" fill="#000000" fill-rule="evenodd" fill-opacity="1" /><path clip-path="url(#clip300)" d="M 0 0 M802.854 14.0809 L802.854 22.0612 Q798.195 19.8332 794.063 18.7395 Q789.931 17.6457 786.083 17.6457 Q779.399 17.6457 775.753 20.2383 Q772.148 22.8309 772.148 27.611 Q772.148 31.6214 774.538 33.6873 Q776.968 35.7128 783.693 36.9686 L788.635 37.9813 Q797.79 39.7232 802.125 44.1387 Q806.499 48.5136 806.499 55.8863 Q806.499 64.6767 800.585 69.2137 Q794.711 73.7508 783.328 73.7508 Q779.034 73.7508 774.173 72.7785 Q769.353 71.8063 764.168 69.9024 L764.168 61.4765 Q769.15 64.2716 773.93 65.6895 Q778.71 67.1073 783.328 67.1073 Q790.336 67.1073 794.144 64.3527 Q797.952 61.598 797.952 56.4939 Q797.952 52.0379 795.197 49.5264 Q792.483 47.0148 786.245 45.759 L781.262 44.7868 Q772.107 42.9639 768.016 39.075 Q763.924 35.1862 763.924 28.2591 Q763.924 20.2383 769.555 15.6203 Q775.227 11.0023 785.151 11.0023 Q789.405 11.0023 793.82 11.7719 Q798.236 12.5416 802.854 14.0809 Z" fill="#000000" fill-rule="evenodd" fill-opacity="1" /><path clip-path="url(#clip300)" d="M 0 0 M846.968 28.9478 L846.968 35.9153 Q843.808 34.1734 840.608 33.3227 Q837.448 32.4315 834.208 32.4315 Q826.957 32.4315 822.946 37.0496 Q818.936 41.6271 818.936 49.9314 Q818.936 58.2358 822.946 62.8538 Q826.957 67.4314 834.208 67.4314 Q837.448 67.4314 840.608 66.5807 Q843.808 65.6895 846.968 63.9476 L846.968 70.8341 Q843.849 72.2924 840.487 73.0216 Q837.165 73.7508 833.397 73.7508 Q823.149 73.7508 817.113 67.3098 Q811.077 60.8689 811.077 49.9314 Q811.077 38.832 817.153 32.472 Q823.27 26.1121 833.884 26.1121 Q837.327 26.1121 840.608 26.8413 Q843.889 27.5299 846.968 28.9478 Z" fill="#000000" fill-rule="evenodd" fill-opacity="1" /><path clip-path="url(#clip300)" d="M 0 0 M872.367 32.4315 Q866.372 32.4315 862.888 37.1306 Q859.404 41.7891 859.404 49.9314 Q859.404 58.0738 862.848 62.7728 Q866.331 67.4314 872.367 67.4314 Q878.322 67.4314 881.806 62.7323 Q885.29 58.0333 885.29 49.9314 Q885.29 41.8701 881.806 37.1711 Q878.322 32.4315 872.367 32.4315 M872.367 26.1121 Q882.089 26.1121 887.639 32.4315 Q893.189 38.7509 893.189 49.9314 Q893.189 61.0714 887.639 67.4314 Q882.089 73.7508 872.367 73.7508 Q862.605 73.7508 857.055 67.4314 Q851.546 61.0714 851.546 49.9314 Q851.546 38.7509 857.055 32.4315 Q862.605 26.1121 872.367 26.1121 Z" fill="#000000" fill-rule="evenodd" fill-opacity="1" /><path clip-path="url(#clip300)" d="M 0 0 M927.297 34.1734 Q926.042 33.4443 924.543 33.1202 Q923.085 32.7556 921.302 32.7556 Q914.983 32.7556 911.58 36.8875 Q908.218 40.9789 908.218 48.6757 L908.218 72.576 L900.724 72.576 L900.724 27.2059 L908.218 27.2059 L908.218 34.2544 Q910.567 30.1225 914.335 28.1376 Q918.102 26.1121 923.49 26.1121 Q924.259 26.1121 925.191 26.2337 Q926.123 26.3147 927.257 26.5172 L927.297 34.1734 Z" fill="#000000" fill-rule="evenodd" fill-opacity="1" /><path clip-path="url(#clip300)" d="M 0 0 M972.1 48.0275 L972.1 51.6733 L937.83 51.6733 Q938.316 59.3701 942.448 63.421 Q946.62 67.4314 954.033 67.4314 Q958.327 67.4314 962.338 66.3781 Q966.389 65.3249 970.359 63.2184 L970.359 70.267 Q966.348 71.9684 962.135 72.8596 Q957.922 73.7508 953.588 73.7508 Q942.731 73.7508 936.371 67.4314 Q930.052 61.1119 930.052 50.3365 Q930.052 39.1965 936.047 32.6746 Q942.083 26.1121 952.292 26.1121 Q961.447 26.1121 966.753 32.0264 Q972.1 37.9003 972.1 48.0275 M964.647 45.84 Q964.566 39.7232 961.204 36.0774 Q957.882 32.4315 952.373 32.4315 Q946.134 32.4315 942.367 35.9558 Q938.64 39.4801 938.073 45.8805 L964.647 45.84 Z" fill="#000000" fill-rule="evenodd" fill-opacity="1" /><path clip-path="url(#clip300)" d="M 0 0 M1008.84 28.5427 L1008.84 35.5912 Q1005.68 33.9709 1002.28 33.1607 Q998.877 32.3505 995.231 32.3505 Q989.681 32.3505 986.886 34.0519 Q984.132 35.7533 984.132 39.156 Q984.132 41.7486 986.117 43.2475 Q988.102 44.7058 994.097 46.0426 L996.649 46.6097 Q1004.59 48.3111 1007.91 51.4303 Q1011.27 54.509 1011.27 60.0587 Q1011.27 66.3781 1006.25 70.0644 Q1001.27 73.7508 992.517 73.7508 Q988.871 73.7508 984.901 73.0216 Q980.972 72.3329 976.597 70.9151 L976.597 63.2184 Q980.729 65.3654 984.739 66.4591 Q988.75 67.5124 992.679 67.5124 Q997.945 67.5124 1000.78 65.73 Q1003.62 63.9071 1003.62 60.6258 Q1003.62 57.5877 1001.55 55.9673 Q999.525 54.3469 992.598 52.8481 L990.005 52.2405 Q983.078 50.7821 980 47.7845 Q976.921 44.7463 976.921 39.4801 Q976.921 33.0797 981.458 29.5959 Q985.995 26.1121 994.34 26.1121 Q998.472 26.1121 1002.12 26.7198 Q1005.76 27.3274 1008.84 28.5427 Z" fill="#000000" fill-rule="evenodd" fill-opacity="1" /><path clip-path="url(#clip300)" d="M 0 0 M1041.13 27.2059 L1048.58 27.2059 L1057.9 62.6108 L1067.18 27.2059 L1075.97 27.2059 L1085.28 62.6108 L1094.56 27.2059 L1102.01 27.2059 L1090.14 72.576 L1081.35 72.576 L1071.59 35.3887 L1061.79 72.576 L1053 72.576 L1041.13 27.2059 Z" fill="#000000" fill-rule="evenodd" fill-opacity="1" /><path clip-path="url(#clip300)" d="M 0 0 M1109.83 27.2059 L1117.28 27.2059 L1117.28 72.576 L1109.83 72.576 L1109.83 27.2059 M1109.83 9.54393 L1117.28 9.54393 L1117.28 18.9825 L1109.83 18.9825 L1109.83 9.54393 Z" fill="#000000" fill-rule="evenodd" fill-opacity="1" /><path clip-path="url(#clip300)" d="M 0 0 M1132.48 14.324 L1132.48 27.2059 L1147.83 27.2059 L1147.83 32.9987 L1132.48 32.9987 L1132.48 57.6282 Q1132.48 63.1779 1133.97 64.7578 Q1135.51 66.3376 1140.17 66.3376 L1147.83 66.3376 L1147.83 72.576 L1140.17 72.576 Q1131.54 72.576 1128.26 69.3758 Q1124.98 66.1351 1124.98 57.6282 L1124.98 32.9987 L1119.51 32.9987 L1119.51 27.2059 L1124.98 27.2059 L1124.98 14.324 L1132.48 14.324 Z" fill="#000000" fill-rule="evenodd" fill-opacity="1" /><path clip-path="url(#clip300)" d="M 0 0 M1193.36 45.1919 L1193.36 72.576 L1185.91 72.576 L1185.91 45.4349 Q1185.91 38.994 1183.4 35.7938 Q1180.88 32.5936 1175.86 32.5936 Q1169.83 32.5936 1166.34 36.4419 Q1162.86 40.2903 1162.86 46.9338 L1162.86 72.576 L1155.36 72.576 L1155.36 9.54393 L1162.86 9.54393 L1162.86 34.2544 Q1165.53 30.163 1169.14 28.1376 Q1172.78 26.1121 1177.52 26.1121 Q1185.34 26.1121 1189.35 30.9732 Q1193.36 35.7938 1193.36 45.1919 Z" fill="#000000" fill-rule="evenodd" fill-opacity="1" /><path clip-path="url(#clip300)" d="M 0 0 M1243.47 72.576 L1220.38 12.096 L1228.93 12.096 L1248.09 63.0159 L1267.29 12.096 L1275.8 12.096 L1252.75 72.576 L1243.47 72.576 Z" fill="#000000" fill-rule="evenodd" fill-opacity="1" /><path clip-path="url(#clip300)" d="M 0 0 M1297.79 49.7694 Q1288.76 49.7694 1285.28 51.8354 Q1281.79 53.9013 1281.79 58.8839 Q1281.79 62.8538 1284.38 65.2034 Q1287.02 67.5124 1291.51 67.5124 Q1297.71 67.5124 1301.44 63.1374 Q1305.21 58.7219 1305.21 51.4303 L1305.21 49.7694 L1297.79 49.7694 M1312.66 46.6907 L1312.66 72.576 L1305.21 72.576 L1305.21 65.6895 Q1302.65 69.8214 1298.85 71.8063 Q1295.04 73.7508 1289.53 73.7508 Q1282.56 73.7508 1278.43 69.8619 Q1274.34 65.9325 1274.34 59.3701 Q1274.34 51.7138 1279.44 47.825 Q1284.59 43.9361 1294.75 43.9361 L1305.21 43.9361 L1305.21 43.2069 Q1305.21 38.0623 1301.8 35.2672 Q1298.44 32.4315 1292.32 32.4315 Q1288.44 32.4315 1284.75 33.3632 Q1281.06 34.295 1277.66 36.1584 L1277.66 29.2718 Q1281.75 27.692 1285.6 26.9223 Q1289.45 26.1121 1293.09 26.1121 Q1302.94 26.1121 1307.8 31.2163 Q1312.66 36.3204 1312.66 46.6907 Z" fill="#000000" fill-rule="evenodd" fill-opacity="1" /><path clip-path="url(#clip300)" d="M 0 0 M1346.77 34.1734 Q1345.51 33.4443 1344.01 33.1202 Q1342.56 32.7556 1340.77 32.7556 Q1334.45 32.7556 1331.05 36.8875 Q1327.69 40.9789 1327.69 48.6757 L1327.69 72.576 L1320.19 72.576 L1320.19 27.2059 L1327.69 27.2059 L1327.69 34.2544 Q1330.04 30.1225 1333.81 28.1376 Q1337.57 26.1121 1342.96 26.1121 Q1343.73 26.1121 1344.66 26.2337 Q1345.59 26.3147 1346.73 26.5172 L1346.77 34.1734 Z" fill="#000000" fill-rule="evenodd" fill-opacity="1" /><path clip-path="url(#clip300)" d="M 0 0 M1373.46 76.7889 Q1370.3 84.8907 1367.31 87.3618 Q1364.31 89.8329 1359.29 89.8329 L1353.33 89.8329 L1353.33 83.5945 L1357.71 83.5945 Q1360.78 83.5945 1362.49 82.1361 Q1364.19 80.6778 1366.25 75.2496 L1367.59 71.8468 L1349.24 27.2059 L1357.14 27.2059 L1371.32 62.6918 L1385.5 27.2059 L1393.39 27.2059 L1373.46 76.7889 Z" fill="#000000" fill-rule="evenodd" fill-opacity="1" /><path clip-path="url(#clip300)" d="M 0 0 M1401.21 27.2059 L1408.67 27.2059 L1408.67 72.576 L1401.21 72.576 L1401.21 27.2059 M1401.21 9.54393 L1408.67 9.54393 L1408.67 18.9825 L1401.21 18.9825 L1401.21 9.54393 Z" fill="#000000" fill-rule="evenodd" fill-opacity="1" /><path clip-path="url(#clip300)" d="M 0 0 M1454.2 45.1919 L1454.2 72.576 L1446.74 72.576 L1446.74 45.4349 Q1446.74 38.994 1444.23 35.7938 Q1441.72 32.5936 1436.7 32.5936 Q1430.66 32.5936 1427.18 36.4419 Q1423.7 40.2903 1423.7 46.9338 L1423.7 72.576 L1416.2 72.576 L1416.2 27.2059 L1423.7 27.2059 L1423.7 34.2544 Q1426.37 30.163 1429.97 28.1376 Q1433.62 26.1121 1438.36 26.1121 Q1446.18 26.1121 1450.19 30.9732 Q1454.2 35.7938 1454.2 45.1919 Z" fill="#000000" fill-rule="evenodd" fill-opacity="1" /><path clip-path="url(#clip300)" d="M 0 0 M1491.87 49.3643 Q1491.87 41.2625 1488.51 36.8065 Q1485.19 32.3505 1479.15 32.3505 Q1473.16 32.3505 1469.79 36.8065 Q1466.47 41.2625 1466.47 49.3643 Q1466.47 57.4256 1469.79 61.8816 Q1473.16 66.3376 1479.15 66.3376 Q1485.19 66.3376 1488.51 61.8816 Q1491.87 57.4256 1491.87 49.3643 M1499.33 66.9452 Q1499.33 78.5308 1494.18 84.1616 Q1489.04 89.8329 1478.42 89.8329 Q1474.49 89.8329 1471.01 89.2252 Q1467.53 88.6581 1464.24 87.4428 L1464.24 80.1917 Q1467.53 81.9741 1470.73 82.8248 Q1473.93 83.6755 1477.25 83.6755 Q1484.58 83.6755 1488.23 79.8271 Q1491.87 76.0193 1491.87 68.282 L1491.87 64.5957 Q1489.56 68.6061 1485.96 70.5911 Q1482.35 72.576 1477.33 72.576 Q1468.98 72.576 1463.88 66.2161 Q1458.78 59.8562 1458.78 49.3643 Q1458.78 38.832 1463.88 32.472 Q1468.98 26.1121 1477.33 26.1121 Q1482.35 26.1121 1485.96 28.0971 Q1489.56 30.082 1491.87 34.0924 L1491.87 27.2059 L1499.33 27.2059 L1499.33 66.9452 Z" fill="#000000" fill-rule="evenodd" fill-opacity="1" /><path clip-path="url(#clip300)" d="M 0 0 M1542.02 18.8205 L1542.02 41.5461 L1552.31 41.5461 Q1558.02 41.5461 1561.14 38.5889 Q1564.26 35.6318 1564.26 30.163 Q1564.26 24.7348 1561.14 21.7777 Q1558.02 18.8205 1552.31 18.8205 L1542.02 18.8205 M1533.84 12.096 L1552.31 12.096 Q1562.48 12.096 1567.66 16.714 Q1572.89 21.2916 1572.89 30.163 Q1572.89 39.1155 1567.66 43.6931 Q1562.48 48.2706 1552.31 48.2706 L1542.02 48.2706 L1542.02 72.576 L1533.84 72.576 L1533.84 12.096 Z" fill="#000000" fill-rule="evenodd" fill-opacity="1" /><path clip-path="url(#clip300)" d="M 0 0 M1595.33 32.4315 Q1589.34 32.4315 1585.85 37.1306 Q1582.37 41.7891 1582.37 49.9314 Q1582.37 58.0738 1585.81 62.7728 Q1589.3 67.4314 1595.33 67.4314 Q1601.29 67.4314 1604.77 62.7323 Q1608.25 58.0333 1608.25 49.9314 Q1608.25 41.8701 1604.77 37.1711 Q1601.29 32.4315 1595.33 32.4315 M1595.33 26.1121 Q1605.05 26.1121 1610.6 32.4315 Q1616.15 38.7509 1616.15 49.9314 Q1616.15 61.0714 1610.6 67.4314 Q1605.05 73.7508 1595.33 73.7508 Q1585.57 73.7508 1580.02 67.4314 Q1574.51 61.0714 1574.51 49.9314 Q1574.51 38.7509 1580.02 32.4315 Q1585.57 26.1121 1595.33 26.1121 Z" fill="#000000" fill-rule="evenodd" fill-opacity="1" /><path clip-path="url(#clip300)" d="M 0 0 M1631.18 65.7705 L1631.18 89.8329 L1623.69 89.8329 L1623.69 27.2059 L1631.18 27.2059 L1631.18 34.0924 Q1633.53 30.0415 1637.1 28.0971 Q1640.7 26.1121 1645.68 26.1121 Q1653.95 26.1121 1659.09 32.6746 Q1664.28 39.2371 1664.28 49.9314 Q1664.28 60.6258 1659.09 67.1883 Q1653.95 73.7508 1645.68 73.7508 Q1640.7 73.7508 1637.1 71.8063 Q1633.53 69.8214 1631.18 65.7705 M1656.54 49.9314 Q1656.54 41.7081 1653.14 37.0496 Q1649.78 32.3505 1643.86 32.3505 Q1637.95 32.3505 1634.54 37.0496 Q1631.18 41.7081 1631.18 49.9314 Q1631.18 58.1548 1634.54 62.8538 Q1637.95 67.5124 1643.86 67.5124 Q1649.78 67.5124 1653.14 62.8538 Q1656.54 58.1548 1656.54 49.9314 Z" fill="#000000" fill-rule="evenodd" fill-opacity="1" /><path clip-path="url(#clip300)" d="M 0 0 M1671.33 54.671 L1671.33 27.2059 L1678.78 27.2059 L1678.78 54.3874 Q1678.78 60.8284 1681.29 64.0691 Q1683.8 67.2693 1688.83 67.2693 Q1694.86 67.2693 1698.35 63.421 Q1701.87 59.5726 1701.87 52.9291 L1701.87 27.2059 L1709.32 27.2059 L1709.32 72.576 L1701.87 72.576 L1701.87 65.6084 Q1699.16 69.7404 1695.55 71.7658 Q1691.99 73.7508 1687.25 73.7508 Q1679.43 73.7508 1675.38 68.8897 Q1671.33 64.0286 1671.33 54.671 M1690.08 26.1121 L1690.08 26.1121 Z" fill="#000000" fill-rule="evenodd" fill-opacity="1" /><path clip-path="url(#clip300)" d="M 0 0 M1717.14 9.54393 L1724.6 9.54393 L1724.6 72.576 L1717.14 72.576 L1717.14 9.54393 Z" fill="#000000" fill-rule="evenodd" fill-opacity="1" /><path clip-path="url(#clip300)" d="M 0 0 M1753.03 49.7694 Q1744 49.7694 1740.52 51.8354 Q1737.03 53.9013 1737.03 58.8839 Q1737.03 62.8538 1739.63 65.2034 Q1742.26 67.5124 1746.75 67.5124 Q1752.95 67.5124 1756.68 63.1374 Q1760.45 58.7219 1760.45 51.4303 L1760.45 49.7694 L1753.03 49.7694 M1767.9 46.6907 L1767.9 72.576 L1760.45 72.576 L1760.45 65.6895 Q1757.89 69.8214 1754.09 71.8063 Q1750.28 73.7508 1744.77 73.7508 Q1737.8 73.7508 1733.67 69.8619 Q1729.58 65.9325 1729.58 59.3701 Q1729.58 51.7138 1734.68 47.825 Q1739.83 43.9361 1750 43.9361 L1760.45 43.9361 L1760.45 43.2069 Q1760.45 38.0623 1757.04 35.2672 Q1753.68 32.4315 1747.57 32.4315 Q1743.68 32.4315 1739.99 33.3632 Q1736.3 34.295 1732.9 36.1584 L1732.9 29.2718 Q1736.99 27.692 1740.84 26.9223 Q1744.69 26.1121 1748.33 26.1121 Q1758.18 26.1121 1763.04 31.2163 Q1767.9 36.3204 1767.9 46.6907 Z" fill="#000000" fill-rule="evenodd" fill-opacity="1" /><path clip-path="url(#clip300)" d="M 0 0 M1783.09 14.324 L1783.09 27.2059 L1798.44 27.2059 L1798.44 32.9987 L1783.09 32.9987 L1783.09 57.6282 Q1783.09 63.1779 1784.59 64.7578 Q1786.13 66.3376 1790.79 66.3376 L1798.44 66.3376 L1798.44 72.576 L1790.79 72.576 Q1782.16 72.576 1778.88 69.3758 Q1775.6 66.1351 1775.6 57.6282 L1775.6 32.9987 L1770.13 32.9987 L1770.13 27.2059 L1775.6 27.2059 L1775.6 14.324 L1783.09 14.324 Z" fill="#000000" fill-rule="evenodd" fill-opacity="1" /><path clip-path="url(#clip300)" d="M 0 0 M1806.26 27.2059 L1813.72 27.2059 L1813.72 72.576 L1806.26 72.576 L1806.26 27.2059 M1806.26 9.54393 L1813.72 9.54393 L1813.72 18.9825 L1806.26 18.9825 L1806.26 9.54393 Z" fill="#000000" fill-rule="evenodd" fill-opacity="1" /><path clip-path="url(#clip300)" d="M 0 0 M1839.12 32.4315 Q1833.12 32.4315 1829.64 37.1306 Q1826.15 41.7891 1826.15 49.9314 Q1826.15 58.0738 1829.6 62.7728 Q1833.08 67.4314 1839.12 67.4314 Q1845.07 67.4314 1848.55 62.7323 Q1852.04 58.0333 1852.04 49.9314 Q1852.04 41.8701 1848.55 37.1711 Q1845.07 32.4315 1839.12 32.4315 M1839.12 26.1121 Q1848.84 26.1121 1854.39 32.4315 Q1859.94 38.7509 1859.94 49.9314 Q1859.94 61.0714 1854.39 67.4314 Q1848.84 73.7508 1839.12 73.7508 Q1829.35 73.7508 1823.8 67.4314 Q1818.29 61.0714 1818.29 49.9314 Q1818.29 38.7509 1823.8 32.4315 Q1829.35 26.1121 1839.12 26.1121 Z" fill="#000000" fill-rule="evenodd" fill-opacity="1" /><path clip-path="url(#clip300)" d="M 0 0 M1905.47 45.1919 L1905.47 72.576 L1898.02 72.576 L1898.02 45.4349 Q1898.02 38.994 1895.5 35.7938 Q1892.99 32.5936 1887.97 32.5936 Q1881.93 32.5936 1878.45 36.4419 Q1874.97 40.2903 1874.97 46.9338 L1874.97 72.576 L1867.47 72.576 L1867.47 27.2059 L1874.97 27.2059 L1874.97 34.2544 Q1877.64 30.163 1881.24 28.1376 Q1884.89 26.1121 1889.63 26.1121 Q1897.45 26.1121 1901.46 30.9732 Q1905.47 35.7938 1905.47 45.1919 Z" fill="#000000" fill-rule="evenodd" fill-opacity="1" /><path clip-path="url(#clip300)" d="M 0 0 M1976.24 14.0809 L1976.24 22.0612 Q1971.58 19.8332 1967.45 18.7395 Q1963.32 17.6457 1959.47 17.6457 Q1952.78 17.6457 1949.14 20.2383 Q1945.53 22.8309 1945.53 27.611 Q1945.53 31.6214 1947.92 33.6873 Q1950.35 35.7128 1957.08 36.9686 L1962.02 37.9813 Q1971.17 39.7232 1975.51 44.1387 Q1979.88 48.5136 1979.88 55.8863 Q1979.88 64.6767 1973.97 69.2137 Q1968.1 73.7508 1956.71 73.7508 Q1952.42 73.7508 1947.56 72.7785 Q1942.74 71.8063 1937.55 69.9024 L1937.55 61.4765 Q1942.54 64.2716 1947.32 65.6895 Q1952.1 67.1073 1956.71 67.1073 Q1963.72 67.1073 1967.53 64.3527 Q1971.34 61.598 1971.34 56.4939 Q1971.34 52.0379 1968.58 49.5264 Q1965.87 47.0148 1959.63 45.759 L1954.65 44.7868 Q1945.49 42.9639 1941.4 39.075 Q1937.31 35.1862 1937.31 28.2591 Q1937.31 20.2383 1942.94 15.6203 Q1948.61 11.0023 1958.54 11.0023 Q1962.79 11.0023 1967.21 11.7719 Q1971.62 12.5416 1976.24 14.0809 Z" fill="#000000" fill-rule="evenodd" fill-opacity="1" /><path clip-path="url(#clip300)" d="M 0 0 M2025.42 45.1919 L2025.42 72.576 L2017.96 72.576 L2017.96 45.4349 Q2017.96 38.994 2015.45 35.7938 Q2012.94 32.5936 2007.92 32.5936 Q2001.88 32.5936 1998.4 36.4419 Q1994.91 40.2903 1994.91 46.9338 L1994.91 72.576 L1987.42 72.576 L1987.42 9.54393 L1994.91 9.54393 L1994.91 34.2544 Q1997.59 30.163 2001.19 28.1376 Q2004.84 26.1121 2009.58 26.1121 Q2017.4 26.1121 2021.41 30.9732 Q2025.42 35.7938 2025.42 45.1919 Z" fill="#000000" fill-rule="evenodd" fill-opacity="1" /><path clip-path="url(#clip300)" d="M 0 0 M2053.85 49.7694 Q2044.82 49.7694 2041.34 51.8354 Q2037.85 53.9013 2037.85 58.8839 Q2037.85 62.8538 2040.45 65.2034 Q2043.08 67.5124 2047.58 67.5124 Q2053.77 67.5124 2057.5 63.1374 Q2061.27 58.7219 2061.27 51.4303 L2061.27 49.7694 L2053.85 49.7694 M2068.72 46.6907 L2068.72 72.576 L2061.27 72.576 L2061.27 65.6895 Q2058.72 69.8214 2054.91 71.8063 Q2051.1 73.7508 2045.59 73.7508 Q2038.62 73.7508 2034.49 69.8619 Q2030.4 65.9325 2030.4 59.3701 Q2030.4 51.7138 2035.5 47.825 Q2040.65 43.9361 2050.82 43.9361 L2061.27 43.9361 L2061.27 43.2069 Q2061.27 38.0623 2057.86 35.2672 Q2054.5 32.4315 2048.39 32.4315 Q2044.5 32.4315 2040.81 33.3632 Q2037.12 34.295 2033.72 36.1584 L2033.72 29.2718 Q2037.81 27.692 2041.66 26.9223 Q2045.51 26.1121 2049.15 26.1121 Q2059 26.1121 2063.86 31.2163 Q2068.72 36.3204 2068.72 46.6907 Z" fill="#000000" fill-rule="evenodd" fill-opacity="1" /><path clip-path="url(#clip300)" d="M 0 0 M2102.83 34.1734 Q2101.57 33.4443 2100.07 33.1202 Q2098.62 32.7556 2096.83 32.7556 Q2090.51 32.7556 2087.11 36.8875 Q2083.75 40.9789 2083.75 48.6757 L2083.75 72.576 L2076.26 72.576 L2076.26 27.2059 L2083.75 27.2059 L2083.75 34.2544 Q2086.1 30.1225 2089.87 28.1376 Q2093.63 26.1121 2099.02 26.1121 Q2099.79 26.1121 2100.72 26.2337 Q2101.65 26.3147 2102.79 26.5172 L2102.83 34.1734 Z" fill="#000000" fill-rule="evenodd" fill-opacity="1" /><path clip-path="url(#clip300)" d="M 0 0 M2147.63 48.0275 L2147.63 51.6733 L2113.36 51.6733 Q2113.85 59.3701 2117.98 63.421 Q2122.15 67.4314 2129.57 67.4314 Q2133.86 67.4314 2137.87 66.3781 Q2141.92 65.3249 2145.89 63.2184 L2145.89 70.267 Q2141.88 71.9684 2137.67 72.8596 Q2133.45 73.7508 2129.12 73.7508 Q2118.26 73.7508 2111.9 67.4314 Q2105.58 61.1119 2105.58 50.3365 Q2105.58 39.1965 2111.58 32.6746 Q2117.62 26.1121 2127.82 26.1121 Q2136.98 26.1121 2142.29 32.0264 Q2147.63 37.9003 2147.63 48.0275 M2140.18 45.84 Q2140.1 39.7232 2136.74 36.0774 Q2133.41 32.4315 2127.9 32.4315 Q2121.67 32.4315 2117.9 35.9558 Q2114.17 39.4801 2113.6 45.8805 L2140.18 45.84 Z" fill="#000000" fill-rule="evenodd" fill-opacity="1" /><path clip-path="url(#clip300)" d="M 0 0 M1061.74 1513.81 L1061.74 1550.76 L1069.51 1550.76 Q1079.34 1550.76 1083.89 1546.3 Q1088.48 1541.85 1088.48 1532.24 Q1088.48 1522.69 1083.89 1518.26 Q1079.34 1513.81 1069.51 1513.81 L1061.74 1513.81 M1055.31 1508.52 L1068.52 1508.52 Q1082.33 1508.52 1088.8 1514.28 Q1095.26 1520.01 1095.26 1532.24 Q1095.26 1544.52 1088.76 1550.28 Q1082.27 1556.04 1068.52 1556.04 L1055.31 1556.04 L1055.31 1508.52 Z" fill="#000000" fill-rule="evenodd" fill-opacity="1" /><path clip-path="url(#clip300)" d="M 0 0 M1101.4 1520.4 L1107.26 1520.4 L1107.26 1556.04 L1101.4 1556.04 L1101.4 1520.4 M1101.4 1506.52 L1107.26 1506.52 L1107.26 1513.93 L1101.4 1513.93 L1101.4 1506.52 Z" fill="#000000" fill-rule="evenodd" fill-opacity="1" /><path clip-path="url(#clip300)" d="M 0 0 M1109.2 1520.4 L1115.4 1520.4 L1126.54 1550.31 L1137.68 1520.4 L1143.89 1520.4 L1130.52 1556.04 L1122.57 1556.04 L1109.2 1520.4 Z" fill="#000000" fill-rule="evenodd" fill-opacity="1" /><path clip-path="url(#clip300)" d="M 0 0 M1180.53 1536.76 L1180.53 1539.62 L1153.6 1539.62 Q1153.98 1545.67 1157.23 1548.85 Q1160.51 1552 1166.33 1552 Q1169.7 1552 1172.85 1551.17 Q1176.04 1550.35 1179.16 1548.69 L1179.16 1554.23 Q1176.01 1555.57 1172.7 1556.27 Q1169.39 1556.97 1165.98 1556.97 Q1157.45 1556.97 1152.45 1552 Q1147.49 1547.04 1147.49 1538.57 Q1147.49 1529.82 1152.2 1524.69 Q1156.94 1519.54 1164.96 1519.54 Q1172.15 1519.54 1176.32 1524.18 Q1180.53 1528.8 1180.53 1536.76 M1174.67 1535.04 Q1174.61 1530.23 1171.96 1527.37 Q1169.35 1524.5 1165.02 1524.5 Q1160.12 1524.5 1157.16 1527.27 Q1154.23 1530.04 1153.79 1535.07 L1174.67 1535.04 Z" fill="#000000" fill-rule="evenodd" fill-opacity="1" /><path clip-path="url(#clip300)" d="M 0 0 M1207.32 1525.87 Q1206.34 1525.3 1205.16 1525.04 Q1204.01 1524.76 1202.61 1524.76 Q1197.65 1524.76 1194.98 1528 Q1192.33 1531.22 1192.33 1537.27 L1192.33 1556.04 L1186.45 1556.04 L1186.45 1520.4 L1192.33 1520.4 L1192.33 1525.93 Q1194.18 1522.69 1197.14 1521.13 Q1200.1 1519.54 1204.33 1519.54 Q1204.94 1519.54 1205.67 1519.63 Q1206.4 1519.7 1207.29 1519.85 L1207.32 1525.87 Z" fill="#000000" fill-rule="evenodd" fill-opacity="1" /><path clip-path="url(#clip300)" d="M 0 0 M1236.19 1521.45 L1236.19 1526.98 Q1233.71 1525.71 1231.04 1525.07 Q1228.36 1524.44 1225.5 1524.44 Q1221.14 1524.44 1218.94 1525.77 Q1216.78 1527.11 1216.78 1529.79 Q1216.78 1531.82 1218.34 1533 Q1219.9 1534.15 1224.61 1535.2 L1226.61 1535.64 Q1232.85 1536.98 1235.46 1539.43 Q1238.1 1541.85 1238.1 1546.21 Q1238.1 1551.17 1234.16 1554.07 Q1230.24 1556.97 1223.37 1556.97 Q1220.5 1556.97 1217.38 1556.39 Q1214.3 1555.85 1210.86 1554.74 L1210.86 1548.69 Q1214.1 1550.38 1217.26 1551.24 Q1220.41 1552.07 1223.49 1552.07 Q1227.63 1552.07 1229.86 1550.66 Q1232.09 1549.23 1232.09 1546.65 Q1232.09 1544.27 1230.46 1542.99 Q1228.87 1541.72 1223.43 1540.54 L1221.39 1540.07 Q1215.95 1538.92 1213.53 1536.56 Q1211.11 1534.18 1211.11 1530.04 Q1211.11 1525.01 1214.68 1522.27 Q1218.24 1519.54 1224.8 1519.54 Q1228.05 1519.54 1230.91 1520.01 Q1233.77 1520.49 1236.19 1521.45 Z" fill="#000000" fill-rule="evenodd" fill-opacity="1" /><path clip-path="url(#clip300)" d="M 0 0 M1244.25 1520.4 L1250.1 1520.4 L1250.1 1556.04 L1244.25 1556.04 L1244.25 1520.4 M1244.25 1506.52 L1250.1 1506.52 L1250.1 1513.93 L1244.25 1513.93 L1244.25 1506.52 Z" fill="#000000" fill-rule="evenodd" fill-opacity="1" /><path clip-path="url(#clip300)" d="M 0 0 M1262.04 1510.27 L1262.04 1520.4 L1274.1 1520.4 L1274.1 1524.95 L1262.04 1524.95 L1262.04 1544.3 Q1262.04 1548.66 1263.22 1549.9 Q1264.43 1551.14 1268.09 1551.14 L1274.1 1551.14 L1274.1 1556.04 L1268.09 1556.04 Q1261.31 1556.04 1258.73 1553.53 Q1256.15 1550.98 1256.15 1544.3 L1256.15 1524.95 L1251.85 1524.95 L1251.85 1520.4 L1256.15 1520.4 L1256.15 1510.27 L1262.04 1510.27 Z" fill="#000000" fill-rule="evenodd" fill-opacity="1" /><path clip-path="url(#clip300)" d="M 0 0 M1295.08 1559.35 Q1292.59 1565.72 1290.24 1567.66 Q1287.88 1569.6 1283.94 1569.6 L1279.26 1569.6 L1279.26 1564.7 L1282.69 1564.7 Q1285.11 1564.7 1286.45 1563.56 Q1287.79 1562.41 1289.41 1558.14 L1290.46 1555.47 L1276.04 1520.4 L1282.25 1520.4 L1293.39 1548.28 L1304.53 1520.4 L1310.74 1520.4 L1295.08 1559.35 Z" fill="#000000" fill-rule="evenodd" fill-opacity="1" /><path clip-path="url(#clip300)" d="M 0 0 M1366.34 1510.08 L1366.34 1516.35 Q1362.68 1514.6 1359.43 1513.74 Q1356.19 1512.88 1353.16 1512.88 Q1347.91 1512.88 1345.05 1514.92 Q1342.21 1516.96 1342.21 1520.71 Q1342.21 1523.87 1344.09 1525.49 Q1346 1527.08 1351.29 1528.07 L1355.17 1528.86 Q1362.36 1530.23 1365.77 1533.7 Q1369.2 1537.14 1369.2 1542.93 Q1369.2 1549.84 1364.56 1553.4 Q1359.94 1556.97 1351 1556.97 Q1347.63 1556.97 1343.81 1556.2 Q1340.02 1555.44 1335.94 1553.94 L1335.94 1547.32 Q1339.86 1549.52 1343.61 1550.63 Q1347.37 1551.75 1351 1551.75 Q1356.51 1551.75 1359.5 1549.58 Q1362.49 1547.42 1362.49 1543.41 Q1362.49 1539.91 1360.32 1537.93 Q1358.19 1535.96 1353.29 1534.97 L1349.38 1534.21 Q1342.18 1532.78 1338.97 1529.72 Q1335.75 1526.67 1335.75 1521.22 Q1335.75 1514.92 1340.18 1511.29 Q1344.63 1507.66 1352.43 1507.66 Q1355.77 1507.66 1359.24 1508.27 Q1362.71 1508.87 1366.34 1510.08 Z" fill="#000000" fill-rule="evenodd" fill-opacity="1" /><path clip-path="url(#clip300)" d="M 0 0 M1401 1521.76 L1401 1527.24 Q1398.52 1525.87 1396 1525.2 Q1393.52 1524.5 1390.98 1524.5 Q1385.28 1524.5 1382.13 1528.13 Q1378.98 1531.73 1378.98 1538.25 Q1378.98 1544.78 1382.13 1548.4 Q1385.28 1552 1390.98 1552 Q1393.52 1552 1396 1551.33 Q1398.52 1550.63 1401 1549.26 L1401 1554.68 Q1398.55 1555.82 1395.91 1556.39 Q1393.3 1556.97 1390.34 1556.97 Q1382.29 1556.97 1377.54 1551.91 Q1372.8 1546.85 1372.8 1538.25 Q1372.8 1529.53 1377.58 1524.53 Q1382.38 1519.54 1390.72 1519.54 Q1393.43 1519.54 1396 1520.11 Q1398.58 1520.65 1401 1521.76 Z" fill="#000000" fill-rule="evenodd" fill-opacity="1" /><path clip-path="url(#clip300)" d="M 0 0 M1420.96 1524.5 Q1416.25 1524.5 1413.51 1528.19 Q1410.77 1531.85 1410.77 1538.25 Q1410.77 1544.65 1413.48 1548.34 Q1416.22 1552 1420.96 1552 Q1425.64 1552 1428.37 1548.31 Q1431.11 1544.62 1431.11 1538.25 Q1431.11 1531.92 1428.37 1528.23 Q1425.64 1524.5 1420.96 1524.5 M1420.96 1519.54 Q1428.6 1519.54 1432.96 1524.5 Q1437.32 1529.47 1437.32 1538.25 Q1437.32 1547 1432.96 1552 Q1428.6 1556.97 1420.96 1556.97 Q1413.29 1556.97 1408.93 1552 Q1404.6 1547 1404.6 1538.25 Q1404.6 1529.47 1408.93 1524.5 Q1413.29 1519.54 1420.96 1519.54 Z" fill="#000000" fill-rule="evenodd" fill-opacity="1" /><path clip-path="url(#clip300)" d="M 0 0 M1464.12 1525.87 Q1463.13 1525.3 1461.95 1525.04 Q1460.81 1524.76 1459.41 1524.76 Q1454.44 1524.76 1451.77 1528 Q1449.13 1531.22 1449.13 1537.27 L1449.13 1556.04 L1443.24 1556.04 L1443.24 1520.4 L1449.13 1520.4 L1449.13 1525.93 Q1450.97 1522.69 1453.93 1521.13 Q1456.89 1519.54 1461.13 1519.54 Q1461.73 1519.54 1462.46 1519.63 Q1463.19 1519.7 1464.09 1519.85 L1464.12 1525.87 Z" fill="#000000" fill-rule="evenodd" fill-opacity="1" /><path clip-path="url(#clip300)" d="M 0 0 M1499.32 1536.76 L1499.32 1539.62 L1472.39 1539.62 Q1472.77 1545.67 1476.02 1548.85 Q1479.3 1552 1485.12 1552 Q1488.5 1552 1491.65 1551.17 Q1494.83 1550.35 1497.95 1548.69 L1497.95 1554.23 Q1494.8 1555.57 1491.49 1556.27 Q1488.18 1556.97 1484.77 1556.97 Q1476.24 1556.97 1471.25 1552 Q1466.28 1547.04 1466.28 1538.57 Q1466.28 1529.82 1470.99 1524.69 Q1475.73 1519.54 1483.76 1519.54 Q1490.95 1519.54 1495.12 1524.18 Q1499.32 1528.8 1499.32 1536.76 M1493.46 1535.04 Q1493.4 1530.23 1490.76 1527.37 Q1488.15 1524.5 1483.82 1524.5 Q1478.92 1524.5 1475.96 1527.27 Q1473.03 1530.04 1472.58 1535.07 L1493.46 1535.04 Z" fill="#000000" fill-rule="evenodd" fill-opacity="1" /><polyline clip-path="url(#clip302)" style="stroke:#009af9; stroke-width:4; stroke-opacity:1; fill:none" points="
  728.499,1386.39 736.355,1386.39 744.211,1386.38 752.068,1386.38 759.924,1386.36 767.78,1386.34 775.636,1386.31 783.492,1386.25 791.349,1386.17 799.205,1386.06 
  807.061,1385.89 814.917,1385.65 822.773,1385.32 830.63,1384.88 838.486,1384.31 846.342,1383.57 854.198,1382.65 862.054,1381.53 869.911,1380.19 877.767,1378.64 
  885.623,1376.88 893.479,1374.93 901.335,1372.84 909.192,1370.63 917.048,1368.35 924.904,1366.04 932.76,1363.73 940.616,1361.44 948.473,1359.14 956.329,1356.81 
  964.185,1354.39 972.041,1351.81 979.897,1348.98 987.754,1345.82 995.61,1342.27 1003.47,1338.31 1011.32,1333.95 1019.18,1329.23 1027.03,1324.25 1034.89,1319.11 
  1042.75,1313.91 1050.6,1308.73 1058.46,1303.61 1066.32,1298.48 1074.17,1293.22 1082.03,1287.59 1089.88,1281.31 1097.74,1274.05 1105.6,1265.47 1113.45,1255.31 
  1121.31,1243.43 1129.17,1229.84 1137.02,1214.75 1144.88,1198.57 1152.73,1181.85 1160.59,1165.32 1168.45,1149.73 1176.3,1135.78 1184.16,1124.07 1192.01,1114.96 
  1199.87,1108.54 1207.73,1104.62 1215.58,1102.69 1223.44,1102.04 1231.3,1101.81 1239.15,1101.09 1247.01,1099.11 1254.86,1095.25 1262.72,1089.21 1270.58,1081 
  1278.43,1070.97 1286.29,1059.73 1294.15,1048.06 1302,1036.79 1309.86,1026.65 1317.71,1018.17 1325.57,1011.55 1333.43,1006.64 1341.28,1002.93 1349.14,999.634 
  1356.99,995.783 1364.85,990.397 1372.71,982.641 1380.56,971.969 1388.42,958.242 1396.28,941.782 1404.13,923.361 1411.99,904.12 1419.84,885.428 1427.7,868.698 
  1435.56,855.19 1443.41,845.834 1451.27,841.081 1459.13,840.837 1466.98,844.46 1474.84,850.846 1482.69,858.582 1490.55,866.139 1498.41,872.095 1506.26,875.336 
  1514.12,875.215 1521.97,871.643 1529.83,865.098 1537.69,856.555 1545.54,847.337 1553.4,838.922 1561.26,832.73 1569.11,829.914 1576.97,831.202 1584.82,836.799 
  1592.68,846.371 1600.54,859.1 1608.39,873.825 1616.25,889.211 1624.11,903.953 1631.96,916.964 1639.82,927.523 1647.67,935.369 1655.53,940.72 1663.39,944.223 
  1671.24,946.841 1679.1,949.699 1686.95,953.914 1694.81,960.428 1702.67,969.881 1710.52,982.525 1718.38,998.204 1726.24,1016.39 1734.09,1036.28 1741.95,1056.9 
  1749.8,1077.24 1757.66,1096.44 1765.52,1113.8 1773.37,1128.94 1781.23,1141.8 1789.09,1152.57 1796.94,1161.7 1804.8,1169.81 1812.65,1177.53 1820.51,1185.47 
  1828.37,1194.13 1836.22,1203.8 1844.08,1214.6 1851.94,1226.43 1859.79,1239.03 1867.65,1252.03 1875.5,1264.99 1883.36,1277.48 1891.22,1289.13 1899.07,1299.64 
  1906.93,1308.87 1914.78,1316.75 1922.64,1323.36 1930.5,1328.85 1938.35,1333.42 1946.21,1337.31 1954.07,1340.75 1961.92,1343.92 1969.78,1346.98 1977.63,1350.03 
  1985.49,1353.09 1993.35,1356.18 2001.2,1359.25 2009.06,1362.25 2016.92,1365.11 2024.77,1367.77 2032.63,1370.18 2040.48,1372.33 2048.34,1374.2 2056.2,1375.8 
  2064.05,1377.17 2071.91,1378.32 2079.76,1379.31 2087.62,1380.17 2095.48,1380.92 2103.33,1381.6 2111.19,1382.22 2119.05,1382.79 2126.9,1383.32 2134.76,1383.8 
  2142.61,1384.25 2150.47,1384.64 2158.33,1384.99 2166.18,1385.29 2174.04,1385.54 2181.9,1385.75 2189.75,1385.91 2197.61,1386.05 2205.46,1386.15 2213.32,1386.22 
  2221.18,1386.28 2229.03,1386.32 2236.89,1386.34 2244.74,1386.36 2252.6,1386.37 2260.46,1386.38 2268.31,1386.39 2276.17,1386.39 2284.03,1386.39 2291.88,1386.39 
  
  "/>
<polyline clip-path="url(#clip302)" style="stroke:#e26f46; stroke-width:4; stroke-opacity:1; fill:none" points="
  513.606,1386.39 520.468,1386.38 527.331,1386.37 534.194,1386.36 541.057,1386.34 547.919,1386.3 554.782,1386.24 561.645,1386.15 568.508,1386.02 575.371,1385.83 
  582.233,1385.57 589.096,1385.2 595.959,1384.72 602.822,1384.08 609.684,1383.28 616.547,1382.29 623.41,1381.1 630.273,1379.7 637.135,1378.12 643.998,1376.37 
  650.861,1374.52 657.724,1372.61 664.587,1370.72 671.449,1368.92 678.312,1367.28 685.175,1365.86 692.038,1364.68 698.9,1363.75 705.763,1363.03 712.626,1362.45 
  719.489,1361.88 726.352,1361.2 733.214,1360.26 740.077,1358.89 746.94,1356.97 753.803,1354.42 760.665,1351.18 767.528,1347.29 774.391,1342.86 781.254,1338.03 
  788.116,1333.02 794.979,1328.07 801.842,1323.43 808.705,1319.29 815.568,1315.78 822.43,1312.96 829.293,1310.72 836.156,1308.86 843.019,1307.06 849.881,1304.88 
  856.744,1301.84 863.607,1297.46 870.47,1291.28 877.332,1282.99 884.195,1272.42 891.058,1259.63 897.921,1244.89 904.784,1228.7 911.646,1211.74 918.509,1194.81 
  925.372,1178.73 932.235,1164.26 939.097,1151.95 945.96,1142.1 952.823,1134.62 959.686,1129.07 966.549,1124.59 973.411,1120.02 980.274,1114 987.137,1105.11 
  994,1092.04 1000.86,1073.78 1007.73,1049.81 1014.59,1020.18 1021.45,985.599 1028.31,947.436 1035.18,907.62 1042.04,868.488 1048.9,832.562 1055.76,802.29 
  1062.63,779.776 1069.49,766.542 1076.35,763.343 1083.22,770.057 1090.08,785.686 1096.94,808.439 1103.8,835.918 1110.67,865.361 1117.53,893.93 1124.39,919 
  1131.26,938.421 1138.12,950.723 1144.98,955.246 1151.84,952.17 1158.71,942.465 1165.57,927.741 1172.43,910.035 1179.29,891.555 1186.16,874.396 1193.02,860.282 
  1199.88,850.341 1206.75,844.962 1213.61,843.735 1220.47,845.495 1227.33,848.462 1234.2,850.468 1241.06,849.237 1247.92,842.704 1254.78,829.309 1261.65,808.252 
  1268.51,779.661 1275.37,744.658 1282.24,705.304 1289.1,664.423 1295.96,625.338 1302.82,591.524 1309.69,566.248 1316.55,552.214 1323.41,551.276 1330.28,564.242 
  1337.14,590.8 1344,629.569 1350.86,678.258 1357.73,733.926 1364.59,793.289 1371.45,853.043 1378.31,910.17 1385.18,962.182 1392.04,1007.3 1398.9,1044.52 
  1405.77,1073.64 1412.63,1095.15 1419.49,1110.09 1426.35,1119.92 1433.22,1126.25 1440.08,1130.69 1446.94,1134.69 1453.81,1139.38 1460.67,1145.52 1467.53,1153.44 
  1474.39,1163.11 1481.26,1174.15 1488.12,1185.96 1494.98,1197.83 1501.84,1209.05 1508.71,1219.01 1515.57,1227.29 1522.43,1233.71 1529.3,1238.33 1536.16,1241.43 
  1543.02,1243.48 1549.88,1245.05 1556.75,1246.73 1563.61,1249.08 1570.47,1252.55 1577.34,1257.44 1584.2,1263.87 1591.06,1271.76 1597.92,1280.92 1604.79,1291.02 
  1611.65,1301.66 1618.51,1312.41 1625.37,1322.88 1632.24,1332.72 1639.1,1341.69 1645.96,1349.6 1652.83,1356.38 1659.69,1362.03 1666.55,1366.63 1673.41,1370.3 
  1680.28,1373.17 1687.14,1375.4 1694,1377.12 1700.87,1378.48 1707.73,1379.57 1714.59,1380.48 1721.45,1381.27 1728.32,1381.97 1735.18,1382.61 1742.04,1383.2 
  1748.9,1383.73 1755.77,1384.21 1762.63,1384.64 1769.49,1385.01 1776.36,1385.32 1783.22,1385.58 1790.08,1385.79 1796.94,1385.96 1803.81,1386.08 1810.67,1386.18 
  1817.53,1386.25 1824.39,1386.3 1831.26,1386.33 1838.12,1386.35 1844.98,1386.37 1851.85,1386.38 1858.71,1386.39 1865.57,1386.39 1872.43,1386.39 1879.3,1386.39 
  
  "/>
<polyline clip-path="url(#clip302)" style="stroke:#3da44d; stroke-width:4; stroke-opacity:1; fill:none" points="
  262.75,1386.33 270.972,1386.27 279.194,1386.15 287.417,1385.95 295.639,1385.59 303.861,1384.99 312.084,1384.03 320.306,1382.52 328.528,1380.22 336.751,1376.86 
  344.973,1372.09 353.195,1365.55 361.418,1356.91 369.64,1345.89 377.862,1332.35 386.085,1316.32 394.307,1298.1 402.53,1278.18 410.752,1257.27 418.974,1236.16 
  427.197,1215.57 435.419,1195.96 443.641,1177.28 451.864,1158.82 460.086,1139.07 468.308,1115.77 476.531,1086.02 484.753,1046.72 492.975,994.954 501.198,928.633 
  509.42,847.06 517.642,751.416 525.865,645.032 534.087,533.355 542.309,423.557 550.532,323.81 558.754,242.293 566.976,186.108 575.199,160.256 583.421,166.886 
  591.643,204.943 599.866,270.294 608.088,356.309 616.31,454.793 624.533,557.093 632.755,655.201 640.977,742.669 649.2,815.218 657.422,870.962 665.644,910.271 
  673.867,935.33 682.089,949.492 690.311,956.548 698.534,960.029 706.756,962.653 714.978,965.968 723.201,970.25 731.423,974.636 739.645,977.471 747.868,976.795 
  756.09,970.871 764.312,958.681 772.535,940.272 780.757,916.92 788.979,891.045 797.202,865.922 805.424,845.212 813.646,832.414 821.869,830.334 830.091,840.66 
  838.313,863.729 846.536,898.509 854.758,942.792 862.98,993.551 871.203,1047.39 879.425,1100.99 887.648,1151.49 895.87,1196.74 904.092,1235.45 912.315,1267.11 
  920.537,1291.95 928.759,1310.68 936.982,1324.35 945.204,1334.1 953.426,1341.02 961.649,1346.05 969.871,1349.91 978.093,1353.1 986.316,1355.9 994.538,1358.44 
  1002.76,1360.72 1010.98,1362.72 1019.2,1364.38 1027.43,1365.69 1035.65,1366.66 1043.87,1367.37 1052.09,1367.92 1060.32,1368.43 1068.54,1369 1076.76,1369.74 
  1084.98,1370.7 1093.21,1371.89 1101.43,1373.3 1109.65,1374.85 1117.87,1376.49 1126.1,1378.12 1134.32,1379.67 1142.54,1381.08 1150.76,1382.32 1158.98,1383.35 
  1167.21,1384.19 1175.43,1384.84 1183.65,1385.34 1191.87,1385.69 1200.1,1385.94 1208.32,1386.11 1216.54,1386.22 1224.76,1386.29 1232.99,1386.34 1241.21,1386.36 
  1249.43,1386.38 1257.65,1386.39 1265.88,1386.39 1274.1,1386.39 1282.32,1386.39 1290.54,1386.4 1298.76,1386.4 1306.99,1386.4 1315.21,1386.4 1323.43,1386.4 
  1331.65,1386.4 1339.88,1386.4 1348.1,1386.4 1356.32,1386.4 1364.54,1386.4 1372.77,1386.4 1380.99,1386.4 1389.21,1386.4 1397.43,1386.4 1405.65,1386.39 
  1413.88,1386.39 1422.1,1386.39 1430.32,1386.39 1438.54,1386.38 1446.77,1386.36 1454.99,1386.33 1463.21,1386.28 1471.43,1386.19 1479.66,1386.03 1487.88,1385.77 
  1496.1,1385.34 1504.32,1384.67 1512.55,1383.66 1520.77,1382.15 1528.99,1379.98 1537.21,1376.95 1545.43,1372.82 1553.66,1367.38 1561.88,1360.42 1570.1,1351.75 
  1578.32,1341.32 1586.55,1329.13 1594.77,1315.36 1602.99,1300.36 1611.21,1284.61 1619.44,1268.76 1627.66,1253.58 1635.88,1239.88 1644.1,1228.45 1652.33,1220.02 
  1660.55,1215.14 1668.77,1214.14 1676.99,1217.11 1685.21,1223.85 1693.44,1233.93 1701.66,1246.71 1709.88,1261.41 1718.1,1277.21 1726.33,1293.28 1734.55,1308.9 
  1742.77,1323.45 1750.99,1336.53 1759.22,1347.86 1767.44,1357.36 1775.66,1365.06 1783.88,1371.12 1792.1,1375.74 1800.33,1379.15 1808.55,1381.6 1816.77,1383.3 
  1824.99,1384.45 1833.22,1385.21 1841.44,1385.69 1849.66,1385.99 1857.88,1386.16 1866.11,1386.27 1874.33,1386.32 1882.55,1386.35 1890.77,1386.36 1899,1386.35 
  
  "/>
<path clip-path="url(#clip300)" d="
M1921.64 448.912 L2280.76 448.912 L2280.76 206.992 L1921.64 206.992  Z
  " fill="#ffffff" fill-rule="evenodd" fill-opacity="1"/>
<polyline clip-path="url(#clip300)" style="stroke:#000000; stroke-width:4; stroke-opacity:1; fill:none" points="
  1921.64,448.912 2280.76,448.912 2280.76,206.992 1921.64,206.992 1921.64,448.912 
  "/>
<polyline clip-path="url(#clip300)" style="stroke:#009af9; stroke-width:4; stroke-opacity:1; fill:none" points="
  1945.64,267.472 2089.64,267.472 
  "/>
<path clip-path="url(#clip300)" d="M 0 0 M2115.09 250.192 L2133.45 250.192 L2133.45 254.127 L2119.38 254.127 L2119.38 262.599 Q2120.4 262.252 2121.41 262.09 Q2122.43 261.905 2123.45 261.905 Q2129.24 261.905 2132.62 265.076 Q2136 268.248 2136 273.664 Q2136 279.243 2132.52 282.345 Q2129.05 285.423 2122.73 285.423 Q2120.56 285.423 2118.29 285.053 Q2116.04 284.683 2113.64 283.942 L2113.64 279.243 Q2115.72 280.377 2117.94 280.933 Q2120.16 281.488 2122.64 281.488 Q2126.65 281.488 2128.98 279.382 Q2131.32 277.275 2131.32 273.664 Q2131.32 270.053 2128.98 267.947 Q2126.65 265.84 2122.64 265.84 Q2120.77 265.84 2118.89 266.257 Q2117.04 266.674 2115.09 267.553 L2115.09 250.192 Z" fill="#000000" fill-rule="evenodd" fill-opacity="1" /><path clip-path="url(#clip300)" d="M 0 0 M2151.07 253.271 Q2147.46 253.271 2145.63 256.836 Q2143.82 260.377 2143.82 267.507 Q2143.82 274.613 2145.63 278.178 Q2147.46 281.72 2151.07 281.72 Q2154.7 281.72 2156.51 278.178 Q2158.34 274.613 2158.34 267.507 Q2158.34 260.377 2156.51 256.836 Q2154.7 253.271 2151.07 253.271 M2151.07 249.567 Q2156.88 249.567 2159.93 254.174 Q2163.01 258.757 2163.01 267.507 Q2163.01 276.234 2159.93 280.84 Q2156.88 285.423 2151.07 285.423 Q2145.26 285.423 2142.18 280.84 Q2139.12 276.234 2139.12 267.507 Q2139.12 258.757 2142.18 254.174 Q2145.26 249.567 2151.07 249.567 Z" fill="#000000" fill-rule="evenodd" fill-opacity="1" /><path clip-path="url(#clip300)" d="M 0 0 M2175.05 250.192 L2178.98 250.192 L2166.95 289.15 L2163.01 289.15 L2175.05 250.192 Z" fill="#000000" fill-rule="evenodd" fill-opacity="1" /><path clip-path="url(#clip300)" d="M 0 0 M2184.1 250.192 L2202.46 250.192 L2202.46 254.127 L2188.38 254.127 L2188.38 262.599 Q2189.4 262.252 2190.42 262.09 Q2191.44 261.905 2192.46 261.905 Q2198.24 261.905 2201.62 265.076 Q2205 268.248 2205 273.664 Q2205 279.243 2201.53 282.345 Q2198.06 285.423 2191.74 285.423 Q2189.56 285.423 2187.29 285.053 Q2185.05 284.683 2182.64 283.942 L2182.64 279.243 Q2184.72 280.377 2186.95 280.933 Q2189.17 281.488 2191.65 281.488 Q2195.65 281.488 2197.99 279.382 Q2200.33 277.275 2200.33 273.664 Q2200.33 270.053 2197.99 267.947 Q2195.65 265.84 2191.65 265.84 Q2189.77 265.84 2187.9 266.257 Q2186.04 266.674 2184.1 267.553 L2184.1 250.192 Z" fill="#000000" fill-rule="evenodd" fill-opacity="1" /><path clip-path="url(#clip300)" d="M 0 0 M2220.07 253.271 Q2216.46 253.271 2214.63 256.836 Q2212.83 260.377 2212.83 267.507 Q2212.83 274.613 2214.63 278.178 Q2216.46 281.72 2220.07 281.72 Q2223.71 281.72 2225.51 278.178 Q2227.34 274.613 2227.34 267.507 Q2227.34 260.377 2225.51 256.836 Q2223.71 253.271 2220.07 253.271 M2220.07 249.567 Q2225.88 249.567 2228.94 254.174 Q2232.02 258.757 2232.02 267.507 Q2232.02 276.234 2228.94 280.84 Q2225.88 285.423 2220.07 285.423 Q2214.26 285.423 2211.18 280.84 Q2208.13 276.234 2208.13 267.507 Q2208.13 258.757 2211.18 254.174 Q2214.26 249.567 2220.07 249.567 Z" fill="#000000" fill-rule="evenodd" fill-opacity="1" /><polyline clip-path="url(#clip300)" style="stroke:#e26f46; stroke-width:4; stroke-opacity:1; fill:none" points="
  1945.64,327.952 2089.64,327.952 
  "/>
<path clip-path="url(#clip300)" d="M 0 0 M2125.97 326.089 Q2122.83 326.089 2120.97 328.241 Q2119.15 330.394 2119.15 334.144 Q2119.15 337.871 2120.97 340.047 Q2122.83 342.2 2125.97 342.2 Q2129.12 342.2 2130.95 340.047 Q2132.8 337.871 2132.8 334.144 Q2132.8 330.394 2130.95 328.241 Q2129.12 326.089 2125.97 326.089 M2135.26 311.436 L2135.26 315.695 Q2133.5 314.862 2131.69 314.422 Q2129.91 313.982 2128.15 313.982 Q2123.52 313.982 2121.07 317.107 Q2118.64 320.232 2118.29 326.552 Q2119.65 324.538 2121.71 323.473 Q2123.78 322.385 2126.25 322.385 Q2131.46 322.385 2134.47 325.556 Q2137.5 328.704 2137.5 334.144 Q2137.5 339.468 2134.35 342.686 Q2131.21 345.903 2125.97 345.903 Q2119.98 345.903 2116.81 341.32 Q2113.64 336.714 2113.64 327.987 Q2113.64 319.792 2117.53 314.931 Q2121.41 310.047 2127.96 310.047 Q2129.72 310.047 2131.51 310.394 Q2133.31 310.742 2135.26 311.436 Z" fill="#000000" fill-rule="evenodd" fill-opacity="1" /><path clip-path="url(#clip300)" d="M 0 0 M2142.62 310.672 L2160.97 310.672 L2160.97 314.607 L2146.9 314.607 L2146.9 323.079 Q2147.92 322.732 2148.94 322.57 Q2149.96 322.385 2150.97 322.385 Q2156.76 322.385 2160.14 325.556 Q2163.52 328.728 2163.52 334.144 Q2163.52 339.723 2160.05 342.825 Q2156.58 345.903 2150.26 345.903 Q2148.08 345.903 2145.81 345.533 Q2143.57 345.163 2141.16 344.422 L2141.16 339.723 Q2143.24 340.857 2145.46 341.413 Q2147.69 341.968 2150.16 341.968 Q2154.17 341.968 2156.51 339.862 Q2158.84 337.755 2158.84 334.144 Q2158.84 330.533 2156.51 328.427 Q2154.17 326.32 2150.16 326.32 Q2148.29 326.32 2146.41 326.737 Q2144.56 327.154 2142.62 328.033 L2142.62 310.672 Z" fill="#000000" fill-rule="evenodd" fill-opacity="1" /><path clip-path="url(#clip300)" d="M 0 0 M2175.56 310.672 L2179.49 310.672 L2167.46 349.63 L2163.52 349.63 L2175.56 310.672 Z" fill="#000000" fill-rule="evenodd" fill-opacity="1" /><path clip-path="url(#clip300)" d="M 0 0 M2198.73 326.598 Q2202.08 327.316 2203.96 329.584 Q2205.86 331.853 2205.86 335.186 Q2205.86 340.302 2202.34 343.103 Q2198.82 345.903 2192.34 345.903 Q2190.16 345.903 2187.85 345.464 Q2185.56 345.047 2183.1 344.19 L2183.1 339.677 Q2185.05 340.811 2187.36 341.39 Q2189.68 341.968 2192.2 341.968 Q2196.6 341.968 2198.89 340.232 Q2201.21 338.496 2201.21 335.186 Q2201.21 332.13 2199.05 330.417 Q2196.92 328.681 2193.1 328.681 L2189.08 328.681 L2189.08 324.839 L2193.29 324.839 Q2196.74 324.839 2198.57 323.473 Q2200.39 322.084 2200.39 319.492 Q2200.39 316.83 2198.5 315.417 Q2196.62 313.982 2193.1 313.982 Q2191.18 313.982 2188.98 314.399 Q2186.78 314.816 2184.15 315.695 L2184.15 311.529 Q2186.81 310.788 2189.12 310.417 Q2191.46 310.047 2193.52 310.047 Q2198.84 310.047 2201.95 312.478 Q2205.05 314.885 2205.05 319.005 Q2205.05 321.876 2203.4 323.866 Q2201.76 325.834 2198.73 326.598 Z" fill="#000000" fill-rule="evenodd" fill-opacity="1" /><path clip-path="url(#clip300)" d="M 0 0 M2210.97 310.672 L2229.33 310.672 L2229.33 314.607 L2215.26 314.607 L2215.26 323.079 Q2216.27 322.732 2217.29 322.57 Q2218.31 322.385 2219.33 322.385 Q2225.12 322.385 2228.5 325.556 Q2231.88 328.728 2231.88 334.144 Q2231.88 339.723 2228.4 342.825 Q2224.93 345.903 2218.61 345.903 Q2216.44 345.903 2214.17 345.533 Q2211.92 345.163 2209.52 344.422 L2209.52 339.723 Q2211.6 340.857 2213.82 341.413 Q2216.04 341.968 2218.52 341.968 Q2222.52 341.968 2224.86 339.862 Q2227.2 337.755 2227.2 334.144 Q2227.2 330.533 2224.86 328.427 Q2222.52 326.32 2218.52 326.32 Q2216.64 326.32 2214.77 326.737 Q2212.92 327.154 2210.97 328.033 L2210.97 310.672 Z" fill="#000000" fill-rule="evenodd" fill-opacity="1" /><polyline clip-path="url(#clip300)" style="stroke:#3da44d; stroke-width:4; stroke-opacity:1; fill:none" points="
  1945.64,388.432 2089.64,388.432 
  "/>
<path clip-path="url(#clip300)" d="M 0 0 M2125.49 389.3 Q2122.15 389.3 2120.23 391.083 Q2118.34 392.865 2118.34 395.99 Q2118.34 399.115 2120.23 400.897 Q2122.15 402.68 2125.49 402.68 Q2128.82 402.68 2130.74 400.897 Q2132.66 399.092 2132.66 395.99 Q2132.66 392.865 2130.74 391.083 Q2128.84 389.3 2125.49 389.3 M2120.81 387.309 Q2117.8 386.569 2116.11 384.509 Q2114.45 382.448 2114.45 379.485 Q2114.45 375.342 2117.39 372.935 Q2120.35 370.527 2125.49 370.527 Q2130.65 370.527 2133.59 372.935 Q2136.53 375.342 2136.53 379.485 Q2136.53 382.448 2134.84 384.509 Q2133.17 386.569 2130.19 387.309 Q2133.57 388.096 2135.44 390.388 Q2137.34 392.68 2137.34 395.99 Q2137.34 401.013 2134.26 403.698 Q2131.21 406.383 2125.49 406.383 Q2119.77 406.383 2116.69 403.698 Q2113.64 401.013 2113.64 395.99 Q2113.64 392.68 2115.53 390.388 Q2117.43 388.096 2120.81 387.309 M2119.1 379.925 Q2119.1 382.61 2120.77 384.115 Q2122.46 385.62 2125.49 385.62 Q2128.5 385.62 2130.19 384.115 Q2131.9 382.61 2131.9 379.925 Q2131.9 377.24 2130.19 375.735 Q2128.5 374.231 2125.49 374.231 Q2122.46 374.231 2120.77 375.735 Q2119.1 377.24 2119.1 379.925 Z" fill="#000000" fill-rule="evenodd" fill-opacity="1" /><path clip-path="url(#clip300)" d="M 0 0 M2152.41 374.231 Q2148.8 374.231 2146.97 377.796 Q2145.16 381.337 2145.16 388.467 Q2145.16 395.573 2146.97 399.138 Q2148.8 402.68 2152.41 402.68 Q2156.04 402.68 2157.85 399.138 Q2159.68 395.573 2159.68 388.467 Q2159.68 381.337 2157.85 377.796 Q2156.04 374.231 2152.41 374.231 M2152.41 370.527 Q2158.22 370.527 2161.27 375.134 Q2164.35 379.717 2164.35 388.467 Q2164.35 397.194 2161.27 401.8 Q2158.22 406.383 2152.41 406.383 Q2146.6 406.383 2143.52 401.8 Q2140.46 397.194 2140.46 388.467 Q2140.46 379.717 2143.52 375.134 Q2146.6 370.527 2152.41 370.527 Z" fill="#000000" fill-rule="evenodd" fill-opacity="1" /><path clip-path="url(#clip300)" d="M 0 0 M2176.39 371.152 L2180.33 371.152 L2168.29 410.11 L2164.35 410.11 L2176.39 371.152 Z" fill="#000000" fill-rule="evenodd" fill-opacity="1" /><path clip-path="url(#clip300)" d="M 0 0 M2189.42 401.777 L2205.74 401.777 L2205.74 405.712 L2183.8 405.712 L2183.8 401.777 Q2186.46 399.022 2191.04 394.393 Q2195.65 389.74 2196.83 388.397 Q2199.08 385.874 2199.96 384.138 Q2200.86 382.379 2200.86 380.689 Q2200.86 377.934 2198.91 376.198 Q2196.99 374.462 2193.89 374.462 Q2191.69 374.462 2189.24 375.226 Q2186.81 375.99 2184.03 377.541 L2184.03 372.819 Q2186.85 371.685 2189.31 371.106 Q2191.76 370.527 2193.8 370.527 Q2199.17 370.527 2202.36 373.212 Q2205.56 375.897 2205.56 380.388 Q2205.56 382.518 2204.75 384.439 Q2203.96 386.337 2201.85 388.93 Q2201.27 389.601 2198.17 392.819 Q2195.07 396.013 2189.42 401.777 Z" fill="#000000" fill-rule="evenodd" fill-opacity="1" /><path clip-path="url(#clip300)" d="M 0 0 M2220.81 374.231 Q2217.2 374.231 2215.37 377.796 Q2213.57 381.337 2213.57 388.467 Q2213.57 395.573 2215.37 399.138 Q2217.2 402.68 2220.81 402.68 Q2224.45 402.68 2226.25 399.138 Q2228.08 395.573 2228.08 388.467 Q2228.08 381.337 2226.25 377.796 Q2224.45 374.231 2220.81 374.231 M2220.81 370.527 Q2226.62 370.527 2229.68 375.134 Q2232.76 379.717 2232.76 388.467 Q2232.76 397.194 2229.68 401.8 Q2226.62 406.383 2220.81 406.383 Q2215 406.383 2211.92 401.8 Q2208.87 397.194 2208.87 388.467 Q2208.87 379.717 2211.92 375.134 Q2215 370.527 2220.81 370.527 Z" fill="#000000" fill-rule="evenodd" fill-opacity="1" /></svg>
