<?xml version="1.0" encoding="utf-8"?>
<svg xmlns="http://www.w3.org/2000/svg" xmlns:xlink="http://www.w3.org/1999/xlink" width="600" height="400" viewBox="0 0 2400 1600">
<defs>
  <clipPath id="clip260">
    <rect x="0" y="0" width="2400" height="1600"/>
  </clipPath>
</defs>
<path clip-path="url(#clip260)" d="
M0 1600 L2400 1600 L2400 0 L0 0  Z
  " fill="#ffffff" fill-rule="evenodd" fill-opacity="1"/>
<defs>
  <clipPath id="clip261">
    <rect x="480" y="0" width="1681" height="1600"/>
  </clipPath>
</defs>
<path clip-path="url(#clip260)" d="
M201.876 1423.18 L2352.76 1423.18 L2352.76 123.472 L201.876 123.472  Z
  " fill="#ffffff" fill-rule="evenodd" fill-opacity="1"/>
<defs>
  <clipPath id="clip262">
    <rect x="201" y="123" width="2152" height="1301"/>
  </clipPath>
</defs>
<polyline clip-path="url(#clip262)" style="stroke:#000000; stroke-width:2; stroke-opacity:0.1; fill:none" points="
  234.813,1423.18 234.813,123.472 
  "/>
<polyline clip-path="url(#clip262)" style="stroke:#000000; stroke-width:2; stroke-opacity:0.1; fill:none" points="
  725.085,1423.18 725.085,123.472 
  "/>
<polyline clip-path="url(#clip262)" style="stroke:#000000; stroke-width:2; stroke-opacity:0.1; fill:none" points="
  1215.36,1423.18 1215.36,123.472 
  "/>
<polyline clip-path="url(#clip262)" style="stroke:#000000; stroke-width:2; stroke-opacity:0.1; fill:none" points="
  1705.63,1423.18 1705.63,123.472 
  "/>
<polyline clip-path="url(#clip262)" style="stroke:#000000; stroke-width:2; stroke-opacity:0.1; fill:none" points="
  2195.9,1423.18 2195.9,123.472 
  "/>
<polyline clip-path="url(#clip262)" style="stroke:#000000; stroke-width:2; stroke-opacity:0.1; fill:none" points="
  201.876,1386.4 2352.76,1386.4 
  "/>
<polyline clip-path="url(#clip262)" style="stroke:#000000; stroke-width:2; stroke-opacity:0.1; fill:none" points="
  201.876,1091.53 2352.76,1091.53 
  "/>
<polyline clip-path="url(#clip262)" style="stroke:#000000; stroke-width:2; stroke-opacity:0.1; fill:none" points="
  201.876,796.671 2352.76,796.671 
  "/>
<polyline clip-path="url(#clip262)" style="stroke:#000000; stroke-width:2; stroke-opacity:0.1; fill:none" points="
  201.876,501.808 2352.76,501.808 
  "/>
<polyline clip-path="url(#clip262)" style="stroke:#000000; stroke-width:2; stroke-opacity:0.1; fill:none" points="
  201.876,206.945 2352.76,206.945 
  "/>
<polyline clip-path="url(#clip260)" style="stroke:#000000; stroke-width:4; stroke-opacity:1; fill:none" points="
  201.876,1423.18 2352.76,1423.18 
  "/>
<polyline clip-path="url(#clip260)" style="stroke:#000000; stroke-width:4; stroke-opacity:1; fill:none" points="
  201.876,1423.18 201.876,123.472 
  "/>
<polyline clip-path="url(#clip260)" style="stroke:#000000; stroke-width:4; stroke-opacity:1; fill:none" points="
  234.813,1423.18 234.813,1407.58 
  "/>
<polyline clip-path="url(#clip260)" style="stroke:#000000; stroke-width:4; stroke-opacity:1; fill:none" points="
  725.085,1423.18 725.085,1407.58 
  "/>
<polyline clip-path="url(#clip260)" style="stroke:#000000; stroke-width:4; stroke-opacity:1; fill:none" points="
  1215.36,1423.18 1215.36,1407.58 
  "/>
<polyline clip-path="url(#clip260)" style="stroke:#000000; stroke-width:4; stroke-opacity:1; fill:none" points="
  1705.63,1423.18 1705.63,1407.58 
  "/>
<polyline clip-path="url(#clip260)" style="stroke:#000000; stroke-width:4; stroke-opacity:1; fill:none" points="
  2195.9,1423.18 2195.9,1407.58 
  "/>
<polyline clip-path="url(#clip260)" style="stroke:#000000; stroke-width:4; stroke-opacity:1; fill:none" points="
  201.876,1386.4 227.686,1386.4 
  "/>
<polyline clip-path="url(#clip260)" style="stroke:#000000; stroke-width:4; stroke-opacity:1; fill:none" points="
  201.876,1091.53 227.686,1091.53 
  "/>
<polyline clip-path="url(#clip260)" style="stroke:#000000; stroke-width:4; stroke-opacity:1; fill:none" points="
  201.876,796.671 227.686,796.671 
  "/>
<polyline clip-path="url(#clip260)" style="stroke:#000000; stroke-width:4; stroke-opacity:1; fill:none" points="
  201.876,501.808 227.686,501.808 
  "/>
<polyline clip-path="url(#clip260)" style="stroke:#000000; stroke-width:4; stroke-opacity:1; fill:none" points="
  201.876,206.945 227.686,206.945 
  "/>
<path clip-path="url(#clip260)" d="M 0 0 M234.813 1445.17 Q231.202 1445.17 229.373 1448.74 Q227.567 1452.28 227.567 1459.41 Q227.567 1466.51 229.373 1470.08 Q231.202 1473.62 234.813 1473.62 Q238.447 1473.62 240.252 1470.08 Q242.081 1466.51 242.081 1459.41 Q242.081 1452.28 240.252 1448.74 Q238.447 1445.17 234.813 1445.17 M234.813 1441.47 Q240.623 1441.47 243.678 1446.07 Q246.757 1450.66 246.757 1459.41 Q246.757 1468.13 243.678 1472.74 Q240.623 1477.32 234.813 1477.32 Q229.002 1477.32 225.924 1472.74 Q222.868 1468.13 222.868 1459.41 Q222.868 1450.66 225.924 1446.07 Q229.002 1441.47 234.813 1441.47 Z" fill="#000000" fill-rule="evenodd" fill-opacity="1" /><path clip-path="url(#clip260)" d="M 0 0 M706.729 1472.72 L723.048 1472.72 L723.048 1476.65 L701.104 1476.65 L701.104 1472.72 Q703.766 1469.96 708.349 1465.33 Q712.956 1460.68 714.136 1459.34 Q716.382 1456.81 717.261 1455.08 Q718.164 1453.32 718.164 1451.63 Q718.164 1448.87 716.22 1447.14 Q714.298 1445.4 711.196 1445.4 Q708.997 1445.4 706.544 1446.17 Q704.113 1446.93 701.335 1448.48 L701.335 1443.76 Q704.159 1442.62 706.613 1442.05 Q709.067 1441.47 711.104 1441.47 Q716.474 1441.47 719.669 1444.15 Q722.863 1446.84 722.863 1451.33 Q722.863 1453.46 722.053 1455.38 Q721.266 1457.28 719.159 1459.87 Q718.581 1460.54 715.479 1463.76 Q712.377 1466.95 706.729 1472.72 Z" fill="#000000" fill-rule="evenodd" fill-opacity="1" /><path clip-path="url(#clip260)" d="M 0 0 M728.164 1442.09 L746.52 1442.09 L746.52 1446.03 L732.446 1446.03 L732.446 1454.5 Q733.465 1454.15 734.483 1453.99 Q735.502 1453.8 736.52 1453.8 Q742.307 1453.8 745.687 1456.98 Q749.067 1460.15 749.067 1465.56 Q749.067 1471.14 745.594 1474.24 Q742.122 1477.32 735.803 1477.32 Q733.627 1477.32 731.358 1476.95 Q729.113 1476.58 726.706 1475.84 L726.706 1471.14 Q728.789 1472.28 731.011 1472.83 Q733.233 1473.39 735.71 1473.39 Q739.715 1473.39 742.053 1471.28 Q744.391 1469.18 744.391 1465.56 Q744.391 1461.95 742.053 1459.85 Q739.715 1457.74 735.71 1457.74 Q733.835 1457.74 731.96 1458.16 Q730.108 1458.57 728.164 1459.45 L728.164 1442.09 Z" fill="#000000" fill-rule="evenodd" fill-opacity="1" /><path clip-path="url(#clip260)" d="M 0 0 M1192.13 1442.09 L1210.49 1442.09 L1210.49 1446.03 L1196.41 1446.03 L1196.41 1454.5 Q1197.43 1454.15 1198.45 1453.99 Q1199.47 1453.8 1200.49 1453.8 Q1206.27 1453.8 1209.65 1456.98 Q1213.03 1460.15 1213.03 1465.56 Q1213.03 1471.14 1209.56 1474.24 Q1206.09 1477.32 1199.77 1477.32 Q1197.59 1477.32 1195.32 1476.95 Q1193.08 1476.58 1190.67 1475.84 L1190.67 1471.14 Q1192.75 1472.28 1194.98 1472.83 Q1197.2 1473.39 1199.68 1473.39 Q1203.68 1473.39 1206.02 1471.28 Q1208.36 1469.18 1208.36 1465.56 Q1208.36 1461.95 1206.02 1459.85 Q1203.68 1457.74 1199.68 1457.74 Q1197.8 1457.74 1195.93 1458.16 Q1194.07 1458.57 1192.13 1459.45 L1192.13 1442.09 Z" fill="#000000" fill-rule="evenodd" fill-opacity="1" /><path clip-path="url(#clip260)" d="M 0 0 M1228.1 1445.17 Q1224.49 1445.17 1222.66 1448.74 Q1220.86 1452.28 1220.86 1459.41 Q1220.86 1466.51 1222.66 1470.08 Q1224.49 1473.62 1228.1 1473.62 Q1231.74 1473.62 1233.54 1470.08 Q1235.37 1466.51 1235.37 1459.41 Q1235.37 1452.28 1233.54 1448.74 Q1231.74 1445.17 1228.1 1445.17 M1228.1 1441.47 Q1233.91 1441.47 1236.97 1446.07 Q1240.05 1450.66 1240.05 1459.41 Q1240.05 1468.13 1236.97 1472.74 Q1233.91 1477.32 1228.1 1477.32 Q1222.29 1477.32 1219.21 1472.74 Q1216.16 1468.13 1216.16 1459.41 Q1216.16 1450.66 1219.21 1446.07 Q1222.29 1441.47 1228.1 1441.47 Z" fill="#000000" fill-rule="evenodd" fill-opacity="1" /><path clip-path="url(#clip260)" d="M 0 0 M1681.51 1442.09 L1703.73 1442.09 L1703.73 1444.08 L1691.19 1476.65 L1686.3 1476.65 L1698.11 1446.03 L1681.51 1446.03 L1681.51 1442.09 Z" fill="#000000" fill-rule="evenodd" fill-opacity="1" /><path clip-path="url(#clip260)" d="M 0 0 M1708.85 1442.09 L1727.2 1442.09 L1727.2 1446.03 L1713.13 1446.03 L1713.13 1454.5 Q1714.15 1454.15 1715.17 1453.99 Q1716.19 1453.8 1717.2 1453.8 Q1722.99 1453.8 1726.37 1456.98 Q1729.75 1460.15 1729.75 1465.56 Q1729.75 1471.14 1726.28 1474.24 Q1722.81 1477.32 1716.49 1477.32 Q1714.31 1477.32 1712.04 1476.95 Q1709.8 1476.58 1707.39 1475.84 L1707.39 1471.14 Q1709.47 1472.28 1711.7 1472.83 Q1713.92 1473.39 1716.39 1473.39 Q1720.4 1473.39 1722.74 1471.28 Q1725.07 1469.18 1725.07 1465.56 Q1725.07 1461.95 1722.74 1459.85 Q1720.4 1457.74 1716.39 1457.74 Q1714.52 1457.74 1712.64 1458.16 Q1710.79 1458.57 1708.85 1459.45 L1708.85 1442.09 Z" fill="#000000" fill-rule="evenodd" fill-opacity="1" /><path clip-path="url(#clip260)" d="M 0 0 M2159.27 1472.72 L2166.91 1472.72 L2166.91 1446.35 L2158.6 1448.02 L2158.6 1443.76 L2166.86 1442.09 L2171.54 1442.09 L2171.54 1472.72 L2179.18 1472.72 L2179.18 1476.65 L2159.27 1476.65 L2159.27 1472.72 Z" fill="#000000" fill-rule="evenodd" fill-opacity="1" /><path clip-path="url(#clip260)" d="M 0 0 M2194.25 1445.17 Q2190.64 1445.17 2188.81 1448.74 Q2187 1452.28 2187 1459.41 Q2187 1466.51 2188.81 1470.08 Q2190.64 1473.62 2194.25 1473.62 Q2197.88 1473.62 2199.69 1470.08 Q2201.52 1466.51 2201.52 1459.41 Q2201.52 1452.28 2199.69 1448.74 Q2197.88 1445.17 2194.25 1445.17 M2194.25 1441.47 Q2200.06 1441.47 2203.11 1446.07 Q2206.19 1450.66 2206.19 1459.41 Q2206.19 1468.13 2203.11 1472.74 Q2200.06 1477.32 2194.25 1477.32 Q2188.44 1477.32 2185.36 1472.74 Q2182.3 1468.13 2182.3 1459.41 Q2182.3 1450.66 2185.36 1446.07 Q2188.44 1441.47 2194.25 1441.47 Z" fill="#000000" fill-rule="evenodd" fill-opacity="1" /><path clip-path="url(#clip260)" d="M 0 0 M2221.26 1445.17 Q2217.65 1445.17 2215.82 1448.74 Q2214.02 1452.28 2214.02 1459.41 Q2214.02 1466.51 2215.82 1470.08 Q2217.65 1473.62 2221.26 1473.62 Q2224.9 1473.62 2226.7 1470.08 Q2228.53 1466.51 2228.53 1459.41 Q2228.53 1452.28 2226.7 1448.74 Q2224.9 1445.17 2221.26 1445.17 M2221.26 1441.47 Q2227.07 1441.47 2230.13 1446.07 Q2233.21 1450.66 2233.21 1459.41 Q2233.21 1468.13 2230.13 1472.74 Q2227.07 1477.32 2221.26 1477.32 Q2215.45 1477.32 2212.37 1472.74 Q2209.32 1468.13 2209.32 1459.41 Q2209.32 1450.66 2212.37 1446.07 Q2215.45 1441.47 2221.26 1441.47 Z" fill="#000000" fill-rule="evenodd" fill-opacity="1" /><path clip-path="url(#clip260)" d="M 0 0 M74.9365 1372.2 Q71.3254 1372.2 69.4967 1375.76 Q67.6912 1379.3 67.6912 1386.43 Q67.6912 1393.54 69.4967 1397.1 Q71.3254 1400.65 74.9365 1400.65 Q78.5707 1400.65 80.3763 1397.1 Q82.205 1393.54 82.205 1386.43 Q82.205 1379.3 80.3763 1375.76 Q78.5707 1372.2 74.9365 1372.2 M74.9365 1368.49 Q80.7467 1368.49 83.8022 1373.1 Q86.8809 1377.68 86.8809 1386.43 Q86.8809 1395.16 83.8022 1399.77 Q80.7467 1404.35 74.9365 1404.35 Q69.1264 1404.35 66.0477 1399.77 Q62.9921 1395.16 62.9921 1386.43 Q62.9921 1377.68 66.0477 1373.1 Q69.1264 1368.49 74.9365 1368.49 Z" fill="#000000" fill-rule="evenodd" fill-opacity="1" /><path clip-path="url(#clip260)" d="M 0 0 M91.9503 1397.8 L96.8345 1397.8 L96.8345 1403.68 L91.9503 1403.68 L91.9503 1397.8 Z" fill="#000000" fill-rule="evenodd" fill-opacity="1" /><path clip-path="url(#clip260)" d="M 0 0 M111.904 1372.2 Q108.293 1372.2 106.464 1375.76 Q104.659 1379.3 104.659 1386.43 Q104.659 1393.54 106.464 1397.1 Q108.293 1400.65 111.904 1400.65 Q115.538 1400.65 117.344 1397.1 Q119.172 1393.54 119.172 1386.43 Q119.172 1379.3 117.344 1375.76 Q115.538 1372.2 111.904 1372.2 M111.904 1368.49 Q117.714 1368.49 120.77 1373.1 Q123.848 1377.68 123.848 1386.43 Q123.848 1395.16 120.77 1399.77 Q117.714 1404.35 111.904 1404.35 Q106.094 1404.35 103.015 1399.77 Q99.9595 1395.16 99.9595 1386.43 Q99.9595 1377.68 103.015 1373.1 Q106.094 1368.49 111.904 1368.49 Z" fill="#000000" fill-rule="evenodd" fill-opacity="1" /><path clip-path="url(#clip260)" d="M 0 0 M138.918 1372.2 Q135.307 1372.2 133.478 1375.76 Q131.672 1379.3 131.672 1386.43 Q131.672 1393.54 133.478 1397.1 Q135.307 1400.65 138.918 1400.65 Q142.552 1400.65 144.357 1397.1 Q146.186 1393.54 146.186 1386.43 Q146.186 1379.3 144.357 1375.76 Q142.552 1372.2 138.918 1372.2 M138.918 1368.49 Q144.728 1368.49 147.783 1373.1 Q150.862 1377.68 150.862 1386.43 Q150.862 1395.16 147.783 1399.77 Q144.728 1404.35 138.918 1404.35 Q133.107 1404.35 130.029 1399.77 Q126.973 1395.16 126.973 1386.43 Q126.973 1377.68 130.029 1373.1 Q133.107 1368.49 138.918 1368.49 Z" fill="#000000" fill-rule="evenodd" fill-opacity="1" /><path clip-path="url(#clip260)" d="M 0 0 M165.931 1372.2 Q162.32 1372.2 160.492 1375.76 Q158.686 1379.3 158.686 1386.43 Q158.686 1393.54 160.492 1397.1 Q162.32 1400.65 165.931 1400.65 Q169.566 1400.65 171.371 1397.1 Q173.2 1393.54 173.2 1386.43 Q173.2 1379.3 171.371 1375.76 Q169.566 1372.2 165.931 1372.2 M165.931 1368.49 Q171.742 1368.49 174.797 1373.1 Q177.876 1377.68 177.876 1386.43 Q177.876 1395.16 174.797 1399.77 Q171.742 1404.35 165.931 1404.35 Q160.121 1404.35 157.043 1399.77 Q153.987 1395.16 153.987 1386.43 Q153.987 1377.68 157.043 1373.1 Q160.121 1368.49 165.931 1368.49 Z" fill="#000000" fill-rule="evenodd" fill-opacity="1" /><path clip-path="url(#clip260)" d="M 0 0 M77.5291 1077.33 Q73.918 1077.33 72.0893 1080.9 Q70.2838 1084.44 70.2838 1091.57 Q70.2838 1098.68 72.0893 1102.24 Q73.918 1105.78 77.5291 1105.78 Q81.1633 1105.78 82.9689 1102.24 Q84.7976 1098.68 84.7976 1091.57 Q84.7976 1084.44 82.9689 1080.9 Q81.1633 1077.33 77.5291 1077.33 M77.5291 1073.63 Q83.3392 1073.63 86.3948 1078.24 Q89.4735 1082.82 89.4735 1091.57 Q89.4735 1100.3 86.3948 1104.9 Q83.3392 1109.49 77.5291 1109.49 Q71.7189 1109.49 68.6402 1104.9 Q65.5847 1100.3 65.5847 1091.57 Q65.5847 1082.82 68.6402 1078.24 Q71.7189 1073.63 77.5291 1073.63 Z" fill="#000000" fill-rule="evenodd" fill-opacity="1" /><path clip-path="url(#clip260)" d="M 0 0 M94.5429 1102.93 L99.4271 1102.93 L99.4271 1108.81 L94.5429 1108.81 L94.5429 1102.93 Z" fill="#000000" fill-rule="evenodd" fill-opacity="1" /><path clip-path="url(#clip260)" d="M 0 0 M114.496 1077.33 Q110.885 1077.33 109.057 1080.9 Q107.251 1084.44 107.251 1091.57 Q107.251 1098.68 109.057 1102.24 Q110.885 1105.78 114.496 1105.78 Q118.131 1105.78 119.936 1102.24 Q121.765 1098.68 121.765 1091.57 Q121.765 1084.44 119.936 1080.9 Q118.131 1077.33 114.496 1077.33 M114.496 1073.63 Q120.307 1073.63 123.362 1078.24 Q126.441 1082.82 126.441 1091.57 Q126.441 1100.3 123.362 1104.9 Q120.307 1109.49 114.496 1109.49 Q108.686 1109.49 105.608 1104.9 Q102.552 1100.3 102.552 1091.57 Q102.552 1082.82 105.608 1078.24 Q108.686 1073.63 114.496 1073.63 Z" fill="#000000" fill-rule="evenodd" fill-opacity="1" /><path clip-path="url(#clip260)" d="M 0 0 M135.538 1104.88 L151.857 1104.88 L151.857 1108.81 L129.913 1108.81 L129.913 1104.88 Q132.575 1102.12 137.158 1097.5 Q141.765 1092.84 142.945 1091.5 Q145.191 1088.98 146.07 1087.24 Q146.973 1085.48 146.973 1083.79 Q146.973 1081.04 145.029 1079.3 Q143.107 1077.56 140.006 1077.56 Q137.807 1077.56 135.353 1078.33 Q132.922 1079.09 130.145 1080.64 L130.145 1075.92 Q132.969 1074.79 135.422 1074.21 Q137.876 1073.63 139.913 1073.63 Q145.283 1073.63 148.478 1076.31 Q151.672 1079 151.672 1083.49 Q151.672 1085.62 150.862 1087.54 Q150.075 1089.44 147.969 1092.03 Q147.39 1092.7 144.288 1095.92 Q141.186 1099.12 135.538 1104.88 Z" fill="#000000" fill-rule="evenodd" fill-opacity="1" /><path clip-path="url(#clip260)" d="M 0 0 M156.973 1074.25 L175.329 1074.25 L175.329 1078.19 L161.255 1078.19 L161.255 1086.66 Q162.274 1086.31 163.293 1086.15 Q164.311 1085.97 165.33 1085.97 Q171.117 1085.97 174.496 1089.14 Q177.876 1092.31 177.876 1097.73 Q177.876 1103.31 174.404 1106.41 Q170.931 1109.49 164.612 1109.49 Q162.436 1109.49 160.168 1109.12 Q157.922 1108.75 155.515 1108 L155.515 1103.31 Q157.598 1104.44 159.82 1105 Q162.043 1105.55 164.519 1105.55 Q168.524 1105.55 170.862 1103.44 Q173.2 1101.34 173.2 1097.73 Q173.2 1094.12 170.862 1092.01 Q168.524 1089.9 164.519 1089.9 Q162.644 1089.9 160.769 1090.32 Q158.918 1090.74 156.973 1091.62 L156.973 1074.25 Z" fill="#000000" fill-rule="evenodd" fill-opacity="1" /><path clip-path="url(#clip260)" d="M 0 0 M75.9319 782.47 Q72.3208 782.47 70.4921 786.035 Q68.6865 789.577 68.6865 796.706 Q68.6865 803.813 70.4921 807.377 Q72.3208 810.919 75.9319 810.919 Q79.5661 810.919 81.3717 807.377 Q83.2004 803.813 83.2004 796.706 Q83.2004 789.577 81.3717 786.035 Q79.5661 782.47 75.9319 782.47 M75.9319 778.766 Q81.742 778.766 84.7976 783.373 Q87.8763 787.956 87.8763 796.706 Q87.8763 805.433 84.7976 810.039 Q81.742 814.623 75.9319 814.623 Q70.1217 814.623 67.043 810.039 Q63.9875 805.433 63.9875 796.706 Q63.9875 787.956 67.043 783.373 Q70.1217 778.766 75.9319 778.766 Z" fill="#000000" fill-rule="evenodd" fill-opacity="1" /><path clip-path="url(#clip260)" d="M 0 0 M92.9457 808.072 L97.8299 808.072 L97.8299 813.951 L92.9457 813.951 L92.9457 808.072 Z" fill="#000000" fill-rule="evenodd" fill-opacity="1" /><path clip-path="url(#clip260)" d="M 0 0 M112.899 782.47 Q109.288 782.47 107.459 786.035 Q105.654 789.577 105.654 796.706 Q105.654 803.813 107.459 807.377 Q109.288 810.919 112.899 810.919 Q116.534 810.919 118.339 807.377 Q120.168 803.813 120.168 796.706 Q120.168 789.577 118.339 786.035 Q116.534 782.47 112.899 782.47 M112.899 778.766 Q118.709 778.766 121.765 783.373 Q124.844 787.956 124.844 796.706 Q124.844 805.433 121.765 810.039 Q118.709 814.623 112.899 814.623 Q107.089 814.623 104.01 810.039 Q100.955 805.433 100.955 796.706 Q100.955 787.956 104.01 783.373 Q107.089 778.766 112.899 778.766 Z" fill="#000000" fill-rule="evenodd" fill-opacity="1" /><path clip-path="url(#clip260)" d="M 0 0 M129.959 779.391 L148.316 779.391 L148.316 783.327 L134.242 783.327 L134.242 791.799 Q135.26 791.452 136.279 791.289 Q137.297 791.104 138.316 791.104 Q144.103 791.104 147.482 794.276 Q150.862 797.447 150.862 802.863 Q150.862 808.442 147.39 811.544 Q143.918 814.623 137.598 814.623 Q135.422 814.623 133.154 814.252 Q130.908 813.882 128.501 813.141 L128.501 808.442 Q130.584 809.576 132.807 810.132 Q135.029 810.688 137.506 810.688 Q141.51 810.688 143.848 808.581 Q146.186 806.475 146.186 802.863 Q146.186 799.252 143.848 797.146 Q141.51 795.039 137.506 795.039 Q135.631 795.039 133.756 795.456 Q131.904 795.873 129.959 796.752 L129.959 779.391 Z" fill="#000000" fill-rule="evenodd" fill-opacity="1" /><path clip-path="url(#clip260)" d="M 0 0 M165.931 782.47 Q162.32 782.47 160.492 786.035 Q158.686 789.577 158.686 796.706 Q158.686 803.813 160.492 807.377 Q162.32 810.919 165.931 810.919 Q169.566 810.919 171.371 807.377 Q173.2 803.813 173.2 796.706 Q173.2 789.577 171.371 786.035 Q169.566 782.47 165.931 782.47 M165.931 778.766 Q171.742 778.766 174.797 783.373 Q177.876 787.956 177.876 796.706 Q177.876 805.433 174.797 810.039 Q171.742 814.623 165.931 814.623 Q160.121 814.623 157.043 810.039 Q153.987 805.433 153.987 796.706 Q153.987 787.956 157.043 783.373 Q160.121 778.766 165.931 778.766 Z" fill="#000000" fill-rule="evenodd" fill-opacity="1" /><path clip-path="url(#clip260)" d="M 0 0 M76.8346 487.607 Q73.2236 487.607 71.3949 491.172 Q69.5893 494.713 69.5893 501.843 Q69.5893 508.949 71.3949 512.514 Q73.2236 516.056 76.8346 516.056 Q80.4689 516.056 82.2744 512.514 Q84.1031 508.949 84.1031 501.843 Q84.1031 494.713 82.2744 491.172 Q80.4689 487.607 76.8346 487.607 M76.8346 483.903 Q82.6448 483.903 85.7003 488.51 Q88.779 493.093 88.779 501.843 Q88.779 510.57 85.7003 515.176 Q82.6448 519.76 76.8346 519.76 Q71.0245 519.76 67.9458 515.176 Q64.8903 510.57 64.8903 501.843 Q64.8903 493.093 67.9458 488.51 Q71.0245 483.903 76.8346 483.903 Z" fill="#000000" fill-rule="evenodd" fill-opacity="1" /><path clip-path="url(#clip260)" d="M 0 0 M93.8484 513.209 L98.7327 513.209 L98.7327 519.088 L93.8484 519.088 L93.8484 513.209 Z" fill="#000000" fill-rule="evenodd" fill-opacity="1" /><path clip-path="url(#clip260)" d="M 0 0 M113.802 487.607 Q110.191 487.607 108.362 491.172 Q106.557 494.713 106.557 501.843 Q106.557 508.949 108.362 512.514 Q110.191 516.056 113.802 516.056 Q117.436 516.056 119.242 512.514 Q121.071 508.949 121.071 501.843 Q121.071 494.713 119.242 491.172 Q117.436 487.607 113.802 487.607 M113.802 483.903 Q119.612 483.903 122.668 488.51 Q125.746 493.093 125.746 501.843 Q125.746 510.57 122.668 515.176 Q119.612 519.76 113.802 519.76 Q107.992 519.76 104.913 515.176 Q101.858 510.57 101.858 501.843 Q101.858 493.093 104.913 488.51 Q107.992 483.903 113.802 483.903 Z" fill="#000000" fill-rule="evenodd" fill-opacity="1" /><path clip-path="url(#clip260)" d="M 0 0 M129.635 484.528 L151.857 484.528 L151.857 486.519 L139.311 519.088 L134.427 519.088 L146.232 488.463 L129.635 488.463 L129.635 484.528 Z" fill="#000000" fill-rule="evenodd" fill-opacity="1" /><path clip-path="url(#clip260)" d="M 0 0 M156.973 484.528 L175.329 484.528 L175.329 488.463 L161.255 488.463 L161.255 496.936 Q162.274 496.588 163.293 496.426 Q164.311 496.241 165.33 496.241 Q171.117 496.241 174.496 499.412 Q177.876 502.584 177.876 508 Q177.876 513.579 174.404 516.681 Q170.931 519.76 164.612 519.76 Q162.436 519.76 160.168 519.389 Q157.922 519.019 155.515 518.278 L155.515 513.579 Q157.598 514.713 159.82 515.269 Q162.043 515.824 164.519 515.824 Q168.524 515.824 170.862 513.718 Q173.2 511.611 173.2 508 Q173.2 504.389 170.862 502.283 Q168.524 500.176 164.519 500.176 Q162.644 500.176 160.769 500.593 Q158.918 501.01 156.973 501.889 L156.973 484.528 Z" fill="#000000" fill-rule="evenodd" fill-opacity="1" /><path clip-path="url(#clip260)" d="M 0 0 M76.1634 192.744 Q72.5523 192.744 70.7236 196.309 Q68.918 199.85 68.918 206.98 Q68.918 214.086 70.7236 217.651 Q72.5523 221.193 76.1634 221.193 Q79.7976 221.193 81.6031 217.651 Q83.4318 214.086 83.4318 206.98 Q83.4318 199.85 81.6031 196.309 Q79.7976 192.744 76.1634 192.744 M76.1634 189.04 Q81.9735 189.04 85.029 193.647 Q88.1077 198.23 88.1077 206.98 Q88.1077 215.707 85.029 220.313 Q81.9735 224.896 76.1634 224.896 Q70.3532 224.896 67.2745 220.313 Q64.219 215.707 64.219 206.98 Q64.219 198.23 67.2745 193.647 Q70.3532 189.04 76.1634 189.04 Z" fill="#000000" fill-rule="evenodd" fill-opacity="1" /><path clip-path="url(#clip260)" d="M 0 0 M93.1771 218.346 L98.0614 218.346 L98.0614 224.225 L93.1771 224.225 L93.1771 218.346 Z" fill="#000000" fill-rule="evenodd" fill-opacity="1" /><path clip-path="url(#clip260)" d="M 0 0 M103.941 220.29 L111.58 220.29 L111.58 193.924 L103.27 195.591 L103.27 191.332 L111.534 189.665 L116.209 189.665 L116.209 220.29 L123.848 220.29 L123.848 224.225 L103.941 224.225 L103.941 220.29 Z" fill="#000000" fill-rule="evenodd" fill-opacity="1" /><path clip-path="url(#clip260)" d="M 0 0 M138.918 192.744 Q135.307 192.744 133.478 196.309 Q131.672 199.85 131.672 206.98 Q131.672 214.086 133.478 217.651 Q135.307 221.193 138.918 221.193 Q142.552 221.193 144.357 217.651 Q146.186 214.086 146.186 206.98 Q146.186 199.85 144.357 196.309 Q142.552 192.744 138.918 192.744 M138.918 189.04 Q144.728 189.04 147.783 193.647 Q150.862 198.23 150.862 206.98 Q150.862 215.707 147.783 220.313 Q144.728 224.896 138.918 224.896 Q133.107 224.896 130.029 220.313 Q126.973 215.707 126.973 206.98 Q126.973 198.23 130.029 193.647 Q133.107 189.04 138.918 189.04 Z" fill="#000000" fill-rule="evenodd" fill-opacity="1" /><path clip-path="url(#clip260)" d="M 0 0 M165.931 192.744 Q162.32 192.744 160.492 196.309 Q158.686 199.85 158.686 206.98 Q158.686 214.086 160.492 217.651 Q162.32 221.193 165.931 221.193 Q169.566 221.193 171.371 217.651 Q173.2 214.086 173.2 206.98 Q173.2 199.85 171.371 196.309 Q169.566 192.744 165.931 192.744 M165.931 189.04 Q171.742 189.04 174.797 193.647 Q177.876 198.23 177.876 206.98 Q177.876 215.707 174.797 220.313 Q171.742 224.896 165.931 224.896 Q160.121 224.896 157.043 220.313 Q153.987 215.707 153.987 206.98 Q153.987 198.23 157.043 193.647 Q160.121 189.04 165.931 189.04 Z" fill="#000000" fill-rule="evenodd" fill-opacity="1" /><path clip-path="url(#clip260)" d="M 0 0 M283.771 18.8205 L283.771 65.8515 L293.655 65.8515 Q306.172 65.8515 311.965 60.1802 Q317.798 54.509 317.798 42.2752 Q317.798 30.1225 311.965 24.4918 Q306.172 18.8205 293.655 18.8205 L283.771 18.8205 M275.588 12.096 L292.399 12.096 Q309.98 12.096 318.204 19.4281 Q326.427 26.7198 326.427 42.2752 Q326.427 57.9117 318.163 65.2439 Q309.899 72.576 292.399 72.576 L275.588 72.576 L275.588 12.096 Z" fill="#000000" fill-rule="evenodd" fill-opacity="1" /><path clip-path="url(#clip260)" d="M 0 0 M334.245 27.2059 L341.699 27.2059 L341.699 72.576 L334.245 72.576 L334.245 27.2059 M334.245 9.54393 L341.699 9.54393 L341.699 18.9825 L334.245 18.9825 L334.245 9.54393 Z" fill="#000000" fill-rule="evenodd" fill-opacity="1" /><path clip-path="url(#clip260)" d="M 0 0 M344.17 27.2059 L352.069 27.2059 L366.247 65.2844 L380.425 27.2059 L388.325 27.2059 L371.311 72.576 L361.184 72.576 L344.17 27.2059 Z" fill="#000000" fill-rule="evenodd" fill-opacity="1" /><path clip-path="url(#clip260)" d="M 0 0 M434.951 48.0275 L434.951 51.6733 L400.68 51.6733 Q401.166 59.3701 405.298 63.421 Q409.47 67.4314 416.884 67.4314 Q421.177 67.4314 425.188 66.3781 Q429.239 65.3249 433.209 63.2184 L433.209 70.267 Q429.198 71.9684 424.985 72.8596 Q420.772 73.7508 416.438 73.7508 Q405.582 73.7508 399.222 67.4314 Q392.902 61.1119 392.902 50.3365 Q392.902 39.1965 398.898 32.6746 Q404.933 26.1121 415.142 26.1121 Q424.297 26.1121 429.603 32.0264 Q434.951 37.9003 434.951 48.0275 M427.497 45.84 Q427.416 39.7232 424.054 36.0774 Q420.732 32.4315 415.223 32.4315 Q408.984 32.4315 405.217 35.9558 Q401.49 39.4801 400.923 45.8805 L427.497 45.84 Z" fill="#000000" fill-rule="evenodd" fill-opacity="1" /><path clip-path="url(#clip260)" d="M 0 0 M469.059 34.1734 Q467.803 33.4443 466.305 33.1202 Q464.846 32.7556 463.064 32.7556 Q456.744 32.7556 453.342 36.8875 Q449.979 40.9789 449.979 48.6757 L449.979 72.576 L442.485 72.576 L442.485 27.2059 L449.979 27.2059 L449.979 34.2544 Q452.329 30.1225 456.096 28.1376 Q459.864 26.1121 465.251 26.1121 Q466.021 26.1121 466.953 26.2337 Q467.884 26.3147 469.019 26.5172 L469.059 34.1734 Z" fill="#000000" fill-rule="evenodd" fill-opacity="1" /><path clip-path="url(#clip260)" d="M 0 0 M505.801 28.5427 L505.801 35.5912 Q502.641 33.9709 499.238 33.1607 Q495.836 32.3505 492.19 32.3505 Q486.64 32.3505 483.845 34.0519 Q481.09 35.7533 481.09 39.156 Q481.09 41.7486 483.075 43.2475 Q485.06 44.7058 491.056 46.0426 L493.608 46.6097 Q501.547 48.3111 504.869 51.4303 Q508.231 54.509 508.231 60.0587 Q508.231 66.3781 503.208 70.0644 Q498.226 73.7508 489.476 73.7508 Q485.83 73.7508 481.86 73.0216 Q477.931 72.3329 473.556 70.9151 L473.556 63.2184 Q477.688 65.3654 481.698 66.4591 Q485.708 67.5124 489.638 67.5124 Q494.904 67.5124 497.74 65.73 Q500.575 63.9071 500.575 60.6258 Q500.575 57.5877 498.509 55.9673 Q496.484 54.3469 489.557 52.8481 L486.964 52.2405 Q480.037 50.7821 476.958 47.7845 Q473.88 44.7463 473.88 39.4801 Q473.88 33.0797 478.417 29.5959 Q482.954 26.1121 491.299 26.1121 Q495.431 26.1121 499.076 26.7198 Q502.722 27.3274 505.801 28.5427 Z" fill="#000000" fill-rule="evenodd" fill-opacity="1" /><path clip-path="url(#clip260)" d="M 0 0 M516.05 27.2059 L523.503 27.2059 L523.503 72.576 L516.05 72.576 L516.05 27.2059 M516.05 9.54393 L523.503 9.54393 L523.503 18.9825 L516.05 18.9825 L516.05 9.54393 Z" fill="#000000" fill-rule="evenodd" fill-opacity="1" /><path clip-path="url(#clip260)" d="M 0 0 M538.694 14.324 L538.694 27.2059 L554.047 27.2059 L554.047 32.9987 L538.694 32.9987 L538.694 57.6282 Q538.694 63.1779 540.193 64.7578 Q541.732 66.3376 546.391 66.3376 L554.047 66.3376 L554.047 72.576 L546.391 72.576 Q537.763 72.576 534.481 69.3758 Q531.2 66.1351 531.2 57.6282 L531.2 32.9987 L525.731 32.9987 L525.731 27.2059 L531.2 27.2059 L531.2 14.324 L538.694 14.324 Z" fill="#000000" fill-rule="evenodd" fill-opacity="1" /><path clip-path="url(#clip260)" d="M 0 0 M580.743 76.7889 Q577.583 84.8907 574.585 87.3618 Q571.588 89.8329 566.564 89.8329 L560.61 89.8329 L560.61 83.5945 L564.985 83.5945 Q568.063 83.5945 569.765 82.1361 Q571.466 80.6778 573.532 75.2496 L574.869 71.8468 L556.518 27.2059 L564.417 27.2059 L578.596 62.6918 L592.774 27.2059 L600.673 27.2059 L580.743 76.7889 Z" fill="#000000" fill-rule="evenodd" fill-opacity="1" /><path clip-path="url(#clip260)" d="M 0 0 M671.442 14.0809 L671.442 22.0612 Q666.784 19.8332 662.652 18.7395 Q658.52 17.6457 654.672 17.6457 Q647.988 17.6457 644.342 20.2383 Q640.736 22.8309 640.736 27.611 Q640.736 31.6214 643.127 33.6873 Q645.557 35.7128 652.282 36.9686 L657.224 37.9813 Q666.379 39.7232 670.713 44.1387 Q675.088 48.5136 675.088 55.8863 Q675.088 64.6767 669.174 69.2137 Q663.3 73.7508 651.917 73.7508 Q647.623 73.7508 642.762 72.7785 Q637.941 71.8063 632.756 69.9024 L632.756 61.4765 Q637.739 64.2716 642.519 65.6895 Q647.299 67.1073 651.917 67.1073 Q658.925 67.1073 662.733 64.3527 Q666.541 61.598 666.541 56.4939 Q666.541 52.0379 663.786 49.5264 Q661.072 47.0148 654.834 45.759 L649.851 44.7868 Q640.696 42.9639 636.605 39.075 Q632.513 35.1862 632.513 28.2591 Q632.513 20.2383 638.144 15.6203 Q643.815 11.0023 653.74 11.0023 Q657.993 11.0023 662.409 11.7719 Q666.824 12.5416 671.442 14.0809 Z" fill="#000000" fill-rule="evenodd" fill-opacity="1" /><path clip-path="url(#clip260)" d="M 0 0 M715.557 28.9478 L715.557 35.9153 Q712.397 34.1734 709.197 33.3227 Q706.037 32.4315 702.796 32.4315 Q695.545 32.4315 691.535 37.0496 Q687.524 41.6271 687.524 49.9314 Q687.524 58.2358 691.535 62.8538 Q695.545 67.4314 702.796 67.4314 Q706.037 67.4314 709.197 66.5807 Q712.397 65.6895 715.557 63.9476 L715.557 70.8341 Q712.437 72.2924 709.075 73.0216 Q705.754 73.7508 701.986 73.7508 Q691.737 73.7508 685.702 67.3098 Q679.666 60.8689 679.666 49.9314 Q679.666 38.832 685.742 32.472 Q691.859 26.1121 702.472 26.1121 Q705.916 26.1121 709.197 26.8413 Q712.478 27.5299 715.557 28.9478 Z" fill="#000000" fill-rule="evenodd" fill-opacity="1" /><path clip-path="url(#clip260)" d="M 0 0 M740.956 32.4315 Q734.961 32.4315 731.477 37.1306 Q727.993 41.7891 727.993 49.9314 Q727.993 58.0738 731.436 62.7728 Q734.92 67.4314 740.956 67.4314 Q746.911 67.4314 750.394 62.7323 Q753.878 58.0333 753.878 49.9314 Q753.878 41.8701 750.394 37.1711 Q746.911 32.4315 740.956 32.4315 M740.956 26.1121 Q750.678 26.1121 756.228 32.4315 Q761.778 38.7509 761.778 49.9314 Q761.778 61.0714 756.228 67.4314 Q750.678 73.7508 740.956 73.7508 Q731.193 73.7508 725.643 67.4314 Q720.134 61.0714 720.134 49.9314 Q720.134 38.7509 725.643 32.4315 Q731.193 26.1121 740.956 26.1121 Z" fill="#000000" fill-rule="evenodd" fill-opacity="1" /><path clip-path="url(#clip260)" d="M 0 0 M795.886 34.1734 Q794.63 33.4443 793.132 33.1202 Q791.673 32.7556 789.891 32.7556 Q783.571 32.7556 780.169 36.8875 Q776.806 40.9789 776.806 48.6757 L776.806 72.576 L769.312 72.576 L769.312 27.2059 L776.806 27.2059 L776.806 34.2544 Q779.156 30.1225 782.923 28.1376 Q786.691 26.1121 792.078 26.1121 Q792.848 26.1121 793.78 26.2337 Q794.711 26.3147 795.846 26.5172 L795.886 34.1734 Z" fill="#000000" fill-rule="evenodd" fill-opacity="1" /><path clip-path="url(#clip260)" d="M 0 0 M840.689 48.0275 L840.689 51.6733 L806.418 51.6733 Q806.905 59.3701 811.037 63.421 Q815.209 67.4314 822.622 67.4314 Q826.916 67.4314 830.926 66.3781 Q834.977 65.3249 838.947 63.2184 L838.947 70.267 Q834.937 71.9684 830.724 72.8596 Q826.511 73.7508 822.176 73.7508 Q811.32 73.7508 804.96 67.4314 Q798.641 61.1119 798.641 50.3365 Q798.641 39.1965 804.636 32.6746 Q810.672 26.1121 820.88 26.1121 Q830.035 26.1121 835.342 32.0264 Q840.689 37.9003 840.689 48.0275 M833.235 45.84 Q833.154 39.7232 829.792 36.0774 Q826.47 32.4315 820.961 32.4315 Q814.723 32.4315 810.955 35.9558 Q807.229 39.4801 806.662 45.8805 L833.235 45.84 Z" fill="#000000" fill-rule="evenodd" fill-opacity="1" /><path clip-path="url(#clip260)" d="M 0 0 M877.431 28.5427 L877.431 35.5912 Q874.271 33.9709 870.868 33.1607 Q867.466 32.3505 863.82 32.3505 Q858.27 32.3505 855.475 34.0519 Q852.72 35.7533 852.72 39.156 Q852.72 41.7486 854.705 43.2475 Q856.69 44.7058 862.686 46.0426 L865.238 46.6097 Q873.177 48.3111 876.499 51.4303 Q879.861 54.509 879.861 60.0587 Q879.861 66.3781 874.838 70.0644 Q869.856 73.7508 861.106 73.7508 Q857.46 73.7508 853.49 73.0216 Q849.561 72.3329 845.186 70.9151 L845.186 63.2184 Q849.318 65.3654 853.328 66.4591 Q857.338 67.5124 861.268 67.5124 Q866.534 67.5124 869.37 65.73 Q872.205 63.9071 872.205 60.6258 Q872.205 57.5877 870.139 55.9673 Q868.114 54.3469 861.187 52.8481 L858.594 52.2405 Q851.667 50.7821 848.588 47.7845 Q845.51 44.7463 845.51 39.4801 Q845.51 33.0797 850.047 29.5959 Q854.584 26.1121 862.929 26.1121 Q867.061 26.1121 870.706 26.7198 Q874.352 27.3274 877.431 28.5427 Z" fill="#000000" fill-rule="evenodd" fill-opacity="1" /><path clip-path="url(#clip260)" d="M 0 0 M909.717 27.2059 L917.17 27.2059 L926.487 62.6108 L935.764 27.2059 L944.554 27.2059 L953.871 62.6108 L963.148 27.2059 L970.602 27.2059 L958.732 72.576 L949.942 72.576 L940.179 35.3887 L930.376 72.576 L921.586 72.576 L909.717 27.2059 Z" fill="#000000" fill-rule="evenodd" fill-opacity="1" /><path clip-path="url(#clip260)" d="M 0 0 M978.42 27.2059 L985.874 27.2059 L985.874 72.576 L978.42 72.576 L978.42 27.2059 M978.42 9.54393 L985.874 9.54393 L985.874 18.9825 L978.42 18.9825 L978.42 9.54393 Z" fill="#000000" fill-rule="evenodd" fill-opacity="1" /><path clip-path="url(#clip260)" d="M 0 0 M1001.06 14.324 L1001.06 27.2059 L1016.42 27.2059 L1016.42 32.9987 L1001.06 32.9987 L1001.06 57.6282 Q1001.06 63.1779 1002.56 64.7578 Q1004.1 66.3376 1008.76 66.3376 L1016.42 66.3376 L1016.42 72.576 L1008.76 72.576 Q1000.13 72.576 996.851 69.3758 Q993.57 66.1351 993.57 57.6282 L993.57 32.9987 L988.102 32.9987 L988.102 27.2059 L993.57 27.2059 L993.57 14.324 L1001.06 14.324 Z" fill="#000000" fill-rule="evenodd" fill-opacity="1" /><path clip-path="url(#clip260)" d="M 0 0 M1061.95 45.1919 L1061.95 72.576 L1054.5 72.576 L1054.5 45.4349 Q1054.5 38.994 1051.98 35.7938 Q1049.47 32.5936 1044.45 32.5936 Q1038.41 32.5936 1034.93 36.4419 Q1031.45 40.2903 1031.45 46.9338 L1031.45 72.576 L1023.95 72.576 L1023.95 9.54393 L1031.45 9.54393 L1031.45 34.2544 Q1034.12 30.163 1037.73 28.1376 Q1041.37 26.1121 1046.11 26.1121 Q1053.93 26.1121 1057.94 30.9732 Q1061.95 35.7938 1061.95 45.1919 Z" fill="#000000" fill-rule="evenodd" fill-opacity="1" /><path clip-path="url(#clip260)" d="M 0 0 M1112.06 72.576 L1088.97 12.096 L1097.52 12.096 L1116.68 63.0159 L1135.88 12.096 L1144.39 12.096 L1121.34 72.576 L1112.06 72.576 Z" fill="#000000" fill-rule="evenodd" fill-opacity="1" /><path clip-path="url(#clip260)" d="M 0 0 M1166.38 49.7694 Q1157.35 49.7694 1153.86 51.8354 Q1150.38 53.9013 1150.38 58.8839 Q1150.38 62.8538 1152.97 65.2034 Q1155.61 67.5124 1160.1 67.5124 Q1166.3 67.5124 1170.03 63.1374 Q1173.79 58.7219 1173.79 51.4303 L1173.79 49.7694 L1166.38 49.7694 M1181.25 46.6907 L1181.25 72.576 L1173.79 72.576 L1173.79 65.6895 Q1171.24 69.8214 1167.44 71.8063 Q1163.63 73.7508 1158.12 73.7508 Q1151.15 73.7508 1147.02 69.8619 Q1142.93 65.9325 1142.93 59.3701 Q1142.93 51.7138 1148.03 47.825 Q1153.18 43.9361 1163.34 43.9361 L1173.79 43.9361 L1173.79 43.2069 Q1173.79 38.0623 1170.39 35.2672 Q1167.03 32.4315 1160.91 32.4315 Q1157.02 32.4315 1153.34 33.3632 Q1149.65 34.295 1146.25 36.1584 L1146.25 29.2718 Q1150.34 27.692 1154.19 26.9223 Q1158.04 26.1121 1161.68 26.1121 Q1171.53 26.1121 1176.39 31.2163 Q1181.25 36.3204 1181.25 46.6907 Z" fill="#000000" fill-rule="evenodd" fill-opacity="1" /><path clip-path="url(#clip260)" d="M 0 0 M1215.36 34.1734 Q1214.1 33.4443 1212.6 33.1202 Q1211.14 32.7556 1209.36 32.7556 Q1203.04 32.7556 1199.64 36.8875 Q1196.28 40.9789 1196.28 48.6757 L1196.28 72.576 L1188.78 72.576 L1188.78 27.2059 L1196.28 27.2059 L1196.28 34.2544 Q1198.63 30.1225 1202.39 28.1376 Q1206.16 26.1121 1211.55 26.1121 Q1212.32 26.1121 1213.25 26.2337 Q1214.18 26.3147 1215.32 26.5172 L1215.36 34.1734 Z" fill="#000000" fill-rule="evenodd" fill-opacity="1" /><path clip-path="url(#clip260)" d="M 0 0 M1242.05 76.7889 Q1238.89 84.8907 1235.9 87.3618 Q1232.9 89.8329 1227.87 89.8329 L1221.92 89.8329 L1221.92 83.5945 L1226.29 83.5945 Q1229.37 83.5945 1231.07 82.1361 Q1232.78 80.6778 1234.84 75.2496 L1236.18 71.8468 L1217.83 27.2059 L1225.73 27.2059 L1239.91 62.6918 L1254.08 27.2059 L1261.98 27.2059 L1242.05 76.7889 Z" fill="#000000" fill-rule="evenodd" fill-opacity="1" /><path clip-path="url(#clip260)" d="M 0 0 M1269.8 27.2059 L1277.26 27.2059 L1277.26 72.576 L1269.8 72.576 L1269.8 27.2059 M1269.8 9.54393 L1277.26 9.54393 L1277.26 18.9825 L1269.8 18.9825 L1269.8 9.54393 Z" fill="#000000" fill-rule="evenodd" fill-opacity="1" /><path clip-path="url(#clip260)" d="M 0 0 M1322.79 45.1919 L1322.79 72.576 L1315.33 72.576 L1315.33 45.4349 Q1315.33 38.994 1312.82 35.7938 Q1310.31 32.5936 1305.29 32.5936 Q1299.25 32.5936 1295.77 36.4419 Q1292.28 40.2903 1292.28 46.9338 L1292.28 72.576 L1284.79 72.576 L1284.79 27.2059 L1292.28 27.2059 L1292.28 34.2544 Q1294.96 30.163 1298.56 28.1376 Q1302.21 26.1121 1306.95 26.1121 Q1314.77 26.1121 1318.78 30.9732 Q1322.79 35.7938 1322.79 45.1919 Z" fill="#000000" fill-rule="evenodd" fill-opacity="1" /><path clip-path="url(#clip260)" d="M 0 0 M1360.46 49.3643 Q1360.46 41.2625 1357.1 36.8065 Q1353.78 32.3505 1347.74 32.3505 Q1341.75 32.3505 1338.38 36.8065 Q1335.06 41.2625 1335.06 49.3643 Q1335.06 57.4256 1338.38 61.8816 Q1341.75 66.3376 1347.74 66.3376 Q1353.78 66.3376 1357.1 61.8816 Q1360.46 57.4256 1360.46 49.3643 M1367.91 66.9452 Q1367.91 78.5308 1362.77 84.1616 Q1357.63 89.8329 1347.01 89.8329 Q1343.08 89.8329 1339.6 89.2252 Q1336.11 88.6581 1332.83 87.4428 L1332.83 80.1917 Q1336.11 81.9741 1339.31 82.8248 Q1342.52 83.6755 1345.84 83.6755 Q1353.17 83.6755 1356.81 79.8271 Q1360.46 76.0193 1360.46 68.282 L1360.46 64.5957 Q1358.15 68.6061 1354.55 70.5911 Q1350.94 72.576 1345.92 72.576 Q1337.57 72.576 1332.47 66.2161 Q1327.36 59.8562 1327.36 49.3643 Q1327.36 38.832 1332.47 32.472 Q1337.57 26.1121 1345.92 26.1121 Q1350.94 26.1121 1354.55 28.0971 Q1358.15 30.082 1360.46 34.0924 L1360.46 27.2059 L1367.91 27.2059 L1367.91 66.9452 Z" fill="#000000" fill-rule="evenodd" fill-opacity="1" /><path clip-path="url(#clip260)" d="M 0 0 M1402.43 12.096 L1413.45 12.096 L1440.26 62.6918 L1440.26 12.096 L1448.2 12.096 L1448.2 72.576 L1437.18 72.576 L1410.37 21.9802 L1410.37 72.576 L1402.43 72.576 L1402.43 12.096 Z" fill="#000000" fill-rule="evenodd" fill-opacity="1" /><path clip-path="url(#clip260)" d="M 0 0 M1456.35 12.096 L1464.53 12.096 L1464.53 36.8875 L1494.26 36.8875 L1494.26 12.096 L1502.44 12.096 L1502.44 72.576 L1494.26 72.576 L1494.26 43.7741 L1464.53 43.7741 L1464.53 72.576 L1456.35 72.576 L1456.35 12.096 Z" fill="#000000" fill-rule="evenodd" fill-opacity="1" /><path clip-path="url(#clip260)" d="M 0 0 M1573.21 14.0809 L1573.21 22.0612 Q1568.56 19.8332 1564.42 18.7395 Q1560.29 17.6457 1556.44 17.6457 Q1549.76 17.6457 1546.11 20.2383 Q1542.51 22.8309 1542.51 27.611 Q1542.51 31.6214 1544.9 33.6873 Q1547.33 35.7128 1554.05 36.9686 L1559 37.9813 Q1568.15 39.7232 1572.48 44.1387 Q1576.86 48.5136 1576.86 55.8863 Q1576.86 64.6767 1570.95 69.2137 Q1565.07 73.7508 1553.69 73.7508 Q1549.39 73.7508 1544.53 72.7785 Q1539.71 71.8063 1534.53 69.9024 L1534.53 61.4765 Q1539.51 64.2716 1544.29 65.6895 Q1549.07 67.1073 1553.69 67.1073 Q1560.7 67.1073 1564.5 64.3527 Q1568.31 61.598 1568.31 56.4939 Q1568.31 52.0379 1565.56 49.5264 Q1562.84 47.0148 1556.61 45.759 L1551.62 44.7868 Q1542.47 42.9639 1538.38 39.075 Q1534.28 35.1862 1534.28 28.2591 Q1534.28 20.2383 1539.92 15.6203 Q1545.59 11.0023 1555.51 11.0023 Q1559.77 11.0023 1564.18 11.7719 Q1568.6 12.5416 1573.21 14.0809 Z" fill="#000000" fill-rule="evenodd" fill-opacity="1" /><path clip-path="url(#clip260)" d="M 0 0 M1584.68 27.2059 L1592.13 27.2059 L1592.13 72.576 L1584.68 72.576 L1584.68 27.2059 M1584.68 9.54393 L1592.13 9.54393 L1592.13 18.9825 L1584.68 18.9825 L1584.68 9.54393 Z" fill="#000000" fill-rule="evenodd" fill-opacity="1" /><path clip-path="url(#clip260)" d="M 0 0 M1596.71 27.2059 L1632.11 27.2059 L1632.11 34.0114 L1604.08 66.6212 L1632.11 66.6212 L1632.11 72.576 L1595.7 72.576 L1595.7 65.7705 L1623.73 33.1607 L1596.71 33.1607 L1596.71 27.2059 Z" fill="#000000" fill-rule="evenodd" fill-opacity="1" /><path clip-path="url(#clip260)" d="M 0 0 M1678.74 48.0275 L1678.74 51.6733 L1644.47 51.6733 Q1644.96 59.3701 1649.09 63.421 Q1653.26 67.4314 1660.67 67.4314 Q1664.97 67.4314 1668.98 66.3781 Q1673.03 65.3249 1677 63.2184 L1677 70.267 Q1672.99 71.9684 1668.77 72.8596 Q1664.56 73.7508 1660.23 73.7508 Q1649.37 73.7508 1643.01 67.4314 Q1636.69 61.1119 1636.69 50.3365 Q1636.69 39.1965 1642.69 32.6746 Q1648.72 26.1121 1658.93 26.1121 Q1668.09 26.1121 1673.39 32.0264 Q1678.74 37.9003 1678.74 48.0275 M1671.29 45.84 Q1671.21 39.7232 1667.84 36.0774 Q1664.52 32.4315 1659.01 32.4315 Q1652.77 32.4315 1649.01 35.9558 Q1645.28 39.4801 1644.71 45.8805 L1671.29 45.84 Z" fill="#000000" fill-rule="evenodd" fill-opacity="1" /><path clip-path="url(#clip260)" d="M 0 0 M1733.55 49.7694 Q1724.52 49.7694 1721.03 51.8354 Q1717.55 53.9013 1717.55 58.8839 Q1717.55 62.8538 1720.14 65.2034 Q1722.77 67.5124 1727.27 67.5124 Q1733.47 67.5124 1737.19 63.1374 Q1740.96 58.7219 1740.96 51.4303 L1740.96 49.7694 L1733.55 49.7694 M1748.42 46.6907 L1748.42 72.576 L1740.96 72.576 L1740.96 65.6895 Q1738.41 69.8214 1734.6 71.8063 Q1730.79 73.7508 1725.29 73.7508 Q1718.32 73.7508 1714.19 69.8619 Q1710.09 65.9325 1710.09 59.3701 Q1710.09 51.7138 1715.2 47.825 Q1720.34 43.9361 1730.51 43.9361 L1740.96 43.9361 L1740.96 43.2069 Q1740.96 38.0623 1737.56 35.2672 Q1734.2 32.4315 1728.08 32.4315 Q1724.19 32.4315 1720.51 33.3632 Q1716.82 34.295 1713.42 36.1584 L1713.42 29.2718 Q1717.51 27.692 1721.36 26.9223 Q1725.2 26.1121 1728.85 26.1121 Q1738.69 26.1121 1743.55 31.2163 Q1748.42 36.3204 1748.42 46.6907 Z" fill="#000000" fill-rule="evenodd" fill-opacity="1" /><path clip-path="url(#clip260)" d="M 0 0 M1793.95 45.1919 L1793.95 72.576 L1786.49 72.576 L1786.49 45.4349 Q1786.49 38.994 1783.98 35.7938 Q1781.47 32.5936 1776.45 32.5936 Q1770.41 32.5936 1766.93 36.4419 Q1763.44 40.2903 1763.44 46.9338 L1763.44 72.576 L1755.95 72.576 L1755.95 27.2059 L1763.44 27.2059 L1763.44 34.2544 Q1766.12 30.163 1769.72 28.1376 Q1773.37 26.1121 1778.11 26.1121 Q1785.93 26.1121 1789.94 30.9732 Q1793.95 35.7938 1793.95 45.1919 Z" fill="#000000" fill-rule="evenodd" fill-opacity="1" /><path clip-path="url(#clip260)" d="M 0 0 M1831.62 34.0924 L1831.62 9.54393 L1839.07 9.54393 L1839.07 72.576 L1831.62 72.576 L1831.62 65.7705 Q1829.27 69.8214 1825.67 71.8063 Q1822.1 73.7508 1817.08 73.7508 Q1808.86 73.7508 1803.67 67.1883 Q1798.53 60.6258 1798.53 49.9314 Q1798.53 39.2371 1803.67 32.6746 Q1808.86 26.1121 1817.08 26.1121 Q1822.1 26.1121 1825.67 28.0971 Q1829.27 30.0415 1831.62 34.0924 M1806.22 49.9314 Q1806.22 58.1548 1809.58 62.8538 Q1812.99 67.5124 1818.9 67.5124 Q1824.82 67.5124 1828.22 62.8538 Q1831.62 58.1548 1831.62 49.9314 Q1831.62 41.7081 1828.22 37.0496 Q1824.82 32.3505 1818.9 32.3505 Q1812.99 32.3505 1809.58 37.0496 Q1806.22 41.7081 1806.22 49.9314 Z" fill="#000000" fill-rule="evenodd" fill-opacity="1" /><path clip-path="url(#clip260)" d="M 0 0 M1881.77 18.8205 L1881.77 41.5461 L1892.06 41.5461 Q1897.77 41.5461 1900.89 38.5889 Q1904.01 35.6318 1904.01 30.163 Q1904.01 24.7348 1900.89 21.7777 Q1897.77 18.8205 1892.06 18.8205 L1881.77 18.8205 M1873.59 12.096 L1892.06 12.096 Q1902.23 12.096 1907.41 16.714 Q1912.64 21.2916 1912.64 30.163 Q1912.64 39.1155 1907.41 43.6931 Q1902.23 48.2706 1892.06 48.2706 L1881.77 48.2706 L1881.77 72.576 L1873.59 72.576 L1873.59 12.096 Z" fill="#000000" fill-rule="evenodd" fill-opacity="1" /><path clip-path="url(#clip260)" d="M 0 0 M1945.29 34.1734 Q1944.03 33.4443 1942.54 33.1202 Q1941.08 32.7556 1939.29 32.7556 Q1932.97 32.7556 1929.57 36.8875 Q1926.21 40.9789 1926.21 48.6757 L1926.21 72.576 L1918.72 72.576 L1918.72 27.2059 L1926.21 27.2059 L1926.21 34.2544 Q1928.56 30.1225 1932.33 28.1376 Q1936.09 26.1121 1941.48 26.1121 Q1942.25 26.1121 1943.18 26.2337 Q1944.11 26.3147 1945.25 26.5172 L1945.29 34.1734 Z" fill="#000000" fill-rule="evenodd" fill-opacity="1" /><path clip-path="url(#clip260)" d="M 0 0 M1990.09 48.0275 L1990.09 51.6733 L1955.82 51.6733 Q1956.31 59.3701 1960.44 63.421 Q1964.61 67.4314 1972.03 67.4314 Q1976.32 67.4314 1980.33 66.3781 Q1984.38 65.3249 1988.35 63.2184 L1988.35 70.267 Q1984.34 71.9684 1980.13 72.8596 Q1975.91 73.7508 1971.58 73.7508 Q1960.72 73.7508 1954.36 67.4314 Q1948.04 61.1119 1948.04 50.3365 Q1948.04 39.1965 1954.04 32.6746 Q1960.08 26.1121 1970.28 26.1121 Q1979.44 26.1121 1984.75 32.0264 Q1990.09 37.9003 1990.09 48.0275 M1982.64 45.84 Q1982.56 39.7232 1979.2 36.0774 Q1975.87 32.4315 1970.36 32.4315 Q1964.13 32.4315 1960.36 35.9558 Q1956.63 39.4801 1956.07 45.8805 L1982.64 45.84 Z" fill="#000000" fill-rule="evenodd" fill-opacity="1" /><path clip-path="url(#clip260)" d="M 0 0 M2020.88 9.54393 L2020.88 15.7418 L2013.75 15.7418 Q2009.74 15.7418 2008.16 17.3622 Q2006.62 18.9825 2006.62 23.1955 L2006.62 27.2059 L2018.89 27.2059 L2018.89 32.9987 L2006.62 32.9987 L2006.62 72.576 L1999.13 72.576 L1999.13 32.9987 L1992 32.9987 L1992 27.2059 L1999.13 27.2059 L1999.13 24.0462 Q1999.13 16.471 2002.65 13.0277 Q2006.17 9.54393 2013.83 9.54393 L2020.88 9.54393 Z" fill="#000000" fill-rule="evenodd" fill-opacity="1" /><path clip-path="url(#clip260)" d="M 0 0 M2067.51 48.0275 L2067.51 51.6733 L2033.23 51.6733 Q2033.72 59.3701 2037.85 63.421 Q2042.03 67.4314 2049.44 67.4314 Q2053.73 67.4314 2057.74 66.3781 Q2061.79 65.3249 2065.76 63.2184 L2065.76 70.267 Q2061.75 71.9684 2057.54 72.8596 Q2053.33 73.7508 2048.99 73.7508 Q2038.14 73.7508 2031.78 67.4314 Q2025.46 61.1119 2025.46 50.3365 Q2025.46 39.1965 2031.45 32.6746 Q2037.49 26.1121 2047.7 26.1121 Q2056.85 26.1121 2062.16 32.0264 Q2067.51 37.9003 2067.51 48.0275 M2060.05 45.84 Q2059.97 39.7232 2056.61 36.0774 Q2053.29 32.4315 2047.78 32.4315 Q2041.54 32.4315 2037.77 35.9558 Q2034.05 39.4801 2033.48 45.8805 L2060.05 45.84 Z" fill="#000000" fill-rule="evenodd" fill-opacity="1" /><path clip-path="url(#clip260)" d="M 0 0 M2101.61 34.1734 Q2100.36 33.4443 2098.86 33.1202 Q2097.4 32.7556 2095.62 32.7556 Q2089.3 32.7556 2085.9 36.8875 Q2082.53 40.9789 2082.53 48.6757 L2082.53 72.576 L2075.04 72.576 L2075.04 27.2059 L2082.53 27.2059 L2082.53 34.2544 Q2084.88 30.1225 2088.65 28.1376 Q2092.42 26.1121 2097.81 26.1121 Q2098.58 26.1121 2099.51 26.2337 Q2100.44 26.3147 2101.57 26.5172 L2101.61 34.1734 Z" fill="#000000" fill-rule="evenodd" fill-opacity="1" /><path clip-path="url(#clip260)" d="M 0 0 M2146.42 48.0275 L2146.42 51.6733 L2112.15 51.6733 Q2112.63 59.3701 2116.76 63.421 Q2120.94 67.4314 2128.35 67.4314 Q2132.64 67.4314 2136.65 66.3781 Q2140.71 65.3249 2144.68 63.2184 L2144.68 70.267 Q2140.66 71.9684 2136.45 72.8596 Q2132.24 73.7508 2127.9 73.7508 Q2117.05 73.7508 2110.69 67.4314 Q2104.37 61.1119 2104.37 50.3365 Q2104.37 39.1965 2110.36 32.6746 Q2116.4 26.1121 2126.61 26.1121 Q2135.76 26.1121 2141.07 32.0264 Q2146.42 37.9003 2146.42 48.0275 M2138.96 45.84 Q2138.88 39.7232 2135.52 36.0774 Q2132.2 32.4315 2126.69 32.4315 Q2120.45 32.4315 2116.68 35.9558 Q2112.96 39.4801 2112.39 45.8805 L2138.96 45.84 Z" fill="#000000" fill-rule="evenodd" fill-opacity="1" /><path clip-path="url(#clip260)" d="M 0 0 M2191.95 45.1919 L2191.95 72.576 L2184.5 72.576 L2184.5 45.4349 Q2184.5 38.994 2181.98 35.7938 Q2179.47 32.5936 2174.45 32.5936 Q2168.41 32.5936 2164.93 36.4419 Q2161.45 40.2903 2161.45 46.9338 L2161.45 72.576 L2153.95 72.576 L2153.95 27.2059 L2161.45 27.2059 L2161.45 34.2544 Q2164.12 30.163 2167.72 28.1376 Q2171.37 26.1121 2176.11 26.1121 Q2183.93 26.1121 2187.94 30.9732 Q2191.95 35.7938 2191.95 45.1919 Z" fill="#000000" fill-rule="evenodd" fill-opacity="1" /><path clip-path="url(#clip260)" d="M 0 0 M2232.42 28.9478 L2232.42 35.9153 Q2229.26 34.1734 2226.06 33.3227 Q2222.9 32.4315 2219.66 32.4315 Q2212.41 32.4315 2208.4 37.0496 Q2204.39 41.6271 2204.39 49.9314 Q2204.39 58.2358 2208.4 62.8538 Q2212.41 67.4314 2219.66 67.4314 Q2222.9 67.4314 2226.06 66.5807 Q2229.26 65.6895 2232.42 63.9476 L2232.42 70.8341 Q2229.3 72.2924 2225.94 73.0216 Q2222.61 73.7508 2218.85 73.7508 Q2208.6 73.7508 2202.56 67.3098 Q2196.53 60.8689 2196.53 49.9314 Q2196.53 38.832 2202.6 32.472 Q2208.72 26.1121 2219.33 26.1121 Q2222.78 26.1121 2226.06 26.8413 Q2229.34 27.5299 2232.42 28.9478 Z" fill="#000000" fill-rule="evenodd" fill-opacity="1" /><path clip-path="url(#clip260)" d="M 0 0 M2279.04 48.0275 L2279.04 51.6733 L2244.77 51.6733 Q2245.26 59.3701 2249.39 63.421 Q2253.56 67.4314 2260.98 67.4314 Q2265.27 67.4314 2269.28 66.3781 Q2273.33 65.3249 2277.3 63.2184 L2277.3 70.267 Q2273.29 71.9684 2269.08 72.8596 Q2264.87 73.7508 2260.53 73.7508 Q2249.67 73.7508 2243.31 67.4314 Q2237 61.1119 2237 50.3365 Q2237 39.1965 2242.99 32.6746 Q2249.03 26.1121 2259.23 26.1121 Q2268.39 26.1121 2273.7 32.0264 Q2279.04 37.9003 2279.04 48.0275 M2271.59 45.84 Q2271.51 39.7232 2268.15 36.0774 Q2264.83 32.4315 2259.32 32.4315 Q2253.08 32.4315 2249.31 35.9558 Q2245.58 39.4801 2245.02 45.8805 L2271.59 45.84 Z" fill="#000000" fill-rule="evenodd" fill-opacity="1" /><path clip-path="url(#clip260)" d="M 0 0 M1061.74 1513.81 L1061.74 1550.76 L1069.51 1550.76 Q1079.34 1550.76 1083.89 1546.3 Q1088.48 1541.85 1088.48 1532.24 Q1088.48 1522.69 1083.89 1518.26 Q1079.34 1513.81 1069.51 1513.81 L1061.74 1513.81 M1055.31 1508.52 L1068.52 1508.52 Q1082.33 1508.52 1088.8 1514.28 Q1095.26 1520.01 1095.26 1532.24 Q1095.26 1544.52 1088.76 1550.28 Q1082.27 1556.04 1068.52 1556.04 L1055.31 1556.04 L1055.31 1508.52 Z" fill="#000000" fill-rule="evenodd" fill-opacity="1" /><path clip-path="url(#clip260)" d="M 0 0 M1101.4 1520.4 L1107.26 1520.4 L1107.26 1556.04 L1101.4 1556.04 L1101.4 1520.4 M1101.4 1506.52 L1107.26 1506.52 L1107.26 1513.93 L1101.4 1513.93 L1101.4 1506.52 Z" fill="#000000" fill-rule="evenodd" fill-opacity="1" /><path clip-path="url(#clip260)" d="M 0 0 M1109.2 1520.4 L1115.4 1520.4 L1126.54 1550.31 L1137.68 1520.4 L1143.89 1520.4 L1130.52 1556.04 L1122.57 1556.04 L1109.2 1520.4 Z" fill="#000000" fill-rule="evenodd" fill-opacity="1" /><path clip-path="url(#clip260)" d="M 0 0 M1180.53 1536.76 L1180.53 1539.62 L1153.6 1539.62 Q1153.98 1545.67 1157.23 1548.85 Q1160.51 1552 1166.33 1552 Q1169.7 1552 1172.85 1551.17 Q1176.04 1550.35 1179.16 1548.69 L1179.16 1554.23 Q1176.01 1555.57 1172.7 1556.27 Q1169.39 1556.97 1165.98 1556.97 Q1157.45 1556.97 1152.45 1552 Q1147.49 1547.04 1147.49 1538.57 Q1147.49 1529.82 1152.2 1524.69 Q1156.94 1519.54 1164.96 1519.54 Q1172.15 1519.54 1176.32 1524.18 Q1180.53 1528.8 1180.53 1536.76 M1174.67 1535.04 Q1174.61 1530.23 1171.96 1527.37 Q1169.35 1524.5 1165.02 1524.5 Q1160.12 1524.5 1157.16 1527.27 Q1154.23 1530.04 1153.79 1535.07 L1174.67 1535.04 Z" fill="#000000" fill-rule="evenodd" fill-opacity="1" /><path clip-path="url(#clip260)" d="M 0 0 M1207.32 1525.87 Q1206.34 1525.3 1205.16 1525.04 Q1204.01 1524.76 1202.61 1524.76 Q1197.65 1524.76 1194.98 1528 Q1192.33 1531.22 1192.33 1537.27 L1192.33 1556.04 L1186.45 1556.04 L1186.45 1520.4 L1192.33 1520.4 L1192.33 1525.93 Q1194.18 1522.69 1197.14 1521.13 Q1200.1 1519.54 1204.33 1519.54 Q1204.94 1519.54 1205.67 1519.63 Q1206.4 1519.7 1207.29 1519.85 L1207.32 1525.87 Z" fill="#000000" fill-rule="evenodd" fill-opacity="1" /><path clip-path="url(#clip260)" d="M 0 0 M1236.19 1521.45 L1236.19 1526.98 Q1233.71 1525.71 1231.04 1525.07 Q1228.36 1524.44 1225.5 1524.44 Q1221.14 1524.44 1218.94 1525.77 Q1216.78 1527.11 1216.78 1529.79 Q1216.78 1531.82 1218.34 1533 Q1219.9 1534.15 1224.61 1535.2 L1226.61 1535.64 Q1232.85 1536.98 1235.46 1539.43 Q1238.1 1541.85 1238.1 1546.21 Q1238.1 1551.17 1234.16 1554.07 Q1230.24 1556.97 1223.37 1556.97 Q1220.5 1556.97 1217.38 1556.39 Q1214.3 1555.85 1210.86 1554.74 L1210.86 1548.69 Q1214.1 1550.38 1217.26 1551.24 Q1220.41 1552.07 1223.49 1552.07 Q1227.63 1552.07 1229.86 1550.66 Q1232.09 1549.23 1232.09 1546.65 Q1232.09 1544.27 1230.46 1542.99 Q1228.87 1541.72 1223.43 1540.54 L1221.39 1540.07 Q1215.95 1538.92 1213.53 1536.56 Q1211.11 1534.18 1211.11 1530.04 Q1211.11 1525.01 1214.68 1522.27 Q1218.24 1519.54 1224.8 1519.54 Q1228.05 1519.54 1230.91 1520.01 Q1233.77 1520.49 1236.19 1521.45 Z" fill="#000000" fill-rule="evenodd" fill-opacity="1" /><path clip-path="url(#clip260)" d="M 0 0 M1244.25 1520.4 L1250.1 1520.4 L1250.1 1556.04 L1244.25 1556.04 L1244.25 1520.4 M1244.25 1506.52 L1250.1 1506.52 L1250.1 1513.93 L1244.25 1513.93 L1244.25 1506.52 Z" fill="#000000" fill-rule="evenodd" fill-opacity="1" /><path clip-path="url(#clip260)" d="M 0 0 M1262.04 1510.27 L1262.04 1520.4 L1274.1 1520.4 L1274.1 1524.95 L1262.04 1524.95 L1262.04 1544.3 Q1262.04 1548.66 1263.22 1549.9 Q1264.43 1551.14 1268.09 1551.14 L1274.1 1551.14 L1274.1 1556.04 L1268.09 1556.04 Q1261.31 1556.04 1258.73 1553.53 Q1256.15 1550.98 1256.15 1544.3 L1256.15 1524.95 L1251.85 1524.95 L1251.85 1520.4 L1256.15 1520.4 L1256.15 1510.27 L1262.04 1510.27 Z" fill="#000000" fill-rule="evenodd" fill-opacity="1" /><path clip-path="url(#clip260)" d="M 0 0 M1295.08 1559.35 Q1292.59 1565.72 1290.24 1567.66 Q1287.88 1569.6 1283.94 1569.6 L1279.26 1569.6 L1279.26 1564.7 L1282.69 1564.7 Q1285.11 1564.7 1286.45 1563.56 Q1287.79 1562.41 1289.41 1558.14 L1290.46 1555.47 L1276.04 1520.4 L1282.25 1520.4 L1293.39 1548.28 L1304.53 1520.4 L1310.74 1520.4 L1295.08 1559.35 Z" fill="#000000" fill-rule="evenodd" fill-opacity="1" /><path clip-path="url(#clip260)" d="M 0 0 M1366.34 1510.08 L1366.34 1516.35 Q1362.68 1514.6 1359.43 1513.74 Q1356.19 1512.88 1353.16 1512.88 Q1347.91 1512.88 1345.05 1514.92 Q1342.21 1516.96 1342.21 1520.71 Q1342.21 1523.87 1344.09 1525.49 Q1346 1527.08 1351.29 1528.07 L1355.17 1528.86 Q1362.36 1530.23 1365.77 1533.7 Q1369.2 1537.14 1369.2 1542.93 Q1369.2 1549.84 1364.56 1553.4 Q1359.94 1556.97 1351 1556.97 Q1347.63 1556.97 1343.81 1556.2 Q1340.02 1555.44 1335.94 1553.94 L1335.94 1547.32 Q1339.86 1549.52 1343.61 1550.63 Q1347.37 1551.75 1351 1551.75 Q1356.51 1551.75 1359.5 1549.58 Q1362.49 1547.42 1362.49 1543.41 Q1362.49 1539.91 1360.32 1537.93 Q1358.19 1535.96 1353.29 1534.97 L1349.38 1534.21 Q1342.18 1532.78 1338.97 1529.72 Q1335.75 1526.67 1335.75 1521.22 Q1335.75 1514.92 1340.18 1511.29 Q1344.63 1507.66 1352.43 1507.66 Q1355.77 1507.66 1359.24 1508.27 Q1362.71 1508.87 1366.34 1510.08 Z" fill="#000000" fill-rule="evenodd" fill-opacity="1" /><path clip-path="url(#clip260)" d="M 0 0 M1401 1521.76 L1401 1527.24 Q1398.52 1525.87 1396 1525.2 Q1393.52 1524.5 1390.98 1524.5 Q1385.28 1524.5 1382.13 1528.13 Q1378.98 1531.73 1378.98 1538.25 Q1378.98 1544.78 1382.13 1548.4 Q1385.28 1552 1390.98 1552 Q1393.52 1552 1396 1551.33 Q1398.52 1550.63 1401 1549.26 L1401 1554.68 Q1398.55 1555.82 1395.91 1556.39 Q1393.3 1556.97 1390.34 1556.97 Q1382.29 1556.97 1377.54 1551.91 Q1372.8 1546.85 1372.8 1538.25 Q1372.8 1529.53 1377.58 1524.53 Q1382.38 1519.54 1390.72 1519.54 Q1393.43 1519.54 1396 1520.11 Q1398.58 1520.65 1401 1521.76 Z" fill="#000000" fill-rule="evenodd" fill-opacity="1" /><path clip-path="url(#clip260)" d="M 0 0 M1420.96 1524.5 Q1416.25 1524.5 1413.51 1528.19 Q1410.77 1531.85 1410.77 1538.25 Q1410.77 1544.65 1413.48 1548.34 Q1416.22 1552 1420.96 1552 Q1425.64 1552 1428.37 1548.31 Q1431.11 1544.62 1431.11 1538.25 Q1431.11 1531.92 1428.37 1528.23 Q1425.64 1524.5 1420.96 1524.5 M1420.96 1519.54 Q1428.6 1519.54 1432.96 1524.5 Q1437.32 1529.47 1437.32 1538.25 Q1437.32 1547 1432.96 1552 Q1428.6 1556.97 1420.96 1556.97 Q1413.29 1556.97 1408.93 1552 Q1404.6 1547 1404.6 1538.25 Q1404.6 1529.47 1408.93 1524.5 Q1413.29 1519.54 1420.96 1519.54 Z" fill="#000000" fill-rule="evenodd" fill-opacity="1" /><path clip-path="url(#clip260)" d="M 0 0 M1464.12 1525.87 Q1463.13 1525.3 1461.95 1525.04 Q1460.81 1524.76 1459.41 1524.76 Q1454.44 1524.76 1451.77 1528 Q1449.13 1531.22 1449.13 1537.27 L1449.13 1556.04 L1443.24 1556.04 L1443.24 1520.4 L1449.13 1520.4 L1449.13 1525.93 Q1450.97 1522.69 1453.93 1521.13 Q1456.89 1519.54 1461.13 1519.54 Q1461.73 1519.54 1462.46 1519.63 Q1463.19 1519.7 1464.09 1519.85 L1464.12 1525.87 Z" fill="#000000" fill-rule="evenodd" fill-opacity="1" /><path clip-path="url(#clip260)" d="M 0 0 M1499.32 1536.76 L1499.32 1539.62 L1472.39 1539.62 Q1472.77 1545.67 1476.02 1548.85 Q1479.3 1552 1485.12 1552 Q1488.5 1552 1491.65 1551.17 Q1494.83 1550.35 1497.95 1548.69 L1497.95 1554.23 Q1494.8 1555.57 1491.49 1556.27 Q1488.18 1556.97 1484.77 1556.97 Q1476.24 1556.97 1471.25 1552 Q1466.28 1547.04 1466.28 1538.57 Q1466.28 1529.82 1470.99 1524.69 Q1475.73 1519.54 1483.76 1519.54 Q1490.95 1519.54 1495.12 1524.18 Q1499.32 1528.8 1499.32 1536.76 M1493.46 1535.04 Q1493.4 1530.23 1490.76 1527.37 Q1488.15 1524.5 1483.82 1524.5 Q1478.92 1524.5 1475.96 1527.27 Q1473.03 1530.04 1472.58 1535.07 L1493.46 1535.04 Z" fill="#000000" fill-rule="evenodd" fill-opacity="1" /><polyline clip-path="url(#clip262)" style="stroke:#009af9; stroke-width:4; stroke-opacity:1; fill:none" points="
  299.009,1386.4 307.649,1386.4 316.289,1386.39 324.929,1386.39 333.569,1386.39 342.21,1386.38 350.85,1386.36 359.49,1386.34 368.13,1386.31 376.77,1386.27 
  385.41,1386.21 394.05,1386.12 402.69,1386 411.33,1385.86 419.97,1385.67 428.61,1385.44 437.25,1385.18 445.89,1384.88 454.53,1384.55 463.17,1384.2 
  471.81,1383.84 480.45,1383.49 489.09,1383.14 497.73,1382.81 506.37,1382.49 515.01,1382.17 523.65,1381.81 532.29,1381.38 540.93,1380.84 549.57,1380.13 
  558.21,1379.22 566.851,1378.05 575.491,1376.62 584.131,1374.93 592.771,1373.01 601.411,1370.94 610.051,1368.79 618.691,1366.68 627.331,1364.71 635.971,1362.96 
  644.611,1361.51 653.251,1360.37 661.891,1359.48 670.531,1358.77 679.171,1358.05 687.811,1357.16 696.451,1355.87 705.091,1353.98 713.731,1351.36 722.371,1347.91 
  731.011,1343.64 739.651,1338.67 748.291,1333.19 756.931,1327.46 765.571,1321.78 774.211,1316.4 782.851,1311.5 791.491,1307.12 800.132,1303.13 808.772,1299.16 
  817.412,1294.7 826.052,1289.04 834.692,1281.44 843.332,1271.13 851.972,1257.52 860.612,1240.25 869.252,1219.32 877.892,1195.17 886.532,1168.65 895.172,1141.03 
  903.812,1113.89 912.452,1088.89 921.092,1067.68 929.732,1051.59 938.372,1041.48 947.012,1037.59 955.652,1039.49 964.292,1046.05 972.932,1055.62 981.572,1066.16 
  990.212,1075.54 998.852,1081.78 1007.49,1083.33 1016.13,1079.28 1024.77,1069.47 1033.41,1054.54 1042.05,1035.84 1050.69,1015.25 1059.33,994.957 1067.97,977.117 
  1076.61,963.579 1085.25,955.613 1093.89,953.726 1102.53,957.579 1111.17,966.029 1119.81,977.281 1128.45,989.141 1137.09,999.328 1145.73,1005.8 1154.37,1007.08 
  1163.01,1002.41 1171.65,991.983 1180.29,976.829 1188.93,958.757 1197.57,940.095 1206.21,923.381 1214.85,911.025 1223.49,904.992 1232.13,906.538 1240.77,916.06 
  1249.41,933.062 1258.05,956.235 1266.69,983.66 1275.33,1013.07 1283.97,1042.16 1292.61,1068.85 1301.25,1091.57 1309.89,1109.37 1318.53,1122.03 1327.17,1129.97 
  1335.81,1134.18 1344.45,1136.01 1353.09,1136.96 1361.73,1138.44 1370.37,1141.62 1379.01,1147.26 1387.65,1155.65 1396.29,1166.61 1404.93,1179.55 1413.57,1193.59 
  1422.21,1207.72 1430.85,1220.94 1439.49,1232.4 1448.13,1241.54 1456.77,1248.09 1465.41,1252.16 1474.05,1254.15 1482.69,1254.71 1491.33,1254.6 1499.97,1254.61 
  1508.61,1255.48 1517.25,1257.73 1525.89,1261.69 1534.53,1267.41 1543.17,1274.74 1551.81,1283.29 1560.45,1292.6 1569.09,1302.1 1577.73,1311.27 1586.37,1319.69 
  1595.02,1327.04 1603.66,1333.17 1612.3,1338.06 1620.94,1341.85 1629.58,1344.75 1638.22,1347.02 1646.86,1348.94 1655.5,1350.75 1664.14,1352.65 1672.78,1354.73 
  1681.42,1357.05 1690.06,1359.57 1698.7,1362.21 1707.34,1364.86 1715.98,1367.41 1724.62,1369.75 1733.26,1371.8 1741.9,1373.52 1750.54,1374.91 1759.18,1375.98 
  1767.82,1376.8 1776.46,1377.43 1785.1,1377.93 1793.74,1378.39 1802.38,1378.84 1811.02,1379.34 1819.66,1379.88 1828.3,1380.49 1836.94,1381.15 1845.58,1381.83 
  1854.22,1382.51 1862.86,1383.17 1871.5,1383.78 1880.14,1384.32 1888.78,1384.8 1897.42,1385.19 1906.06,1385.51 1914.7,1385.76 1923.34,1385.95 1931.98,1386.1 
  1940.62,1386.2 1949.26,1386.27 1957.9,1386.32 1966.54,1386.35 1975.18,1386.37 1983.82,1386.38 1992.46,1386.39 2001.1,1386.39 2009.74,1386.39 2018.38,1386.4 
  
  "/>
<polyline clip-path="url(#clip262)" style="stroke:#e26f46; stroke-width:4; stroke-opacity:1; fill:none" points="
  262.75,1386.37 267.461,1386.36 272.172,1386.32 276.884,1386.26 281.595,1386.16 286.306,1385.99 291.017,1385.71 295.729,1385.28 300.44,1384.63 305.151,1383.68 
  309.863,1382.34 314.574,1380.49 319.285,1378.05 323.996,1374.94 328.708,1371.09 333.419,1366.51 338.13,1361.28 342.842,1355.56 347.553,1349.58 352.264,1343.66 
  356.975,1338.16 361.687,1333.47 366.398,1329.93 371.109,1327.82 375.82,1327.31 380.532,1328.46 385.243,1331.15 389.954,1335.18 394.666,1340.21 399.377,1345.89 
  404.088,1351.82 408.799,1357.62 413.511,1362.97 418.222,1367.61 422.933,1371.31 427.645,1373.9 432.356,1375.19 437.067,1374.98 441.778,1373.03 446.49,1369.01 
  451.201,1362.53 455.912,1353.18 460.624,1340.55 465.335,1324.32 470.046,1304.33 474.757,1280.73 479.469,1254 484.18,1225.05 488.891,1195.17 493.603,1166.02 
  498.314,1139.42 503.025,1117.27 507.736,1101.23 512.448,1092.59 517.159,1092.05 521.87,1099.66 526.581,1114.78 531.293,1136.2 536.004,1162.25 540.715,1191.07 
  545.427,1220.72 550.138,1249.46 554.849,1275.78 559.56,1298.52 564.272,1316.79 568.983,1329.91 573.694,1337.3 578.406,1338.31 583.117,1332.12 587.828,1317.68 
  592.539,1293.71 597.251,1258.79 601.962,1211.58 606.673,1151.06 611.385,1076.91 616.096,989.832 620.807,891.851 625.518,786.455 630.23,678.562 634.941,574.246 
  639.652,480.228 644.363,403.19 649.075,349.001 653.786,321.984 658.497,324.345 663.209,355.878 667.92,413.992 672.631,494.058 677.342,590.014 682.054,695.107 
  686.765,802.65 691.476,906.671 696.188,1002.36 700.899,1086.3 705.61,1156.38 710.321,1211.65 715.033,1251.96 719.744,1277.52 724.455,1288.64 729.167,1285.38 
  733.878,1267.5 738.589,1234.4 743.3,1185.37 748.012,1119.85 752.723,1037.86 757.434,940.403 762.146,829.82 766.857,710.035 771.568,586.545 776.279,466.153 
  780.991,356.453 785.702,265.078 790.413,198.851 795.124,162.953 799.836,160.256 804.547,190.95 809.258,252.518 813.97,340.076 818.681,447.014 823.392,565.807 
  828.103,688.874 832.815,809.339 837.526,921.584 842.237,1021.56 846.949,1106.83 851.66,1176.39 856.371,1230.35 861.082,1269.58 865.794,1295.27 870.505,1308.66 
  875.216,1310.82 879.928,1302.55 884.639,1284.42 889.35,1256.88 894.061,1220.47 898.773,1175.99 903.484,1124.78 908.195,1068.77 912.907,1010.57 917.618,953.38 
  922.329,900.737 927.04,856.238 931.752,823.141 936.463,803.984 941.174,800.276 945.885,812.3 950.597,839.083 955.308,878.527 960.019,927.679 964.731,983.095 
  969.442,1041.24 974.153,1098.84 978.864,1153.17 983.576,1202.24 988.287,1244.82 992.998,1280.4 997.71,1309.07 1002.42,1331.39 1007.13,1348.15 1011.84,1360.28 
  1016.55,1368.7 1021.27,1374.23 1025.98,1377.57 1030.69,1379.3 1035.4,1379.82 1040.11,1379.47 1044.82,1378.49 1049.53,1377.06 1054.24,1375.34 1058.96,1373.48 
  1063.67,1371.63 1068.38,1369.92 1073.09,1368.5 1077.8,1367.48 1082.51,1366.94 1087.22,1366.93 1091.94,1367.44 1096.65,1368.45 1101.36,1369.86 1106.07,1371.58 
  1110.78,1373.48 1115.49,1375.45 1120.2,1377.37 1124.91,1379.15 1129.63,1380.75 1134.34,1382.11 1139.05,1383.23 1143.76,1384.13 1148.47,1384.81 1153.18,1385.32 
  1157.89,1385.69 1162.6,1385.94 1167.32,1386.11 1172.03,1386.22 1176.74,1386.29 1181.45,1386.34 1186.16,1386.36 1190.87,1386.38 1195.58,1386.38 1200.29,1386.38 
  
  "/>
<polyline clip-path="url(#clip262)" style="stroke:#3da44d; stroke-width:4; stroke-opacity:1; fill:none" points="
  1010.32,1386.39 1016.76,1386.39 1023.2,1386.39 1029.64,1386.39 1036.08,1386.38 1042.52,1386.37 1048.96,1386.34 1055.4,1386.31 1061.84,1386.26 1068.28,1386.19 
  1074.72,1386.08 1081.16,1385.93 1087.6,1385.72 1094.04,1385.45 1100.48,1385.1 1106.92,1384.66 1113.36,1384.13 1119.8,1383.5 1126.24,1382.78 1132.68,1381.98 
  1139.12,1381.11 1145.56,1380.21 1152,1379.29 1158.44,1378.4 1164.88,1377.54 1171.32,1376.76 1177.76,1376.04 1184.2,1375.4 1190.64,1374.82 1197.08,1374.26 
  1203.52,1373.68 1209.96,1373.02 1216.4,1372.21 1222.84,1371.18 1229.28,1369.86 1235.72,1368.18 1242.16,1366.11 1248.6,1363.59 1255.04,1360.65 1261.48,1357.3 
  1267.92,1353.6 1274.36,1349.67 1280.8,1345.62 1287.24,1341.6 1293.68,1337.78 1300.12,1334.3 1306.56,1331.31 1313,1328.93 1319.44,1327.22 1325.88,1326.22 
  1332.32,1325.9 1338.76,1326.19 1345.2,1326.99 1351.64,1328.14 1358.08,1329.47 1364.52,1330.82 1370.96,1332.02 1377.4,1332.9 1383.84,1333.34 1390.28,1333.25 
  1396.72,1332.58 1403.16,1331.31 1409.6,1329.47 1416.04,1327.09 1422.48,1324.26 1428.92,1321.03 1435.36,1317.47 1441.8,1313.63 1448.24,1309.54 1454.68,1305.19 
  1461.12,1300.58 1467.56,1295.65 1474,1290.36 1480.44,1284.67 1486.88,1278.53 1493.32,1271.96 1499.76,1264.97 1506.2,1257.62 1512.64,1250 1519.08,1242.2 
  1525.52,1234.33 1531.96,1226.45 1538.4,1218.62 1544.84,1210.82 1551.28,1202.98 1557.72,1194.95 1564.16,1186.57 1570.6,1177.61 1577.04,1167.86 1583.48,1157.11 
  1589.92,1145.22 1596.36,1132.11 1602.8,1117.79 1609.24,1102.34 1615.68,1085.96 1622.12,1068.89 1628.56,1051.44 1635,1033.93 1641.44,1016.69 1647.88,1000 
  1654.32,984.147 1660.76,969.325 1667.2,955.692 1673.64,943.351 1680.08,932.353 1686.52,922.706 1692.96,914.375 1699.4,907.288 1705.84,901.326 1712.28,896.327 
  1718.72,892.08 1725.16,888.329 1731.6,884.785 1738.04,881.135 1744.48,877.077 1750.92,872.34 1757.36,866.721 1763.8,860.109 1770.24,852.506 1776.68,844.034 
  1783.12,834.928 1789.56,825.52 1796,816.208 1802.44,807.422 1808.88,799.589 1815.32,793.101 1821.76,788.294 1828.2,785.427 1834.64,784.689 1841.08,786.195 
  1847.52,790.001 1853.96,796.115 1860.4,804.506 1866.84,815.108 1873.28,827.82 1879.72,842.5 1886.16,858.953 1892.6,876.922 1899.04,896.087 1905.48,916.065 
  1911.92,936.433 1918.36,956.753 1924.8,976.612 1931.24,995.661 1937.68,1013.66 1944.12,1030.48 1950.56,1046.18 1957,1060.92 1963.44,1074.98 1969.88,1088.71 
  1976.32,1102.48 1982.76,1116.62 1989.2,1131.38 1995.64,1146.89 2002.08,1163.13 2008.52,1179.97 2014.96,1197.19 2021.4,1214.45 2027.84,1231.42 2034.28,1247.75 
  2040.72,1263.14 2047.16,1277.35 2053.6,1290.23 2060.04,1301.71 2066.48,1311.79 2072.92,1320.54 2079.36,1328.09 2085.8,1334.59 2092.24,1340.2 2098.68,1345.08 
  2105.12,1349.4 2111.56,1353.28 2118,1356.83 2124.44,1360.14 2130.88,1363.24 2137.32,1366.18 2143.76,1368.95 2150.2,1371.55 2156.64,1373.95 2163.08,1376.14 
  2169.52,1378.09 2175.96,1379.8 2182.4,1381.26 2188.84,1382.48 2195.28,1383.48 2201.72,1384.26 2208.16,1384.88 2214.6,1385.34 2221.04,1385.67 2227.48,1385.92 
  2233.92,1386.08 2240.36,1386.2 2246.8,1386.27 2253.24,1386.32 2259.68,1386.35 2266.12,1386.37 2272.56,1386.38 2279,1386.39 2285.44,1386.39 2291.88,1386.39 
  
  "/>
<path clip-path="url(#clip260)" d="
M1675.02 448.912 L2280.76 448.912 L2280.76 206.992 L1675.02 206.992  Z
  " fill="#ffffff" fill-rule="evenodd" fill-opacity="1"/>
<polyline clip-path="url(#clip260)" style="stroke:#000000; stroke-width:4; stroke-opacity:1; fill:none" points="
  1675.02,448.912 2280.76,448.912 2280.76,206.992 1675.02,206.992 1675.02,448.912 
  "/>
<polyline clip-path="url(#clip260)" style="stroke:#009af9; stroke-width:4; stroke-opacity:1; fill:none" points="
  1699.02,267.472 1843.02,267.472 
  "/>
<path clip-path="url(#clip260)" d="M 0 0 M1888.73 269.104 L1888.73 284.752 L1884.47 284.752 L1884.47 269.243 Q1884.47 265.562 1883.04 263.734 Q1881.6 261.905 1878.73 261.905 Q1875.28 261.905 1873.29 264.104 Q1871.3 266.303 1871.3 270.099 L1871.3 284.752 L1867.02 284.752 L1867.02 258.826 L1871.3 258.826 L1871.3 262.854 Q1872.83 260.516 1874.89 259.359 Q1876.97 258.201 1879.68 258.201 Q1884.15 258.201 1886.44 260.979 Q1888.73 263.734 1888.73 269.104 Z" fill="#000000" fill-rule="evenodd" fill-opacity="1" /><path clip-path="url(#clip260)" d="M 0 0 M1914.75 269.104 L1914.75 284.752 L1910.49 284.752 L1910.49 269.243 Q1910.49 265.562 1909.05 263.734 Q1907.62 261.905 1904.75 261.905 Q1901.3 261.905 1899.31 264.104 Q1897.32 266.303 1897.32 270.099 L1897.32 284.752 L1893.04 284.752 L1893.04 248.734 L1897.32 248.734 L1897.32 262.854 Q1898.85 260.516 1900.91 259.359 Q1902.99 258.201 1905.7 258.201 Q1910.17 258.201 1912.46 260.979 Q1914.75 263.734 1914.75 269.104 Z" fill="#000000" fill-rule="evenodd" fill-opacity="1" /><path clip-path="url(#clip260)" d="M 0 0 M1938.91 292.622 L1938.91 295.933 L1914.29 295.933 L1914.29 292.622 L1938.91 292.622 Z" fill="#000000" fill-rule="evenodd" fill-opacity="1" /><path clip-path="url(#clip260)" d="M 0 0 M1959.91 259.59 L1959.91 263.618 Q1958.1 262.692 1956.16 262.229 Q1954.22 261.766 1952.13 261.766 Q1948.96 261.766 1947.36 262.738 Q1945.79 263.711 1945.79 265.655 Q1945.79 267.136 1946.92 267.993 Q1948.06 268.826 1951.48 269.59 L1952.94 269.914 Q1957.48 270.886 1959.38 272.669 Q1961.3 274.428 1961.3 277.599 Q1961.3 281.21 1958.43 283.317 Q1955.58 285.423 1950.58 285.423 Q1948.5 285.423 1946.23 285.007 Q1943.98 284.613 1941.48 283.803 L1941.48 279.405 Q1943.85 280.632 1946.14 281.257 Q1948.43 281.859 1950.67 281.859 Q1953.68 281.859 1955.3 280.84 Q1956.92 279.798 1956.92 277.923 Q1956.92 276.187 1955.74 275.261 Q1954.59 274.336 1950.63 273.479 L1949.15 273.132 Q1945.19 272.298 1943.43 270.586 Q1941.67 268.849 1941.67 265.84 Q1941.67 262.183 1944.26 260.192 Q1946.85 258.201 1951.62 258.201 Q1953.98 258.201 1956.07 258.549 Q1958.15 258.896 1959.91 259.59 Z" fill="#000000" fill-rule="evenodd" fill-opacity="1" /><path clip-path="url(#clip260)" d="M 0 0 M1965.77 258.826 L1970.03 258.826 L1970.03 284.752 L1965.77 284.752 L1965.77 258.826 M1965.77 248.734 L1970.03 248.734 L1970.03 254.127 L1965.77 254.127 L1965.77 248.734 Z" fill="#000000" fill-rule="evenodd" fill-opacity="1" /><path clip-path="url(#clip260)" d="M 0 0 M1972.64 258.826 L1992.87 258.826 L1992.87 262.715 L1976.85 281.349 L1992.87 281.349 L1992.87 284.752 L1972.06 284.752 L1972.06 280.863 L1988.08 262.229 L1972.64 262.229 L1972.64 258.826 Z" fill="#000000" fill-rule="evenodd" fill-opacity="1" /><path clip-path="url(#clip260)" d="M 0 0 M2019.52 270.724 L2019.52 272.808 L1999.93 272.808 Q2000.21 277.206 2002.57 279.521 Q2004.96 281.812 2009.19 281.812 Q2011.65 281.812 2013.94 281.21 Q2016.25 280.609 2018.52 279.405 L2018.52 283.433 Q2016.23 284.405 2013.82 284.914 Q2011.41 285.423 2008.94 285.423 Q2002.73 285.423 1999.1 281.812 Q1995.49 278.201 1995.49 272.044 Q1995.49 265.678 1998.91 261.951 Q2002.36 258.201 2008.2 258.201 Q2013.43 258.201 2016.46 261.581 Q2019.52 264.937 2019.52 270.724 M2015.26 269.474 Q2015.21 265.979 2013.29 263.896 Q2011.39 261.812 2008.24 261.812 Q2004.68 261.812 2002.53 263.826 Q2000.4 265.84 2000.07 269.498 L2015.26 269.474 Z" fill="#000000" fill-rule="evenodd" fill-opacity="1" /><path clip-path="url(#clip260)" d="M 0 0 M2024.54 263.224 L2054.22 263.224 L2054.22 267.113 L2024.54 267.113 L2024.54 263.224 M2024.54 272.669 L2054.22 272.669 L2054.22 276.604 L2024.54 276.604 L2024.54 272.669 Z" fill="#000000" fill-rule="evenodd" fill-opacity="1" /><path clip-path="url(#clip260)" d="M 0 0 M2072.13 254.266 L2060.33 272.715 L2072.13 272.715 L2072.13 254.266 M2070.9 250.192 L2076.78 250.192 L2076.78 272.715 L2081.72 272.715 L2081.72 276.604 L2076.78 276.604 L2076.78 284.752 L2072.13 284.752 L2072.13 276.604 L2056.53 276.604 L2056.53 272.09 L2070.9 250.192 Z" fill="#000000" fill-rule="evenodd" fill-opacity="1" /><path clip-path="url(#clip260)" d="M 0 0 M2087.27 278.873 L2092.15 278.873 L2092.15 282.854 L2088.36 290.261 L2085.37 290.261 L2087.27 282.854 L2087.27 278.873 Z" fill="#000000" fill-rule="evenodd" fill-opacity="1" /><path clip-path="url(#clip260)" d="M 0 0 M2115.81 280.863 L2115.81 294.613 L2111.53 294.613 L2111.53 258.826 L2115.81 258.826 L2115.81 262.762 Q2117.15 260.447 2119.19 259.336 Q2121.25 258.201 2124.1 258.201 Q2128.82 258.201 2131.76 261.951 Q2134.72 265.701 2134.72 271.812 Q2134.72 277.923 2131.76 281.673 Q2128.82 285.423 2124.1 285.423 Q2121.25 285.423 2119.19 284.312 Q2117.15 283.178 2115.81 280.863 M2130.3 271.812 Q2130.3 267.113 2128.36 264.451 Q2126.44 261.766 2123.06 261.766 Q2119.68 261.766 2117.73 264.451 Q2115.81 267.113 2115.81 271.812 Q2115.81 276.511 2117.73 279.197 Q2119.68 281.859 2123.06 281.859 Q2126.44 281.859 2128.36 279.197 Q2130.3 276.511 2130.3 271.812 Z" fill="#000000" fill-rule="evenodd" fill-opacity="1" /><path clip-path="url(#clip260)" d="M 0 0 M2139.75 263.224 L2169.42 263.224 L2169.42 267.113 L2139.75 267.113 L2139.75 263.224 M2139.75 272.669 L2169.42 272.669 L2169.42 276.604 L2139.75 276.604 L2139.75 272.669 Z" fill="#000000" fill-rule="evenodd" fill-opacity="1" /><path clip-path="url(#clip260)" d="M 0 0 M2184.49 253.271 Q2180.88 253.271 2179.05 256.836 Q2177.25 260.377 2177.25 267.507 Q2177.25 274.613 2179.05 278.178 Q2180.88 281.72 2184.49 281.72 Q2188.13 281.72 2189.93 278.178 Q2191.76 274.613 2191.76 267.507 Q2191.76 260.377 2189.93 256.836 Q2188.13 253.271 2184.49 253.271 M2184.49 249.567 Q2190.3 249.567 2193.36 254.174 Q2196.44 258.757 2196.44 267.507 Q2196.44 276.234 2193.36 280.84 Q2190.3 285.423 2184.49 285.423 Q2178.68 285.423 2175.6 280.84 Q2172.55 276.234 2172.55 267.507 Q2172.55 258.757 2175.6 254.174 Q2178.68 249.567 2184.49 249.567 Z" fill="#000000" fill-rule="evenodd" fill-opacity="1" /><path clip-path="url(#clip260)" d="M 0 0 M2201.51 278.873 L2206.39 278.873 L2206.39 284.752 L2201.51 284.752 L2201.51 278.873 Z" fill="#000000" fill-rule="evenodd" fill-opacity="1" /><path clip-path="url(#clip260)" d="M 0 0 M2211.51 250.192 L2229.86 250.192 L2229.86 254.127 L2215.79 254.127 L2215.79 262.599 Q2216.81 262.252 2217.83 262.09 Q2218.84 261.905 2219.86 261.905 Q2225.65 261.905 2229.03 265.076 Q2232.41 268.248 2232.41 273.664 Q2232.41 279.243 2228.94 282.345 Q2225.46 285.423 2219.14 285.423 Q2216.97 285.423 2214.7 285.053 Q2212.46 284.683 2210.05 283.942 L2210.05 279.243 Q2212.13 280.377 2214.35 280.933 Q2216.58 281.488 2219.05 281.488 Q2223.06 281.488 2225.39 279.382 Q2227.73 277.275 2227.73 273.664 Q2227.73 270.053 2225.39 267.947 Q2223.06 265.84 2219.05 265.84 Q2217.18 265.84 2215.3 266.257 Q2213.45 266.674 2211.51 267.553 L2211.51 250.192 Z" fill="#000000" fill-rule="evenodd" fill-opacity="1" /><polyline clip-path="url(#clip260)" style="stroke:#e26f46; stroke-width:4; stroke-opacity:1; fill:none" points="
  1699.02,327.952 1843.02,327.952 
  "/>
<path clip-path="url(#clip260)" d="M 0 0 M1888.73 329.584 L1888.73 345.232 L1884.47 345.232 L1884.47 329.723 Q1884.47 326.042 1883.04 324.214 Q1881.6 322.385 1878.73 322.385 Q1875.28 322.385 1873.29 324.584 Q1871.3 326.783 1871.3 330.579 L1871.3 345.232 L1867.02 345.232 L1867.02 319.306 L1871.3 319.306 L1871.3 323.334 Q1872.83 320.996 1874.89 319.839 Q1876.97 318.681 1879.68 318.681 Q1884.15 318.681 1886.44 321.459 Q1888.73 324.214 1888.73 329.584 Z" fill="#000000" fill-rule="evenodd" fill-opacity="1" /><path clip-path="url(#clip260)" d="M 0 0 M1914.75 329.584 L1914.75 345.232 L1910.49 345.232 L1910.49 329.723 Q1910.49 326.042 1909.05 324.214 Q1907.62 322.385 1904.75 322.385 Q1901.3 322.385 1899.31 324.584 Q1897.32 326.783 1897.32 330.579 L1897.32 345.232 L1893.04 345.232 L1893.04 309.214 L1897.32 309.214 L1897.32 323.334 Q1898.85 320.996 1900.91 319.839 Q1902.99 318.681 1905.7 318.681 Q1910.17 318.681 1912.46 321.459 Q1914.75 324.214 1914.75 329.584 Z" fill="#000000" fill-rule="evenodd" fill-opacity="1" /><path clip-path="url(#clip260)" d="M 0 0 M1938.91 353.102 L1938.91 356.413 L1914.29 356.413 L1914.29 353.102 L1938.91 353.102 Z" fill="#000000" fill-rule="evenodd" fill-opacity="1" /><path clip-path="url(#clip260)" d="M 0 0 M1959.91 320.07 L1959.91 324.098 Q1958.1 323.172 1956.16 322.709 Q1954.22 322.246 1952.13 322.246 Q1948.96 322.246 1947.36 323.218 Q1945.79 324.191 1945.79 326.135 Q1945.79 327.616 1946.92 328.473 Q1948.06 329.306 1951.48 330.07 L1952.94 330.394 Q1957.48 331.366 1959.38 333.149 Q1961.3 334.908 1961.3 338.079 Q1961.3 341.69 1958.43 343.797 Q1955.58 345.903 1950.58 345.903 Q1948.5 345.903 1946.23 345.487 Q1943.98 345.093 1941.48 344.283 L1941.48 339.885 Q1943.85 341.112 1946.14 341.737 Q1948.43 342.339 1950.67 342.339 Q1953.68 342.339 1955.3 341.32 Q1956.92 340.278 1956.92 338.403 Q1956.92 336.667 1955.74 335.741 Q1954.59 334.816 1950.63 333.959 L1949.15 333.612 Q1945.19 332.778 1943.43 331.066 Q1941.67 329.329 1941.67 326.32 Q1941.67 322.663 1944.26 320.672 Q1946.85 318.681 1951.62 318.681 Q1953.98 318.681 1956.07 319.029 Q1958.15 319.376 1959.91 320.07 Z" fill="#000000" fill-rule="evenodd" fill-opacity="1" /><path clip-path="url(#clip260)" d="M 0 0 M1965.77 319.306 L1970.03 319.306 L1970.03 345.232 L1965.77 345.232 L1965.77 319.306 M1965.77 309.214 L1970.03 309.214 L1970.03 314.607 L1965.77 314.607 L1965.77 309.214 Z" fill="#000000" fill-rule="evenodd" fill-opacity="1" /><path clip-path="url(#clip260)" d="M 0 0 M1972.64 319.306 L1992.87 319.306 L1992.87 323.195 L1976.85 341.829 L1992.87 341.829 L1992.87 345.232 L1972.06 345.232 L1972.06 341.343 L1988.08 322.709 L1972.64 322.709 L1972.64 319.306 Z" fill="#000000" fill-rule="evenodd" fill-opacity="1" /><path clip-path="url(#clip260)" d="M 0 0 M2019.52 331.204 L2019.52 333.288 L1999.93 333.288 Q2000.21 337.686 2002.57 340.001 Q2004.96 342.292 2009.19 342.292 Q2011.65 342.292 2013.94 341.69 Q2016.25 341.089 2018.52 339.885 L2018.52 343.913 Q2016.23 344.885 2013.82 345.394 Q2011.41 345.903 2008.94 345.903 Q2002.73 345.903 1999.1 342.292 Q1995.49 338.681 1995.49 332.524 Q1995.49 326.158 1998.91 322.431 Q2002.36 318.681 2008.2 318.681 Q2013.43 318.681 2016.46 322.061 Q2019.52 325.417 2019.52 331.204 M2015.26 329.954 Q2015.21 326.459 2013.29 324.376 Q2011.39 322.292 2008.24 322.292 Q2004.68 322.292 2002.53 324.306 Q2000.4 326.32 2000.07 329.978 L2015.26 329.954 Z" fill="#000000" fill-rule="evenodd" fill-opacity="1" /><path clip-path="url(#clip260)" d="M 0 0 M2024.54 323.704 L2054.22 323.704 L2054.22 327.593 L2024.54 327.593 L2024.54 323.704 M2024.54 333.149 L2054.22 333.149 L2054.22 337.084 L2024.54 337.084 L2024.54 333.149 Z" fill="#000000" fill-rule="evenodd" fill-opacity="1" /><path clip-path="url(#clip260)" d="M 0 0 M2069.28 328.82 Q2065.95 328.82 2064.03 330.603 Q2062.13 332.385 2062.13 335.51 Q2062.13 338.635 2064.03 340.417 Q2065.95 342.2 2069.28 342.2 Q2072.62 342.2 2074.54 340.417 Q2076.46 338.612 2076.46 335.51 Q2076.46 332.385 2074.54 330.603 Q2072.64 328.82 2069.28 328.82 M2064.61 326.829 Q2061.6 326.089 2059.91 324.029 Q2058.24 321.968 2058.24 319.005 Q2058.24 314.862 2061.18 312.455 Q2064.15 310.047 2069.28 310.047 Q2074.45 310.047 2077.39 312.455 Q2080.33 314.862 2080.33 319.005 Q2080.33 321.968 2078.64 324.029 Q2076.97 326.089 2073.98 326.829 Q2077.36 327.616 2079.24 329.908 Q2081.14 332.2 2081.14 335.51 Q2081.14 340.533 2078.06 343.218 Q2075 345.903 2069.28 345.903 Q2063.57 345.903 2060.49 343.218 Q2057.43 340.533 2057.43 335.51 Q2057.43 332.2 2059.33 329.908 Q2061.23 327.616 2064.61 326.829 M2062.9 319.445 Q2062.9 322.13 2064.56 323.635 Q2066.25 325.14 2069.28 325.14 Q2072.29 325.14 2073.98 323.635 Q2075.7 322.13 2075.7 319.445 Q2075.7 316.76 2073.98 315.255 Q2072.29 313.751 2069.28 313.751 Q2066.25 313.751 2064.56 315.255 Q2062.9 316.76 2062.9 319.445 Z" fill="#000000" fill-rule="evenodd" fill-opacity="1" /><path clip-path="url(#clip260)" d="M 0 0 M2086.69 339.353 L2091.58 339.353 L2091.58 343.334 L2087.78 350.741 L2084.79 350.741 L2086.69 343.334 L2086.69 339.353 Z" fill="#000000" fill-rule="evenodd" fill-opacity="1" /><path clip-path="url(#clip260)" d="M 0 0 M2115.23 341.343 L2115.23 355.093 L2110.95 355.093 L2110.95 319.306 L2115.23 319.306 L2115.23 323.242 Q2116.58 320.927 2118.61 319.816 Q2120.67 318.681 2123.52 318.681 Q2128.24 318.681 2131.18 322.431 Q2134.15 326.181 2134.15 332.292 Q2134.15 338.403 2131.18 342.153 Q2128.24 345.903 2123.52 345.903 Q2120.67 345.903 2118.61 344.792 Q2116.58 343.658 2115.23 341.343 M2129.72 332.292 Q2129.72 327.593 2127.78 324.931 Q2125.86 322.246 2122.48 322.246 Q2119.1 322.246 2117.15 324.931 Q2115.23 327.593 2115.23 332.292 Q2115.23 336.991 2117.15 339.677 Q2119.1 342.339 2122.48 342.339 Q2125.86 342.339 2127.78 339.677 Q2129.72 336.991 2129.72 332.292 Z" fill="#000000" fill-rule="evenodd" fill-opacity="1" /><path clip-path="url(#clip260)" d="M 0 0 M2139.17 323.704 L2168.84 323.704 L2168.84 327.593 L2139.17 327.593 L2139.17 323.704 M2139.17 333.149 L2168.84 333.149 L2168.84 337.084 L2139.17 337.084 L2139.17 333.149 Z" fill="#000000" fill-rule="evenodd" fill-opacity="1" /><path clip-path="url(#clip260)" d="M 0 0 M2183.91 313.751 Q2180.3 313.751 2178.47 317.316 Q2176.67 320.857 2176.67 327.987 Q2176.67 335.093 2178.47 338.658 Q2180.3 342.2 2183.91 342.2 Q2187.55 342.2 2189.35 338.658 Q2191.18 335.093 2191.18 327.987 Q2191.18 320.857 2189.35 317.316 Q2187.55 313.751 2183.91 313.751 M2183.91 310.047 Q2189.72 310.047 2192.78 314.654 Q2195.86 319.237 2195.86 327.987 Q2195.86 336.714 2192.78 341.32 Q2189.72 345.903 2183.91 345.903 Q2178.1 345.903 2175.02 341.32 Q2171.97 336.714 2171.97 327.987 Q2171.97 319.237 2175.02 314.654 Q2178.1 310.047 2183.91 310.047 Z" fill="#000000" fill-rule="evenodd" fill-opacity="1" /><path clip-path="url(#clip260)" d="M 0 0 M2200.93 339.353 L2205.81 339.353 L2205.81 345.232 L2200.93 345.232 L2200.93 339.353 Z" fill="#000000" fill-rule="evenodd" fill-opacity="1" /><path clip-path="url(#clip260)" d="M 0 0 M2210.93 310.672 L2229.28 310.672 L2229.28 314.607 L2215.21 314.607 L2215.21 323.079 Q2216.23 322.732 2217.25 322.57 Q2218.27 322.385 2219.28 322.385 Q2225.07 322.385 2228.45 325.556 Q2231.83 328.728 2231.83 334.144 Q2231.83 339.723 2228.36 342.825 Q2224.89 345.903 2218.57 345.903 Q2216.39 345.903 2214.12 345.533 Q2211.88 345.163 2209.47 344.422 L2209.47 339.723 Q2211.55 340.857 2213.77 341.413 Q2216 341.968 2218.47 341.968 Q2222.48 341.968 2224.82 339.862 Q2227.15 337.755 2227.15 334.144 Q2227.15 330.533 2224.82 328.427 Q2222.48 326.32 2218.47 326.32 Q2216.6 326.32 2214.72 326.737 Q2212.87 327.154 2210.93 328.033 L2210.93 310.672 Z" fill="#000000" fill-rule="evenodd" fill-opacity="1" /><polyline clip-path="url(#clip260)" style="stroke:#3da44d; stroke-width:4; stroke-opacity:1; fill:none" points="
  1699.02,388.432 1843.02,388.432 
  "/>
<path clip-path="url(#clip260)" d="M 0 0 M1888.73 390.064 L1888.73 405.712 L1884.47 405.712 L1884.47 390.203 Q1884.47 386.522 1883.04 384.694 Q1881.6 382.865 1878.73 382.865 Q1875.28 382.865 1873.29 385.064 Q1871.3 387.263 1871.3 391.059 L1871.3 405.712 L1867.02 405.712 L1867.02 379.786 L1871.3 379.786 L1871.3 383.814 Q1872.83 381.476 1874.89 380.319 Q1876.97 379.161 1879.68 379.161 Q1884.15 379.161 1886.44 381.939 Q1888.73 384.694 1888.73 390.064 Z" fill="#000000" fill-rule="evenodd" fill-opacity="1" /><path clip-path="url(#clip260)" d="M 0 0 M1914.75 390.064 L1914.75 405.712 L1910.49 405.712 L1910.49 390.203 Q1910.49 386.522 1909.05 384.694 Q1907.62 382.865 1904.75 382.865 Q1901.3 382.865 1899.31 385.064 Q1897.32 387.263 1897.32 391.059 L1897.32 405.712 L1893.04 405.712 L1893.04 369.694 L1897.32 369.694 L1897.32 383.814 Q1898.85 381.476 1900.91 380.319 Q1902.99 379.161 1905.7 379.161 Q1910.17 379.161 1912.46 381.939 Q1914.75 384.694 1914.75 390.064 Z" fill="#000000" fill-rule="evenodd" fill-opacity="1" /><path clip-path="url(#clip260)" d="M 0 0 M1938.91 413.582 L1938.91 416.893 L1914.29 416.893 L1914.29 413.582 L1938.91 413.582 Z" fill="#000000" fill-rule="evenodd" fill-opacity="1" /><path clip-path="url(#clip260)" d="M 0 0 M1959.91 380.55 L1959.91 384.578 Q1958.1 383.652 1956.16 383.189 Q1954.22 382.726 1952.13 382.726 Q1948.96 382.726 1947.36 383.698 Q1945.79 384.671 1945.79 386.615 Q1945.79 388.096 1946.92 388.953 Q1948.06 389.786 1951.48 390.55 L1952.94 390.874 Q1957.48 391.846 1959.38 393.629 Q1961.3 395.388 1961.3 398.559 Q1961.3 402.17 1958.43 404.277 Q1955.58 406.383 1950.58 406.383 Q1948.5 406.383 1946.23 405.967 Q1943.98 405.573 1941.48 404.763 L1941.48 400.365 Q1943.85 401.592 1946.14 402.217 Q1948.43 402.819 1950.67 402.819 Q1953.68 402.819 1955.3 401.8 Q1956.92 400.758 1956.92 398.883 Q1956.92 397.147 1955.74 396.221 Q1954.59 395.296 1950.63 394.439 L1949.15 394.092 Q1945.19 393.258 1943.43 391.546 Q1941.67 389.809 1941.67 386.8 Q1941.67 383.143 1944.26 381.152 Q1946.85 379.161 1951.62 379.161 Q1953.98 379.161 1956.07 379.509 Q1958.15 379.856 1959.91 380.55 Z" fill="#000000" fill-rule="evenodd" fill-opacity="1" /><path clip-path="url(#clip260)" d="M 0 0 M1965.77 379.786 L1970.03 379.786 L1970.03 405.712 L1965.77 405.712 L1965.77 379.786 M1965.77 369.694 L1970.03 369.694 L1970.03 375.087 L1965.77 375.087 L1965.77 369.694 Z" fill="#000000" fill-rule="evenodd" fill-opacity="1" /><path clip-path="url(#clip260)" d="M 0 0 M1972.64 379.786 L1992.87 379.786 L1992.87 383.675 L1976.85 402.309 L1992.87 402.309 L1992.87 405.712 L1972.06 405.712 L1972.06 401.823 L1988.08 383.189 L1972.64 383.189 L1972.64 379.786 Z" fill="#000000" fill-rule="evenodd" fill-opacity="1" /><path clip-path="url(#clip260)" d="M 0 0 M2019.52 391.684 L2019.52 393.768 L1999.93 393.768 Q2000.21 398.166 2002.57 400.481 Q2004.96 402.772 2009.19 402.772 Q2011.65 402.772 2013.94 402.17 Q2016.25 401.569 2018.52 400.365 L2018.52 404.393 Q2016.23 405.365 2013.82 405.874 Q2011.41 406.383 2008.94 406.383 Q2002.73 406.383 1999.1 402.772 Q1995.49 399.161 1995.49 393.004 Q1995.49 386.638 1998.91 382.911 Q2002.36 379.161 2008.2 379.161 Q2013.43 379.161 2016.46 382.541 Q2019.52 385.897 2019.52 391.684 M2015.26 390.434 Q2015.21 386.939 2013.29 384.856 Q2011.39 382.772 2008.24 382.772 Q2004.68 382.772 2002.53 384.786 Q2000.4 386.8 2000.07 390.458 L2015.26 390.434 Z" fill="#000000" fill-rule="evenodd" fill-opacity="1" /><path clip-path="url(#clip260)" d="M 0 0 M2024.54 384.184 L2054.22 384.184 L2054.22 388.073 L2024.54 388.073 L2024.54 384.184 M2024.54 393.629 L2054.22 393.629 L2054.22 397.564 L2024.54 397.564 L2024.54 393.629 Z" fill="#000000" fill-rule="evenodd" fill-opacity="1" /><path clip-path="url(#clip260)" d="M 0 0 M2072.13 375.226 L2060.33 393.675 L2072.13 393.675 L2072.13 375.226 M2070.9 371.152 L2076.78 371.152 L2076.78 393.675 L2081.72 393.675 L2081.72 397.564 L2076.78 397.564 L2076.78 405.712 L2072.13 405.712 L2072.13 397.564 L2056.53 397.564 L2056.53 393.05 L2070.9 371.152 Z" fill="#000000" fill-rule="evenodd" fill-opacity="1" /><path clip-path="url(#clip260)" d="M 0 0 M2087.27 399.833 L2092.15 399.833 L2092.15 403.814 L2088.36 411.221 L2085.37 411.221 L2087.27 403.814 L2087.27 399.833 Z" fill="#000000" fill-rule="evenodd" fill-opacity="1" /><path clip-path="url(#clip260)" d="M 0 0 M2115.81 401.823 L2115.81 415.573 L2111.53 415.573 L2111.53 379.786 L2115.81 379.786 L2115.81 383.722 Q2117.15 381.407 2119.19 380.296 Q2121.25 379.161 2124.1 379.161 Q2128.82 379.161 2131.76 382.911 Q2134.72 386.661 2134.72 392.772 Q2134.72 398.883 2131.76 402.633 Q2128.82 406.383 2124.1 406.383 Q2121.25 406.383 2119.19 405.272 Q2117.15 404.138 2115.81 401.823 M2130.3 392.772 Q2130.3 388.073 2128.36 385.411 Q2126.44 382.726 2123.06 382.726 Q2119.68 382.726 2117.73 385.411 Q2115.81 388.073 2115.81 392.772 Q2115.81 397.471 2117.73 400.157 Q2119.68 402.819 2123.06 402.819 Q2126.44 402.819 2128.36 400.157 Q2130.3 397.471 2130.3 392.772 Z" fill="#000000" fill-rule="evenodd" fill-opacity="1" /><path clip-path="url(#clip260)" d="M 0 0 M2139.75 384.184 L2169.42 384.184 L2169.42 388.073 L2139.75 388.073 L2139.75 384.184 M2139.75 393.629 L2169.42 393.629 L2169.42 397.564 L2139.75 397.564 L2139.75 393.629 Z" fill="#000000" fill-rule="evenodd" fill-opacity="1" /><path clip-path="url(#clip260)" d="M 0 0 M2184.49 374.231 Q2180.88 374.231 2179.05 377.796 Q2177.25 381.337 2177.25 388.467 Q2177.25 395.573 2179.05 399.138 Q2180.88 402.68 2184.49 402.68 Q2188.13 402.68 2189.93 399.138 Q2191.76 395.573 2191.76 388.467 Q2191.76 381.337 2189.93 377.796 Q2188.13 374.231 2184.49 374.231 M2184.49 370.527 Q2190.3 370.527 2193.36 375.134 Q2196.44 379.717 2196.44 388.467 Q2196.44 397.194 2193.36 401.8 Q2190.3 406.383 2184.49 406.383 Q2178.68 406.383 2175.6 401.8 Q2172.55 397.194 2172.55 388.467 Q2172.55 379.717 2175.6 375.134 Q2178.68 370.527 2184.49 370.527 Z" fill="#000000" fill-rule="evenodd" fill-opacity="1" /><path clip-path="url(#clip260)" d="M 0 0 M2201.51 399.833 L2206.39 399.833 L2206.39 405.712 L2201.51 405.712 L2201.51 399.833 Z" fill="#000000" fill-rule="evenodd" fill-opacity="1" /><path clip-path="url(#clip260)" d="M 0 0 M2225.63 387.078 Q2228.98 387.796 2230.86 390.064 Q2232.76 392.333 2232.76 395.666 Q2232.76 400.782 2229.24 403.583 Q2225.72 406.383 2219.24 406.383 Q2217.06 406.383 2214.75 405.944 Q2212.46 405.527 2210 404.67 L2210 400.157 Q2211.95 401.291 2214.26 401.87 Q2216.58 402.448 2219.1 402.448 Q2223.5 402.448 2225.79 400.712 Q2228.1 398.976 2228.1 395.666 Q2228.1 392.61 2225.95 390.897 Q2223.82 389.161 2220 389.161 L2215.97 389.161 L2215.97 385.319 L2220.19 385.319 Q2223.64 385.319 2225.46 383.953 Q2227.29 382.564 2227.29 379.972 Q2227.29 377.31 2225.39 375.897 Q2223.52 374.462 2220 374.462 Q2218.08 374.462 2215.88 374.879 Q2213.68 375.296 2211.04 376.175 L2211.04 372.009 Q2213.71 371.268 2216.02 370.897 Q2218.36 370.527 2220.42 370.527 Q2225.74 370.527 2228.84 372.958 Q2231.95 375.365 2231.95 379.485 Q2231.95 382.356 2230.3 384.346 Q2228.66 386.314 2225.63 387.078 Z" fill="#000000" fill-rule="evenodd" fill-opacity="1" /></svg>
