<?xml version="1.0" encoding="utf-8"?>
<svg xmlns="http://www.w3.org/2000/svg" xmlns:xlink="http://www.w3.org/1999/xlink" width="1000" height="300" viewBox="0 0 4000 1200">
<defs>
  <clipPath id="clip350">
    <rect x="0" y="0" width="4000" height="1200"/>
  </clipPath>
</defs>
<path clip-path="url(#clip350)" d="
M0 1200 L4000 1200 L4000 0 L0 0  Z
  " fill="#ffffff" fill-rule="evenodd" fill-opacity="1"/>
<defs>
  <clipPath id="clip351">
    <rect x="800" y="0" width="2801" height="1200"/>
  </clipPath>
</defs>
<path clip-path="url(#clip350)" d="
M163.756 309.456 L3952.76 309.456 L3952.76 90.2081 L163.756 90.2081  Z
  " fill="#ffffff" fill-rule="evenodd" fill-opacity="1"/>
<defs>
  <clipPath id="clip352">
    <rect x="163" y="90" width="3790" height="220"/>
  </clipPath>
</defs>
<path clip-path="url(#clip350)" d="M 0 0 M1972.4 16.7545 L1972.4 25.383 Q1968.26 21.5346 1963.57 19.6307 Q1958.91 17.7268 1953.64 17.7268 Q1943.27 17.7268 1937.76 24.0867 Q1932.25 30.4061 1932.25 42.3968 Q1932.25 54.3469 1937.76 60.7069 Q1943.27 67.0263 1953.64 67.0263 Q1958.91 67.0263 1963.57 65.1223 Q1968.26 63.2184 1972.4 59.3701 L1972.4 67.9175 Q1968.1 70.8341 1963.28 72.2924 Q1958.5 73.7508 1953.16 73.7508 Q1939.42 73.7508 1931.52 65.3654 Q1923.62 56.9395 1923.62 42.3968 Q1923.62 27.8135 1931.52 19.4281 Q1939.42 11.0023 1953.16 11.0023 Q1958.58 11.0023 1963.36 12.4606 Q1968.18 13.8784 1972.4 16.7545 Z" fill="#000000" fill-rule="evenodd" fill-opacity="1" /><path clip-path="url(#clip350)" d="M 0 0 M1999.09 76.7889 Q1995.93 84.8907 1992.93 87.3618 Q1989.94 89.8329 1984.91 89.8329 L1978.96 89.8329 L1978.96 83.5945 L1983.33 83.5945 Q1986.41 83.5945 1988.11 82.1361 Q1989.82 80.6778 1991.88 75.2496 L1993.22 71.8468 L1974.87 27.2059 L1982.77 27.2059 L1996.95 62.6918 L2011.12 27.2059 L2019.02 27.2059 L1999.09 76.7889 Z" fill="#000000" fill-rule="evenodd" fill-opacity="1" /><path clip-path="url(#clip350)" d="M 0 0 M2059.49 28.9478 L2059.49 35.9153 Q2056.33 34.1734 2053.13 33.3227 Q2049.97 32.4315 2046.73 32.4315 Q2039.48 32.4315 2035.47 37.0496 Q2031.46 41.6271 2031.46 49.9314 Q2031.46 58.2358 2035.47 62.8538 Q2039.48 67.4314 2046.73 67.4314 Q2049.97 67.4314 2053.13 66.5807 Q2056.33 65.6895 2059.49 63.9476 L2059.49 70.8341 Q2056.37 72.2924 2053.01 73.0216 Q2049.69 73.7508 2045.92 73.7508 Q2035.67 73.7508 2029.64 67.3098 Q2023.6 60.8689 2023.6 49.9314 Q2023.6 38.832 2029.68 32.472 Q2035.79 26.1121 2046.41 26.1121 Q2049.85 26.1121 2053.13 26.8413 Q2056.41 27.5299 2059.49 28.9478 Z" fill="#000000" fill-rule="evenodd" fill-opacity="1" /><path clip-path="url(#clip350)" d="M 0 0 M2067.31 9.54393 L2074.76 9.54393 L2074.76 72.576 L2067.31 72.576 L2067.31 9.54393 Z" fill="#000000" fill-rule="evenodd" fill-opacity="1" /><path clip-path="url(#clip350)" d="M 0 0 M2121.39 48.0275 L2121.39 51.6733 L2087.12 51.6733 Q2087.6 59.3701 2091.74 63.421 Q2095.91 67.4314 2103.32 67.4314 Q2107.62 67.4314 2111.63 66.3781 Q2115.68 65.3249 2119.65 63.2184 L2119.65 70.267 Q2115.64 71.9684 2111.42 72.8596 Q2107.21 73.7508 2102.88 73.7508 Q2092.02 73.7508 2085.66 67.4314 Q2079.34 61.1119 2079.34 50.3365 Q2079.34 39.1965 2085.34 32.6746 Q2091.37 26.1121 2101.58 26.1121 Q2110.74 26.1121 2116.04 32.0264 Q2121.39 37.9003 2121.39 48.0275 M2113.94 45.84 Q2113.85 39.7232 2110.49 36.0774 Q2107.17 32.4315 2101.66 32.4315 Q2095.42 32.4315 2091.66 35.9558 Q2087.93 39.4801 2087.36 45.8805 L2113.94 45.84 Z" fill="#000000" fill-rule="evenodd" fill-opacity="1" /><path clip-path="url(#clip350)" d="M 0 0 M2158.05 65.6895 L2171.42 65.6895 L2171.42 19.5497 L2156.88 22.4663 L2156.88 15.0127 L2171.34 12.096 L2179.52 12.096 L2179.52 65.6895 L2192.89 65.6895 L2192.89 72.576 L2158.05 72.576 L2158.05 65.6895 Z" fill="#000000" fill-rule="evenodd" fill-opacity="1" /><circle clip-path="url(#clip352)" cx="270.992" cy="199.832" r="21" fill="#add8e6" fill-rule="evenodd" fill-opacity="1" stroke="#000000" stroke-opacity="1" stroke-width="2.4"/>
<circle clip-path="url(#clip352)" cx="322.796" cy="199.832" r="21" fill="#add8e6" fill-rule="evenodd" fill-opacity="1" stroke="#000000" stroke-opacity="1" stroke-width="2.4"/>
<path clip-path="url(#clip352)" d="M374.601 175.832 L368.961 192.056 L351.777 192.416 L365.481 202.808 L360.489 219.248 L374.601 209.432 L388.713 219.248 L383.721 202.808 L397.425 192.416 L380.241 192.056 L374.601 175.832 Z" fill="#ffa500" fill-rule="evenodd" fill-opacity="1" stroke="#000000" stroke-opacity="1" stroke-width="2.4"/>
<circle clip-path="url(#clip352)" cx="426.406" cy="199.832" r="21" fill="#add8e6" fill-rule="evenodd" fill-opacity="1" stroke="#000000" stroke-opacity="1" stroke-width="2.4"/>
<circle clip-path="url(#clip352)" cx="478.211" cy="199.832" r="21" fill="#add8e6" fill-rule="evenodd" fill-opacity="1" stroke="#000000" stroke-opacity="1" stroke-width="2.4"/>
<circle clip-path="url(#clip352)" cx="530.015" cy="199.832" r="21" fill="#add8e6" fill-rule="evenodd" fill-opacity="1" stroke="#000000" stroke-opacity="1" stroke-width="2.4"/>
<circle clip-path="url(#clip352)" cx="581.82" cy="199.832" r="21" fill="#add8e6" fill-rule="evenodd" fill-opacity="1" stroke="#000000" stroke-opacity="1" stroke-width="2.4"/>
<circle clip-path="url(#clip352)" cx="633.625" cy="199.832" r="21" fill="#add8e6" fill-rule="evenodd" fill-opacity="1" stroke="#000000" stroke-opacity="1" stroke-width="2.4"/>
<circle clip-path="url(#clip352)" cx="685.43" cy="199.832" r="21" fill="#add8e6" fill-rule="evenodd" fill-opacity="1" stroke="#000000" stroke-opacity="1" stroke-width="2.4"/>
<path clip-path="url(#clip352)" d="M737.234 175.832 L731.594 192.056 L714.41 192.416 L728.114 202.808 L723.122 219.248 L737.234 209.432 L751.346 219.248 L746.354 202.808 L760.058 192.416 L742.874 192.056 L737.234 175.832 Z" fill="#ffa500" fill-rule="evenodd" fill-opacity="1" stroke="#000000" stroke-opacity="1" stroke-width="2.4"/>
<path clip-path="url(#clip352)" d="M789.039 175.832 L783.399 192.056 L766.215 192.416 L779.919 202.808 L774.927 219.248 L789.039 209.432 L803.151 219.248 L798.159 202.808 L811.863 192.416 L794.679 192.056 L789.039 175.832 Z" fill="#ffa500" fill-rule="evenodd" fill-opacity="1" stroke="#000000" stroke-opacity="1" stroke-width="2.4"/>
<circle clip-path="url(#clip352)" cx="840.844" cy="199.832" r="21" fill="#add8e6" fill-rule="evenodd" fill-opacity="1" stroke="#000000" stroke-opacity="1" stroke-width="2.4"/>
<circle clip-path="url(#clip352)" cx="892.649" cy="199.832" r="21" fill="#add8e6" fill-rule="evenodd" fill-opacity="1" stroke="#000000" stroke-opacity="1" stroke-width="2.4"/>
<circle clip-path="url(#clip352)" cx="944.453" cy="199.832" r="21" fill="#add8e6" fill-rule="evenodd" fill-opacity="1" stroke="#000000" stroke-opacity="1" stroke-width="2.4"/>
<circle clip-path="url(#clip352)" cx="996.258" cy="199.832" r="21" fill="#add8e6" fill-rule="evenodd" fill-opacity="1" stroke="#000000" stroke-opacity="1" stroke-width="2.4"/>
<path clip-path="url(#clip352)" d="M1048.06 175.832 L1042.42 192.056 L1025.24 192.416 L1038.94 202.808 L1033.95 219.248 L1048.06 209.432 L1062.17 219.248 L1057.18 202.808 L1070.89 192.416 L1053.7 192.056 L1048.06 175.832 Z" fill="#ffa500" fill-rule="evenodd" fill-opacity="1" stroke="#000000" stroke-opacity="1" stroke-width="2.4"/>
<path clip-path="url(#clip352)" d="M1099.87 175.832 L1094.23 192.056 L1077.04 192.416 L1090.75 202.808 L1085.76 219.248 L1099.87 209.432 L1113.98 219.248 L1108.99 202.808 L1122.69 192.416 L1105.51 192.056 L1099.87 175.832 Z" fill="#add8e6" fill-rule="evenodd" fill-opacity="1" stroke="#000000" stroke-opacity="1" stroke-width="2.4"/>
<circle clip-path="url(#clip352)" cx="1151.67" cy="199.832" r="21" fill="#ffa500" fill-rule="evenodd" fill-opacity="1" stroke="#000000" stroke-opacity="1" stroke-width="2.4"/>
<path clip-path="url(#clip352)" d="M1203.48 175.832 L1197.84 192.056 L1180.65 192.416 L1194.36 202.808 L1189.37 219.248 L1203.48 209.432 L1217.59 219.248 L1212.6 202.808 L1226.3 192.416 L1209.12 192.056 L1203.48 175.832 Z" fill="#add8e6" fill-rule="evenodd" fill-opacity="1" stroke="#000000" stroke-opacity="1" stroke-width="2.4"/>
<path clip-path="url(#clip352)" d="M1255.28 175.832 L1249.64 192.056 L1232.46 192.416 L1246.16 202.808 L1241.17 219.248 L1255.28 209.432 L1269.39 219.248 L1264.4 202.808 L1278.11 192.416 L1260.92 192.056 L1255.28 175.832 Z" fill="#add8e6" fill-rule="evenodd" fill-opacity="1" stroke="#000000" stroke-opacity="1" stroke-width="2.4"/>
<path clip-path="url(#clip352)" d="M1307.09 175.832 L1301.45 192.056 L1284.26 192.416 L1297.97 202.808 L1292.97 219.248 L1307.09 209.432 L1321.2 219.248 L1316.21 202.808 L1329.91 192.416 L1312.73 192.056 L1307.09 175.832 Z" fill="#add8e6" fill-rule="evenodd" fill-opacity="1" stroke="#000000" stroke-opacity="1" stroke-width="2.4"/>
<path clip-path="url(#clip352)" d="M1358.89 175.832 L1353.25 192.056 L1336.07 192.416 L1349.77 202.808 L1344.78 219.248 L1358.89 209.432 L1373 219.248 L1368.01 202.808 L1381.72 192.416 L1364.53 192.056 L1358.89 175.832 Z" fill="#add8e6" fill-rule="evenodd" fill-opacity="1" stroke="#000000" stroke-opacity="1" stroke-width="2.4"/>
<circle clip-path="url(#clip352)" cx="1410.7" cy="199.832" r="21" fill="#ffa500" fill-rule="evenodd" fill-opacity="1" stroke="#000000" stroke-opacity="1" stroke-width="2.4"/>
<circle clip-path="url(#clip352)" cx="1462.5" cy="199.832" r="21" fill="#ffa500" fill-rule="evenodd" fill-opacity="1" stroke="#000000" stroke-opacity="1" stroke-width="2.4"/>
<path clip-path="url(#clip352)" d="M1514.31 175.832 L1508.67 192.056 L1491.48 192.416 L1505.19 202.808 L1500.19 219.248 L1514.31 209.432 L1528.42 219.248 L1523.43 202.808 L1537.13 192.416 L1519.95 192.056 L1514.31 175.832 Z" fill="#ffa500" fill-rule="evenodd" fill-opacity="1" stroke="#000000" stroke-opacity="1" stroke-width="2.4"/>
<circle clip-path="url(#clip352)" cx="1566.11" cy="199.832" r="21" fill="#add8e6" fill-rule="evenodd" fill-opacity="1" stroke="#000000" stroke-opacity="1" stroke-width="2.4"/>
<circle clip-path="url(#clip352)" cx="1617.92" cy="199.832" r="21" fill="#add8e6" fill-rule="evenodd" fill-opacity="1" stroke="#000000" stroke-opacity="1" stroke-width="2.4"/>
<path clip-path="url(#clip352)" d="M1669.72 175.832 L1664.08 192.056 L1646.9 192.416 L1660.6 202.808 L1655.61 219.248 L1669.72 209.432 L1683.83 219.248 L1678.84 202.808 L1692.54 192.416 L1675.36 192.056 L1669.72 175.832 Z" fill="#add8e6" fill-rule="evenodd" fill-opacity="1" stroke="#000000" stroke-opacity="1" stroke-width="2.4"/>
<circle clip-path="url(#clip352)" cx="1721.52" cy="199.832" r="21" fill="#ffa500" fill-rule="evenodd" fill-opacity="1" stroke="#000000" stroke-opacity="1" stroke-width="2.4"/>
<path clip-path="url(#clip352)" d="M1773.33 175.832 L1767.69 192.056 L1750.51 192.416 L1764.21 202.808 L1759.22 219.248 L1773.33 209.432 L1787.44 219.248 L1782.45 202.808 L1796.15 192.416 L1778.97 192.056 L1773.33 175.832 Z" fill="#add8e6" fill-rule="evenodd" fill-opacity="1" stroke="#000000" stroke-opacity="1" stroke-width="2.4"/>
<path clip-path="url(#clip352)" d="M1825.13 175.832 L1819.49 192.056 L1802.31 192.416 L1816.01 202.808 L1811.02 219.248 L1825.13 209.432 L1839.25 219.248 L1834.25 202.808 L1847.96 192.416 L1830.77 192.056 L1825.13 175.832 Z" fill="#add8e6" fill-rule="evenodd" fill-opacity="1" stroke="#000000" stroke-opacity="1" stroke-width="2.4"/>
<path clip-path="url(#clip352)" d="M1876.94 175.832 L1871.3 192.056 L1854.12 192.416 L1867.82 202.808 L1862.83 219.248 L1876.94 209.432 L1891.05 219.248 L1886.06 202.808 L1899.76 192.416 L1882.58 192.056 L1876.94 175.832 Z" fill="#add8e6" fill-rule="evenodd" fill-opacity="1" stroke="#000000" stroke-opacity="1" stroke-width="2.4"/>
<path clip-path="url(#clip352)" d="M1928.74 175.832 L1923.1 192.056 L1905.92 192.416 L1919.62 202.808 L1914.63 219.248 L1928.74 209.432 L1942.86 219.248 L1937.86 202.808 L1951.57 192.416 L1934.38 192.056 L1928.74 175.832 Z" fill="#add8e6" fill-rule="evenodd" fill-opacity="1" stroke="#000000" stroke-opacity="1" stroke-width="2.4"/>
<circle clip-path="url(#clip352)" cx="1980.55" cy="199.832" r="21" fill="#ffa500" fill-rule="evenodd" fill-opacity="1" stroke="#000000" stroke-opacity="1" stroke-width="2.4"/>
<circle clip-path="url(#clip352)" cx="2032.35" cy="199.832" r="21" fill="#ffa500" fill-rule="evenodd" fill-opacity="1" stroke="#000000" stroke-opacity="1" stroke-width="2.4"/>
<path clip-path="url(#clip352)" d="M2084.16 175.832 L2078.52 192.056 L2061.33 192.416 L2075.04 202.808 L2070.05 219.248 L2084.16 209.432 L2098.27 219.248 L2093.28 202.808 L2106.98 192.416 L2089.8 192.056 L2084.16 175.832 Z" fill="#add8e6" fill-rule="evenodd" fill-opacity="1" stroke="#000000" stroke-opacity="1" stroke-width="2.4"/>
<circle clip-path="url(#clip352)" cx="2135.96" cy="199.832" r="21" fill="#ffa500" fill-rule="evenodd" fill-opacity="1" stroke="#000000" stroke-opacity="1" stroke-width="2.4"/>
<path clip-path="url(#clip352)" d="M2187.77 175.832 L2182.13 192.056 L2164.94 192.416 L2178.65 202.808 L2173.66 219.248 L2187.77 209.432 L2201.88 219.248 L2196.89 202.808 L2210.59 192.416 L2193.41 192.056 L2187.77 175.832 Z" fill="#ffa500" fill-rule="evenodd" fill-opacity="1" stroke="#000000" stroke-opacity="1" stroke-width="2.4"/>
<circle clip-path="url(#clip352)" cx="2239.57" cy="199.832" r="21" fill="#ffa500" fill-rule="evenodd" fill-opacity="1" stroke="#000000" stroke-opacity="1" stroke-width="2.4"/>
<path clip-path="url(#clip352)" d="M2291.38 175.832 L2285.74 192.056 L2268.55 192.416 L2282.26 202.808 L2277.27 219.248 L2291.38 209.432 L2305.49 219.248 L2300.5 202.808 L2314.2 192.416 L2297.02 192.056 L2291.38 175.832 Z" fill="#add8e6" fill-rule="evenodd" fill-opacity="1" stroke="#000000" stroke-opacity="1" stroke-width="2.4"/>
<path clip-path="url(#clip352)" d="M2343.18 175.832 L2337.54 192.056 L2320.36 192.416 L2334.06 202.808 L2329.07 219.248 L2343.18 209.432 L2357.29 219.248 L2352.3 202.808 L2366.01 192.416 L2348.82 192.056 L2343.18 175.832 Z" fill="#ffa500" fill-rule="evenodd" fill-opacity="1" stroke="#000000" stroke-opacity="1" stroke-width="2.4"/>
<circle clip-path="url(#clip352)" cx="2394.99" cy="199.832" r="21" fill="#add8e6" fill-rule="evenodd" fill-opacity="1" stroke="#000000" stroke-opacity="1" stroke-width="2.4"/>
<path clip-path="url(#clip352)" d="M2446.79 175.832 L2441.15 192.056 L2423.97 192.416 L2437.67 202.808 L2432.68 219.248 L2446.79 209.432 L2460.9 219.248 L2455.91 202.808 L2469.62 192.416 L2452.43 192.056 L2446.79 175.832 Z" fill="#ffa500" fill-rule="evenodd" fill-opacity="1" stroke="#000000" stroke-opacity="1" stroke-width="2.4"/>
<circle clip-path="url(#clip352)" cx="2498.6" cy="199.832" r="21" fill="#add8e6" fill-rule="evenodd" fill-opacity="1" stroke="#000000" stroke-opacity="1" stroke-width="2.4"/>
<circle clip-path="url(#clip352)" cx="2550.4" cy="199.832" r="21" fill="#add8e6" fill-rule="evenodd" fill-opacity="1" stroke="#000000" stroke-opacity="1" stroke-width="2.4"/>
<circle clip-path="url(#clip352)" cx="2602.21" cy="199.832" r="21" fill="#add8e6" fill-rule="evenodd" fill-opacity="1" stroke="#000000" stroke-opacity="1" stroke-width="2.4"/>
<circle clip-path="url(#clip352)" cx="2654.01" cy="199.832" r="21" fill="#ffa500" fill-rule="evenodd" fill-opacity="1" stroke="#000000" stroke-opacity="1" stroke-width="2.4"/>
<path clip-path="url(#clip352)" d="M2705.82 175.832 L2700.18 192.056 L2682.99 192.416 L2696.7 202.808 L2691.7 219.248 L2705.82 209.432 L2719.93 219.248 L2714.94 202.808 L2728.64 192.416 L2711.46 192.056 L2705.82 175.832 Z" fill="#ffa500" fill-rule="evenodd" fill-opacity="1" stroke="#000000" stroke-opacity="1" stroke-width="2.4"/>
<path clip-path="url(#clip352)" d="M2757.62 175.832 L2751.98 192.056 L2734.8 192.416 L2748.5 202.808 L2743.51 219.248 L2757.62 209.432 L2771.73 219.248 L2766.74 202.808 L2780.44 192.416 L2763.26 192.056 L2757.62 175.832 Z" fill="#add8e6" fill-rule="evenodd" fill-opacity="1" stroke="#000000" stroke-opacity="1" stroke-width="2.4"/>
<path clip-path="url(#clip352)" d="M2809.42 175.832 L2803.78 192.056 L2786.6 192.416 L2800.3 202.808 L2795.31 219.248 L2809.42 209.432 L2823.54 219.248 L2818.54 202.808 L2832.25 192.416 L2815.06 192.056 L2809.42 175.832 Z" fill="#add8e6" fill-rule="evenodd" fill-opacity="1" stroke="#000000" stroke-opacity="1" stroke-width="2.4"/>
<path clip-path="url(#clip352)" d="M2861.23 175.832 L2855.59 192.056 L2838.41 192.416 L2852.11 202.808 L2847.12 219.248 L2861.23 209.432 L2875.34 219.248 L2870.35 202.808 L2884.05 192.416 L2866.87 192.056 L2861.23 175.832 Z" fill="#add8e6" fill-rule="evenodd" fill-opacity="1" stroke="#000000" stroke-opacity="1" stroke-width="2.4"/>
<circle clip-path="url(#clip352)" cx="2913.03" cy="199.832" r="21" fill="#ffa500" fill-rule="evenodd" fill-opacity="1" stroke="#000000" stroke-opacity="1" stroke-width="2.4"/>
<path clip-path="url(#clip352)" d="M2964.84 175.832 L2959.2 192.056 L2942.02 192.416 L2955.72 202.808 L2950.73 219.248 L2964.84 209.432 L2978.95 219.248 L2973.96 202.808 L2987.66 192.416 L2970.48 192.056 L2964.84 175.832 Z" fill="#add8e6" fill-rule="evenodd" fill-opacity="1" stroke="#000000" stroke-opacity="1" stroke-width="2.4"/>
<path clip-path="url(#clip352)" d="M3016.64 175.832 L3011 192.056 L2993.82 192.416 L3007.52 202.808 L3002.53 219.248 L3016.64 209.432 L3030.76 219.248 L3025.76 202.808 L3039.47 192.416 L3022.28 192.056 L3016.64 175.832 Z" fill="#add8e6" fill-rule="evenodd" fill-opacity="1" stroke="#000000" stroke-opacity="1" stroke-width="2.4"/>
<circle clip-path="url(#clip352)" cx="3068.45" cy="199.832" r="21" fill="#ffa500" fill-rule="evenodd" fill-opacity="1" stroke="#000000" stroke-opacity="1" stroke-width="2.4"/>
<path clip-path="url(#clip352)" d="M3120.25 175.832 L3114.61 192.056 L3097.43 192.416 L3111.13 202.808 L3106.14 219.248 L3120.25 209.432 L3134.37 219.248 L3129.37 202.808 L3143.08 192.416 L3125.89 192.056 L3120.25 175.832 Z" fill="#add8e6" fill-rule="evenodd" fill-opacity="1" stroke="#000000" stroke-opacity="1" stroke-width="2.4"/>
<path clip-path="url(#clip352)" d="M3172.06 175.832 L3166.42 192.056 L3149.23 192.416 L3162.94 202.808 L3157.95 219.248 L3172.06 209.432 L3186.17 219.248 L3181.18 202.808 L3194.88 192.416 L3177.7 192.056 L3172.06 175.832 Z" fill="#add8e6" fill-rule="evenodd" fill-opacity="1" stroke="#000000" stroke-opacity="1" stroke-width="2.4"/>
<path clip-path="url(#clip352)" d="M3223.86 175.832 L3218.22 192.056 L3201.04 192.416 L3214.74 202.808 L3209.75 219.248 L3223.86 209.432 L3237.97 219.248 L3232.98 202.808 L3246.69 192.416 L3229.5 192.056 L3223.86 175.832 Z" fill="#add8e6" fill-rule="evenodd" fill-opacity="1" stroke="#000000" stroke-opacity="1" stroke-width="2.4"/>
<circle clip-path="url(#clip352)" cx="3275.67" cy="199.832" r="21" fill="#ffa500" fill-rule="evenodd" fill-opacity="1" stroke="#000000" stroke-opacity="1" stroke-width="2.4"/>
<circle clip-path="url(#clip352)" cx="3327.47" cy="199.832" r="21" fill="#ffa500" fill-rule="evenodd" fill-opacity="1" stroke="#000000" stroke-opacity="1" stroke-width="2.4"/>
<path clip-path="url(#clip352)" d="M3379.28 175.832 L3373.64 192.056 L3356.45 192.416 L3370.16 202.808 L3365.17 219.248 L3379.28 209.432 L3393.39 219.248 L3388.4 202.808 L3402.1 192.416 L3384.92 192.056 L3379.28 175.832 Z" fill="#add8e6" fill-rule="evenodd" fill-opacity="1" stroke="#000000" stroke-opacity="1" stroke-width="2.4"/>
<circle clip-path="url(#clip352)" cx="3431.08" cy="199.832" r="21" fill="#ffa500" fill-rule="evenodd" fill-opacity="1" stroke="#000000" stroke-opacity="1" stroke-width="2.4"/>
<path clip-path="url(#clip352)" d="M3482.89 175.832 L3477.25 192.056 L3460.06 192.416 L3473.77 202.808 L3468.77 219.248 L3482.89 209.432 L3497 219.248 L3492.01 202.808 L3505.71 192.416 L3488.53 192.056 L3482.89 175.832 Z" fill="#ffa500" fill-rule="evenodd" fill-opacity="1" stroke="#000000" stroke-opacity="1" stroke-width="2.4"/>
<path clip-path="url(#clip352)" d="M3534.69 175.832 L3529.05 192.056 L3511.87 192.416 L3525.57 202.808 L3520.58 219.248 L3534.69 209.432 L3548.8 219.248 L3543.81 202.808 L3557.52 192.416 L3540.33 192.056 L3534.69 175.832 Z" fill="#add8e6" fill-rule="evenodd" fill-opacity="1" stroke="#000000" stroke-opacity="1" stroke-width="2.4"/>
<path clip-path="url(#clip352)" d="M3586.5 175.832 L3580.86 192.056 L3563.67 192.416 L3577.38 202.808 L3572.38 219.248 L3586.5 209.432 L3600.61 219.248 L3595.62 202.808 L3609.32 192.416 L3592.14 192.056 L3586.5 175.832 Z" fill="#add8e6" fill-rule="evenodd" fill-opacity="1" stroke="#000000" stroke-opacity="1" stroke-width="2.4"/>
<circle clip-path="url(#clip352)" cx="3638.3" cy="199.832" r="21" fill="#ffa500" fill-rule="evenodd" fill-opacity="1" stroke="#000000" stroke-opacity="1" stroke-width="2.4"/>
<circle clip-path="url(#clip352)" cx="3690.11" cy="199.832" r="21" fill="#ffa500" fill-rule="evenodd" fill-opacity="1" stroke="#000000" stroke-opacity="1" stroke-width="2.4"/>
<path clip-path="url(#clip352)" d="M3741.91 175.832 L3736.27 192.056 L3719.09 192.416 L3732.79 202.808 L3727.8 219.248 L3741.91 209.432 L3756.02 219.248 L3751.03 202.808 L3764.73 192.416 L3747.55 192.056 L3741.91 175.832 Z" fill="#add8e6" fill-rule="evenodd" fill-opacity="1" stroke="#000000" stroke-opacity="1" stroke-width="2.4"/>
<circle clip-path="url(#clip352)" cx="3793.72" cy="199.832" r="21" fill="#ffa500" fill-rule="evenodd" fill-opacity="1" stroke="#000000" stroke-opacity="1" stroke-width="2.4"/>
<path clip-path="url(#clip352)" d="M3845.52 175.832 L3839.88 192.056 L3822.7 192.416 L3836.4 202.808 L3831.41 219.248 L3845.52 209.432 L3859.63 219.248 L3854.64 202.808 L3868.34 192.416 L3851.16 192.056 L3845.52 175.832 Z" fill="#ffa500" fill-rule="evenodd" fill-opacity="1" stroke="#000000" stroke-opacity="1" stroke-width="2.4"/>
<path clip-path="url(#clip350)" d="
M163.756 709.456 L3952.76 709.456 L3952.76 490.208 L163.756 490.208  Z
  " fill="#ffffff" fill-rule="evenodd" fill-opacity="1"/>
<defs>
  <clipPath id="clip353">
    <rect x="163" y="490" width="3790" height="220"/>
  </clipPath>
</defs>
<path clip-path="url(#clip350)" d="M 0 0 M1972.72 416.755 L1972.72 425.383 Q1968.59 421.535 1963.89 419.631 Q1959.23 417.727 1953.97 417.727 Q1943.59 417.727 1938.09 424.087 Q1932.58 430.406 1932.58 442.397 Q1932.58 454.347 1938.09 460.707 Q1943.59 467.026 1953.97 467.026 Q1959.23 467.026 1963.89 465.122 Q1968.59 463.218 1972.72 459.37 L1972.72 467.917 Q1968.43 470.834 1963.61 472.292 Q1958.83 473.751 1953.48 473.751 Q1939.75 473.751 1931.85 465.365 Q1923.95 456.94 1923.95 442.397 Q1923.95 427.814 1931.85 419.428 Q1939.75 411.002 1953.48 411.002 Q1958.91 411.002 1963.69 412.461 Q1968.51 413.878 1972.72 416.755 Z" fill="#000000" fill-rule="evenodd" fill-opacity="1" /><path clip-path="url(#clip350)" d="M 0 0 M1999.42 476.789 Q1996.26 484.891 1993.26 487.362 Q1990.26 489.833 1985.24 489.833 L1979.28 489.833 L1979.28 483.594 L1983.66 483.594 Q1986.74 483.594 1988.44 482.136 Q1990.14 480.678 1992.21 475.25 L1993.54 471.847 L1975.19 427.206 L1983.09 427.206 L1997.27 462.692 L2011.45 427.206 L2019.35 427.206 L1999.42 476.789 Z" fill="#000000" fill-rule="evenodd" fill-opacity="1" /><path clip-path="url(#clip350)" d="M 0 0 M2059.82 428.948 L2059.82 435.915 Q2056.66 434.173 2053.46 433.323 Q2050.3 432.432 2047.06 432.432 Q2039.8 432.432 2035.79 437.05 Q2031.78 441.627 2031.78 449.931 Q2031.78 458.236 2035.79 462.854 Q2039.8 467.431 2047.06 467.431 Q2050.3 467.431 2053.46 466.581 Q2056.66 465.689 2059.82 463.948 L2059.82 470.834 Q2056.7 472.292 2053.33 473.022 Q2050.01 473.751 2046.24 473.751 Q2036 473.751 2029.96 467.31 Q2023.92 460.869 2023.92 449.931 Q2023.92 438.832 2030 432.472 Q2036.12 426.112 2046.73 426.112 Q2050.17 426.112 2053.46 426.841 Q2056.74 427.53 2059.82 428.948 Z" fill="#000000" fill-rule="evenodd" fill-opacity="1" /><path clip-path="url(#clip350)" d="M 0 0 M2067.63 409.544 L2075.09 409.544 L2075.09 472.576 L2067.63 472.576 L2067.63 409.544 Z" fill="#000000" fill-rule="evenodd" fill-opacity="1" /><path clip-path="url(#clip350)" d="M 0 0 M2121.71 448.028 L2121.71 451.673 L2087.44 451.673 Q2087.93 459.37 2092.06 463.421 Q2096.23 467.431 2103.65 467.431 Q2107.94 467.431 2111.95 466.378 Q2116 465.325 2119.97 463.218 L2119.97 470.267 Q2115.96 471.968 2111.75 472.86 Q2107.54 473.751 2103.2 473.751 Q2092.34 473.751 2085.98 467.431 Q2079.66 461.112 2079.66 450.337 Q2079.66 439.197 2085.66 432.675 Q2091.7 426.112 2101.9 426.112 Q2111.06 426.112 2116.37 432.026 Q2121.71 437.9 2121.71 448.028 M2114.26 445.84 Q2114.18 439.723 2110.82 436.077 Q2107.49 432.432 2101.99 432.432 Q2095.75 432.432 2091.98 435.956 Q2088.25 439.48 2087.69 445.881 L2114.26 445.84 Z" fill="#000000" fill-rule="evenodd" fill-opacity="1" /><path clip-path="url(#clip350)" d="M 0 0 M2164 465.689 L2192.56 465.689 L2192.56 472.576 L2154.16 472.576 L2154.16 465.689 Q2158.82 460.869 2166.84 452.767 Q2174.9 444.625 2176.97 442.275 Q2180.9 437.86 2182.44 434.822 Q2184.02 431.743 2184.02 428.786 Q2184.02 423.965 2180.61 420.927 Q2177.25 417.889 2171.82 417.889 Q2167.97 417.889 2163.68 419.226 Q2159.43 420.562 2154.57 423.276 L2154.57 415.013 Q2159.51 413.028 2163.8 412.015 Q2168.1 411.002 2171.66 411.002 Q2181.06 411.002 2186.65 415.701 Q2192.24 420.4 2192.24 428.259 Q2192.24 431.986 2190.82 435.348 Q2189.44 438.67 2185.76 443.207 Q2184.75 444.382 2179.32 450.012 Q2173.89 455.603 2164 465.689 Z" fill="#000000" fill-rule="evenodd" fill-opacity="1" /><circle clip-path="url(#clip353)" cx="270.992" cy="599.832" r="21" fill="#add8e6" fill-rule="evenodd" fill-opacity="1" stroke="#000000" stroke-opacity="1" stroke-width="2.4"/>
<circle clip-path="url(#clip353)" cx="322.796" cy="599.832" r="21" fill="#add8e6" fill-rule="evenodd" fill-opacity="1" stroke="#000000" stroke-opacity="1" stroke-width="2.4"/>
<circle clip-path="url(#clip353)" cx="374.601" cy="599.832" r="21" fill="#add8e6" fill-rule="evenodd" fill-opacity="1" stroke="#000000" stroke-opacity="1" stroke-width="2.4"/>
<circle clip-path="url(#clip353)" cx="426.406" cy="599.832" r="21" fill="#add8e6" fill-rule="evenodd" fill-opacity="1" stroke="#000000" stroke-opacity="1" stroke-width="2.4"/>
<circle clip-path="url(#clip353)" cx="478.211" cy="599.832" r="21" fill="#add8e6" fill-rule="evenodd" fill-opacity="1" stroke="#000000" stroke-opacity="1" stroke-width="2.4"/>
<circle clip-path="url(#clip353)" cx="530.015" cy="599.832" r="21" fill="#add8e6" fill-rule="evenodd" fill-opacity="1" stroke="#000000" stroke-opacity="1" stroke-width="2.4"/>
<circle clip-path="url(#clip353)" cx="581.82" cy="599.832" r="21" fill="#add8e6" fill-rule="evenodd" fill-opacity="1" stroke="#000000" stroke-opacity="1" stroke-width="2.4"/>
<circle clip-path="url(#clip353)" cx="633.625" cy="599.832" r="21" fill="#add8e6" fill-rule="evenodd" fill-opacity="1" stroke="#000000" stroke-opacity="1" stroke-width="2.4"/>
<circle clip-path="url(#clip353)" cx="685.43" cy="599.832" r="21" fill="#add8e6" fill-rule="evenodd" fill-opacity="1" stroke="#000000" stroke-opacity="1" stroke-width="2.4"/>
<circle clip-path="url(#clip353)" cx="737.234" cy="599.832" r="21" fill="#add8e6" fill-rule="evenodd" fill-opacity="1" stroke="#000000" stroke-opacity="1" stroke-width="2.4"/>
<circle clip-path="url(#clip353)" cx="789.039" cy="599.832" r="21" fill="#add8e6" fill-rule="evenodd" fill-opacity="1" stroke="#000000" stroke-opacity="1" stroke-width="2.4"/>
<circle clip-path="url(#clip353)" cx="840.844" cy="599.832" r="21" fill="#add8e6" fill-rule="evenodd" fill-opacity="1" stroke="#000000" stroke-opacity="1" stroke-width="2.4"/>
<path clip-path="url(#clip353)" d="M892.649 575.832 L887.009 592.056 L869.825 592.416 L883.529 602.808 L878.537 619.248 L892.649 609.432 L906.761 619.248 L901.769 602.808 L915.473 592.416 L898.289 592.056 L892.649 575.832 Z" fill="#add8e6" fill-rule="evenodd" fill-opacity="1" stroke="#000000" stroke-opacity="1" stroke-width="2.4"/>
<path clip-path="url(#clip353)" d="M944.453 575.832 L938.813 592.056 L921.629 592.416 L935.333 602.808 L930.341 619.248 L944.453 609.432 L958.565 619.248 L953.573 602.808 L967.277 592.416 L950.093 592.056 L944.453 575.832 Z" fill="#add8e6" fill-rule="evenodd" fill-opacity="1" stroke="#000000" stroke-opacity="1" stroke-width="2.4"/>
<path clip-path="url(#clip353)" d="M996.258 575.832 L990.618 592.056 L973.434 592.416 L987.138 602.808 L982.146 619.248 L996.258 609.432 L1010.37 619.248 L1005.38 602.808 L1019.08 592.416 L1001.9 592.056 L996.258 575.832 Z" fill="#add8e6" fill-rule="evenodd" fill-opacity="1" stroke="#000000" stroke-opacity="1" stroke-width="2.4"/>
<path clip-path="url(#clip353)" d="M1048.06 575.832 L1042.42 592.056 L1025.24 592.416 L1038.94 602.808 L1033.95 619.248 L1048.06 609.432 L1062.17 619.248 L1057.18 602.808 L1070.89 592.416 L1053.7 592.056 L1048.06 575.832 Z" fill="#add8e6" fill-rule="evenodd" fill-opacity="1" stroke="#000000" stroke-opacity="1" stroke-width="2.4"/>
<path clip-path="url(#clip353)" d="M1099.87 575.832 L1094.23 592.056 L1077.04 592.416 L1090.75 602.808 L1085.76 619.248 L1099.87 609.432 L1113.98 619.248 L1108.99 602.808 L1122.69 592.416 L1105.51 592.056 L1099.87 575.832 Z" fill="#add8e6" fill-rule="evenodd" fill-opacity="1" stroke="#000000" stroke-opacity="1" stroke-width="2.4"/>
<path clip-path="url(#clip353)" d="M1151.67 575.832 L1146.03 592.056 L1128.85 592.416 L1142.55 602.808 L1137.56 619.248 L1151.67 609.432 L1165.78 619.248 L1160.79 602.808 L1174.5 592.416 L1157.31 592.056 L1151.67 575.832 Z" fill="#add8e6" fill-rule="evenodd" fill-opacity="1" stroke="#000000" stroke-opacity="1" stroke-width="2.4"/>
<path clip-path="url(#clip353)" d="M1203.48 575.832 L1197.84 592.056 L1180.65 592.416 L1194.36 602.808 L1189.37 619.248 L1203.48 609.432 L1217.59 619.248 L1212.6 602.808 L1226.3 592.416 L1209.12 592.056 L1203.48 575.832 Z" fill="#add8e6" fill-rule="evenodd" fill-opacity="1" stroke="#000000" stroke-opacity="1" stroke-width="2.4"/>
<path clip-path="url(#clip353)" d="M1255.28 575.832 L1249.64 592.056 L1232.46 592.416 L1246.16 602.808 L1241.17 619.248 L1255.28 609.432 L1269.39 619.248 L1264.4 602.808 L1278.11 592.416 L1260.92 592.056 L1255.28 575.832 Z" fill="#add8e6" fill-rule="evenodd" fill-opacity="1" stroke="#000000" stroke-opacity="1" stroke-width="2.4"/>
<path clip-path="url(#clip353)" d="M1307.09 575.832 L1301.45 592.056 L1284.26 592.416 L1297.97 602.808 L1292.97 619.248 L1307.09 609.432 L1321.2 619.248 L1316.21 602.808 L1329.91 592.416 L1312.73 592.056 L1307.09 575.832 Z" fill="#add8e6" fill-rule="evenodd" fill-opacity="1" stroke="#000000" stroke-opacity="1" stroke-width="2.4"/>
<circle clip-path="url(#clip353)" cx="1358.89" cy="599.832" r="21" fill="#ffa500" fill-rule="evenodd" fill-opacity="1" stroke="#000000" stroke-opacity="1" stroke-width="2.4"/>
<circle clip-path="url(#clip353)" cx="1410.7" cy="599.832" r="21" fill="#add8e6" fill-rule="evenodd" fill-opacity="1" stroke="#000000" stroke-opacity="1" stroke-width="2.4"/>
<path clip-path="url(#clip353)" d="M1462.5 575.832 L1456.86 592.056 L1439.68 592.416 L1453.38 602.808 L1448.39 619.248 L1462.5 609.432 L1476.61 619.248 L1471.62 602.808 L1485.33 592.416 L1468.14 592.056 L1462.5 575.832 Z" fill="#ffa500" fill-rule="evenodd" fill-opacity="1" stroke="#000000" stroke-opacity="1" stroke-width="2.4"/>
<circle clip-path="url(#clip353)" cx="1514.31" cy="599.832" r="21" fill="#add8e6" fill-rule="evenodd" fill-opacity="1" stroke="#000000" stroke-opacity="1" stroke-width="2.4"/>
<circle clip-path="url(#clip353)" cx="1566.11" cy="599.832" r="21" fill="#add8e6" fill-rule="evenodd" fill-opacity="1" stroke="#000000" stroke-opacity="1" stroke-width="2.4"/>
<circle clip-path="url(#clip353)" cx="1617.92" cy="599.832" r="21" fill="#add8e6" fill-rule="evenodd" fill-opacity="1" stroke="#000000" stroke-opacity="1" stroke-width="2.4"/>
<circle clip-path="url(#clip353)" cx="1669.72" cy="599.832" r="21" fill="#add8e6" fill-rule="evenodd" fill-opacity="1" stroke="#000000" stroke-opacity="1" stroke-width="2.4"/>
<circle clip-path="url(#clip353)" cx="1721.52" cy="599.832" r="21" fill="#add8e6" fill-rule="evenodd" fill-opacity="1" stroke="#000000" stroke-opacity="1" stroke-width="2.4"/>
<path clip-path="url(#clip353)" d="M1773.33 575.832 L1767.69 592.056 L1750.51 592.416 L1764.21 602.808 L1759.22 619.248 L1773.33 609.432 L1787.44 619.248 L1782.45 602.808 L1796.15 592.416 L1778.97 592.056 L1773.33 575.832 Z" fill="#add8e6" fill-rule="evenodd" fill-opacity="1" stroke="#000000" stroke-opacity="1" stroke-width="2.4"/>
<path clip-path="url(#clip353)" d="M1825.13 575.832 L1819.49 592.056 L1802.31 592.416 L1816.01 602.808 L1811.02 619.248 L1825.13 609.432 L1839.25 619.248 L1834.25 602.808 L1847.96 592.416 L1830.77 592.056 L1825.13 575.832 Z" fill="#add8e6" fill-rule="evenodd" fill-opacity="1" stroke="#000000" stroke-opacity="1" stroke-width="2.4"/>
<path clip-path="url(#clip353)" d="M1876.94 575.832 L1871.3 592.056 L1854.12 592.416 L1867.82 602.808 L1862.83 619.248 L1876.94 609.432 L1891.05 619.248 L1886.06 602.808 L1899.76 592.416 L1882.58 592.056 L1876.94 575.832 Z" fill="#add8e6" fill-rule="evenodd" fill-opacity="1" stroke="#000000" stroke-opacity="1" stroke-width="2.4"/>
<path clip-path="url(#clip353)" d="M1928.74 575.832 L1923.1 592.056 L1905.92 592.416 L1919.62 602.808 L1914.63 619.248 L1928.74 609.432 L1942.86 619.248 L1937.86 602.808 L1951.57 592.416 L1934.38 592.056 L1928.74 575.832 Z" fill="#add8e6" fill-rule="evenodd" fill-opacity="1" stroke="#000000" stroke-opacity="1" stroke-width="2.4"/>
<path clip-path="url(#clip353)" d="M1980.55 575.832 L1974.91 592.056 L1957.72 592.416 L1971.43 602.808 L1966.44 619.248 L1980.55 609.432 L1994.66 619.248 L1989.67 602.808 L2003.37 592.416 L1986.19 592.056 L1980.55 575.832 Z" fill="#add8e6" fill-rule="evenodd" fill-opacity="1" stroke="#000000" stroke-opacity="1" stroke-width="2.4"/>
<path clip-path="url(#clip353)" d="M2032.35 575.832 L2026.71 592.056 L2009.53 592.416 L2023.23 602.808 L2018.24 619.248 L2032.35 609.432 L2046.47 619.248 L2041.47 602.808 L2055.18 592.416 L2037.99 592.056 L2032.35 575.832 Z" fill="#add8e6" fill-rule="evenodd" fill-opacity="1" stroke="#000000" stroke-opacity="1" stroke-width="2.4"/>
<path clip-path="url(#clip353)" d="M2084.16 575.832 L2078.52 592.056 L2061.33 592.416 L2075.04 602.808 L2070.05 619.248 L2084.16 609.432 L2098.27 619.248 L2093.28 602.808 L2106.98 592.416 L2089.8 592.056 L2084.16 575.832 Z" fill="#add8e6" fill-rule="evenodd" fill-opacity="1" stroke="#000000" stroke-opacity="1" stroke-width="2.4"/>
<path clip-path="url(#clip353)" d="M2135.96 575.832 L2130.32 592.056 L2113.14 592.416 L2126.84 602.808 L2121.85 619.248 L2135.96 609.432 L2150.07 619.248 L2145.08 602.808 L2158.79 592.416 L2141.6 592.056 L2135.96 575.832 Z" fill="#add8e6" fill-rule="evenodd" fill-opacity="1" stroke="#000000" stroke-opacity="1" stroke-width="2.4"/>
<path clip-path="url(#clip353)" d="M2187.77 575.832 L2182.13 592.056 L2164.94 592.416 L2178.65 602.808 L2173.66 619.248 L2187.77 609.432 L2201.88 619.248 L2196.89 602.808 L2210.59 592.416 L2193.41 592.056 L2187.77 575.832 Z" fill="#add8e6" fill-rule="evenodd" fill-opacity="1" stroke="#000000" stroke-opacity="1" stroke-width="2.4"/>
<circle clip-path="url(#clip353)" cx="2239.57" cy="599.832" r="21" fill="#ffa500" fill-rule="evenodd" fill-opacity="1" stroke="#000000" stroke-opacity="1" stroke-width="2.4"/>
<circle clip-path="url(#clip353)" cx="2291.38" cy="599.832" r="21" fill="#add8e6" fill-rule="evenodd" fill-opacity="1" stroke="#000000" stroke-opacity="1" stroke-width="2.4"/>
<circle clip-path="url(#clip353)" cx="2343.18" cy="599.832" r="21" fill="#add8e6" fill-rule="evenodd" fill-opacity="1" stroke="#000000" stroke-opacity="1" stroke-width="2.4"/>
<path clip-path="url(#clip353)" d="M2394.99 575.832 L2389.35 592.056 L2372.16 592.416 L2385.87 602.808 L2380.87 619.248 L2394.99 609.432 L2409.1 619.248 L2404.11 602.808 L2417.81 592.416 L2400.63 592.056 L2394.99 575.832 Z" fill="#ffa500" fill-rule="evenodd" fill-opacity="1" stroke="#000000" stroke-opacity="1" stroke-width="2.4"/>
<circle clip-path="url(#clip353)" cx="2446.79" cy="599.832" r="21" fill="#add8e6" fill-rule="evenodd" fill-opacity="1" stroke="#000000" stroke-opacity="1" stroke-width="2.4"/>
<circle clip-path="url(#clip353)" cx="2498.6" cy="599.832" r="21" fill="#add8e6" fill-rule="evenodd" fill-opacity="1" stroke="#000000" stroke-opacity="1" stroke-width="2.4"/>
<circle clip-path="url(#clip353)" cx="2550.4" cy="599.832" r="21" fill="#add8e6" fill-rule="evenodd" fill-opacity="1" stroke="#000000" stroke-opacity="1" stroke-width="2.4"/>
<circle clip-path="url(#clip353)" cx="2602.21" cy="599.832" r="21" fill="#add8e6" fill-rule="evenodd" fill-opacity="1" stroke="#000000" stroke-opacity="1" stroke-width="2.4"/>
<circle clip-path="url(#clip353)" cx="2654.01" cy="599.832" r="21" fill="#add8e6" fill-rule="evenodd" fill-opacity="1" stroke="#000000" stroke-opacity="1" stroke-width="2.4"/>
<circle clip-path="url(#clip353)" cx="2705.82" cy="599.832" r="21" fill="#add8e6" fill-rule="evenodd" fill-opacity="1" stroke="#000000" stroke-opacity="1" stroke-width="2.4"/>
<circle clip-path="url(#clip353)" cx="2757.62" cy="599.832" r="21" fill="#add8e6" fill-rule="evenodd" fill-opacity="1" stroke="#000000" stroke-opacity="1" stroke-width="2.4"/>
<path clip-path="url(#clip353)" d="M2809.42 575.832 L2803.78 592.056 L2786.6 592.416 L2800.3 602.808 L2795.31 619.248 L2809.42 609.432 L2823.54 619.248 L2818.54 602.808 L2832.25 592.416 L2815.06 592.056 L2809.42 575.832 Z" fill="#add8e6" fill-rule="evenodd" fill-opacity="1" stroke="#000000" stroke-opacity="1" stroke-width="2.4"/>
<path clip-path="url(#clip353)" d="M2861.23 575.832 L2855.59 592.056 L2838.41 592.416 L2852.11 602.808 L2847.12 619.248 L2861.23 609.432 L2875.34 619.248 L2870.35 602.808 L2884.05 592.416 L2866.87 592.056 L2861.23 575.832 Z" fill="#add8e6" fill-rule="evenodd" fill-opacity="1" stroke="#000000" stroke-opacity="1" stroke-width="2.4"/>
<path clip-path="url(#clip353)" d="M2913.03 575.832 L2907.39 592.056 L2890.21 592.416 L2903.91 602.808 L2898.92 619.248 L2913.03 609.432 L2927.15 619.248 L2922.15 602.808 L2935.86 592.416 L2918.67 592.056 L2913.03 575.832 Z" fill="#add8e6" fill-rule="evenodd" fill-opacity="1" stroke="#000000" stroke-opacity="1" stroke-width="2.4"/>
<path clip-path="url(#clip353)" d="M2964.84 575.832 L2959.2 592.056 L2942.02 592.416 L2955.72 602.808 L2950.73 619.248 L2964.84 609.432 L2978.95 619.248 L2973.96 602.808 L2987.66 592.416 L2970.48 592.056 L2964.84 575.832 Z" fill="#add8e6" fill-rule="evenodd" fill-opacity="1" stroke="#000000" stroke-opacity="1" stroke-width="2.4"/>
<path clip-path="url(#clip353)" d="M3016.64 575.832 L3011 592.056 L2993.82 592.416 L3007.52 602.808 L3002.53 619.248 L3016.64 609.432 L3030.76 619.248 L3025.76 602.808 L3039.47 592.416 L3022.28 592.056 L3016.64 575.832 Z" fill="#add8e6" fill-rule="evenodd" fill-opacity="1" stroke="#000000" stroke-opacity="1" stroke-width="2.4"/>
<path clip-path="url(#clip353)" d="M3068.45 575.832 L3062.81 592.056 L3045.62 592.416 L3059.33 602.808 L3054.34 619.248 L3068.45 609.432 L3082.56 619.248 L3077.57 602.808 L3091.27 592.416 L3074.09 592.056 L3068.45 575.832 Z" fill="#add8e6" fill-rule="evenodd" fill-opacity="1" stroke="#000000" stroke-opacity="1" stroke-width="2.4"/>
<path clip-path="url(#clip353)" d="M3120.25 575.832 L3114.61 592.056 L3097.43 592.416 L3111.13 602.808 L3106.14 619.248 L3120.25 609.432 L3134.37 619.248 L3129.37 602.808 L3143.08 592.416 L3125.89 592.056 L3120.25 575.832 Z" fill="#add8e6" fill-rule="evenodd" fill-opacity="1" stroke="#000000" stroke-opacity="1" stroke-width="2.4"/>
<path clip-path="url(#clip353)" d="M3172.06 575.832 L3166.42 592.056 L3149.23 592.416 L3162.94 602.808 L3157.95 619.248 L3172.06 609.432 L3186.17 619.248 L3181.18 602.808 L3194.88 592.416 L3177.7 592.056 L3172.06 575.832 Z" fill="#add8e6" fill-rule="evenodd" fill-opacity="1" stroke="#000000" stroke-opacity="1" stroke-width="2.4"/>
<path clip-path="url(#clip353)" d="M3223.86 575.832 L3218.22 592.056 L3201.04 592.416 L3214.74 602.808 L3209.75 619.248 L3223.86 609.432 L3237.97 619.248 L3232.98 602.808 L3246.69 592.416 L3229.5 592.056 L3223.86 575.832 Z" fill="#add8e6" fill-rule="evenodd" fill-opacity="1" stroke="#000000" stroke-opacity="1" stroke-width="2.4"/>
<path clip-path="url(#clip353)" d="M3275.67 575.832 L3270.03 592.056 L3252.84 592.416 L3266.55 602.808 L3261.56 619.248 L3275.67 609.432 L3289.78 619.248 L3284.79 602.808 L3298.49 592.416 L3281.31 592.056 L3275.67 575.832 Z" fill="#add8e6" fill-rule="evenodd" fill-opacity="1" stroke="#000000" stroke-opacity="1" stroke-width="2.4"/>
<path clip-path="url(#clip353)" d="M3327.47 575.832 L3321.83 592.056 L3304.65 592.416 L3318.35 602.808 L3313.36 619.248 L3327.47 609.432 L3341.58 619.248 L3336.59 602.808 L3350.3 592.416 L3333.11 592.056 L3327.47 575.832 Z" fill="#add8e6" fill-rule="evenodd" fill-opacity="1" stroke="#000000" stroke-opacity="1" stroke-width="2.4"/>
<circle clip-path="url(#clip353)" cx="3379.28" cy="599.832" r="21" fill="#ffa500" fill-rule="evenodd" fill-opacity="1" stroke="#000000" stroke-opacity="1" stroke-width="2.4"/>
<path clip-path="url(#clip353)" d="M3431.08 575.832 L3425.44 592.056 L3408.26 592.416 L3421.96 602.808 L3416.97 619.248 L3431.08 609.432 L3445.19 619.248 L3440.2 602.808 L3453.91 592.416 L3436.72 592.056 L3431.08 575.832 Z" fill="#add8e6" fill-rule="evenodd" fill-opacity="1" stroke="#000000" stroke-opacity="1" stroke-width="2.4"/>
<path clip-path="url(#clip353)" d="M3482.89 575.832 L3477.25 592.056 L3460.06 592.416 L3473.77 602.808 L3468.77 619.248 L3482.89 609.432 L3497 619.248 L3492.01 602.808 L3505.71 592.416 L3488.53 592.056 L3482.89 575.832 Z" fill="#add8e6" fill-rule="evenodd" fill-opacity="1" stroke="#000000" stroke-opacity="1" stroke-width="2.4"/>
<circle clip-path="url(#clip353)" cx="3534.69" cy="599.832" r="21" fill="#ffa500" fill-rule="evenodd" fill-opacity="1" stroke="#000000" stroke-opacity="1" stroke-width="2.4"/>
<circle clip-path="url(#clip353)" cx="3586.5" cy="599.832" r="21" fill="#add8e6" fill-rule="evenodd" fill-opacity="1" stroke="#000000" stroke-opacity="1" stroke-width="2.4"/>
<circle clip-path="url(#clip353)" cx="3638.3" cy="599.832" r="21" fill="#add8e6" fill-rule="evenodd" fill-opacity="1" stroke="#000000" stroke-opacity="1" stroke-width="2.4"/>
<path clip-path="url(#clip353)" d="M3690.11 575.832 L3684.47 592.056 L3667.28 592.416 L3680.99 602.808 L3675.99 619.248 L3690.11 609.432 L3704.22 619.248 L3699.23 602.808 L3712.93 592.416 L3695.75 592.056 L3690.11 575.832 Z" fill="#ffa500" fill-rule="evenodd" fill-opacity="1" stroke="#000000" stroke-opacity="1" stroke-width="2.4"/>
<path clip-path="url(#clip353)" d="M3741.91 575.832 L3736.27 592.056 L3719.09 592.416 L3732.79 602.808 L3727.8 619.248 L3741.91 609.432 L3756.02 619.248 L3751.03 602.808 L3764.73 592.416 L3747.55 592.056 L3741.91 575.832 Z" fill="#ffa500" fill-rule="evenodd" fill-opacity="1" stroke="#000000" stroke-opacity="1" stroke-width="2.4"/>
<circle clip-path="url(#clip353)" cx="3793.72" cy="599.832" r="21" fill="#add8e6" fill-rule="evenodd" fill-opacity="1" stroke="#000000" stroke-opacity="1" stroke-width="2.4"/>
<circle clip-path="url(#clip353)" cx="3845.52" cy="599.832" r="21" fill="#add8e6" fill-rule="evenodd" fill-opacity="1" stroke="#000000" stroke-opacity="1" stroke-width="2.4"/>
<path clip-path="url(#clip350)" d="
M163.756 1109.46 L3952.76 1109.46 L3952.76 890.208 L163.756 890.208  Z
  " fill="#ffffff" fill-rule="evenodd" fill-opacity="1"/>
<defs>
  <clipPath id="clip354">
    <rect x="163" y="890" width="3790" height="220"/>
  </clipPath>
</defs>
<path clip-path="url(#clip350)" d="M 0 0 M1971.89 816.755 L1971.89 825.383 Q1967.76 821.535 1963.06 819.631 Q1958.4 817.727 1953.13 817.727 Q1942.76 817.727 1937.26 824.087 Q1931.75 830.406 1931.75 842.397 Q1931.75 854.347 1937.26 860.707 Q1942.76 867.026 1953.13 867.026 Q1958.4 867.026 1963.06 865.122 Q1967.76 863.218 1971.89 859.37 L1971.89 867.917 Q1967.6 870.834 1962.78 872.292 Q1958 873.751 1952.65 873.751 Q1938.92 873.751 1931.02 865.365 Q1923.12 856.94 1923.12 842.397 Q1923.12 827.814 1931.02 819.428 Q1938.92 811.002 1952.65 811.002 Q1958.08 811.002 1962.86 812.461 Q1967.68 813.878 1971.89 816.755 Z" fill="#000000" fill-rule="evenodd" fill-opacity="1" /><path clip-path="url(#clip350)" d="M 0 0 M1998.59 876.789 Q1995.43 884.891 1992.43 887.362 Q1989.43 889.833 1984.41 889.833 L1978.45 889.833 L1978.45 883.594 L1982.83 883.594 Q1985.91 883.594 1987.61 882.136 Q1989.31 880.678 1991.38 875.25 L1992.71 871.847 L1974.36 827.206 L1982.26 827.206 L1996.44 862.692 L2010.62 827.206 L2018.52 827.206 L1998.59 876.789 Z" fill="#000000" fill-rule="evenodd" fill-opacity="1" /><path clip-path="url(#clip350)" d="M 0 0 M2058.98 828.948 L2058.98 835.915 Q2055.83 834.173 2052.63 833.323 Q2049.47 832.432 2046.22 832.432 Q2038.97 832.432 2034.96 837.05 Q2030.95 841.627 2030.95 849.931 Q2030.95 858.236 2034.96 862.854 Q2038.97 867.431 2046.22 867.431 Q2049.47 867.431 2052.63 866.581 Q2055.83 865.689 2058.98 863.948 L2058.98 870.834 Q2055.87 872.292 2052.5 873.022 Q2049.18 873.751 2045.41 873.751 Q2035.17 873.751 2029.13 867.31 Q2023.09 860.869 2023.09 849.931 Q2023.09 838.832 2029.17 832.472 Q2035.29 826.112 2045.9 826.112 Q2049.34 826.112 2052.63 826.841 Q2055.91 827.53 2058.98 828.948 Z" fill="#000000" fill-rule="evenodd" fill-opacity="1" /><path clip-path="url(#clip350)" d="M 0 0 M2066.8 809.544 L2074.26 809.544 L2074.26 872.576 L2066.8 872.576 L2066.8 809.544 Z" fill="#000000" fill-rule="evenodd" fill-opacity="1" /><path clip-path="url(#clip350)" d="M 0 0 M2120.88 848.028 L2120.88 851.673 L2086.61 851.673 Q2087.1 859.37 2091.23 863.421 Q2095.4 867.431 2102.82 867.431 Q2107.11 867.431 2111.12 866.378 Q2115.17 865.325 2119.14 863.218 L2119.14 870.267 Q2115.13 871.968 2110.92 872.86 Q2106.7 873.751 2102.37 873.751 Q2091.51 873.751 2085.15 867.431 Q2078.83 861.112 2078.83 850.337 Q2078.83 839.197 2084.83 832.675 Q2090.87 826.112 2101.07 826.112 Q2110.23 826.112 2115.54 832.026 Q2120.88 837.9 2120.88 848.028 M2113.43 845.84 Q2113.35 839.723 2109.99 836.077 Q2106.66 832.432 2101.15 832.432 Q2094.92 832.432 2091.15 835.956 Q2087.42 839.48 2086.86 845.881 L2113.43 845.84 Z" fill="#000000" fill-rule="evenodd" fill-opacity="1" /><path clip-path="url(#clip350)" d="M 0 0 M2180.92 839.966 Q2186.79 841.222 2190.07 845.192 Q2193.39 849.162 2193.39 854.995 Q2193.39 863.948 2187.24 868.849 Q2181.08 873.751 2169.74 873.751 Q2165.93 873.751 2161.88 872.981 Q2157.87 872.252 2153.57 870.753 L2153.57 862.854 Q2156.98 864.839 2161.03 865.851 Q2165.08 866.864 2169.49 866.864 Q2177.19 866.864 2181.2 863.826 Q2185.25 860.788 2185.25 854.995 Q2185.25 849.648 2181.48 846.65 Q2177.76 843.612 2171.07 843.612 L2164.02 843.612 L2164.02 836.888 L2171.4 836.888 Q2177.43 836.888 2180.63 834.498 Q2183.83 832.067 2183.83 827.53 Q2183.83 822.871 2180.51 820.4 Q2177.23 817.889 2171.07 817.889 Q2167.71 817.889 2163.86 818.618 Q2160.01 819.347 2155.4 820.886 L2155.4 813.595 Q2160.06 812.299 2164.11 811.65 Q2168.2 811.002 2171.8 811.002 Q2181.12 811.002 2186.55 815.256 Q2191.98 819.469 2191.98 826.679 Q2191.98 831.702 2189.1 835.186 Q2186.22 838.629 2180.92 839.966 Z" fill="#000000" fill-rule="evenodd" fill-opacity="1" /><circle clip-path="url(#clip354)" cx="270.992" cy="999.832" r="21" fill="#add8e6" fill-rule="evenodd" fill-opacity="1" stroke="#000000" stroke-opacity="1" stroke-width="2.4"/>
<circle clip-path="url(#clip354)" cx="322.796" cy="999.832" r="21" fill="#add8e6" fill-rule="evenodd" fill-opacity="1" stroke="#000000" stroke-opacity="1" stroke-width="2.4"/>
<circle clip-path="url(#clip354)" cx="374.601" cy="999.832" r="21" fill="#add8e6" fill-rule="evenodd" fill-opacity="1" stroke="#000000" stroke-opacity="1" stroke-width="2.4"/>
<circle clip-path="url(#clip354)" cx="426.406" cy="999.832" r="21" fill="#add8e6" fill-rule="evenodd" fill-opacity="1" stroke="#000000" stroke-opacity="1" stroke-width="2.4"/>
<circle clip-path="url(#clip354)" cx="478.211" cy="999.832" r="21" fill="#add8e6" fill-rule="evenodd" fill-opacity="1" stroke="#000000" stroke-opacity="1" stroke-width="2.4"/>
<circle clip-path="url(#clip354)" cx="530.015" cy="999.832" r="21" fill="#add8e6" fill-rule="evenodd" fill-opacity="1" stroke="#000000" stroke-opacity="1" stroke-width="2.4"/>
<circle clip-path="url(#clip354)" cx="581.82" cy="999.832" r="21" fill="#add8e6" fill-rule="evenodd" fill-opacity="1" stroke="#000000" stroke-opacity="1" stroke-width="2.4"/>
<circle clip-path="url(#clip354)" cx="633.625" cy="999.832" r="21" fill="#add8e6" fill-rule="evenodd" fill-opacity="1" stroke="#000000" stroke-opacity="1" stroke-width="2.4"/>
<circle clip-path="url(#clip354)" cx="685.43" cy="999.832" r="21" fill="#add8e6" fill-rule="evenodd" fill-opacity="1" stroke="#000000" stroke-opacity="1" stroke-width="2.4"/>
<circle clip-path="url(#clip354)" cx="737.234" cy="999.832" r="21" fill="#add8e6" fill-rule="evenodd" fill-opacity="1" stroke="#000000" stroke-opacity="1" stroke-width="2.4"/>
<circle clip-path="url(#clip354)" cx="789.039" cy="999.832" r="21" fill="#add8e6" fill-rule="evenodd" fill-opacity="1" stroke="#000000" stroke-opacity="1" stroke-width="2.4"/>
<circle clip-path="url(#clip354)" cx="840.844" cy="999.832" r="21" fill="#add8e6" fill-rule="evenodd" fill-opacity="1" stroke="#000000" stroke-opacity="1" stroke-width="2.4"/>
<path clip-path="url(#clip354)" d="M892.649 975.832 L887.009 992.056 L869.825 992.416 L883.529 1002.81 L878.537 1019.25 L892.649 1009.43 L906.761 1019.25 L901.769 1002.81 L915.473 992.416 L898.289 992.056 L892.649 975.832 Z" fill="#add8e6" fill-rule="evenodd" fill-opacity="1" stroke="#000000" stroke-opacity="1" stroke-width="2.4"/>
<path clip-path="url(#clip354)" d="M944.453 975.832 L938.813 992.056 L921.629 992.416 L935.333 1002.81 L930.341 1019.25 L944.453 1009.43 L958.565 1019.25 L953.573 1002.81 L967.277 992.416 L950.093 992.056 L944.453 975.832 Z" fill="#add8e6" fill-rule="evenodd" fill-opacity="1" stroke="#000000" stroke-opacity="1" stroke-width="2.4"/>
<path clip-path="url(#clip354)" d="M996.258 975.832 L990.618 992.056 L973.434 992.416 L987.138 1002.81 L982.146 1019.25 L996.258 1009.43 L1010.37 1019.25 L1005.38 1002.81 L1019.08 992.416 L1001.9 992.056 L996.258 975.832 Z" fill="#add8e6" fill-rule="evenodd" fill-opacity="1" stroke="#000000" stroke-opacity="1" stroke-width="2.4"/>
<path clip-path="url(#clip354)" d="M1048.06 975.832 L1042.42 992.056 L1025.24 992.416 L1038.94 1002.81 L1033.95 1019.25 L1048.06 1009.43 L1062.17 1019.25 L1057.18 1002.81 L1070.89 992.416 L1053.7 992.056 L1048.06 975.832 Z" fill="#add8e6" fill-rule="evenodd" fill-opacity="1" stroke="#000000" stroke-opacity="1" stroke-width="2.4"/>
<path clip-path="url(#clip354)" d="M1099.87 975.832 L1094.23 992.056 L1077.04 992.416 L1090.75 1002.81 L1085.76 1019.25 L1099.87 1009.43 L1113.98 1019.25 L1108.99 1002.81 L1122.69 992.416 L1105.51 992.056 L1099.87 975.832 Z" fill="#add8e6" fill-rule="evenodd" fill-opacity="1" stroke="#000000" stroke-opacity="1" stroke-width="2.4"/>
<path clip-path="url(#clip354)" d="M1151.67 975.832 L1146.03 992.056 L1128.85 992.416 L1142.55 1002.81 L1137.56 1019.25 L1151.67 1009.43 L1165.78 1019.25 L1160.79 1002.81 L1174.5 992.416 L1157.31 992.056 L1151.67 975.832 Z" fill="#add8e6" fill-rule="evenodd" fill-opacity="1" stroke="#000000" stroke-opacity="1" stroke-width="2.4"/>
<path clip-path="url(#clip354)" d="M1203.48 975.832 L1197.84 992.056 L1180.65 992.416 L1194.36 1002.81 L1189.37 1019.25 L1203.48 1009.43 L1217.59 1019.25 L1212.6 1002.81 L1226.3 992.416 L1209.12 992.056 L1203.48 975.832 Z" fill="#add8e6" fill-rule="evenodd" fill-opacity="1" stroke="#000000" stroke-opacity="1" stroke-width="2.4"/>
<path clip-path="url(#clip354)" d="M1255.28 975.832 L1249.64 992.056 L1232.46 992.416 L1246.16 1002.81 L1241.17 1019.25 L1255.28 1009.43 L1269.39 1019.25 L1264.4 1002.81 L1278.11 992.416 L1260.92 992.056 L1255.28 975.832 Z" fill="#add8e6" fill-rule="evenodd" fill-opacity="1" stroke="#000000" stroke-opacity="1" stroke-width="2.4"/>
<path clip-path="url(#clip354)" d="M1307.09 975.832 L1301.45 992.056 L1284.26 992.416 L1297.97 1002.81 L1292.97 1019.25 L1307.09 1009.43 L1321.2 1019.25 L1316.21 1002.81 L1329.91 992.416 L1312.73 992.056 L1307.09 975.832 Z" fill="#add8e6" fill-rule="evenodd" fill-opacity="1" stroke="#000000" stroke-opacity="1" stroke-width="2.4"/>
<path clip-path="url(#clip354)" d="M1358.89 975.832 L1353.25 992.056 L1336.07 992.416 L1349.77 1002.81 L1344.78 1019.25 L1358.89 1009.43 L1373 1019.25 L1368.01 1002.81 L1381.72 992.416 L1364.53 992.056 L1358.89 975.832 Z" fill="#add8e6" fill-rule="evenodd" fill-opacity="1" stroke="#000000" stroke-opacity="1" stroke-width="2.4"/>
<circle clip-path="url(#clip354)" cx="1410.7" cy="999.832" r="21" fill="#add8e6" fill-rule="evenodd" fill-opacity="1" stroke="#000000" stroke-opacity="1" stroke-width="2.4"/>
<circle clip-path="url(#clip354)" cx="1462.5" cy="999.832" r="21" fill="#add8e6" fill-rule="evenodd" fill-opacity="1" stroke="#000000" stroke-opacity="1" stroke-width="2.4"/>
<circle clip-path="url(#clip354)" cx="1514.31" cy="999.832" r="21" fill="#add8e6" fill-rule="evenodd" fill-opacity="1" stroke="#000000" stroke-opacity="1" stroke-width="2.4"/>
<circle clip-path="url(#clip354)" cx="1566.11" cy="999.832" r="21" fill="#add8e6" fill-rule="evenodd" fill-opacity="1" stroke="#000000" stroke-opacity="1" stroke-width="2.4"/>
<circle clip-path="url(#clip354)" cx="1617.92" cy="999.832" r="21" fill="#add8e6" fill-rule="evenodd" fill-opacity="1" stroke="#000000" stroke-opacity="1" stroke-width="2.4"/>
<circle clip-path="url(#clip354)" cx="1669.72" cy="999.832" r="21" fill="#add8e6" fill-rule="evenodd" fill-opacity="1" stroke="#000000" stroke-opacity="1" stroke-width="2.4"/>
<circle clip-path="url(#clip354)" cx="1721.52" cy="999.832" r="21" fill="#add8e6" fill-rule="evenodd" fill-opacity="1" stroke="#000000" stroke-opacity="1" stroke-width="2.4"/>
<path clip-path="url(#clip354)" d="M1773.33 975.832 L1767.69 992.056 L1750.51 992.416 L1764.21 1002.81 L1759.22 1019.25 L1773.33 1009.43 L1787.44 1019.25 L1782.45 1002.81 L1796.15 992.416 L1778.97 992.056 L1773.33 975.832 Z" fill="#add8e6" fill-rule="evenodd" fill-opacity="1" stroke="#000000" stroke-opacity="1" stroke-width="2.4"/>
<path clip-path="url(#clip354)" d="M1825.13 975.832 L1819.49 992.056 L1802.31 992.416 L1816.01 1002.81 L1811.02 1019.25 L1825.13 1009.43 L1839.25 1019.25 L1834.25 1002.81 L1847.96 992.416 L1830.77 992.056 L1825.13 975.832 Z" fill="#add8e6" fill-rule="evenodd" fill-opacity="1" stroke="#000000" stroke-opacity="1" stroke-width="2.4"/>
<path clip-path="url(#clip354)" d="M1876.94 975.832 L1871.3 992.056 L1854.12 992.416 L1867.82 1002.81 L1862.83 1019.25 L1876.94 1009.43 L1891.05 1019.25 L1886.06 1002.81 L1899.76 992.416 L1882.58 992.056 L1876.94 975.832 Z" fill="#add8e6" fill-rule="evenodd" fill-opacity="1" stroke="#000000" stroke-opacity="1" stroke-width="2.4"/>
<path clip-path="url(#clip354)" d="M1928.74 975.832 L1923.1 992.056 L1905.92 992.416 L1919.62 1002.81 L1914.63 1019.25 L1928.74 1009.43 L1942.86 1019.25 L1937.86 1002.81 L1951.57 992.416 L1934.38 992.056 L1928.74 975.832 Z" fill="#add8e6" fill-rule="evenodd" fill-opacity="1" stroke="#000000" stroke-opacity="1" stroke-width="2.4"/>
<path clip-path="url(#clip354)" d="M1980.55 975.832 L1974.91 992.056 L1957.72 992.416 L1971.43 1002.81 L1966.44 1019.25 L1980.55 1009.43 L1994.66 1019.25 L1989.67 1002.81 L2003.37 992.416 L1986.19 992.056 L1980.55 975.832 Z" fill="#add8e6" fill-rule="evenodd" fill-opacity="1" stroke="#000000" stroke-opacity="1" stroke-width="2.4"/>
<path clip-path="url(#clip354)" d="M2032.35 975.832 L2026.71 992.056 L2009.53 992.416 L2023.23 1002.81 L2018.24 1019.25 L2032.35 1009.43 L2046.47 1019.25 L2041.47 1002.81 L2055.18 992.416 L2037.99 992.056 L2032.35 975.832 Z" fill="#add8e6" fill-rule="evenodd" fill-opacity="1" stroke="#000000" stroke-opacity="1" stroke-width="2.4"/>
<path clip-path="url(#clip354)" d="M2084.16 975.832 L2078.52 992.056 L2061.33 992.416 L2075.04 1002.81 L2070.05 1019.25 L2084.16 1009.43 L2098.27 1019.25 L2093.28 1002.81 L2106.98 992.416 L2089.8 992.056 L2084.16 975.832 Z" fill="#add8e6" fill-rule="evenodd" fill-opacity="1" stroke="#000000" stroke-opacity="1" stroke-width="2.4"/>
<path clip-path="url(#clip354)" d="M2135.96 975.832 L2130.32 992.056 L2113.14 992.416 L2126.84 1002.81 L2121.85 1019.25 L2135.96 1009.43 L2150.07 1019.25 L2145.08 1002.81 L2158.79 992.416 L2141.6 992.056 L2135.96 975.832 Z" fill="#add8e6" fill-rule="evenodd" fill-opacity="1" stroke="#000000" stroke-opacity="1" stroke-width="2.4"/>
<path clip-path="url(#clip354)" d="M2187.77 975.832 L2182.13 992.056 L2164.94 992.416 L2178.65 1002.81 L2173.66 1019.25 L2187.77 1009.43 L2201.88 1019.25 L2196.89 1002.81 L2210.59 992.416 L2193.41 992.056 L2187.77 975.832 Z" fill="#add8e6" fill-rule="evenodd" fill-opacity="1" stroke="#000000" stroke-opacity="1" stroke-width="2.4"/>
<path clip-path="url(#clip354)" d="M2239.57 975.832 L2233.93 992.056 L2216.75 992.416 L2230.45 1002.81 L2225.46 1019.25 L2239.57 1009.43 L2253.68 1019.25 L2248.69 1002.81 L2262.4 992.416 L2245.21 992.056 L2239.57 975.832 Z" fill="#add8e6" fill-rule="evenodd" fill-opacity="1" stroke="#000000" stroke-opacity="1" stroke-width="2.4"/>
<circle clip-path="url(#clip354)" cx="2291.38" cy="999.832" r="21" fill="#add8e6" fill-rule="evenodd" fill-opacity="1" stroke="#000000" stroke-opacity="1" stroke-width="2.4"/>
<circle clip-path="url(#clip354)" cx="2343.18" cy="999.832" r="21" fill="#add8e6" fill-rule="evenodd" fill-opacity="1" stroke="#000000" stroke-opacity="1" stroke-width="2.4"/>
<circle clip-path="url(#clip354)" cx="2394.99" cy="999.832" r="21" fill="#add8e6" fill-rule="evenodd" fill-opacity="1" stroke="#000000" stroke-opacity="1" stroke-width="2.4"/>
<circle clip-path="url(#clip354)" cx="2446.79" cy="999.832" r="21" fill="#add8e6" fill-rule="evenodd" fill-opacity="1" stroke="#000000" stroke-opacity="1" stroke-width="2.4"/>
<circle clip-path="url(#clip354)" cx="2498.6" cy="999.832" r="21" fill="#add8e6" fill-rule="evenodd" fill-opacity="1" stroke="#000000" stroke-opacity="1" stroke-width="2.4"/>
<circle clip-path="url(#clip354)" cx="2550.4" cy="999.832" r="21" fill="#add8e6" fill-rule="evenodd" fill-opacity="1" stroke="#000000" stroke-opacity="1" stroke-width="2.4"/>
<circle clip-path="url(#clip354)" cx="2602.21" cy="999.832" r="21" fill="#add8e6" fill-rule="evenodd" fill-opacity="1" stroke="#000000" stroke-opacity="1" stroke-width="2.4"/>
<circle clip-path="url(#clip354)" cx="2654.01" cy="999.832" r="21" fill="#add8e6" fill-rule="evenodd" fill-opacity="1" stroke="#000000" stroke-opacity="1" stroke-width="2.4"/>
<circle clip-path="url(#clip354)" cx="2705.82" cy="999.832" r="21" fill="#add8e6" fill-rule="evenodd" fill-opacity="1" stroke="#000000" stroke-opacity="1" stroke-width="2.4"/>
<circle clip-path="url(#clip354)" cx="2757.62" cy="999.832" r="21" fill="#add8e6" fill-rule="evenodd" fill-opacity="1" stroke="#000000" stroke-opacity="1" stroke-width="2.4"/>
<path clip-path="url(#clip354)" d="M2809.42 975.832 L2803.78 992.056 L2786.6 992.416 L2800.3 1002.81 L2795.31 1019.25 L2809.42 1009.43 L2823.54 1019.25 L2818.54 1002.81 L2832.25 992.416 L2815.06 992.056 L2809.42 975.832 Z" fill="#add8e6" fill-rule="evenodd" fill-opacity="1" stroke="#000000" stroke-opacity="1" stroke-width="2.4"/>
<path clip-path="url(#clip354)" d="M2861.23 975.832 L2855.59 992.056 L2838.41 992.416 L2852.11 1002.81 L2847.12 1019.25 L2861.23 1009.43 L2875.34 1019.25 L2870.35 1002.81 L2884.05 992.416 L2866.87 992.056 L2861.23 975.832 Z" fill="#add8e6" fill-rule="evenodd" fill-opacity="1" stroke="#000000" stroke-opacity="1" stroke-width="2.4"/>
<path clip-path="url(#clip354)" d="M2913.03 975.832 L2907.39 992.056 L2890.21 992.416 L2903.91 1002.81 L2898.92 1019.25 L2913.03 1009.43 L2927.15 1019.25 L2922.15 1002.81 L2935.86 992.416 L2918.67 992.056 L2913.03 975.832 Z" fill="#add8e6" fill-rule="evenodd" fill-opacity="1" stroke="#000000" stroke-opacity="1" stroke-width="2.4"/>
<path clip-path="url(#clip354)" d="M2964.84 975.832 L2959.2 992.056 L2942.02 992.416 L2955.72 1002.81 L2950.73 1019.25 L2964.84 1009.43 L2978.95 1019.25 L2973.96 1002.81 L2987.66 992.416 L2970.48 992.056 L2964.84 975.832 Z" fill="#add8e6" fill-rule="evenodd" fill-opacity="1" stroke="#000000" stroke-opacity="1" stroke-width="2.4"/>
<path clip-path="url(#clip354)" d="M3016.64 975.832 L3011 992.056 L2993.82 992.416 L3007.52 1002.81 L3002.53 1019.25 L3016.64 1009.43 L3030.76 1019.25 L3025.76 1002.81 L3039.47 992.416 L3022.28 992.056 L3016.64 975.832 Z" fill="#add8e6" fill-rule="evenodd" fill-opacity="1" stroke="#000000" stroke-opacity="1" stroke-width="2.4"/>
<path clip-path="url(#clip354)" d="M3068.45 975.832 L3062.81 992.056 L3045.62 992.416 L3059.33 1002.81 L3054.34 1019.25 L3068.45 1009.43 L3082.56 1019.25 L3077.57 1002.81 L3091.27 992.416 L3074.09 992.056 L3068.45 975.832 Z" fill="#add8e6" fill-rule="evenodd" fill-opacity="1" stroke="#000000" stroke-opacity="1" stroke-width="2.4"/>
<path clip-path="url(#clip354)" d="M3120.25 975.832 L3114.61 992.056 L3097.43 992.416 L3111.13 1002.81 L3106.14 1019.25 L3120.25 1009.43 L3134.37 1019.25 L3129.37 1002.81 L3143.08 992.416 L3125.89 992.056 L3120.25 975.832 Z" fill="#add8e6" fill-rule="evenodd" fill-opacity="1" stroke="#000000" stroke-opacity="1" stroke-width="2.4"/>
<path clip-path="url(#clip354)" d="M3172.06 975.832 L3166.42 992.056 L3149.23 992.416 L3162.94 1002.81 L3157.95 1019.25 L3172.06 1009.43 L3186.17 1019.25 L3181.18 1002.81 L3194.88 992.416 L3177.7 992.056 L3172.06 975.832 Z" fill="#add8e6" fill-rule="evenodd" fill-opacity="1" stroke="#000000" stroke-opacity="1" stroke-width="2.4"/>
<path clip-path="url(#clip354)" d="M3223.86 975.832 L3218.22 992.056 L3201.04 992.416 L3214.74 1002.81 L3209.75 1019.25 L3223.86 1009.43 L3237.97 1019.25 L3232.98 1002.81 L3246.69 992.416 L3229.5 992.056 L3223.86 975.832 Z" fill="#add8e6" fill-rule="evenodd" fill-opacity="1" stroke="#000000" stroke-opacity="1" stroke-width="2.4"/>
<path clip-path="url(#clip354)" d="M3275.67 975.832 L3270.03 992.056 L3252.84 992.416 L3266.55 1002.81 L3261.56 1019.25 L3275.67 1009.43 L3289.78 1019.25 L3284.79 1002.81 L3298.49 992.416 L3281.31 992.056 L3275.67 975.832 Z" fill="#add8e6" fill-rule="evenodd" fill-opacity="1" stroke="#000000" stroke-opacity="1" stroke-width="2.4"/>
<path clip-path="url(#clip354)" d="M3327.47 975.832 L3321.83 992.056 L3304.65 992.416 L3318.35 1002.81 L3313.36 1019.25 L3327.47 1009.43 L3341.58 1019.25 L3336.59 1002.81 L3350.3 992.416 L3333.11 992.056 L3327.47 975.832 Z" fill="#add8e6" fill-rule="evenodd" fill-opacity="1" stroke="#000000" stroke-opacity="1" stroke-width="2.4"/>
<path clip-path="url(#clip354)" d="M3379.28 975.832 L3373.64 992.056 L3356.45 992.416 L3370.16 1002.81 L3365.17 1019.25 L3379.28 1009.43 L3393.39 1019.25 L3388.4 1002.81 L3402.1 992.416 L3384.92 992.056 L3379.28 975.832 Z" fill="#add8e6" fill-rule="evenodd" fill-opacity="1" stroke="#000000" stroke-opacity="1" stroke-width="2.4"/>
<path clip-path="url(#clip354)" d="M3431.08 975.832 L3425.44 992.056 L3408.26 992.416 L3421.96 1002.81 L3416.97 1019.25 L3431.08 1009.43 L3445.19 1019.25 L3440.2 1002.81 L3453.91 992.416 L3436.72 992.056 L3431.08 975.832 Z" fill="#add8e6" fill-rule="evenodd" fill-opacity="1" stroke="#000000" stroke-opacity="1" stroke-width="2.4"/>
<path clip-path="url(#clip354)" d="M3482.89 975.832 L3477.25 992.056 L3460.06 992.416 L3473.77 1002.81 L3468.77 1019.25 L3482.89 1009.43 L3497 1019.25 L3492.01 1002.81 L3505.71 992.416 L3488.53 992.056 L3482.89 975.832 Z" fill="#add8e6" fill-rule="evenodd" fill-opacity="1" stroke="#000000" stroke-opacity="1" stroke-width="2.4"/>
<path clip-path="url(#clip354)" d="M3534.69 975.832 L3529.05 992.056 L3511.87 992.416 L3525.57 1002.81 L3520.58 1019.25 L3534.69 1009.43 L3548.8 1019.25 L3543.81 1002.81 L3557.52 992.416 L3540.33 992.056 L3534.69 975.832 Z" fill="#add8e6" fill-rule="evenodd" fill-opacity="1" stroke="#000000" stroke-opacity="1" stroke-width="2.4"/>
<circle clip-path="url(#clip354)" cx="3586.5" cy="999.832" r="21" fill="#add8e6" fill-rule="evenodd" fill-opacity="1" stroke="#000000" stroke-opacity="1" stroke-width="2.4"/>
<circle clip-path="url(#clip354)" cx="3638.3" cy="999.832" r="21" fill="#add8e6" fill-rule="evenodd" fill-opacity="1" stroke="#000000" stroke-opacity="1" stroke-width="2.4"/>
<circle clip-path="url(#clip354)" cx="3690.11" cy="999.832" r="21" fill="#add8e6" fill-rule="evenodd" fill-opacity="1" stroke="#000000" stroke-opacity="1" stroke-width="2.4"/>
<circle clip-path="url(#clip354)" cx="3741.91" cy="999.832" r="21" fill="#add8e6" fill-rule="evenodd" fill-opacity="1" stroke="#000000" stroke-opacity="1" stroke-width="2.4"/>
<circle clip-path="url(#clip354)" cx="3793.72" cy="999.832" r="21" fill="#add8e6" fill-rule="evenodd" fill-opacity="1" stroke="#000000" stroke-opacity="1" stroke-width="2.4"/>
<circle clip-path="url(#clip354)" cx="3845.52" cy="999.832" r="21" fill="#add8e6" fill-rule="evenodd" fill-opacity="1" stroke="#000000" stroke-opacity="1" stroke-width="2.4"/>
</svg>
