<?xml version="1.0" standalone="no"?>
<!DOCTYPE svg PUBLIC "-//W3C//DTD SVG 20010904//EN"
 "http://www.w3.org/TR/2001/REC-SVG-20010904/DTD/svg10.dtd">
<svg version="1.0" xmlns="http://www.w3.org/2000/svg"
 width="672.000000pt" height="672.000000pt" viewBox="0 0 672.000000 672.000000"
 preserveAspectRatio="xMidYMid meet">
<metadata>
Created by potrace 1.11, written by Peter Selinger 2001-2013
</metadata>
<g transform="translate(0.000000,672.000000) scale(0.100000,-0.100000)"
fill="#000000" stroke="none">
<path d="M5767 6534 c-2 -2 -203 -8 -657 -19 -74 -2 -241 -6 -370 -10 -129 -3
-311 -8 -405 -10 -93 -3 -262 -7 -375 -10 -364 -10 -561 -15 -765 -20 -397
-10 -680 -17 -1170 -31 -115 -3 -265 -7 -332 -8 l-122 -2 -111 -145 c-61 -79
-116 -151 -123 -159 -7 -9 -32 -42 -56 -75 -25 -33 -47 -62 -50 -65 -4 -3 -26
-32 -51 -65 -24 -33 -49 -65 -55 -72 -13 -16 -22 -27 -75 -98 -25 -33 -49 -65
-55 -72 -23 -28 -32 -40 -64 -85 -19 -27 -38 -48 -43 -48 -4 0 -8 -7 -8 -15 0
-9 -6 -18 -14 -21 -11 -4 -10 -12 5 -42 11 -20 19 -43 19 -51 0 -9 9 -45 20
-81 20 -64 94 -331 115 -410 2 -8 4 -15 5 -15 1 0 3 -7 5 -15 2 -8 6 -25 9
-37 3 -13 8 -32 10 -43 3 -11 7 -24 10 -28 3 -5 7 -19 10 -33 4 -20 17 -68 51
-189 35 -125 96 -343 104 -368 5 -18 11 -36 12 -40 1 -4 3 -11 5 -17 15 -51
67 -245 70 -265 3 -14 9 -36 14 -50 9 -25 32 -111 32 -120 0 -3 4 -12 8 -20 4
-8 11 -33 14 -54 4 -22 11 -45 17 -52 5 -6 9 -16 8 -20 -1 -5 0 -12 1 -16 1
-5 4 -12 5 -18 1 -5 3 -11 5 -12 1 -2 3 -10 5 -19 1 -10 20 -77 40 -150 21
-74 41 -147 45 -164 5 -16 31 -111 60 -210 28 -99 53 -189 55 -200 2 -11 22
-85 45 -165 23 -80 42 -149 44 -155 1 -5 9 -35 18 -65 32 -112 110 -394 113
-412 2 -10 9 -33 15 -51 6 -18 21 -70 34 -117 13 -47 28 -85 34 -85 6 0 106
93 224 207 117 113 258 250 313 303 55 53 153 148 219 211 l119 115 -22 72
c-12 40 -24 80 -26 90 -2 10 -15 55 -30 100 -14 45 -27 91 -30 102 -2 11 -16
58 -30 105 -33 105 -76 252 -80 265 -1 6 -5 17 -8 25 -7 17 -49 159 -53 175
-2 13 -35 124 -42 145 -8 22 -10 31 -22 75 -13 49 -15 56 -23 75 -3 8 -22 69
-41 135 -42 148 -114 390 -126 430 -6 17 -22 71 -36 120 -14 50 -28 97 -31
105 -3 8 -7 20 -8 25 -3 10 -29 99 -87 290 -16 55 -32 109 -35 120 -2 11 -6
25 -8 30 -1 6 -3 13 -4 17 -1 4 -9 27 -17 50 -9 24 -17 50 -19 59 -4 19 -9 36
-59 203 -20 66 -33 122 -30 125 3 3 76 6 162 7 86 1 436 5 777 9 341 3 788 8
993 10 205 1 376 5 379 9 3 3 13 1 23 -4 10 -5 20 -7 23 -4 3 3 205 7 448 10
l444 4 18 22 c17 23 327 490 327 495 0 2 244 372 291 441 24 36 26 42 11 43
-9 0 -27 2 -40 3 -12 2 -23 2 -25 0z"/>
<path d="M4580 5169 c-96 -88 -247 -226 -300 -276 -30 -28 -65 -60 -76 -70
-12 -10 -72 -65 -134 -123 -63 -58 -143 -132 -179 -165 -171 -158 -159 -144
-148 -184 5 -20 12 -43 15 -51 8 -23 8 -22 17 -65 4 -22 12 -48 16 -57 5 -10
11 -30 13 -45 3 -15 23 -95 46 -178 67 -244 109 -398 116 -427 2 -10 6 -26 8
-35 2 -10 9 -31 16 -48 6 -16 11 -32 11 -35 -1 -13 39 -165 60 -227 5 -18 12
-40 13 -50 2 -10 29 -112 61 -228 31 -115 58 -218 60 -228 2 -9 6 -21 9 -25 3
-5 7 -19 10 -33 2 -13 14 -60 26 -104 12 -44 26 -96 31 -115 6 -19 12 -48 15
-65 3 -16 11 -36 16 -42 6 -7 8 -13 5 -13 -3 0 1 -21 9 -47 8 -27 16 -55 18
-63 1 -8 8 -35 15 -60 7 -25 15 -52 16 -60 2 -8 4 -15 5 -15 1 0 3 -10 6 -22
2 -13 18 -73 35 -135 17 -62 33 -120 34 -128 2 -8 4 -15 5 -15 1 0 3 -7 5 -15
2 -8 11 -42 20 -74 8 -33 17 -67 19 -75 2 -9 5 -23 8 -31 15 -42 29 -103 24
-107 -3 -3 -96 -4 -208 -3 -112 1 -352 3 -534 5 -182 1 -336 5 -342 9 -6 3
-13 2 -17 -4 -4 -6 -11 -8 -16 -4 -5 3 -206 7 -447 9 -240 2 -671 7 -957 10
-286 3 -554 6 -595 6 -152 1 -141 5 -180 -56 -19 -30 -38 -54 -42 -55 -5 0 -8
-7 -8 -15 0 -8 -4 -15 -10 -15 -5 0 -10 -6 -10 -14 0 -8 -4 -16 -8 -18 -4 -1
-42 -52 -82 -113 -41 -60 -79 -114 -83 -120 -5 -5 -35 -48 -67 -95 -32 -47
-63 -89 -67 -95 -5 -5 -24 -34 -42 -63 -19 -30 -39 -59 -45 -66 -14 -14 -176
-253 -176 -258 0 -3 1357 0 1485 3 6 0 24 0 40 0 17 -1 39 -1 50 -1 11 0 42 0
68 0 27 0 53 2 58 5 5 4 9 2 9 -4 0 -6 11 -7 28 -3 15 4 61 6 102 5 73 -3 95
-3 213 0 33 1 61 -1 64 -6 2 -4 9 -4 15 -1 6 4 491 9 1077 11 1030 3 1067 4
1081 22 107 135 496 617 500 621 3 3 19 23 35 45 17 22 33 42 37 45 4 3 38 45
76 93 l69 88 -50 192 c-27 105 -50 199 -52 207 -1 8 -5 22 -7 30 -5 12 -55
213 -83 330 -2 8 -9 35 -15 60 -6 25 -15 61 -20 80 -5 19 -18 73 -30 120 -12
47 -25 101 -29 120 -5 19 -14 55 -21 80 -6 25 -14 53 -16 62 -2 10 -7 28 -10
41 -6 24 -18 70 -33 132 -5 22 -15 58 -20 80 -6 22 -15 58 -20 80 -5 22 -17
67 -26 100 -9 33 -18 67 -20 75 -2 8 -8 35 -15 60 -6 25 -13 61 -17 80 -3 19
-9 42 -14 51 -4 9 -11 30 -14 48 -3 17 -21 93 -41 169 -20 75 -37 144 -39 152
-2 8 -15 62 -30 120 -15 58 -28 112 -30 120 -2 8 -36 143 -75 300 -39 157 -73
292 -75 300 -2 8 -20 80 -40 160 -20 80 -38 152 -40 160 -24 111 -74 295 -81
297 -5 2 -29 -15 -54 -38z"/>
</g>
</svg>
